{"asset":{"version":"2.0","generator":"babylon.js glTF exporter for 3ds max 2018 v1.0.3","copyright":"2017 (c) BabylonJS"},"scene":0,"scenes":[{"nodes":[0,1]}],"nodes":[{"mesh":0,"translation":[0.0,0.0,0.0],"rotation":[0.7071068,0.0,0.0,0.7071068],"scale":[0.099999994,0.099999994,0.099999994],"name":"Car_09"},{"mesh":1,"translation":[118.138077,0.0,3.21215415],"rotation":[0.0,0.0,0.0,1.0],"scale":[1.0,1.0,1.0],"name":"Torus001"}],"meshes":[{"primitives":[{"attributes":{"POSITION":1,"NORMAL":2,"TEXCOORD_0":3},"indices":0,"mode":4,"material":0}],"name":"Car_09"},{"primitives":[{"attributes":{"POSITION":5,"NORMAL":6,"TEXCOORD_0":7},"indices":4,"mode":4,"material":1}],"name":"Torus001"}],"accessors":[{"bufferView":0,"componentType":5123,"count":972,"type":"SCALAR","name":"accessorIndices"},{"bufferView":1,"componentType":5126,"count":972,"max":[550.759033,670.1245,169.190659],"min":[-2515.63525,-646.808167,-1523.21484],"type":"VEC3","name":"accessorPositions"},{"bufferView":1,"byteOffset":11664,"componentType":5126,"count":972,"type":"VEC3","name":"accessorNormals"},{"bufferView":2,"componentType":5126,"count":972,"type":"VEC2","name":"accessorUVs"},{"bufferView":0,"byteOffset":1944,"componentType":5123,"count":1728,"type":"SCALAR","name":"accessorIndices"},{"bufferView":1,"byteOffset":23328,"componentType":5126,"count":1728,"max":[298.2458,99.24657,298.245758],"min":[-298.245758,-99.24657,-298.245758],"type":"VEC3","name":"accessorPositions"},{"bufferView":1,"byteOffset":44064,"componentType":5126,"count":1728,"type":"VEC3","name":"accessorNormals"},{"bufferView":2,"byteOffset":7776,"componentType":5126,"count":1728,"type":"VEC2","name":"accessorUVs"},{"bufferView":3,"componentType":5126,"count":101,"max":[3.33333325],"min":[0.0],"type":"SCALAR","name":"accessorAnimationInput"},{"bufferView":4,"componentType":5126,"count":101,"type":"VEC3","name":"accessorAnimationPositions"},{"bufferView":3,"byteOffset":404,"componentType":5126,"count":101,"max":[3.33333325],"min":[0.0],"type":"SCALAR","name":"accessorAnimationInput"},{"bufferView":4,"byteOffset":1212,"componentType":5126,"count":101,"type":"VEC3","name":"accessorAnimationPositions"},{"bufferView":3,"byteOffset":808,"componentType":5126,"count":101,"max":[3.33333325],"min":[0.0],"type":"SCALAR","name":"accessorAnimationInput"},{"bufferView":5,"componentType":5126,"count":101,"type":"VEC4","name":"accessorAnimationRotations"},{"bufferView":3,"byteOffset":1212,"componentType":5126,"count":101,"max":[3.33333325],"min":[0.0],"type":"SCALAR","name":"accessorAnimationInput"},{"bufferView":4,"byteOffset":2424,"componentType":5126,"count":101,"type":"VEC3","name":"accessorAnimationScales"}],"bufferViews":[{"buffer":0,"byteLength":5400,"name":"bufferViewScalar"},{"buffer":0,"byteOffset":5400,"byteLength":64800,"byteStride":12,"name":"bufferViewFloatVec3"},{"buffer":0,"byteOffset":70200,"byteLength":21600,"byteStride":8,"name":"bufferViewFloatVec2"},{"buffer":0,"byteOffset":91800,"byteLength":1616,"name":"bufferViewAnimationFloatScalar"},{"buffer":0,"byteOffset":93416,"byteLength":3636,"name":"bufferViewAnimationFloatVec3"},{"buffer":0,"byteOffset":97052,"byteLength":1616,"name":"bufferViewAnimationFloatVec4"}],"buffers":[{"uri":"car-2-anim.bin","byteLength":98668}],"materials":[{"pbrMetallicRoughness":{"baseColorFactor":[0.47385627,0.5800654,0.796568751,0.7],"metallicFactor":0.0,"roughnessFactor":0.86},"emissiveFactor":[0.0,0.0,0.0],"alphaMode":"BLEND","name":"CAR_06"},{"pbrMetallicRoughness":{"baseColorFactor":[0.4942811,0.416666746,0.1021242,0.7],"metallicFactor":0.0,"roughnessFactor":0.86},"emissiveFactor":[0.0,0.0,0.0],"alphaMode":"BLEND","name":"03 - Default"}],"animations":[{"channels":[{"sampler":0,"target":{"node":0,"path":"translation"}},{"sampler":1,"target":{"node":1,"path":"translation"}},{"sampler":2,"target":{"node":1,"path":"rotation"}},{"sampler":3,"target":{"node":1,"path":"scale"}}],"samplers":[{"input":8,"interpolation":"LINEAR","output":9},{"input":10,"interpolation":"LINEAR","output":11},{"input":12,"interpolation":"LINEAR","output":13},{"input":14,"interpolation":"LINEAR","output":15}]}]}