{
	"asset":{
		"generator":"Khronos glTF Blender I/O v3.6.27",
		"version":"2.0"
	},
	"scene":0,
	"scenes":[
		{
			"name":"Scene",
			"nodes":[
				0,
				1
			]
		}
	],
	"nodes":[
		{
			"mesh":0,
			"name":"Box001",
			"rotation":[
				0.7071068286895752,
				0,
				0,
				0.7071068286895752
			],
			"scale":[
				0.5187122821807861,
				0.5187122821807861,
				0.5187122821807861
			],
			"translation":[
				23.350568771362305,
				0,
				0.38665771484375
			]
		},
		{
			"mesh":1,
			"name":"Box002",
			"rotation":[
				0.7071068286895752,
				0,
				0,
				0.7071068286895752
			],
			"scale":[
				0.5187122821807861,
				0.5187122821807861,
				0.5187122821807861
			],
			"translation":[
				0,
				10.334188461303711,
				0.38665771484375
			]
		}
	],
	"materials":[
		{
			"doubleSided":true,
			"name":"Material",
			"pbrMetallicRoughness":{
				"baseColorFactor":[
					0.15491195023059845,
					0.8000000715255737,
					0.017154499888420105,
					1
				],
				"metallicFactor":0,
				"roughnessFactor":0.5
			}
		},
		{
			"doubleSided":true,
			"name":"m57",
			"pbrMetallicRoughness":{
				"baseColorFactor":[
					0.05049506574869156,
					0.029265211895108223,
					0.8000000715255737,
					1
				],
				"metallicFactor":0,
				"roughnessFactor":1
			}
		}
	],
	"meshes":[
		{
			"name":"Box001",
			"primitives":[
				{
					"attributes":{
						"POSITION":0,
						"NORMAL":1,
						"TEXCOORD_0":2
					},
					"indices":3,
					"material":0
				}
			]
		},
		{
			"name":"Box002",
			"primitives":[
				{
					"attributes":{
						"POSITION":4,
						"NORMAL":5,
						"TEXCOORD_0":6
					},
					"indices":3,
					"material":1
				}
			]
		}
	],
	"accessors":[
		{
			"bufferView":0,
			"componentType":5126,
			"count":20,
			"max":[
				19.20479965209961,
				19.378999710083008,
				0
			],
			"min":[
				-20.165199279785156,
				-19.991100311279297,
				-98.42520141601562
			],
			"type":"VEC3"
		},
		{
			"bufferView":1,
			"componentType":5126,
			"count":20,
			"type":"VEC3"
		},
		{
			"bufferView":2,
			"componentType":5126,
			"count":20,
			"type":"VEC2"
		},
		{
			"bufferView":3,
			"componentType":5123,
			"count":36,
			"type":"SCALAR"
		},
		{
			"bufferView":4,
			"componentType":5126,
			"count":20,
			"max":[
				15.086099624633789,
				14.116800308227539,
				-98.96540069580078
			],
			"min":[
				-13.7253999710083,
				-13.974499702453613,
				-111.45040130615234
			],
			"type":"VEC3"
		},
		{
			"bufferView":5,
			"componentType":5126,
			"count":20,
			"type":"VEC3"
		},
		{
			"bufferView":6,
			"componentType":5126,
			"count":20,
			"type":"VEC2"
		}
	],
	"bufferViews":[
		{
			"buffer":0,
			"byteLength":240,
			"byteOffset":0,
			"target":34962
		},
		{
			"buffer":0,
			"byteLength":240,
			"byteOffset":240,
			"target":34962
		},
		{
			"buffer":0,
			"byteLength":160,
			"byteOffset":480,
			"target":34962
		},
		{
			"buffer":0,
			"byteLength":72,
			"byteOffset":640,
			"target":34963
		},
		{
			"buffer":0,
			"byteLength":240,
			"byteOffset":712,
			"target":34962
		},
		{
			"buffer":0,
			"byteLength":240,
			"byteOffset":952,
			"target":34962
		},
		{
			"buffer":0,
			"byteLength":160,
			"byteOffset":1192,
			"target":34962
		}
	],
	"buffers":[
		{
			"byteLength":1352,
			"uri":"data:application/octet-stream;base64,"
		}
	]
}
