<?xml version="1.0" encoding="UTF-8" standalone="no"?>
<!-- Generator: Adobe Illustrator 26.4.1, SVG Export Plug-In . SVG Version: 6.00 Build 0)  -->

<svg
   version="1.1"
   id="Layer_1"
   x="0px"
   y="0px"
   width="1076.5px"
   height="420.3px"
   viewBox="0 0 1076.5 420.3"
   style="enable-background:new 0 0 1076.5 420.3;"
   xml:space="preserve"
   xmlns="http://www.w3.org/2000/svg"
   xmlns:svg="http://www.w3.org/2000/svg"><defs
   id="defs762" />
<style
   type="text/css"
   id="style423">
	.st0{fill:#C6C6C6;}
	.st1{fill:#898583;}
</style>
<g
   id="shops">
	<path
   class="st0"
   d="M 282.9,290.8 263,276.9 275.4,245.1 c 0.7,-1.9 2.5,-2.7 3.9,-1.7 l 14.5,9.9 c 1.5,1 2,3.4 1.3,5.3 z"
   id="path425" />
	<path
   class="st0"
   d="m 271.7,317 -19.9,0.3 c -1.8,0.1 -3,-2.5 -2.2,-4.7 l 12.9,-34.1 19.9,13.8 -8.5,22.9 c -0.5,1.1 -1.3,1.8 -2.2,1.8 z"
   id="path427" />
	<path
   class="st0"
   d="m 277.3,146.1 17.6,12.2 c 1.7,1.2 2.4,4 1.5,6.3 l -9.5,25.1 c -0.9,2.3 -3,3.3 -4.6,2.1 l -17.6,-12.2 c -1.7,-1.2 -2.4,-4 -1.5,-6.3 l 9.5,-25.1 c 0.8,-2.3 2.9,-3.2 4.6,-2.1 z"
   id="path429" />
	<path
   class="st0"
   d="m 323.7,183.5 -7.8,19.9 -20.5,-14.1 7.8,-19.9 c 1,-2.5 3.2,-3.5 5.1,-2.3 l 13.7,9.5 c 1.9,1.3 2.7,4.4 1.7,6.9 z"
   id="path431" />
	<path
   class="st0"
   d="m 281.6,235.6 c -1.6,-1.1 -2.3,-3.8 -1.5,-6 l 8.3,-21.9 20.5,14.1 -8.3,21.9 c -0.8,2.2 -2.8,3.1 -4.4,1.9 z"
   id="path433" />
	<path
   class="st0"
   d="m 269.2,145.9 -9.5,25.1 c -0.9,2.3 -3,3.3 -4.6,2.1 l -15.5,-10.7 c -1.7,-1.2 -2.4,-4 -1.5,-6.3 l 9.5,-25.1 c 0.9,-2.3 3,-3.3 4.6,-2.1 l 15.5,10.7 c 1.7,1.1 2.4,4 1.5,6.3 z"
   id="path435" />
	<polygon
   class="st0"
   points="161.6,231.6 181.6,213.4 187.2,224.6 167.3,242.8 "
   id="polygon437" />
	<polygon
   class="st0"
   points="168.1,244 188.1,225.8 196.6,242.9 176.6,261.2 "
   id="polygon439" />
	<polygon
   class="st0"
   points="177.7,262.1 197.7,243.9 206.4,261.3 186.4,279.6 "
   id="polygon441" />
	<polygon
   class="st0"
   points="186.9,281 206.9,262.7 215.6,280.2 195.6,298.4 "
   id="polygon443" />
	<polygon
   class="st0"
   points="196.6,299.8 216.6,281.5 226.8,302 206.8,320.2 "
   id="polygon445" />
	<path
   class="st0"
   d="m 195.1,95.3 -9.4,24.8 c -0.9,2.4 -3.1,3.3 -4.8,2.1 L 176.3,119 162.4,90.8 c -1.6,-3.3 -1.8,-7.4 -0.5,-10.8 l 1.5,-3.9 c 1.4,-3.6 4.6,-5 7.3,-3.2 l 22.9,15.8 c 1.6,1.3 2.3,4.2 1.5,6.6 z"
   id="path447" />
	<path
   class="st0"
   d="m 281.9,203.7 -8,21.3 c -0.9,2.3 -3,3.3 -4.6,2.1 L 226,197.2 c -1.7,-1.2 -2.4,-4 -1.5,-6.3 l 8,-21.3 c 0.9,-2.3 3,-3.3 4.6,-2.1 l 43.3,29.9 c 1.7,1.2 2.4,4 1.5,6.3 z"
   id="path449" />
	<path
   class="st0"
   d="m 267.3,235.3 c 1.1,0.8 1.5,2.6 0.9,4.1 l -10.2,27 -25.6,-17.7 11.2,-29.7 z"
   id="path451" />
	<path
   class="st0"
   d="m 238.4,305.8 -15.9,-30.9 9.7,-24.9 25.6,17.7 -14.1,37.5 c -1,3 -3.9,3.2 -5.3,0.6 z"
   id="path453" />
	<path
   class="st0"
   d="m 207.6,234.7 10.8,-28.8 c 0.8,-2.2 2.8,-3.1 4.4,-1.9 l 20,13.8 -12.3,32.7 z"
   id="path455" />
	<path
   class="st0"
   d="m 206.7,243.8 c -0.7,-1.5 -0.9,-3.3 -0.3,-4.8 l 1,-3.1 22.9,15.8 -8.3,22 z"
   id="path457" />
	<path
   class="st0"
   d="m 198.8,228.8 -14,-27.3 -0.3,-17.7 c 0,-2.7 2.1,-4.6 3.9,-3.3 l 24,16.6 c 1.3,0.9 1.8,3.1 1.2,4.9 l -10.2,26.4 c -1,2.4 -3.4,2.6 -4.6,0.4 z"
   id="path459" />
	<path
   class="st0"
   d="m 188.8,133.6 38.1,26.6 c 1.5,1 2,3.3 1.3,5.2 l -8.6,22.8 c -0.7,1.9 -2.5,2.7 -3.9,1.7 L 186.2,170 c -1,-0.7 -1.6,-2.1 -1.6,-3.6 l -0.1,-29.2 c 0,-3 2.3,-5 4.3,-3.6 z"
   id="path461" />
	<path
   class="st0"
   d="m 291,100 c 0.9,-2.3 2.9,-3.1 4.5,-2 l 17.9,12.4 c 1.6,1.1 2.3,3.9 1.5,6 l -12.3,32.7 c -0.9,2.3 -2.9,3.1 -4.5,2 l -17.9,-12.4 c -1.6,-1.1 -2.3,-3.9 -1.5,-6 z"
   id="path463" />
	<path
   class="st0"
   d="m 325.3,71.7 3.4,2.1 c 1,0.6 1.4,2.2 0.9,3.5 L 319,104.8 c -0.5,1.3 -1.6,1.8 -2.5,1.1 L 269.8,73.8 c -1.1,-0.7 -0.7,-2.9 0.5,-2.9 h 52.5 c 0.8,0.1 1.7,0.3 2.5,0.8 z"
   id="path465" />
	<path
   class="st0"
   d="m 285.8,91.5 c 1.7,1.2 2.4,4 1.5,6.3 l -12.2,32.4 c -0.9,2.3 -3,3.3 -4.6,2.1 l -15.6,-10.8 c -1.7,-1.2 -2.4,-4 -1.5,-6.3 l 12.2,-32.4 c 0.9,-2.3 3,-3.3 4.6,-2.1 z"
   id="path467" />
	<path
   class="st0"
   d="m 187.2,71.1 71.7,-0.1 0.5,0.5 c 1.5,1.4 1.9,3.9 1.1,6 l -12.8,33.8 c -0.9,2.4 -3,3.4 -4.8,2.1 L 186.6,74.3 c -1.2,-0.8 -0.8,-3.2 0.6,-3.2 z"
   id="path469" />
	<rect
   x="317.60001"
   y="33.200001"
   class="st0"
   width="15.7"
   height="29.5"
   id="rect471" />
	<rect
   x="302.39999"
   y="33.200001"
   class="st0"
   width="13.8"
   height="29.5"
   id="rect473" />
	<rect
   x="287.10001"
   y="33.200001"
   class="st0"
   width="14.3"
   height="29.5"
   id="rect475" />
	<rect
   x="271.89999"
   y="33.200001"
   class="st0"
   width="14.3"
   height="29.5"
   id="rect477" />
	<rect
   x="253.7"
   y="33.200001"
   class="st0"
   width="14.3"
   height="29.5"
   id="rect479" />
	<rect
   x="235.3"
   y="33.200001"
   class="st0"
   width="17.299999"
   height="29.5"
   id="rect481" />
	<rect
   x="219.8"
   y="33.200001"
   class="st0"
   width="14.9"
   height="29.5"
   id="rect483" />
	<rect
   x="205.2"
   y="33.200001"
   class="st0"
   width="13.6"
   height="29.5"
   id="rect485" />
	<rect
   x="190.10001"
   y="33.200001"
   class="st0"
   width="14.1"
   height="29.5"
   id="rect487" />
	<rect
   x="171.10001"
   y="33.200001"
   class="st0"
   width="18.1"
   height="29.5"
   id="rect489" />
	<rect
   x="128.2"
   y="33.200001"
   class="st0"
   width="18.299999"
   height="5.3000002"
   id="rect491" />
	<path
   class="st0"
   d="M 147.3,49.5 V 33.3 h 22.4 v 0 29.5 L 149.2,52.7 c -1.1,-0.6 -1.9,-1.9 -1.9,-3.2 z"
   id="path493" />
	<path
   class="st0"
   d="m 158.3,70.5 c 0,0 -2.3,4.8 -3.4,9.1 -1.1,4.2 1.3,13.5 1.3,13.5 l 5,10.3 h -23.5 l -19.9,-39 h 29.7 z"
   id="path495" />
	<polygon
   class="st0"
   points="149.3,126.2 138.5,104.6 161.5,104.6 176,132.7 149.3,132.7 "
   id="polygon497" />
	<rect
   x="149.3"
   y="134.3"
   class="st0"
   width="27.700001"
   height="19.9"
   id="rect499" />
	<polygon
   class="st0"
   points="160.5,229.9 158.6,226.3 149.3,226.3 149.3,186.7 176.8,186.7 176.9,204.3 180.7,211.7 "
   id="polygon501" />
	<polygon
   class="st0"
   points="258,355.3 246.9,347.1 254.3,327.4 264.6,327.4 264.6,355.3 "
   id="polygon503" />
	<polygon
   class="st0"
   points="207.5,321.4 227.6,303.2 235.1,318.1 217.6,340.9 "
   id="polygon505" />
	<path
   class="st0"
   d="m 247.9,327.4 3,-0.1 -17.2,44.7 -15.7,-30.3 17.7,-22.6 c 2.7,5.4 7.3,8.5 12.2,8.3 z"
   id="path507" />
	<polygon
   class="st0"
   points="286.5,325 299.1,349.8 276,371.9 266.2,365 266.2,350.8 274.9,350.7 274.8,336.3 "
   id="polygon509" />
	<polygon
   class="st0"
   points="276.4,372.6 299.6,350.6 316.8,384.4 277,384.8 "
   id="polygon511" />
	<polygon
   class="st0"
   points="336.7,383.8 321.5,383.6 290,321.6 304.3,307.8 336.9,372.3 "
   id="polygon513" />
	<polygon
   class="st0"
   points="337.8,384.1 337.7,371.2 305.1,307.1 319.6,293.2 365.8,383.8 "
   id="polygon515" />
	<polygon
   class="st0"
   points="368.1,383.1 363.2,373.2 373.6,363.1 385,384.1 "
   id="polygon517" />
	<polygon
   class="st0"
   points="388.7,388.5 374.4,362 385.8,351.1 399.8,377.9 "
   id="polygon519" />
	<polygon
   class="st0"
   points="400.6,377.2 386.6,350.4 399.1,338.9 412.3,366.1 "
   id="polygon521" />
	<polygon
   class="st0"
   points="387.1,328.6 359.4,355.1 354,344.6 381.9,318.4 "
   id="polygon523" />
	<polygon
   class="st0"
   points="381.3,317.3 353.5,343.5 341,318.8 368.6,292.2 "
   id="polygon525" />
	<polygon
   class="st0"
   points="426.8,298.8 437.6,318.2 411.3,343.5 401.1,323.5 "
   id="polygon527" />
	<polygon
   class="st0"
   points="443.3,336.3 413.1,365 408.2,355.3 442.2,323 449.2,336.6 "
   id="polygon529" />
	<polygon
   class="st0"
   points="479.3,301.4 492.3,326.3 482.1,336.2 450.5,336.6 443,321.9 481.1,285.4 485.9,294.5 "
   id="polygon531" />
	<polygon
   class="st0"
   points="353.9,305.2 340.7,317.9 324.9,287 338.2,274.5 "
   id="polygon533" />
	<polygon
   class="st0"
   points="352.3,260.5 352.3,260.6 368,291.2 354.5,304.6 338.8,273.8 "
   id="polygon535" />
	<polygon
   class="st0"
   points="384.4,259.6 367.8,275.5 358,256.4 357.8,256.6 374.6,240.4 375.6,242.3 "
   id="polygon537" />
	<polygon
   class="st0"
   points="368.3,276.6 384.9,260.7 394.5,279.4 377.9,295.3 "
   id="polygon539" />
	<polygon
   class="st0"
   points="411.3,304.9 392.1,323.3 381.8,303.1 401,284.7 "
   id="polygon541" />
	<polygon
   class="st0"
   points="427.6,297.7 453.7,273.1 463.9,293.1 438.4,317.1 "
   id="polygon543" />
	<polygon
   class="st0"
   points="404.8,279.2 419.5,265.2 419.5,265.1 430.4,286.6 415.8,300.7 "
   id="polygon545" />
	<polygon
   class="st0"
   points="424.3,260.4 439,246.4 449.9,267.9 435.3,281.9 "
   id="polygon547" />
	<polygon
   class="st0"
   points="467.5,289.6 457.3,269.6 473.7,253.9 471.6,249.6 479.2,241.6 496.5,275.8 488.7,283.4 483.8,273.9 "
   id="polygon549" />
	<path
   class="st0"
   d="m 423,158.2 c -0.4,-0.3 -0.7,-0.7 -1,-1.1 l -23.9,-46.7 9.4,-9 25.6,50.2 -6.3,6 c -1.4,1.3 -2.7,1.5 -3.8,0.6 z"
   id="path551" />
	<polygon
   class="st0"
   points="367.4,74.9 393.9,74.7 406.7,100.3 397.3,109.2 384.5,83.6 363.1,84 "
   id="polygon553" />
	<polygon
   class="st0"
   points="397.6,218.4 417.7,257.1 401.2,272.8 381.4,233.9 "
   id="polygon555" />
	<polygon
   class="st0"
   points="414.3,202.1 414.4,202.1 434.2,241.1 418.2,256.4 398.1,217.7 "
   id="polygon557" />
	<polygon
   class="st0"
   points="435.5,226.9 459.7,203.6 478.6,240.8 471.1,248.8 470.6,247.9 454.2,263.6 "
   id="polygon559" />
	<path
   class="st0"
   d="m 424.9,206 -0.3,-0.8 c -0.2,-0.7 -0.3,-1.3 -0.3,-2 0,-2.2 0.8,-4.1 2.5,-5.7 l 19.9,-19.2 12.4,24.6 -24.1,23.2 z"
   id="path561" />
	<polygon
   class="st0"
   points="398.5,194 386.3,169.9 406.6,150.6 406.7,150.6 418.9,174.6 "
   id="polygon563" />
	<polygon
   class="st0"
   points="376.2,215.8 364,191.7 385.6,170.9 397.8,194.9 "
   id="polygon565" />
	<polygon
   class="st0"
   points="384.4,163.5 383.3,160.9 387.8,156.6 366.8,115.7 375.4,93.7 379.9,91.5 406,142.7 "
   id="polygon567" />
	<polygon
   class="st0"
   points="383.6,164.2 361,185.9 348.5,161.4 366,116.5 386.4,156.3 382.1,160.6 "
   id="polygon569" />
	<polygon
   class="st0"
   points="371,63.4 361.8,84 341.3,76.7 343.8,63.4 "
   id="polygon571" />
	<polygon
   class="st0"
   points="327.7,213.5 344.5,178.4 368.6,225.8 344.3,249.2 "
   id="polygon573" />
	<polygon
   class="st0"
   points="311.8,255.1 327.3,216.1 343.1,250.3 325.4,266.4 "
   id="polygon575" />
	<polygon
   class="st0"
   points="296.3,211 289.5,206.3 295,190.6 301.5,195.3 "
   id="polygon577" />
	<polygon
   class="st0"
   points="214.5,123 220.2,107.2 228.5,112.8 222.9,128.6 "
   id="polygon579" />
	<polygon
   class="st0"
   points="222.6,129.5 216.5,146.6 208.1,141 214.2,123.9 "
   id="polygon581" />
	<path
   class="st0"
   d="m 239.8,120.8 c 1.8,1.2 2.5,4.3 1.6,6.7 l -9.3,24.5 c -0.9,2.5 -3.1,3.5 -5,2.2 l -9.6,-6.6 12,-33.9 z"
   id="path583" />
	<path
   class="st0"
   d="m 198.3,97.7 c 0.9,-2.5 3.1,-3.5 5,-2.2 l 15.8,10.9 -12,33.9 -16.4,-11.3 c -1.8,-1.3 -2.5,-4.3 -1.6,-6.7 z"
   id="path585" />
	<path
   class="st0"
   d="m 319.6,272.3 -19.9,18.8 c -1.1,1.4 -2.9,-0.1 -2.4,-2.1 L 308,263.3 Z"
   id="path587" />
</g>
<g
   id="grand2">
	<polygon
   class="st1"
   points="748.6,69 748.6,75.8 789,75.6 789,67.2 772.9,67.2 772.9,69 "
   id="polygon590" />
	<polygon
   class="st1"
   points="696.9,73.9 711.2,73.9 713.3,75.8 748,75.8 748,67.2 695.6,67.2 695.6,72.5 "
   id="polygon592" />
	<polygon
   class="st1"
   points="785.4,122.8 773.6,106.5 752.4,106.5 764.4,122.8 "
   id="polygon594" />
	<polygon
   class="st1"
   points="773.2,106 757.8,84.9 736.6,84.9 752,106 "
   id="polygon596" />
	<polygon
   class="st1"
   points="814.7,122.6 787,84.9 763.8,84.9 791.5,122.6 "
   id="polygon598" />
	<path
   class="st1"
   d="m 819.7,85.1 c -0.2,0 -0.3,0 -0.3,0 h -26.2 l 23.4,31.7 c 0.1,-2.5 0.7,-10.5 2.6,-15 0.6,-1.4 1.1,-2.6 1.6,-3.7 1.5,-3.4 2.7,-6 2.4,-9.3 -0.4,-3.4 -2.6,-3.7 -3.5,-3.7 z"
   id="path600" />
	<path
   class="st1"
   d="m 771,131.9 17.1,23.3 12.2,-16.6 c 0.1,-0.1 1.5,-1.9 0.4,-4.4 -0.9,-2.2 -2.2,-2.3 -2.5,-2.3 z"
   id="path602" />
	<polygon
   class="st1"
   points="785.1,159.4 764.9,131.9 741.6,131.9 773.5,175.3 "
   id="polygon604" />
	<path
   class="st1"
   d="m 733.1,131.9 c -1.6,0 -3.6,0.3 -4.2,1.8 -1,2.5 -1.3,3.4 -1.4,3.6 v 13.5 l 32.1,43.4 10.9,-14.8 -34.9,-47.2 c -0.4,-0.2 -1.4,-0.3 -2.5,-0.3 z"
   id="path606" />
	<path
   class="st1"
   d="m 727.5,212.7 h 24.8 c -0.1,-1 -0.2,-4.5 0.3,-7.2 0.6,-2.9 3.2,-6.4 3.8,-7.2 l -28.8,-39.2 z"
   id="path608" />
	<path
   class="st1"
   d="m 727.5,220 v 30.6 c 0,0 -0.2,1.9 0.5,3.8 0.6,1.8 2.6,1.8 2.7,1.8 h 17.9 c 0,0 2.4,-0.5 3.3,-1.8 1,-1.5 0.8,-3.9 0.8,-4 V 220 Z"
   id="path610" />
	<path
   class="st1"
   d="m 694.2,220 -0.2,40.6 h 19.8 c 0,0 4.6,-0.7 5.9,-3.6 1.3,-2.9 1.7,-6.7 1.7,-6.7 V 220 Z"
   id="path612" />
	<rect
   x="662"
   y="222.2"
   class="st1"
   width="26.299999"
   height="38.799999"
   id="rect614" />
	<path
   class="st1"
   d="m 628.6,222.2 c -0.5,0 -2.8,0.1 -3.2,1.7 -0.4,2 0,4.5 0,4.5 l 14.9,32.6 16,-0.2 v -38.6 z"
   id="path616" />
	<path
   class="st1"
   d="m 625,170.2 v 36.7 c 0,0 -0.1,1.7 1,2.9 1.2,1.2 2,1.5 2,1.5 h 28.3 v -41 H 625 Z"
   id="path618" />
	<polygon
   class="st1"
   points="688.3,211.2 688.3,169.3 661.8,169.3 662,211.2 "
   id="polygon620" />
	<rect
   x="662"
   y="131.89999"
   class="st1"
   width="26.299999"
   height="30.700001"
   id="rect622" />
	<path
   class="st1"
   d="m 628,131.9 c -0.2,0.1 -1.2,0.7 -2,1.5 -0.9,0.9 -1,2.2 -1,2.2 v 27.1 h 31.3 V 132 H 628 Z"
   id="path624" />
	<path
   class="st1"
   d="m 664.7,85.1 c 0,0 -1.7,0.5 -2.2,1.7 -0.4,0.9 -0.6,2.5 -0.6,2.5 v 33.4 h 24.9 V 89.2 c 0,0 0.1,-1.6 -0.9,-2.7 -0.8,-0.9 -1.7,-1.3 -1.9,-1.3 h -19.3 z"
   id="path626" />
	<path
   class="st1"
   d="m 638.5,85.1 c 0,0 -2,0.2 -2.7,1.5 -0.7,1.4 -0.8,2.7 -0.8,2.7 0,0.1 -0.1,6.9 -1.9,14.2 -1.8,7.2 -3.7,13.3 -3.7,13.4 0,0 -0.7,1.6 0.2,3.7 0.8,1.9 2.5,2 2.8,2 h 21.2 c 0,0 1.3,-0.4 1.7,-1.3 0.5,-1 0.7,-2 0.7,-2 V 88.7 c 0,0 -0.1,-1.4 -0.6,-2.3 -0.6,-1 -2,-1.3 -2.2,-1.4 h -14.7 z"
   id="path628" />
	<polygon
   class="st1"
   points="714.7,122.6 714.7,119.5 695.1,119.5 695.1,91.7 692.2,91.7 692.2,122.6 "
   id="polygon630" />
	<polygon
   class="st1"
   points="714.9,118.1 714.9,119.5 721.6,119.5 721.6,93.4 718,93.4 718,118.1 "
   id="polygon632" />
	<path
   class="st1"
   d="m 695.1,83.6 v 7.5 h 19.8 v 1.8 h 6.7 V 92 c 0,0 -0.4,-3.1 -2.1,-5.9 -1.5,-2.5 -3.5,-2.6 -3.9,-2.6 z"
   id="path634" />
	<rect
   x="694"
   y="131.89999"
   class="st1"
   width="27.4"
   height="14.8"
   id="rect636" />
	<rect
   x="694"
   y="147.2"
   class="st1"
   width="27.4"
   height="15.2"
   id="rect638" />
	<rect
   x="694"
   y="169.7"
   class="st1"
   width="27.4"
   height="42.799999"
   id="rect640" />
	<path
   class="st1"
   d="m 822.4,31.1 c -2.2,1.4 -13.2,10.8 -17.6,17.5 l -13.2,18.1 h 5.3 V 69 h 25.6 V 31.1 Z"
   id="path642" />
	<path
   class="st1"
   d="m 851.5,23.2 c -16.7,0 -27.4,6.8 -28.6,7.6 v 38.1 h 18.5 0.1 c 0,0 0.3,0.1 1.1,0.1 1.1,0 3.3,-0.2 7.3,-1.1 7,-1.5 11,-6.4 11,-6.5 l 17.5,-23.5 9.2,6.9 3.7,-5.8 c -1.9,-1.6 -19,-15 -37.1,-15.8 -1,0 -1.8,0 -2.7,0 0,0 0,0 0,0 z"
   id="shop-g2f1-034" />
	<path
   class="st1"
   d="m 897.1,88.3 c 0,0 -1.3,2.3 -0.3,4.4 1,1.9 1.6,1.9 1.7,1.9 h 17.8 V 63.1 Z"
   id="path646" />
	<path
   class="st1"
   d="m 916.8,94.6 h 15.4 V 69.1 c -1,-0.1 -4.7,-0.4 -8.8,-2.8 -3.6,-2.1 -5.7,-3.2 -6.6,-3.6 z"
   id="path648" />
	<path
   class="st1"
   d="m 932.7,94.6 h 18.1 V 70.7 h -12.9 c 0,0 -0.1,0 -0.4,0 -0.5,0 -1.4,-0.1 -2.6,-0.4 -1.1,-0.3 -1.8,-0.6 -2.2,-0.9 z"
   id="path650" />
	<rect
   x="951.40002"
   y="70.699997"
   class="st1"
   width="15.9"
   height="23.9"
   id="rect652" />
	<rect
   x="967.79999"
   y="70.699997"
   class="st1"
   width="16.6"
   height="23.9"
   id="rect654" />
	<rect
   x="985.09998"
   y="70.699997"
   class="st1"
   width="12.9"
   height="23.9"
   id="rect656" />
	<rect
   x="998.59998"
   y="70.699997"
   class="st1"
   width="16.700001"
   height="23.9"
   id="rect658" />
	<path
   class="st1"
   d="m 1015.9,70.7 v 23.9 h 7.8 l 9.8,-19.6 c -0.2,-0.5 -1.2,-2.4 -3.3,-3.2 -2.4,-0.9 -4.5,-1.1 -4.7,-1.1 z"
   id="path660" />
	<path
   class="st1"
   d="m 1024.3,94.6 h 3.7 l -7.6,18.1 7.6,6 10.5,-23.1 c 0,0 2.2,-9.2 -0.3,-13.1 -2,-3.2 -3.6,-5.9 -4.3,-7 z"
   id="path662" />
	<polygon
   class="st1"
   points="1010.8,122.6 1021,100.4 1001.4,100.4 1001.4,122.6 "
   id="polygon664" />
	<rect
   x="977"
   y="100.4"
   class="st1"
   width="23.700001"
   height="22.200001"
   id="rect666" />
	<rect
   x="961.29999"
   y="100.4"
   class="st1"
   width="15"
   height="22.200001"
   id="rect668" />
	<polygon
   class="st1"
   points="998.1,151.7 1008.3,129.5 978.7,129.5 978.7,151.7 "
   id="polygon670" />
	<rect
   x="961.20001"
   y="129.5"
   class="st1"
   width="17"
   height="22.200001"
   id="rect672" />
	<rect
   x="961"
   y="157.5"
   class="st1"
   width="16.200001"
   height="20.4"
   id="rect674" />
	<polygon
   class="st1"
   points="985.8,177.9 995.2,157.5 977.8,157.5 977.8,177.9 "
   id="polygon676" />
	<rect
   x="950.70001"
   y="145.7"
   class="st1"
   width="7.5"
   height="36.400002"
   id="rect678" />
	<rect
   x="950.70001"
   y="103.8"
   class="st1"
   width="7.5"
   height="36.400002"
   id="rect680" />
	<polygon
   class="st1"
   points="947.4,106.6 943.4,100.8 919.6,100.8 947.4,137.8 "
   id="polygon682" />
	<polygon
   class="st1"
   points="947.9,146.4 939,134.3 926.5,151.1 947.9,180 "
   id="polygon684" />
	<polygon
   class="st1"
   points="935.8,130.1 926.6,117.4 913.9,134 923.2,146.9 "
   id="polygon686" />
	<polygon
   class="st1"
   points="913.6,133.6 926.3,117 914.1,100.6 892.5,100.6 890.9,102.8 "
   id="polygon688" />
	<polygon
   class="st1"
   points="920.5,150.6 910.4,137.1 899.8,151.5 909.9,165 "
   id="polygon690" />
	<polygon
   class="st1"
   points="910,136.6 896,117.4 885.4,131.8 899.4,151 "
   id="polygon692" />
	<path
   class="st1"
   d="m 888,106.5 c -1.3,1.9 -8.3,11.4 -9.1,12.6 -0.7,1 -0.9,2.4 -0.9,2.8 l 7.1,9.5 10.6,-14.4 z"
   id="path694" />
	<polygon
   class="st1"
   points="906.5,168.6 891.7,148.5 880.1,163.8 894.9,184.3 "
   id="polygon696" />
	<path
   class="st1"
   d="m 876.7,128.2 c -0.3,2 -1.4,8 -3.7,11.5 -2.4,3.6 -4.4,7.3 -4.9,8.1 l 11.6,15.5 11.6,-15.3 z"
   id="path698" />
	<polygon
   class="st1"
   points="947.9,188.4 937.6,174.5 927.1,188.7 948.1,217.1 "
   id="polygon700" />
	<polygon
   class="st1"
   points="937.2,174 923.4,155.1 913,169.9 926.8,188.2 "
   id="polygon702" />
	<polygon
   class="st1"
   points="947.9,237.6 948.1,225.5 936.3,210.2 925,225.4 933.8,237.6 "
   id="polygon704" />
	<polygon
   class="st1"
   points="935.9,209.7 909.9,173.9 898.3,189.4 924.7,225 "
   id="polygon706" />
	<polygon
   class="st1"
   points="931.5,263.4 931.5,242.8 926.3,235.8 916.7,248.8 927.4,263.4 "
   id="polygon708" />
	<polygon
   class="st1"
   points="925.9,235.3 912.6,217.2 903.1,230.5 916.3,248.4 "
   id="polygon710" />
	<polygon
   class="st1"
   points="912.3,216.7 895.2,193.5 885.6,206.6 902.8,230 "
   id="polygon712" />
	<path
   class="st1"
   d="m 865.4,152.6 c -0.9,0.7 -3.9,3.2 -5.8,4.4 l -0.2,0.1 c -2.1,1.4 -3.2,2 -3.9,4.9 -0.7,2.8 1.7,5.8 1.8,5.9 l 25.6,34.8 9.6,-13.3 z"
   id="path714" />
	<path
   class="st1"
   d="m 868.4,230 24.6,33.4 18.9,-0.2 c 0.3,-0.4 1.2,-1.7 1.2,-3 0,-1.6 -1.3,-4.7 -1.3,-4.7 l -31,-42.3 z"
   id="path716" />
	<polygon
   class="st1"
   points="886.8,263.4 865.3,233.8 854.7,248.4 865.4,263.2 "
   id="polygon718" />
	<polygon
   class="st1"
   points="862.4,230.2 829.7,185.9 819.3,200.5 851.8,244.6 "
   id="polygon720" />
	<path
   class="st1"
   d="m 845.6,167.1 c -1.7,0 -3.1,1.8 -3.1,1.9 l -9.5,13 32.5,44.1 12.4,-16.8 -29.4,-39.7 c -0.1,-0.2 -1.3,-2.5 -2.9,-2.5 z"
   id="path722" />
	<polygon
   class="st1"
   points="859.6,263.4 838.2,234.4 826.2,246.7 838.4,263.4 "
   id="polygon724" />
	<polygon
   class="st1"
   points="837.9,233.9 816.2,204.5 805.6,218.9 825.9,246.2 "
   id="polygon726" />
	<path
   class="st1"
   d="m 786.5,244.8 c 0,0 -1.6,2.7 -1.1,4.7 0.5,1.8 1.4,3.4 1.7,3.8 h 37.4 l -22,-30.1 z"
   id="path728" />
	<polygon
   class="st1"
   points="767.1,254.2 774.8,243.8 760.5,224.4 759,226.6 759,254.2 "
   id="polygon730" />
	<ellipse
   class="st1"
   cx="790.5"
   cy="192.7"
   rx="4.0999999"
   ry="5.5"
   id="ellipse732" />
	<polygon
   class="st1"
   points="819.6,133.7 817.5,131 800.9,153.5 803.1,156.2 "
   id="polygon734" />
	<polygon
   class="st1"
   points="893,84.6 890.5,81.8 874.6,103.6 877.2,106.2 "
   id="polygon736" />
	<polygon
   class="st1"
   points="874.7,59.4 872.4,56.8 856.3,78.5 858.6,81.2 "
   id="polygon738" />
	<path
   class="st1"
   d="m 730.4,85.9 c -1,0 -1.4,0.3 -1.4,0.8 v 30.5 c 0,0 -0.1,3.1 1,4.2 1.1,1.1 2.9,1.2 2.9,1.2 h 25.3 L 731.1,86 c -0.2,-0.1 -0.4,-0.1 -0.7,-0.1 z"
   id="path740" />
	<path
   class="st1"
   d="m 725.1,261.6 c 0,0 -2.1,0.1 -3.1,1.9 -1.1,1.9 -0.9,3.7 -0.9,3.7 v 6.3 h 43.5 v -6.3 c 0,0 -0.1,-2.7 -1.4,-4 -1.2,-1.2 -3.2,-1.6 -3.5,-1.7 h -34.6 z"
   id="path742" />
	<polygon
   class="st1"
   points="782.6,282.7 782.6,273.9 790,273.9 790,263.1 770.9,263.1 770.9,282.7 "
   id="polygon744" />
	<polygon
   class="st1"
   points="791.4,285.4 791.4,289.4 786.5,289.4 786.5,301 840.7,301 840.7,271.6 810,271.6 810,285.4 "
   id="polygon746" />
	<rect
   x="847.90002"
   y="268.79999"
   class="st1"
   width="18.6"
   height="4.6999998"
   id="rect748" />
	<rect
   x="886"
   y="272.70001"
   class="st1"
   width="25"
   height="12.8"
   id="rect750" />
	<polygon
   id="Shape-2-006"
   class="st1"
   points="939.7,266.5 939.7,247.5 954.3,247.5 954.3,243.2 936.1,243.2 936.1,266.5 " />
	<polygon
   id="Shape-2-005"
   class="st1"
   points="961.2,195.2 992.4,195.2 1002.4,173.9 995.1,167.7 987.6,183.7 961.2,183.7 " />
	<polygon
   id="Shape-2-004"
   class="st1"
   points="1027.7,119.2 1020.1,113.3 1009.4,136.9 1017,142.1 " />
	<path
   id="Shape-2-003"
   class="st1"
   d="m 562.1,85.5 -9.6,33.4 14.6,31.7 1.7,-1.6 c -0.5,-1.7 -4.4,-15.5 3.1,-31.1 7.5,-15.5 12.8,-22.2 13.5,-22.9 v -9.5 z" />
	<polygon
   id="Shape-2-002"
   class="st1"
   points="639.5,273.3 618,226.8 618,222.2 601,222.2 624.2,273.5 " />
	<rect
   id="Shape-2-001"
   x="593.70001"
   y="83.099998"
   class="st1"
   width="19.1"
   height="11.3" />
</g>
<g
   id="floor"><path
     style="fill:none;stroke:#808080"
     d="m 531.60825,50.756566 254.6733,3.561865 c 0,0 25.82351,-32.947245 40.96143,-37.399576 15.13793,-4.45233 49.86611,-3.561864 60.5517,4.452331 10.68559,8.014195 33.83771,30.275846 33.83771,30.275846 H 1033.8311 L 1050.75,80.141947 952.7987,291.18241 H 850.3951 L 849.50464,314.33452 634.01185,311.66313 528.04638,78.361015 Z"
     id="floor-2" /><path
     style="fill:none;stroke:#808080"
     d="m 32.056779,24.93305 349.062701,-0.890466 143.36504,271.592156 -7.12373,42.74237 -69.45635,59.66123 -219.94512,1.78093 z"
     id="floor-1" /></g><g
   id="trees"><circle
     style="fill:none;stroke:#808080"
     id="tree-1"
     cx="666.29132"
     cy="32.502014"
     r="6.2332625" /><circle
     style="fill:none;stroke:#808080"
     id="tree-2"
     cx="571.23395"
     cy="31.611546"
     r="6.2332625" /><circle
     style="fill:none;stroke:#808080"
     id="tree-3"
     cx="764.68774"
     cy="33.615093"
     r="6.2332625" /><circle
     style="fill:none;stroke:#808080"
     id="tree-4"
     cx="993.59497"
     cy="34.316177"
     r="6.2332625" /><circle
     style="fill:none;stroke:#808080"
     id="tree-5"
     cx="485.74924"
     cy="123.77479"
     r="6.2332625" /></g></svg>
