<?xml version="1.0" encoding="utf-8"?>
<!-- Generator: Adobe Illustrator 26.2.1, SVG Export Plug-In . SVG Version: 6.00 Build 0)  -->
<svg version="1.1" xmlns="http://www.w3.org/2000/svg" xmlns:xlink="http://www.w3.org/1999/xlink" x="0px" y="0px"
	 width="1076.4782715px" height="420.2608643px" viewBox="0 0 1076.4782715 420.2608643"
	 style="enable-background:new 0 0 1076.4782715 420.2608643;" xml:space="preserve">
<g id="floor">
	<path style="fill:#C71618;" d="M519.4786987,92.8770142l-21.445343-20.2089996h-53.9940796l-57.8905945-54.7714005
		l-4.0664062,7.9804001H243.2658691c0,0-1.9726868-0.0682983-3.703186,0.527401
		c-1.7304077,0.5937004-4.2890015,3.4570007-4.2890015,3.4570007l-67.6407013,131.8808899v5.5781097h-38.0252991
		l6.253891-98.2442093l-72.1230927-9.5682983l-5.2616997,86.4121017l-23.1973-2.9277039L24.752182,325.1251221
		l32.1660004,56.3671875h32.7440948l0.392601-53.976593l34.1112976-74.7129059l4.2905045-67.4003906h19.6860962v97.0487823
		l-30.8007965,63.281311v34.031189h218.5741882v-31.6405945h40.6817017l-4.875-12.2284851h23.7832031L519.4786987,92.8770142z"/>
	<path style="fill:#FAE7BE;stroke:#C4311E;stroke-width:0.173313;stroke-miterlimit:10;" d="M614.2883911,120.8090134
		l11.8612671,10.1913986l9.0957031-21.9356003h311.3964844l97.1387939,207.3887024l-11.2110596,30.3573914H930.5578613
		l-13.9707031,9.9707031c0,0,1.9960938,12.8417969-2.6776733,20.1719055c-5.9296875,9.2969055-16.6524048,5.75-16.6524048,5.75
		l-45.9667969,7.3164062c0,0-7.6679077,1.1073914-23.8789062-5.2598267
		c-10.8828125-4.2714844-15.921936-10.8339844-15.921936-10.8339844l-20.5409546-26.0078125H527.3840942l23.5546875-52.7342834
		l-13.1602173-9.0859985l-1.9472656-12.6269226l38.3339844-82.8652802l8.9375-2.6621094L614.2883911,120.8090134z"/>
</g>
<g id="grand1">
	<path style="fill:#C6C6C6;" d="M282.9074097,120.9282455l-19.935791,13.8164444l12.3872986,31.8176117
		c0.7258301,1.8599243,2.4677429,2.6570129,3.8710022,1.6606598l14.4680176-9.8973389
		c1.4515991-0.9963989,2.0322571-3.3876648,1.306488-5.3140259L282.9074097,120.9282455z"/>
	<path style="fill:#C6C6C6;" d="M271.6814575,94.6903915l-19.935791-0.3321686
		c-1.7903595-0.0664368-3.0000458,2.5242233-2.2258301,4.7162323l12.8711548,34.1424942l19.935791-13.816452l-8.5162354-22.9166565
		C273.4234314,95.421051,272.6008606,94.6903915,271.6814575,94.6903915z"/>
	<path style="fill:#C6C6C6;" d="M277.2944641,265.535675l17.6131592-12.1557465
		c1.693573-1.195694,2.3710327-3.9854889,1.5-6.3104095l-9.4839783-25.1086426
		c-0.8709717-2.3249207-2.9516602-3.254837-4.6452026-2.0592194l-17.6132202,12.155838
		c-1.6936035,1.1956177-2.3709717,3.9854889-1.5,6.3103333l9.4839783,25.1087036
		C273.5201721,265.8013611,275.6008911,266.7312927,277.2944641,265.535675z"/>
	<path style="fill:#C6C6C6;" d="M323.6983948,228.138382l-7.813324-19.942337l-20.5164795,14.1485291l7.8134155,19.9423523
		c0.9677429,2.5241394,3.2419128,3.5205383,5.1290283,2.2584076l13.7421875-9.4987488
		C323.8919373,233.7845001,324.6661682,230.6625366,323.6983948,228.138382z"/>
	<path style="fill:#C6C6C6;" d="M281.649353,176.0611267c-1.6452026,1.1291809-2.274231,3.7861938-1.4516296,5.9781952
		l8.2743225,21.9203186l20.5164795-14.1485443l-8.274353-21.9203033c-0.8225708-2.1920166-2.806488-3.055542-4.4032593-1.9262695
		L281.649353,176.0611267z"/>
	<path style="fill:#C6C6C6;" d="M269.1652527,265.8013611l-9.4839783-25.1086578
		c-0.8710327-2.3248749-2.9516907-3.2547913-4.6452789-2.0591431l-15.4841003,10.6944427
		c-1.6936035,1.1956177-2.3709717,3.9854889-1.5000153,6.3103638l9.4840393,25.1086731
		c0.8709564,2.3248901,2.9516296,3.2547913,4.6452179,2.0591431l15.4840851-10.6944275
		C269.4072266,270.9825745,270.0846558,268.1262512,269.1652527,265.8013611z"/>
	<polygon style="fill:#C6C6C6;" points="187.2446136,187.0876465 167.260437,168.8871918 161.6474609,180.1130524 
		181.6316376,198.3135223 	"/>
	<polygon style="fill:#C6C6C6;" points="196.6318512,168.7543182 176.6476746,150.4874573 168.0830536,167.6915741 
		188.0672455,185.8920441 	"/>
	<polygon style="fill:#C6C6C6;" points="206.4062042,150.3545837 186.3736267,132.087677 177.7122345,149.5575409 
		197.6964111,167.8244324 	"/>
	<polygon style="fill:#C6C6C6;" points="215.5999451,131.4898987 195.6157684,113.2894287 186.9059448,130.6927643 
		206.9385223,148.959671 	"/>
	<polygon style="fill:#C6C6C6;" points="226.7775116,109.7024612 206.793335,91.4355545 196.5835114,111.8945084 
		216.5677032,130.1614075 	"/>
	<path style="fill:#C6C6C6;" d="M195.0834656,316.4173584l-9.3872681-24.7765808
		c-0.9193573-2.3912964-3.0967865-3.3211975-4.8387909-2.1255798l-4.5968323,3.188385l-13.9356842,28.1642456
		c-1.5967865,3.2547913-1.7903595,7.3731689-0.4838867,10.8272705l1.4516602,3.9190369
		c1.4032135,3.5869751,4.6452179,5.0483398,7.3065643,3.1884155l22.8874512-15.8091125
		C195.2286377,321.7312927,195.9060822,318.8085938,195.0834656,316.4173584z"/>
	<path style="fill:#C6C6C6;" d="M281.9396667,208.0115662l-8.0323792-21.3224335
		c-0.8709717-2.3249207-2.9515991-3.2548828-4.6452026-2.0592346l-43.258728,29.8913116
		c-1.6936035,1.1956482-2.371048,3.9854889-1.500061,6.3104095l8.0323639,21.3224335
		c0.8710022,2.3249207,2.9516754,3.2548065,4.6452637,2.0591888l43.2587433-29.8912659
		C282.1332397,213.1262817,282.8106995,210.27005,281.9396667,208.0115662z"/>
	<path style="fill:#C6C6C6;" d="M267.3265991,176.393219c1.112854-0.7970886,1.5483704-2.5905762,0.919342-4.1183319
		l-10.161499-26.9686279l-25.6455231,17.7355042l11.2259674,29.6920013L267.3265991,176.393219z"/>
	<path style="fill:#C6C6C6;" d="M238.4389954,105.8497467l-15.9196167,30.8877411l9.6775665,24.9094086l25.6455841-17.7355194
		l-14.0808868-37.5301895C242.6971436,103.5249557,239.793869,103.2592163,238.4389954,105.8497467z"/>
	<path style="fill:#C6C6C6;" d="M207.6206665,176.982605l10.8388672,28.7620392
		c0.8226166,2.1920471,2.7581177,3.055542,4.3549347,1.9263611l19.9841766-13.8164062l-12.2905273-32.6811523
		L207.6206665,176.982605z"/>
	<path style="fill:#C6C6C6;" d="M206.6965485,167.8907928c-0.725769,1.4613953-0.8709564,3.254837-0.3387299,4.8490143
		l1.0161591,3.0556183l22.8874512-15.8091888l-8.2743073-21.9867096L206.6965485,167.8907928z"/>
	<path style="fill:#C6C6C6;" d="M198.8093414,182.9029388l-13.9841003,27.3006744l-0.3386993,17.6690369
		c-0.0484009,2.7234497,2.0806427,4.5833588,3.8710022,3.3213196l24.0487976-16.6063385
		c1.306488-0.9299469,1.8387299-3.1219635,1.1613007-4.915451l-10.2098846-26.3707123
		C202.4384155,180.910141,199.9706421,180.644455,198.8093414,182.9029388z"/>
	<path style="fill:#C6C6C6;" d="M188.7930145,278.0900269l38.0812988-26.5700226
		c1.4515991-0.9963837,1.983902-3.3212738,1.2580719-5.2475433l-8.6130524-22.7838287
		c-0.7258148-1.9263153-2.4677734-2.6570129-3.871048-1.7270508l-29.4197693,19.9275208
		c-1.0161438,0.7306519-1.6451874,2.0591431-1.6451874,3.5869598l-0.0967865,29.2269897
		C184.4865417,277.492218,186.8091583,279.4849854,188.7930145,278.0900269z"/>
	<path style="fill:#C6C6C6;" d="M291.0365906,311.7011414c0.8709717,2.2584229,2.8548584,3.1219482,4.5000916,1.9927063
		l17.8551025-12.355072c1.5968323-1.1291809,2.2742615-3.8526306,1.4516296-6.0446777l-12.3389282-32.6811829
		c-0.8709412-2.2583618-2.8548279-3.1219482-4.500061-1.9927063l-17.8551331,12.355072
		c-1.6452026,1.1292725-2.274231,3.8526917-1.4516296,6.0447083L291.0365906,311.7011414z"/>
	<path style="fill:#C6C6C6;" d="M325.2695312,339.9710999l3.4128418-2.0985107
		c0.9677734-0.5978394,1.4032288-2.1920166,0.8709717-3.5205078l-10.5485535-27.4335327
		c-0.4838867-1.262085-1.5967712-1.7934875-2.5162048-1.1292725l-46.7426453,32.083313
		c-1.0645447,0.7306519-0.6774292,2.8562622,0.4839172,2.8562622h52.4568787
		C323.5769348,340.7288513,324.4571228,340.4706116,325.2695312,339.9710999z"/>
	<path style="fill:#C6C6C6;" d="M285.8106995,320.2035522c1.693573-1.1956482,2.3710327-3.9855042,1.500061-6.3104248
		l-12.2421265-32.4154358c-0.8709412-2.3248291-2.9516602-3.2547913-4.6452637-2.0591431l-15.6292572,10.7608948
		c-1.693573,1.1956177-2.3710022,3.9854736-1.500061,6.3103943l12.2421417,32.4153748
		c0.8709412,2.3248596,2.9516602,3.2548218,4.6452637,2.0592041L285.8106995,320.2035522z"/>
	<path style="fill:#C6C6C6;" d="M187.1962585,340.5960388l71.7108154,0.0664368l0.5322571-0.5314026
		c1.4516602-1.3949585,1.8871155-3.9190674,1.0644836-5.978241l-12.7743683-33.8103638
		c-0.8709564-2.3913574-3.0484467-3.3877563-4.8387909-2.1256104l-56.2750854,39.1243286
		C185.4058838,338.1382751,185.8414154,340.5960388,187.1962585,340.5960388z"/>
	<rect x="317.601532" y="348.9656067" style="fill:#C6C6C6;" width="15.6776485" height="29.4927731"/>
	<rect x="302.3593445" y="348.9656067" style="fill:#C6C6C6;" width="13.7905531" height="29.4927731"/>
	<rect x="287.117157" y="348.9656067" style="fill:#C6C6C6;" width="14.322835" height="29.4927731"/>
	<rect x="271.8749695" y="348.9656067" style="fill:#C6C6C6;" width="14.322835" height="29.4927731"/>
	<rect x="253.7295837" y="348.9656067" style="fill:#C6C6C6;" width="14.3227758" height="29.4927731"/>
	<rect x="235.3421631" y="348.9656067" style="fill:#C6C6C6;" width="17.3228588" height="29.4927731"/>
	<rect x="219.7613068" y="348.9656067" style="fill:#C6C6C6;" width="14.8550577" height="29.4927731"/>
	<rect x="205.1965485" y="348.9656067" style="fill:#C6C6C6;" width="13.5969744" height="29.4927731"/>
	<rect x="190.0995483" y="348.9656067" style="fill:#C6C6C6;" width="14.0808315" height="29.4927731"/>
	<rect x="171.1314545" y="348.9656067" style="fill:#C6C6C6;" width="18.1454811" height="29.4927731"/>
	<rect x="128.1630859" y="373.1443481" style="fill:#C6C6C6;" width="18.290575" height="5.3140216"/>
	<path style="fill:#C6C6C6;" d="M147.324646,362.1841736v16.2076721h22.403595h0.0484009v-29.4926758l-20.5164642,10.0965881
		C148.0504761,359.5935669,147.324646,360.8556824,147.324646,362.1841736z"/>
	<path style="fill:#C6C6C6;" d="M158.3087006,341.1938171c0,0-2.2742462-4.8490295-3.3871155-9.1002197
		c-1.1129608-4.1847839,1.2580414-13.484314,1.2580414-13.484314l5.0323334-10.2958069H137.743866l-19.8874435,38.9914856
		h29.6618118L158.3087006,341.1938171z"/>
	<polygon style="fill:#C6C6C6;" points="176.018631,278.9535522 149.3085632,278.9535522 149.3085632,285.4631958 
		138.469696,307.1177673 161.5022736,307.1177673 	"/>
	<rect x="149.3085632" y="257.4318542" style="fill:#C6C6C6;" width="27.7262306" height="19.9275188"/>
	<polygon style="fill:#C6C6C6;" points="176.9380341,207.4137421 180.7122955,199.9741364 160.5345306,181.7736664 
		158.6473999,185.3605957 149.3085632,185.3605957 149.3085632,224.9499817 176.8412476,224.9499817 	"/>
	<polygon style="fill:#C6C6C6;" points="264.5684509,84.3280869 264.5684509,56.3631058 257.9877319,56.3631058 
		246.85849,64.5997925 254.3102264,84.3280869 	"/>
	<polygon style="fill:#C6C6C6;" points="235.1282349,93.6306 217.5599365,70.7562866 207.4707794,90.3062897 
		227.5517426,108.5067596 	"/>
	<path style="fill:#C6C6C6;" d="M247.9230194,84.2616577l2.9516296,0.0664291l-17.2348022-44.7300644l-15.6831207,30.3894348
		l17.6826935,22.6444092C238.4458923,87.1850204,242.987442,84.1287842,247.9230194,84.2616577z"/>
	<polygon style="fill:#C6C6C6;" points="274.8752136,61.0135612 274.7961121,75.4345093 286.5401917,86.730957 
		299.0688171,61.8356743 275.967926,39.7929039 266.1942444,46.6359825 266.2371521,60.9198875 	"/>
	<polygon style="fill:#C6C6C6;" points="316.8440552,27.3271809 276.9795532,26.8700027 276.4339294,39.0624084 
		299.6020203,61.1044464 	"/>
	<polygon style="fill:#C6C6C6;" points="304.3153992,103.856636 336.947998,39.4273071 336.7489319,27.9121475 
		321.5180664,28.1130905 289.9751892,90.0754471 	"/>
	<polygon style="fill:#C6C6C6;" points="319.5736389,118.497612 365.8022156,27.8759823 337.8137207,27.5465546 
		337.7480164,40.5241737 305.1138611,104.5879059 	"/>
	<polygon style="fill:#C6C6C6;" points="373.6185303,48.5663109 384.9968872,27.5465546 368.1185913,28.6072521 
		363.1523743,38.4951363 	"/>
	<polygon style="fill:#C6C6C6;" points="385.8141785,60.5386467 399.8213501,33.779068 388.6900635,23.1599121 
		374.4170532,49.6631737 	"/>
	<polygon style="fill:#C6C6C6;" points="399.0756226,72.8211594 412.3231201,45.5689354 400.6203613,34.5110321 
		386.6131897,61.2691803 	"/>
	<polygon style="fill:#C6C6C6;" points="353.9650574,67.1182785 381.8734436,93.3105927 387.0522156,83.1301804 
		359.410675,56.572197 	"/>
	<polygon style="fill:#C6C6C6;" points="340.970459,92.8718414 368.5979919,119.4844666 381.3407288,94.4074097 
		353.5254822,68.1782455 	"/>
	<polygon style="fill:#C6C6C6;" points="411.2970581,68.1604691 401.0992432,88.1380386 426.8495178,112.8863144 
		437.5950317,93.4384232 	"/>
	<polygon style="fill:#C6C6C6;" points="442.2282104,88.6499329 449.2051697,75.1235123 443.333374,75.398262 
		413.1226501,46.6657982 408.1832581,56.3897667 	"/>
	<polygon style="fill:#C6C6C6;" points="481.0930176,126.3203735 485.9388428,117.1452103 479.2964478,110.2723541 
		492.3168945,85.3415604 482.0523987,75.4714127 450.5358276,75.1235123 443.0267029,89.7467194 	"/>
	<polygon style="fill:#C6C6C6;" points="324.8858643,124.6939163 338.1741943,137.2313995 353.8687134,106.4802628 
		340.6508484,93.8032761 	"/>
	<polygon style="fill:#C6C6C6;" points="354.4709167,107.0952911 338.7735596,137.8540039 352.3277283,151.1410675 
		352.3406982,151.1233826 367.9995117,120.4798737 	"/>
	<polygon style="fill:#C6C6C6;" points="375.5884094,169.3651276 375.5749512,169.3459167 384.4162598,152.0739441 
		367.8119507,136.1351929 357.9999084,155.3275909 357.7604675,155.1082153 374.5903015,171.2840729 	"/>
	<polygon style="fill:#C6C6C6;" points="394.4553528,132.3335571 377.8515015,116.3955078 368.344574,135.0384064 
		384.9484253,150.9771576 	"/>
	<polygon style="fill:#C6C6C6;" points="381.8201599,108.6089935 400.9927063,127.0331726 411.3110657,106.8177567 
		392.1379395,88.3751068 	"/>
	<polygon style="fill:#C6C6C6;" points="463.8774109,118.5885391 438.3939819,94.5352859 427.6480103,113.9831848 
		453.6919861,138.5852356 	"/>
	<polygon style="fill:#C6C6C6;" points="430.4313354,125.0772934 415.7715149,110.9851532 404.8144836,132.4797821 
		419.4996643,146.4995422 419.4738464,146.5726929 	"/>
	<polygon style="fill:#C6C6C6;" points="449.9379883,143.8302002 435.2915955,129.7565002 424.3206177,151.2511292 
		439.0192566,165.2524567 	"/>
	<polygon style="fill:#C6C6C6;" points="488.6688843,128.3125153 483.8365479,137.781601 467.4996033,122.0799561 
		457.3141785,142.0575256 473.6506653,157.7761688 471.5861816,162.1266327 479.1759644,170.1325226 496.4975891,135.8427429 	"/>
	<path style="fill:#C6C6C6;" d="M422.9620667,253.5157013c-0.3641357,0.2804108-0.7008057,0.6524658-1.0115356,1.1153412
		l-23.8735657,46.7356873l9.4003296,8.95578l25.578125-50.1539612l-6.2984924-6.031662
		C425.4076843,252.8334961,424.1421814,252.6268616,422.9620667,253.5157013z"/>
	<polygon style="fill:#C6C6C6;" points="384.4684753,328.0523682 363.1125183,327.6690369 367.4395447,336.827179 
		393.895752,336.9542542 406.6783447,311.419342 397.2779541,302.4642334 	"/>
	<polygon style="fill:#C6C6C6;" points="401.2197571,138.8585052 381.3661194,177.7906342 397.5975647,193.2899017 
		417.6632385,154.5416718 	"/>
	<polygon style="fill:#C6C6C6;" points="418.1948853,155.2722168 398.1292114,194.0211334 414.3477173,209.5388641 
		414.3596497,209.5388641 434.2257385,170.5706177 	"/>
	<polygon style="fill:#C6C6C6;" points="470.5885315,163.7899933 454.2376404,148.0890961 435.5046387,184.828186 
		459.6569214,208.0955353 478.6442871,170.8630524 471.0540161,162.8578339 	"/>
	<path style="fill:#C6C6C6;" d="M424.853302,205.7009888l-0.2539673,0.8043365
		c-0.1690674,0.6687622-0.2575073,1.3460083-0.2668457,2.0282593c-0.0087585,2.217804,0.8202209,4.131134,2.4901428,5.7391205
		l19.9048462,19.1547546l12.3962708-24.6020966l-24.1523132-23.2666473L424.853302,205.7009888z"/>
	<polygon style="fill:#C6C6C6;" points="406.6514282,261.1013489 418.9142761,237.0657959 398.5299988,217.727951 
		386.2671814,241.7627869 406.6374512,261.1191101 	"/>
	<polygon style="fill:#C6C6C6;" points="385.5747375,240.8313446 397.8375549,216.7773132 376.2276306,195.9223328 
		363.9653015,219.9763336 	"/>
	<polygon style="fill:#C6C6C6;" points="379.8756409,320.2112122 405.9863586,269.0150146 384.3625183,248.2153625 
		383.2832031,250.7370148 387.8108826,255.1237793 366.7734375,295.939209 375.3618774,318.0181885 	"/>
	<polygon style="fill:#C6C6C6;" points="386.4393921,255.3430634 382.0585632,251.1218109 383.5629883,247.4841003 
		361.0086975,225.7700958 348.4940491,250.3174744 365.9750061,295.2080078 	"/>
	<polygon style="fill:#C6C6C6;" points="341.31604,334.9436951 343.832489,348.3054199 370.989502,348.2412109 
		361.7813721,327.6690369 	"/>
	<polygon style="fill:#C6C6C6;" points="368.6455078,185.8836365 344.2982178,162.4554138 327.7328491,198.2153473 
		344.5352783,233.2356567 	"/>
	<polygon style="fill:#C6C6C6;" points="343.1004639,161.3899536 325.3583679,145.295166 311.7523193,156.5914001 
		327.2653809,195.5417938 	"/>
	<polygon style="fill:#C6C6C6;" points="294.9688416,221.1251678 301.4866943,216.4277344 296.2723694,200.6577759 
		289.5101013,205.3552094 	"/>
	<polygon style="fill:#C6C6C6;" points="228.5212555,298.9332581 222.9024506,283.109314 214.5397797,288.7051697 
		220.1585999,304.5291138 	"/>
	<polygon style="fill:#C6C6C6;" points="208.1440887,270.6934509 214.2028351,287.7562866 222.565506,282.1604309 
		216.5067749,265.0975342 	"/>
	<path style="fill:#C6C6C6;" d="M239.793869,290.9100952c1.7903442-1.1956787,2.5161438-4.2511902,1.5967865-6.7089539
		l-9.2904968-24.5108643c-0.9193726-2.4577332-3.1452026-3.4541016-4.9839325-2.1920166l-9.5701599,6.6122742l12.024292,33.8632812
		L239.793869,290.9100952z"/>
	<path style="fill:#C6C6C6;" d="M198.2770691,313.9595642c0.9194031,2.4577332,3.1452332,3.4541016,4.983963,2.1920776
		l15.7666168-10.8935852l-12.024292-33.8632507l-16.4199829,11.3450317
		c-1.7902985,1.2620544-2.5161285,4.2511902-1.5967865,6.7088623L198.2770691,313.9595642z"/>
	<path style="fill:#C6C6C6;" d="M319.5737915,139.3674622l-19.8613892-18.8062439
		c-1.0966187-1.4429626-2.8650208,0.1132126-2.3677368,2.0835571l10.6846619,25.7458954L319.5737915,139.3674622z"/>
</g>
<g id="grand2">
	<polygon style="fill:#898583;" points="772.8641968,344.4844666 772.8641968,342.7341003 748.5634766,342.7341003 
		748.5634766,335.8579102 789.0427246,336.0728455 789.0427246,344.4844666 	"/>
	<polygon style="fill:#898583;" points="695.6096802,344.4844666 695.6096802,339.1880493 696.897583,337.8280334 
		711.2134399,337.8280334 713.3035278,335.8559875 748.0022583,335.8559875 748.0022583,344.4844666 	"/>
	<polygon style="fill:#898583;" points="752.3778076,305.1540527 764.355957,288.8686218 785.3928833,288.8686218 
		773.5686035,305.1540527 	"/>
	<polygon style="fill:#898583;" points="736.5969238,326.8023987 751.9675293,305.7130737 773.1612549,305.7130737 
		757.7964478,326.8023987 	"/>
	<polygon style="fill:#898583;" points="763.8053589,326.8023987 791.4743652,289.0903015 814.6923218,289.0903015 
		787.0233154,326.8023987 	"/>
	<path style="fill:#898583;" d="M819.7287598,326.5942078c-0.1605835,0-0.2612305-0.0125427-0.2699585-0.0134888
		l-26.2040405-0.0019226l23.3515015-31.7168884c0.1403198,2.5224304,0.7150879,10.4675598,2.555481,15.0458984
		c0.5505981,1.3706055,1.0953369,2.5783386,1.6226807,3.745575c1.5220947,3.3725586,2.7248535,6.0366821,2.3832397,9.2627258
		C822.8173828,326.2356567,820.6460571,326.5942078,819.7287598,326.5942078z"/>
	<path style="fill:#898583;" d="M771.0479736,279.7871094l17.1490479-23.3052673l12.1687622,16.5630493
		c0.0725708,0.0886536,1.5230103,1.8920593,0.446106,4.4241028c-0.9144287,2.1552124-2.1655273,2.322937-2.5274658,2.322937
		L771.0479736,279.7871094z"/>
	<polygon style="fill:#898583;" points="741.59375,279.7871094 773.5492554,236.3621826 785.1113281,252.2909851 
		764.8745728,279.7871094 	"/>
	<path style="fill:#898583;" d="M733.0748291,279.8208313c-1.5743408,0-3.5753174-0.3171082-4.1694336-1.8284607
		c-0.9957275-2.5387878-1.3430786-3.4004822-1.4262695-3.6038818v-13.4767151l32.0657959-43.3574524l10.9195557,14.8338623
		l-34.8989868,47.2032471C735.2471313,279.650238,734.2282104,279.8208313,733.0748291,279.8208313z"/>
	<path style="fill:#898583;" d="M727.4800415,198.9903259h24.84552c-0.067749,1.0332642-0.2312622,4.4549713,0.3464355,7.2145233
		c0.6115112,2.9060364,3.1669922,6.3585968,3.7872314,7.1653442l-28.8233643,39.1656036L727.4800415,198.9903259z"/>
	<path style="fill:#898583;" d="M727.479126,191.6534119v-30.5563812c-0.0019531-0.0424194-0.151001-1.9238739,0.5166626-3.8448486
		c0.6115723-1.7600098,2.649353-1.7802582,2.7354736-1.7802582h17.8709106
		c-0.0251465,0.0009613,2.3561401,0.4780731,3.3005371,1.846756c1.0314941,1.4968872,0.767334,3.9441376,0.7653809,3.9682312
		l-0.0019531,30.3665009H727.479126z"/>
	<path style="fill:#898583;" d="M694.1572876,191.6534119l-0.1567383-40.5554962h19.835144
		c0.0029297,0.0038605,4.5952148,0.7431335,5.8705444,3.554718c1.3198242,2.9089508,1.7359009,6.658371,1.7397461,6.6959686
		l-0.0009155,30.3048096H694.1572876z"/>
	<rect x="661.9714355" y="150.6622467" style="fill:#898583;" width="26.3133678" height="38.8051186"/>
	<path style="fill:#898583;" d="M628.5838623,189.4683228c-0.4683228,0-2.8206177-0.083847-3.15448-1.7465057
		c-0.4073486-2.0250854-0.0028687-4.467514,0.0009766-4.492569l14.8723145-32.5641022l15.9540405,0.2110748v38.5911407
		L628.5838623,189.4683228z"/>
	<path style="fill:#898583;" d="M624.9504395,241.5159607v-36.678833c-0.0019531-0.0414581-0.1296387-1.6674805,1.046936-2.8674927
		c1.1998901-1.2250671,1.9623413-1.4544678,1.9700928-1.4564056l28.2892456,0.0096436v40.9930878H624.9504395z"/>
	<polygon style="fill:#898583;" points="661.8079224,242.3892212 661.970459,200.5228729 688.28479,200.5228729 
		688.28479,242.3892212 	"/>
	<rect x="661.9714355" y="249.0726471" style="fill:#898583;" width="26.3133678" height="30.7144527"/>
	<path style="fill:#898583;" d="M627.9577637,279.7871094c-0.2418823-0.1224365-1.2375488-0.6515808-2.0406494-1.4506226
		c-0.8815308-0.8771057-0.9656982-2.1956787-0.9666748-2.2082214v-27.0556183h31.3062744v30.7144623H627.9577637z"/>
	<path style="fill:#898583;" d="M664.7494507,326.5787964c0.0194092-0.0048218-1.6584473-0.4694214-2.1713257-1.6617126
		c-0.3831787-0.8848267-0.6066895-2.4520569-0.6095581-2.4674988l0.0028687-33.3592834h24.8677368v33.3978577
		c0.0009766,0.0289001,0.0599976,1.5778198-0.8950195,2.7479553c-0.7741089,0.9397583-1.7349243,1.2819519-1.923645,1.3426819
		H664.7494507z"/>
	<path style="fill:#898583;" d="M638.5106201,326.5787964c-0.0009766-0.0009766-2.0261841-0.157135-2.6744995-1.4670105
		c-0.699585-1.4024353-0.7789307-2.7123108-0.7799072-2.7257996c-0.0009766-0.0568848-0.1122437-6.9186096-1.9042358-14.1813354
		c-1.7852783-7.2347412-3.6856689-13.2964783-3.7050171-13.3572083c-0.017395-0.0433655-0.6715088-1.5971069,0.2332153-3.7407532
		c0.8108521-1.9200134,2.5031738-2.0163879,2.8341064-2.0163879h21.2498169
		c-0.0154419,0.0067444,1.298584,0.3951721,1.7165527,1.2626648c0.4702759,0.968689,0.65802,1.9961548,0.6599121,2.0057983
		l-0.0038452,30.5862427c-0.0009766,0.0028992-0.0599976,1.3764038-0.6376343,2.2564087
		c-0.6444702,0.9860229-2.0078125,1.3311157-2.2091064,1.3773804H638.5106201z"/>
	<polygon style="fill:#898583;" points="692.2288208,320.0206604 692.2288208,289.0903015 714.7472534,289.0903015 
		714.7472534,292.1495972 695.1258545,292.1495972 695.1258545,320.0206604 	"/>
	<polygon style="fill:#898583;" points="717.980957,318.2702942 717.980957,293.5626221 714.9232788,293.5626221 
		714.9232788,292.1495972 721.6056519,292.1495972 721.6056519,318.2702942 	"/>
	<path style="fill:#898583;" d="M695.1258545,328.1132507v-7.5335388h19.7974243v-1.7503967h6.682373v0.8154297
		c-0.0018921,0-0.4005737,3.0920715-2.0513306,5.8718567c-1.4678955,2.4723206-3.5018311,2.5976257-3.8946533,2.5976257
		L695.1258545,328.1132507z"/>
	<rect x="693.9995728" y="265.0342102" style="fill:#898583;" width="27.4454784" height="14.7528849"/>
	<rect x="693.9995728" y="249.2904816" style="fill:#898583;" width="27.4454784" height="15.1827679"/>
	<rect x="693.9995728" y="199.1715393" style="fill:#898583;" width="27.4454784" height="42.8147888"/>
	<path style="fill:#898583;" d="M822.3741455,380.609375c-2.1860962-1.3744507-13.1536865-10.7987671-17.6060181-17.5187988
		l-13.244812-18.1425781h5.2844849l-0.0054932-2.2922668h25.5718384V380.609375z"/>
	<path style="fill:#898583;" d="M851.5101318,388.5250549c-16.6570435-0.0009155-27.3934937-6.776886-28.6021118-7.5773621
		v-38.0810852h18.548645l0.0524292-0.0238342c0.0009155,0,0.2733765-0.0990295,1.097229-0.0990295
		c1.1193237,0,3.2962646,0.1824646,7.3104858,1.0526123c7.0223389,1.5202637,10.9831543,6.4064636,11.0227051,6.4550476
		l17.4532471,23.5132446l9.1762695-6.8557434l3.6957397,5.8022156c-1.9311523,1.565155-19.0079346,14.9978638-37.1322021,15.7589111
		c-0.8900757,0.0375977-1.7608643,0.0550232-2.6187744,0.0550232
		C851.5119629,388.5250549,851.5110474,388.5250549,851.5101318,388.5250549z"/>
	<path style="fill:#898583;" d="M897.0645752,323.4125061c0.0028687,0-1.3353271-2.348938-0.2980347-4.4039001
		c0.9685669-1.9075012,1.6439819-1.929657,1.6507568-1.929657l17.776062,0.0019226v31.4759216L897.0645752,323.4125061z"/>
	<path style="fill:#898583;" d="M916.7545776,317.0808716h15.3754272v25.4749146
		c-1.0217896,0.053009-4.6552124,0.4134827-8.8110962,2.8173523c-3.59375,2.079071-5.7350464,3.1653442-6.5643311,3.571106
		V317.0808716z"/>
	<path style="fill:#898583;" d="M932.6912231,317.0808716h18.1079712v23.9365845h-12.9099121
		c-0.0057983-0.0028992-0.1489868-0.0202637-0.4005737-0.0202637c-0.5128784,0-1.3875732,0.0713501-2.6425781,0.4154358
		c-1.0905151,0.2978516-1.7610474,0.6168823-2.1549072,0.85495V317.0808716z"/>
	<rect x="951.3604126" y="317.0808716" style="fill:#898583;" width="15.8553667" height="23.9365692"/>
	<rect x="967.7866821" y="317.0808716" style="fill:#898583;" width="16.6430073" height="23.9365692"/>
	<rect x="985.1264038" y="317.0808716" style="fill:#898583;" width="12.8596258" height="23.9365692"/>
	<rect x="998.5665894" y="317.0808716" style="fill:#898583;" width="16.730093" height="23.9365692"/>
	<path style="fill:#898583;" d="M1015.8579102,341.0174561v-23.9365845h7.7989502l9.8406982,19.6329346
		c-0.2215576,0.4857788-1.223999,2.4453125-3.2889404,3.2289429c-2.3590088,0.8944702-4.5062256,1.0631409-4.6551514,1.074707
		H1015.8579102z"/>
	<path style="fill:#898583;" d="M1024.2849121,317.0808716h3.6691895l-7.6480713-18.1254272l7.6015625-5.9884949
		l10.4725342,23.0768127c0.0048828,0.0424194,2.2110596,9.1595764-0.3009033,13.073822
		c-2.0290527,3.1614685-3.6469727,5.9345093-4.2556152,6.9938049L1024.2849121,317.0808716z"/>
	<polygon style="fill:#898583;" points="1001.4152222,311.272644 1001.4152222,289.0903015 1010.7720947,289.0903015 
		1020.9785156,311.272644 	"/>
	<rect x="977.0410156" y="289.0517578" style="fill:#898583;" width="23.7220898" height="22.2208939"/>
	<rect x="961.288208" y="289.0517578" style="fill:#898583;" width="15.0367632" height="22.2208939"/>
	<polygon style="fill:#898583;" points="978.7207642,282.190979 978.7207642,260.0086365 998.0576172,260.0086365 
		1008.2601929,282.190979 	"/>
	<rect x="961.1778564" y="260.0086365" style="fill:#898583;" width="16.9816723" height="22.1823387"/>
	<rect x="961.0172729" y="233.7626495" style="fill:#898583;" width="16.1785507" height="20.4358196"/>
	<polygon style="fill:#898583;" points="977.757019,254.1984711 977.757019,233.7626495 985.8269653,233.7626495 
		995.2263794,254.1984711 	"/>
	<rect x="950.7179565" y="229.6083984" style="fill:#898583;" width="7.4835472" height="36.3993149"/>
	<rect x="950.7179565" y="271.484375" style="fill:#898583;" width="7.4835472" height="36.4012451"/>
	<polygon style="fill:#898583;" points="919.6100464,310.8350525 947.418396,273.9085083 947.418396,305.1212769 
		943.3679199,310.8350525 	"/>
	<polygon style="fill:#898583;" points="926.4801025,260.6004333 947.9021606,231.7115479 947.9021606,265.3185425 
		939.0078735,277.4073181 	"/>
	<polygon style="fill:#898583;" points="913.9243164,277.6540833 923.2347412,264.7922974 935.7624512,281.5962524 
		926.6088257,294.2450256 	"/>
	<polygon style="fill:#898583;" points="892.4741821,311.0567322 890.9095459,308.9304504 913.5788574,278.1263733 
		926.2633667,294.7173462 914.078186,311.0567322 	"/>
	<polygon style="fill:#898583;" points="899.7642212,260.1638184 909.8729248,246.6388855 920.4692993,261.0390015 
		910.3605957,274.5639343 	"/>
	<polygon style="fill:#898583;" points="885.43573,279.8439636 899.4158936,260.638031 910.0112915,275.0362244 
		896.0311279,294.2402344 	"/>
	<path style="fill:#898583;" d="M887.9893188,305.1733093c-1.3450317-1.8583069-8.2625122-11.4217529-9.0975342-12.5870667
		c-0.7421875-1.0429077-0.8921509-2.4424438-0.9192505-2.8164062l7.112915-9.4555054l10.5983276,14.401062L887.9893188,305.1733093z
		"/>
	<polygon style="fill:#898583;" points="880.1245117,247.9121552 894.9077759,227.399231 906.468811,243.1063385 
		891.6846313,263.1922607 	"/>
	<path style="fill:#898583;" d="M876.7426758,283.4989319c-0.3048096-2.0375977-1.3672485-8.0415039-3.6953125-11.4641724
		c-2.4316406-3.5769043-4.4336548-7.3282471-4.8526001-8.1253662l11.583313-15.5268707l11.5591431,15.2810822
		L876.7426758,283.4989319z"/>
	<polygon style="fill:#898583;" points="927.1216431,222.9866638 948.0560303,194.5459595 947.9021606,223.3307648 
		937.5603027,237.1689301 	"/>
	<polygon style="fill:#898583;" points="912.9605713,241.8012695 926.7703857,223.4560547 937.2109985,237.640274 
		923.4002075,256.6196899 	"/>
	<polygon style="fill:#898583;" points="925.0306396,186.2461395 933.8417358,174.0609894 947.9050903,174.0609894 
		948.05896,186.1545715 936.2762451,201.5272217 	"/>
	<polygon style="fill:#898583;" points="898.3128052,222.3302765 924.682251,186.7203522 935.9240723,201.9946899 
		909.8719482,237.8233948 	"/>
	<polygon style="fill:#898583;" points="916.6616821,162.8454742 927.399353,148.2583771 931.4855957,148.2583771 
		931.4855957,168.8802185 926.2894897,175.9337616 	"/>
	<polygon style="fill:#898583;" points="903.1383057,181.2215118 916.3133545,163.3187256 925.9411621,176.4070282 
		912.6170654,194.5180054 	"/>
	<polygon style="fill:#898583;" points="885.5973511,205.0530243 902.7880249,181.696701 912.2667847,194.9931946 
		895.2290039,218.1413269 	"/>
	<path style="fill:#898583;" d="M865.4012451,259.1026001c-0.8534546-0.7045898-3.8859253-3.1768951-5.8318481-4.4241333
		l-0.1915894-0.122406c-2.1277466-1.3590546-3.1950684-2.0414581-3.9110718-4.8501587
		c-0.7208862-2.8318329,1.7281494-5.8448639,1.7523193-5.8747406l25.612854-34.8041229l9.6364746,13.3032379
		L865.4012451,259.1026001z"/>
	<path style="fill:#898583;" d="M868.3776245,181.6562195l24.5794067-33.3959198l18.8723755,0.2130127
		c0.2748413,0.3681946,1.1843872,1.6829071,1.1843872,2.9812317c0,1.5710907-1.291748,4.6940155-1.3043213,4.7258148
		l-30.9666748,42.2779236L868.3776245,181.6562195z"/>
	<polygon style="fill:#898583;" points="854.6936035,163.2849884 865.4351196,148.4733124 886.7894287,148.2641602 
		865.2909546,177.8952332 	"/>
	<polygon style="fill:#898583;" points="819.2846069,211.1812744 851.7733154,167.0392456 862.3687134,181.4364624 
		829.7242432,225.789566 	"/>
	<path style="fill:#898583;" d="M845.5863647,244.5771942c-1.6904297,0-3.0692749-1.838089-3.0828247-1.8563995
		l-9.5348511-12.9543304l32.4828491-44.1381683l12.3661499,16.8030243l-29.4058838,39.7458496
		C848.3731079,242.2465668,847.242981,244.5771942,845.5863647,244.5771942z"/>
	<polygon style="fill:#898583;" points="826.2263184,165.0064545 838.3950806,148.2583771 859.5887451,148.2583771 
		838.2218628,177.2860718 	"/>
	<polygon style="fill:#898583;" points="805.6044922,192.809082 825.8895874,165.4642944 837.8851318,177.7429352 
		816.2037354,207.2072601 	"/>
	<path style="fill:#898583;" d="M786.4911499,166.8368378c-0.0029297-0.0077209-1.6323853-2.6573792-1.1050415-4.6843872
		c0.4615479-1.7841034,1.4001465-3.3850861,1.678833-3.8371277h37.4370728l-21.9822998,30.0821533L786.4911499,166.8368378z"/>
	<polygon style="fill:#898583;" points="759.0233765,185.0692596 759.0233765,157.4401245 767.1291504,157.4401245 
		774.809082,167.8768311 760.5231934,187.2899933 	"/>
	<ellipse style="fill:#898583;" cx="790.4515991" cy="218.9403687" rx="4.0639901" ry="5.515223"/>
	<polygon style="fill:#898583;" points="800.9405518,258.1965637 803.0883179,255.4716797 819.6384277,277.9614868 
		817.4906616,280.6863708 	"/>
	<polygon style="fill:#898583;" points="874.6166382,308.0839233 877.1829224,305.4432068 892.9522095,327.0809631 
		890.5155029,329.8980713 	"/>
	<polygon style="fill:#898583;" points="856.3085327,333.1995544 858.5877075,330.4751282 874.6530151,352.2969666 
		872.3845215,354.8363342 	"/>
	<path style="fill:#898583;" d="M730.3626099,325.7749329c-0.9541016,0-1.4378662-0.2612305-1.4378662-0.7749634v-30.5024109
		c-0.0009766-0.0375671-0.0619507-3.1200256,1.020813-4.1976013c1.0924683-1.0881958,2.8834839-1.2086792,2.9018555-1.2096558
		h25.3389893l-27.1251831,36.6373901C730.9208984,325.7460022,730.6586914,325.7749329,730.3626099,325.7749329z"/>
	<path style="fill:#898583;" d="M725.1026611,150.1032104c-0.0077515-0.0009613-2.0988159-0.1204834-3.1331787-1.929657
		c-1.0662842-1.8641052-0.9328003-3.6520691-0.9318237-3.6703949l0.0009766-6.3075104h43.5388794v6.2843781
		c-0.0009766,0.0183258-0.100647,2.7007446-1.3652954,3.9557037c-1.2075806,1.2048187-3.2153931,1.6221771-3.4505005,1.6674805
		H725.1026611z"/>
	<polygon style="fill:#898583;" points="770.9347534,148.5706635 770.9347534,129.0100403 782.604248,129.0119629 
		782.604248,137.7580566 790.0064697,137.7580566 790.0064697,148.5706635 	"/>
	<polygon style="fill:#898583;" points="810.0458374,140.044342 810.0458374,126.2668762 791.3746948,126.2668762 
		791.3746948,122.3304672 786.5462646,122.3304672 786.5462646,110.642662 840.7095947,110.642662 840.7095947,140.044342 	"/>
	<rect x="847.8699951" y="138.1956482" style="fill:#898583;" width="18.5879154" height="4.6882286"/>
	<rect x="886.0134277" y="126.1685638" style="fill:#898583;" width="25.0322437" height="12.7808208"/>
	<polygon style="fill:#898583;" points="936.0682373,168.4725037 936.0682373,145.1932831 939.690979,145.1932831 
		939.690979,164.2199402 954.3406982,164.2199402 954.3406982,168.4725037 	"/>
	<polygon style="fill:#898583;" points="987.6315308,227.9544067 961.1778564,227.9544067 961.1778564,216.4863739 
		992.427063,216.4863739 1002.4012451,237.7838745 995.117981,243.966095 	"/>
	<polygon style="fill:#898583;" points="1009.3729248,274.802948 1016.9542236,269.5498962 1027.666748,292.443573 
		1020.0728149,298.4262695 	"/>
	<path id="Shape-2-003" style="fill:#898583;" d="M562.1124268,326.1469727l-9.5697021-33.3756714l14.5974731-31.6995239
		l1.6807251,1.5778503c-0.5234985,1.6954346-4.3823242,15.4854126,3.1254272,31.0913086
		c7.4719238,15.527832,12.8325195,22.1514893,13.4962769,22.9447632v9.4612732H562.1124268z"/>
	<polygon id="Shape-2-002" style="fill:#898583;" points="600.9631958,189.4673615 624.2053833,138.1985321 
		639.5256348,138.4115448 617.9545898,184.8735962 617.9545898,189.4673615 	"/>
	<rect id="Shape-2-001" x="593.7254639" y="317.2987061" style="fill:#898583;" width="19.0755959" height="11.2521343"/>
</g>
</svg>
