<?xml version="1.0" encoding="utf-8"?>
<!-- Generator: Adobe Illustrator 26.4.1, SVG Export Plug-In . SVG Version: 6.00 Build 0)  -->
<svg version="1.1" id="Layer_1" xmlns="http://www.w3.org/2000/svg" xmlns:xlink="http://www.w3.org/1999/xlink" x="0px" y="0px"
	 width="1076.5px" height="420.3px" viewBox="0 0 1076.5 420.3" style="enable-background:new 0 0 1076.5 420.3;"
	 xml:space="preserve">
<style type="text/css">
	.st0{fill:#C6C6C6;}
	.st1{fill:#898583;}
</style>
<g id="grand1">
	<path class="st0" d="M282.9,290.8L263,276.9l12.4-31.8c0.7-1.9,2.5-2.7,3.9-1.7l14.5,9.9c1.5,1,2,3.4,1.3,5.3L282.9,290.8z"/>
	<path class="st0" d="M271.7,317l-19.9,0.3c-1.8,0.1-3-2.5-2.2-4.7l12.9-34.1l19.9,13.8l-8.5,22.9C273.4,316.3,272.6,317,271.7,317z
		"/>
	<path class="st0" d="M277.3,146.1l17.6,12.2c1.7,1.2,2.4,4,1.5,6.3l-9.5,25.1c-0.9,2.3-3,3.3-4.6,2.1l-17.6-12.2
		c-1.7-1.2-2.4-4-1.5-6.3l9.5-25.1C273.5,145.9,275.6,145,277.3,146.1z"/>
	<path class="st0" d="M323.7,183.5l-7.8,19.9l-20.5-14.1l7.8-19.9c1-2.5,3.2-3.5,5.1-2.3l13.7,9.5
		C323.9,177.9,324.7,181,323.7,183.5z"/>
	<path class="st0" d="M281.6,235.6c-1.6-1.1-2.3-3.8-1.5-6l8.3-21.9l20.5,14.1l-8.3,21.9c-0.8,2.2-2.8,3.1-4.4,1.9L281.6,235.6z"/>
	<path class="st0" d="M269.2,145.9l-9.5,25.1c-0.9,2.3-3,3.3-4.6,2.1l-15.5-10.7c-1.7-1.2-2.4-4-1.5-6.3l9.5-25.1
		c0.9-2.3,3-3.3,4.6-2.1l15.5,10.7C269.4,140.7,270.1,143.6,269.2,145.9z"/>
	<polygon class="st0" points="187.2,224.6 167.3,242.8 161.6,231.6 181.6,213.4 	"/>
	<polygon class="st0" points="196.6,242.9 176.6,261.2 168.1,244 188.1,225.8 	"/>
	<polygon class="st0" points="206.4,261.3 186.4,279.6 177.7,262.1 197.7,243.9 	"/>
	<polygon class="st0" points="215.6,280.2 195.6,298.4 186.9,281 206.9,262.7 	"/>
	<polygon class="st0" points="226.8,302 206.8,320.2 196.6,299.8 216.6,281.5 	"/>
	<path class="st0" d="M195.1,95.3l-9.4,24.8c-0.9,2.4-3.1,3.3-4.8,2.1l-4.6-3.2l-13.9-28.2c-1.6-3.3-1.8-7.4-0.5-10.8l1.5-3.9
		c1.4-3.6,4.6-5,7.3-3.2l22.9,15.8C195.2,90,195.9,92.9,195.1,95.3z"/>
	<path class="st0" d="M281.9,203.7l-8,21.3c-0.9,2.3-3,3.3-4.6,2.1L226,197.2c-1.7-1.2-2.4-4-1.5-6.3l8-21.3c0.9-2.3,3-3.3,4.6-2.1
		l43.3,29.9C282.1,198.6,282.8,201.4,281.9,203.7z"/>
	<path class="st0" d="M267.3,235.3c1.1,0.8,1.5,2.6,0.9,4.1l-10.2,27l-25.6-17.7l11.2-29.7L267.3,235.3z"/>
	<path class="st0" d="M238.4,305.8l-15.9-30.9l9.7-24.9l25.6,17.7l-14.1,37.5C242.7,308.2,239.8,308.4,238.4,305.8z"/>
	<path class="st0" d="M207.6,234.7l10.8-28.8c0.8-2.2,2.8-3.1,4.4-1.9l20,13.8l-12.3,32.7L207.6,234.7z"/>
	<path class="st0" d="M206.7,243.8c-0.7-1.5-0.9-3.3-0.3-4.8l1-3.1l22.9,15.8l-8.3,22L206.7,243.8z"/>
	<path class="st0" d="M198.8,228.8l-14-27.3l-0.3-17.7c0-2.7,2.1-4.6,3.9-3.3l24,16.6c1.3,0.9,1.8,3.1,1.2,4.9l-10.2,26.4
		C202.4,230.8,200,231,198.8,228.8z"/>
	<path class="st0" d="M188.8,133.6l38.1,26.6c1.5,1,2,3.3,1.3,5.2l-8.6,22.8c-0.7,1.9-2.5,2.7-3.9,1.7L186.2,170
		c-1-0.7-1.6-2.1-1.6-3.6l-0.1-29.2C184.5,134.2,186.8,132.2,188.8,133.6z"/>
	<path class="st0" d="M291,100c0.9-2.3,2.9-3.1,4.5-2l17.9,12.4c1.6,1.1,2.3,3.9,1.5,6l-12.3,32.7c-0.9,2.3-2.9,3.1-4.5,2
		l-17.9-12.4c-1.6-1.1-2.3-3.9-1.5-6L291,100z"/>
	<path class="st0" d="M325.3,71.7l3.4,2.1c1,0.6,1.4,2.2,0.9,3.5L319,104.8c-0.5,1.3-1.6,1.8-2.5,1.1l-46.7-32.1
		c-1.1-0.7-0.7-2.9,0.5-2.9h52.5C323.6,71,324.5,71.2,325.3,71.7z"/>
	<path class="st0" d="M285.8,91.5c1.7,1.2,2.4,4,1.5,6.3l-12.2,32.4c-0.9,2.3-3,3.3-4.6,2.1l-15.6-10.8c-1.7-1.2-2.4-4-1.5-6.3
		l12.2-32.4c0.9-2.3,3-3.3,4.6-2.1L285.8,91.5z"/>
	<path class="st0" d="M187.2,71.1l71.7-0.1l0.5,0.5c1.5,1.4,1.9,3.9,1.1,6l-12.8,33.8c-0.9,2.4-3,3.4-4.8,2.1l-56.3-39.1
		C185.4,73.5,185.8,71.1,187.2,71.1z"/>
	<rect x="317.6" y="33.2" class="st0" width="15.7" height="29.5"/>
	<rect x="302.4" y="33.2" class="st0" width="13.8" height="29.5"/>
	<rect x="287.1" y="33.2" class="st0" width="14.3" height="29.5"/>
	<rect x="271.9" y="33.2" class="st0" width="14.3" height="29.5"/>
	<rect x="253.7" y="33.2" class="st0" width="14.3" height="29.5"/>
	<rect x="235.3" y="33.2" class="st0" width="17.3" height="29.5"/>
	<rect x="219.8" y="33.2" class="st0" width="14.9" height="29.5"/>
	<rect x="205.2" y="33.2" class="st0" width="13.6" height="29.5"/>
	<rect x="190.1" y="33.2" class="st0" width="14.1" height="29.5"/>
	<rect x="171.1" y="33.2" class="st0" width="18.1" height="29.5"/>
	<rect x="128.2" y="33.2" class="st0" width="18.3" height="5.3"/>
	<path class="st0" d="M147.3,49.5V33.3h22.4h0v29.5l-20.5-10.1C148.1,52.1,147.3,50.8,147.3,49.5z"/>
	<path class="st0" d="M158.3,70.5c0,0-2.3,4.8-3.4,9.1c-1.1,4.2,1.3,13.5,1.3,13.5l5,10.3h-23.5l-19.9-39h29.7L158.3,70.5z"/>
	<polygon class="st0" points="176,132.7 149.3,132.7 149.3,126.2 138.5,104.6 161.5,104.6 	"/>
	<rect x="149.3" y="134.3" class="st0" width="27.7" height="19.9"/>
	<polygon class="st0" points="176.9,204.3 180.7,211.7 160.5,229.9 158.6,226.3 149.3,226.3 149.3,186.7 176.8,186.7 	"/>
	<polygon class="st0" points="264.6,327.4 264.6,355.3 258,355.3 246.9,347.1 254.3,327.4 	"/>
	<polygon class="st0" points="235.1,318.1 217.6,340.9 207.5,321.4 227.6,303.2 	"/>
	<path class="st0" d="M247.9,327.4l3-0.1l-17.2,44.7L218,341.7l17.7-22.6C238.4,324.5,243,327.6,247.9,327.4z"/>
	<polygon class="st0" points="274.9,350.7 274.8,336.3 286.5,325 299.1,349.8 276,371.9 266.2,365 266.2,350.8 	"/>
	<polygon class="st0" points="316.8,384.4 277,384.8 276.4,372.6 299.6,350.6 	"/>
	<polygon class="st0" points="304.3,307.8 336.9,372.3 336.7,383.8 321.5,383.6 290,321.6 	"/>
	<polygon class="st0" points="319.6,293.2 365.8,383.8 337.8,384.1 337.7,371.2 305.1,307.1 	"/>
	<polygon class="st0" points="373.6,363.1 385,384.1 368.1,383.1 363.2,373.2 	"/>
	<polygon class="st0" points="385.8,351.1 399.8,377.9 388.7,388.5 374.4,362 	"/>
	<polygon class="st0" points="399.1,338.9 412.3,366.1 400.6,377.2 386.6,350.4 	"/>
	<polygon class="st0" points="354,344.6 381.9,318.4 387.1,328.6 359.4,355.1 	"/>
	<polygon class="st0" points="341,318.8 368.6,292.2 381.3,317.3 353.5,343.5 	"/>
	<polygon class="st0" points="411.3,343.5 401.1,323.5 426.8,298.8 437.6,318.2 	"/>
	<polygon class="st0" points="442.2,323 449.2,336.6 443.3,336.3 413.1,365 408.2,355.3 	"/>
	<polygon class="st0" points="481.1,285.4 485.9,294.5 479.3,301.4 492.3,326.3 482.1,336.2 450.5,336.6 443,321.9 	"/>
	<polygon class="st0" points="324.9,287 338.2,274.5 353.9,305.2 340.7,317.9 	"/>
	<polygon class="st0" points="354.5,304.6 338.8,273.8 352.3,260.5 352.3,260.6 368,291.2 	"/>
	<polygon class="st0" points="375.6,242.3 375.6,242.3 384.4,259.6 367.8,275.5 358,256.4 357.8,256.6 374.6,240.4 	"/>
	<polygon class="st0" points="394.5,279.4 377.9,295.3 368.3,276.6 384.9,260.7 	"/>
	<polygon class="st0" points="381.8,303.1 401,284.7 411.3,304.9 392.1,323.3 	"/>
	<polygon class="st0" points="463.9,293.1 438.4,317.1 427.6,297.7 453.7,273.1 	"/>
	<polygon class="st0" points="430.4,286.6 415.8,300.7 404.8,279.2 419.5,265.2 419.5,265.1 	"/>
	<polygon class="st0" points="449.9,267.9 435.3,281.9 424.3,260.4 439,246.4 	"/>
	<polygon class="st0" points="488.7,283.4 483.8,273.9 467.5,289.6 457.3,269.6 473.7,253.9 471.6,249.6 479.2,241.6 496.5,275.8 	
		"/>
	<path class="st0" d="M423,158.2c-0.4-0.3-0.7-0.7-1-1.1l-23.9-46.7l9.4-9l25.6,50.2l-6.3,6C425.4,158.9,424.1,159.1,423,158.2z"/>
	<polygon class="st0" points="384.5,83.6 363.1,84 367.4,74.9 393.9,74.7 406.7,100.3 397.3,109.2 	"/>
	<polygon class="st0" points="401.2,272.8 381.4,233.9 397.6,218.4 417.7,257.1 	"/>
	<polygon class="st0" points="418.2,256.4 398.1,217.7 414.3,202.1 414.4,202.1 434.2,241.1 	"/>
	<polygon class="st0" points="470.6,247.9 454.2,263.6 435.5,226.9 459.7,203.6 478.6,240.8 471.1,248.8 	"/>
	<path class="st0" d="M424.9,206l-0.3-0.8c-0.2-0.7-0.3-1.3-0.3-2c0-2.2,0.8-4.1,2.5-5.7l19.9-19.2l12.4,24.6L435,226.1L424.9,206z"
		/>
	<polygon class="st0" points="406.7,150.6 418.9,174.6 398.5,194 386.3,169.9 406.6,150.6 	"/>
	<polygon class="st0" points="385.6,170.9 397.8,194.9 376.2,215.8 364,191.7 	"/>
	<polygon class="st0" points="379.9,91.5 406,142.7 384.4,163.5 383.3,160.9 387.8,156.6 366.8,115.7 375.4,93.7 	"/>
	<polygon class="st0" points="386.4,156.3 382.1,160.6 383.6,164.2 361,185.9 348.5,161.4 366,116.5 	"/>
	<polygon class="st0" points="341.3,76.7 343.8,63.4 371,63.4 361.8,84 	"/>
	<polygon class="st0" points="368.6,225.8 344.3,249.2 327.7,213.5 344.5,178.4 	"/>
	<polygon class="st0" points="343.1,250.3 325.4,266.4 311.8,255.1 327.3,216.1 	"/>
	<polygon class="st0" points="295,190.6 301.5,195.3 296.3,211 289.5,206.3 	"/>
	<polygon class="st0" points="228.5,112.8 222.9,128.6 214.5,123 220.2,107.2 	"/>
	<polygon class="st0" points="208.1,141 214.2,123.9 222.6,129.5 216.5,146.6 	"/>
	<path class="st0" d="M239.8,120.8c1.8,1.2,2.5,4.3,1.6,6.7l-9.3,24.5c-0.9,2.5-3.1,3.5-5,2.2l-9.6-6.6l12-33.9L239.8,120.8z"/>
	<path class="st0" d="M198.3,97.7c0.9-2.5,3.1-3.5,5-2.2l15.8,10.9l-12,33.9l-16.4-11.3c-1.8-1.3-2.5-4.3-1.6-6.7L198.3,97.7z"/>
	<path class="st0" d="M319.6,272.3l-19.9,18.8c-1.1,1.4-2.9-0.1-2.4-2.1l10.7-25.7L319.6,272.3z"/>
</g>
<g id="grand2">
	<polygon class="st1" points="772.9,67.2 772.9,69 748.6,69 748.6,75.8 789,75.6 789,67.2 	"/>
	<polygon class="st1" points="695.6,67.2 695.6,72.5 696.9,73.9 711.2,73.9 713.3,75.8 748,75.8 748,67.2 	"/>
	<polygon class="st1" points="752.4,106.5 764.4,122.8 785.4,122.8 773.6,106.5 	"/>
	<polygon class="st1" points="736.6,84.9 752,106 773.2,106 757.8,84.9 	"/>
	<polygon class="st1" points="763.8,84.9 791.5,122.6 814.7,122.6 787,84.9 	"/>
	<path class="st1" d="M819.7,85.1c-0.2,0-0.3,0-0.3,0l-26.2,0l23.4,31.7c0.1-2.5,0.7-10.5,2.6-15c0.6-1.4,1.1-2.6,1.6-3.7
		c1.5-3.4,2.7-6,2.4-9.3C822.8,85.4,820.6,85.1,819.7,85.1z"/>
	<path class="st1" d="M771,131.9l17.1,23.3l12.2-16.6c0.1-0.1,1.5-1.9,0.4-4.4c-0.9-2.2-2.2-2.3-2.5-2.3L771,131.9z"/>
	<polygon class="st1" points="741.6,131.9 773.5,175.3 785.1,159.4 764.9,131.9 	"/>
	<path class="st1" d="M733.1,131.9c-1.6,0-3.6,0.3-4.2,1.8c-1,2.5-1.3,3.4-1.4,3.6v13.5l32.1,43.4l10.9-14.8l-34.9-47.2
		C735.2,132,734.2,131.9,733.1,131.9z"/>
	<path class="st1" d="M727.5,212.7h24.8c-0.1-1-0.2-4.5,0.3-7.2c0.6-2.9,3.2-6.4,3.8-7.2l-28.8-39.2L727.5,212.7z"/>
	<path class="st1" d="M727.5,220v30.6c0,0-0.2,1.9,0.5,3.8c0.6,1.8,2.6,1.8,2.7,1.8h17.9c0,0,2.4-0.5,3.3-1.8c1-1.5,0.8-3.9,0.8-4
		l0-30.4H727.5z"/>
	<path class="st1" d="M694.2,220l-0.2,40.6h19.8c0,0,4.6-0.7,5.9-3.6c1.3-2.9,1.7-6.7,1.7-6.7l0-30.3H694.2z"/>
	<rect x="662" y="222.2" class="st1" width="26.3" height="38.8"/>
	<path class="st1" d="M628.6,222.2c-0.5,0-2.8,0.1-3.2,1.7c-0.4,2,0,4.5,0,4.5l14.9,32.6l16-0.2v-38.6L628.6,222.2z"/>
	<path class="st1" d="M625,170.2v36.7c0,0-0.1,1.7,1,2.9c1.2,1.2,2,1.5,2,1.5l28.3,0v-41H625z"/>
	<polygon class="st1" points="661.8,169.3 662,211.2 688.3,211.2 688.3,169.3 	"/>
	<rect x="662" y="131.9" class="st1" width="26.3" height="30.7"/>
	<path class="st1" d="M628,131.9c-0.2,0.1-1.2,0.7-2,1.5c-0.9,0.9-1,2.2-1,2.2v27.1h31.3v-30.7H628z"/>
	<path class="st1" d="M664.7,85.1c0,0-1.7,0.5-2.2,1.7c-0.4,0.9-0.6,2.5-0.6,2.5l0,33.4h24.9V89.2c0,0,0.1-1.6-0.9-2.7
		c-0.8-0.9-1.7-1.3-1.9-1.3H664.7z"/>
	<path class="st1" d="M638.5,85.1c0,0-2,0.2-2.7,1.5c-0.7,1.4-0.8,2.7-0.8,2.7c0,0.1-0.1,6.9-1.9,14.2c-1.8,7.2-3.7,13.3-3.7,13.4
		c0,0-0.7,1.6,0.2,3.7c0.8,1.9,2.5,2,2.8,2h21.2c0,0,1.3-0.4,1.7-1.3c0.5-1,0.7-2,0.7-2l0-30.6c0,0-0.1-1.4-0.6-2.3
		c-0.6-1-2-1.3-2.2-1.4H638.5z"/>
	<polygon class="st1" points="692.2,91.7 692.2,122.6 714.7,122.6 714.7,119.5 695.1,119.5 695.1,91.7 	"/>
	<polygon class="st1" points="718,93.4 718,118.1 714.9,118.1 714.9,119.5 721.6,119.5 721.6,93.4 	"/>
	<path class="st1" d="M695.1,83.6v7.5h19.8v1.8h6.7V92c0,0-0.4-3.1-2.1-5.9c-1.5-2.5-3.5-2.6-3.9-2.6L695.1,83.6z"/>
	<rect x="694" y="131.9" class="st1" width="27.4" height="14.8"/>
	<rect x="694" y="147.2" class="st1" width="27.4" height="15.2"/>
	<rect x="694" y="169.7" class="st1" width="27.4" height="42.8"/>
	<path class="st1" d="M822.4,31.1c-2.2,1.4-13.2,10.8-17.6,17.5l-13.2,18.1h5.3l0,2.3h25.6V31.1z"/>
	<path class="st1" d="M851.5,23.2c-16.7,0-27.4,6.8-28.6,7.6v38.1h18.5l0.1,0c0,0,0.3,0.1,1.1,0.1c1.1,0,3.3-0.2,7.3-1.1
		c7-1.5,11-6.4,11-6.5l17.5-23.5l9.2,6.9l3.7-5.8c-1.9-1.6-19-15-37.1-15.8C853.2,23.2,852.4,23.2,851.5,23.2
		C851.5,23.2,851.5,23.2,851.5,23.2z"/>
	<path class="st1" d="M897.1,88.3c0,0-1.3,2.3-0.3,4.4c1,1.9,1.6,1.9,1.7,1.9l17.8,0V63.1L897.1,88.3z"/>
	<path class="st1" d="M916.8,94.6h15.4V69.1c-1-0.1-4.7-0.4-8.8-2.8c-3.6-2.1-5.7-3.2-6.6-3.6V94.6z"/>
	<path class="st1" d="M932.7,94.6h18.1V70.7h-12.9c0,0-0.1,0-0.4,0c-0.5,0-1.4-0.1-2.6-0.4c-1.1-0.3-1.8-0.6-2.2-0.9V94.6z"/>
	<rect x="951.4" y="70.7" class="st1" width="15.9" height="23.9"/>
	<rect x="967.8" y="70.7" class="st1" width="16.6" height="23.9"/>
	<rect x="985.1" y="70.7" class="st1" width="12.9" height="23.9"/>
	<rect x="998.6" y="70.7" class="st1" width="16.7" height="23.9"/>
	<path class="st1" d="M1015.9,70.7v23.9h7.8l9.8-19.6c-0.2-0.5-1.2-2.4-3.3-3.2c-2.4-0.9-4.5-1.1-4.7-1.1H1015.9z"/>
	<path class="st1" d="M1024.3,94.6h3.7l-7.6,18.1l7.6,6l10.5-23.1c0,0,2.2-9.2-0.3-13.1c-2-3.2-3.6-5.9-4.3-7L1024.3,94.6z"/>
	<polygon class="st1" points="1001.4,100.4 1001.4,122.6 1010.8,122.6 1021,100.4 	"/>
	<rect x="977" y="100.4" class="st1" width="23.7" height="22.2"/>
	<rect x="961.3" y="100.4" class="st1" width="15" height="22.2"/>
	<polygon class="st1" points="978.7,129.5 978.7,151.7 998.1,151.7 1008.3,129.5 	"/>
	<rect x="961.2" y="129.5" class="st1" width="17" height="22.2"/>
	<rect x="961" y="157.5" class="st1" width="16.2" height="20.4"/>
	<polygon class="st1" points="977.8,157.5 977.8,177.9 985.8,177.9 995.2,157.5 	"/>
	<rect x="950.7" y="145.7" class="st1" width="7.5" height="36.4"/>
	<rect x="950.7" y="103.8" class="st1" width="7.5" height="36.4"/>
	<polygon class="st1" points="919.6,100.8 947.4,137.8 947.4,106.6 943.4,100.8 	"/>
	<polygon class="st1" points="926.5,151.1 947.9,180 947.9,146.4 939,134.3 	"/>
	<polygon class="st1" points="913.9,134 923.2,146.9 935.8,130.1 926.6,117.4 	"/>
	<polygon class="st1" points="892.5,100.6 890.9,102.8 913.6,133.6 926.3,117 914.1,100.6 	"/>
	<polygon class="st1" points="899.8,151.5 909.9,165 920.5,150.6 910.4,137.1 	"/>
	<polygon class="st1" points="885.4,131.8 899.4,151 910,136.6 896,117.4 	"/>
	<path class="st1" d="M888,106.5c-1.3,1.9-8.3,11.4-9.1,12.6c-0.7,1-0.9,2.4-0.9,2.8l7.1,9.5l10.6-14.4L888,106.5z"/>
	<polygon class="st1" points="880.1,163.8 894.9,184.3 906.5,168.6 891.7,148.5 	"/>
	<path class="st1" d="M876.7,128.2c-0.3,2-1.4,8-3.7,11.5c-2.4,3.6-4.4,7.3-4.9,8.1l11.6,15.5l11.6-15.3L876.7,128.2z"/>
	<polygon class="st1" points="927.1,188.7 948.1,217.1 947.9,188.4 937.6,174.5 	"/>
	<polygon class="st1" points="913,169.9 926.8,188.2 937.2,174 923.4,155.1 	"/>
	<polygon class="st1" points="925,225.4 933.8,237.6 947.9,237.6 948.1,225.5 936.3,210.2 	"/>
	<polygon class="st1" points="898.3,189.4 924.7,225 935.9,209.7 909.9,173.9 	"/>
	<polygon class="st1" points="916.7,248.8 927.4,263.4 931.5,263.4 931.5,242.8 926.3,235.8 	"/>
	<polygon class="st1" points="903.1,230.5 916.3,248.4 925.9,235.3 912.6,217.2 	"/>
	<polygon class="st1" points="885.6,206.6 902.8,230 912.3,216.7 895.2,193.5 	"/>
	<path class="st1" d="M865.4,152.6c-0.9,0.7-3.9,3.2-5.8,4.4l-0.2,0.1c-2.1,1.4-3.2,2-3.9,4.9c-0.7,2.8,1.7,5.8,1.8,5.9l25.6,34.8
		l9.6-13.3L865.4,152.6z"/>
	<path class="st1" d="M868.4,230l24.6,33.4l18.9-0.2c0.3-0.4,1.2-1.7,1.2-3c0-1.6-1.3-4.7-1.3-4.7l-31-42.3L868.4,230z"/>
	<polygon class="st1" points="854.7,248.4 865.4,263.2 886.8,263.4 865.3,233.8 	"/>
	<polygon class="st1" points="819.3,200.5 851.8,244.6 862.4,230.2 829.7,185.9 	"/>
	<path class="st1" d="M845.6,167.1c-1.7,0-3.1,1.8-3.1,1.9l-9.5,13l32.5,44.1l12.4-16.8l-29.4-39.7
		C848.4,169.4,847.2,167.1,845.6,167.1z"/>
	<polygon class="st1" points="826.2,246.7 838.4,263.4 859.6,263.4 838.2,234.4 	"/>
	<polygon class="st1" points="805.6,218.9 825.9,246.2 837.9,233.9 816.2,204.5 	"/>
	<path class="st1" d="M786.5,244.8c0,0-1.6,2.7-1.1,4.7c0.5,1.8,1.4,3.4,1.7,3.8h37.4l-22-30.1L786.5,244.8z"/>
	<polygon class="st1" points="759,226.6 759,254.2 767.1,254.2 774.8,243.8 760.5,224.4 	"/>
	<ellipse class="st1" cx="790.5" cy="192.7" rx="4.1" ry="5.5"/>
	<polygon class="st1" points="800.9,153.5 803.1,156.2 819.6,133.7 817.5,131 	"/>
	<polygon class="st1" points="874.6,103.6 877.2,106.2 893,84.6 890.5,81.8 	"/>
	<polygon class="st1" points="856.3,78.5 858.6,81.2 874.7,59.4 872.4,56.8 	"/>
	<path class="st1" d="M730.4,85.9c-1,0-1.4,0.3-1.4,0.8v30.5c0,0-0.1,3.1,1,4.2c1.1,1.1,2.9,1.2,2.9,1.2h25.3L731.1,86
		C730.9,85.9,730.7,85.9,730.4,85.9z"/>
	<path class="st1" d="M725.1,261.6c0,0-2.1,0.1-3.1,1.9c-1.1,1.9-0.9,3.7-0.9,3.7l0,6.3h43.5v-6.3c0,0-0.1-2.7-1.4-4
		c-1.2-1.2-3.2-1.6-3.5-1.7H725.1z"/>
	<polygon class="st1" points="770.9,263.1 770.9,282.7 782.6,282.7 782.6,273.9 790,273.9 790,263.1 	"/>
	<polygon class="st1" points="810,271.6 810,285.4 791.4,285.4 791.4,289.4 786.5,289.4 786.5,301 840.7,301 840.7,271.6 	"/>
	<rect x="847.9" y="268.8" class="st1" width="18.6" height="4.7"/>
	<rect x="886" y="272.7" class="st1" width="25" height="12.8"/>
	<polygon id="Shape-2-006" class="st1" points="936.1,243.2 936.1,266.5 939.7,266.5 939.7,247.5 954.3,247.5 954.3,243.2 	"/>
	<polygon id="Shape-2-005" class="st1" points="987.6,183.7 961.2,183.7 961.2,195.2 992.4,195.2 1002.4,173.9 995.1,167.7 	"/>
	<polygon id="Shape-2-004" class="st1" points="1009.4,136.9 1017,142.1 1027.7,119.2 1020.1,113.3 	"/>
	<path id="Shape-2-003" class="st1" d="M562.1,85.5l-9.6,33.4l14.6,31.7l1.7-1.6c-0.5-1.7-4.4-15.5,3.1-31.1
		c7.5-15.5,12.8-22.2,13.5-22.9v-9.5H562.1z"/>
	<polygon id="Shape-2-002" class="st1" points="601,222.2 624.2,273.5 639.5,273.3 618,226.8 618,222.2 	"/>
	<rect id="Shape-2-001" x="593.7" y="83.1" class="st1" width="19.1" height="11.3"/>
</g>
</svg>
