<?xml version="1.0" encoding="utf-8"?>
<!-- Generator: Adobe Illustrator 26.2.1, SVG Export Plug-In . SVG Version: 6.00 Build 0)  -->
<svg version="1.1" id="floor" xmlns="http://www.w3.org/2000/svg" xmlns:xlink="http://www.w3.org/1999/xlink" x="0px" y="0px"
	 width="1076.4782715px" height="420.2608643px" viewBox="0 0 1076.4782715 420.2608643"
	 style="enable-background:new 0 0 1076.4782715 420.2608643;" xml:space="preserve">
<path style="fill:#C71618;" d="M519.4786987,92.8770142l-21.445343-20.2089996h-53.9940796l-57.8905945-54.7714005
	l-4.0664062,7.9804001H243.2658691c0,0-1.9726868-0.0682983-3.703186,0.527401
	c-1.7304077,0.5937004-4.2890015,3.4570007-4.2890015,3.4570007l-67.6407013,131.8808899v5.5781097h-38.0252991l6.253891-98.2442093
	l-72.1230927-9.5682983l-5.2616997,86.4121017l-23.1973-2.9277039L24.752182,325.1251221l32.1660004,56.3671875h32.7440948
	l0.392601-53.976593l34.1112976-74.7129059l4.2905045-67.4003906h19.6860962v97.0487823l-30.8007965,63.281311v34.031189
	h218.5741882v-31.6405945h40.6817017l-4.875-12.2284851h23.7832031L519.4786987,92.8770142z"/>
<path style="fill:#FAE7BE;stroke:#C4311E;stroke-width:0.173313;stroke-miterlimit:10;" d="M614.2883911,120.8090134
	l11.8612671,10.1913986l9.0957031-21.9356003h311.3964844l97.1387939,207.3887024l-11.2110596,30.3573914H930.5578613
	l-13.9707031,9.9707031c0,0,1.9960938,12.8417969-2.6776733,20.1719055c-5.9296875,9.2969055-16.6524048,5.75-16.6524048,5.75
	l-45.9667969,7.3164062c0,0-7.6679077,1.1073914-23.8789062-5.2598267
	c-10.8828125-4.2714844-15.921936-10.8339844-15.921936-10.8339844l-20.5409546-26.0078125H527.3840942l23.5546875-52.7342834
	l-13.1602173-9.0859985l-1.9472656-12.6269226l38.3339844-82.8652802l8.9375-2.6621094L614.2883911,120.8090134z"/>
</svg>
