<?xml version="1.0" encoding="UTF-8" standalone="no"?>
<!-- Generator: Adobe Illustrator 26.4.1, SVG Export Plug-In . SVG Version: 6.00 Build 0)  -->

<svg
   version="1.1"
   id="svg755084"
   x="0px"
   y="0px"
   width="2600px"
   height="1200px"
   viewBox="0 0 2600 1200"
   style="enable-background:new 0 0 2600 1200;"
   xml:space="preserve"
   xmlns="http://www.w3.org/2000/svg"
   xmlns:svg="http://www.w3.org/2000/svg"><defs
   id="defs125004" />
<g
   id="floor"
   style="display:inline">
	
		<path
   id="grand-f1"
   style="fill:none;stroke:#808080;stroke-width:0.999999;stroke-miterlimit:15.1181"
   d="m 344.56015,805.21366 61.08801,-105.625 H 422.5 v -27.08331 h 83.65735 v 8.72681 L 640.48816,877.3441 c 0,0 2.12787,6.80926 7.66034,8.93707 5.53247,2.12787 13.19275,-1.27674 13.19275,-1.27674 h 278.32507 l 8.51148,11.91608 116.1816,-82.13574 h 110.2235 l 44.6852,-31.49243 -251.93961,-363.86536 h -49.79211 l 10.87451,-18.83517 H 846.4657 v -46.7031 H 404.29483 v 52.77115 l 62.55933,92.77506 V 645.4066 H 406.4227 V 497.73258 l -37.0249,-59.15472 v -83.41241 h -52.34552 v 22.55538 l -28.939,25.53443 -4.25577,-5.10687 v 14.46951 h -14.89505 v 205.552 h 37.02491 v 75.32654 68.51733 c 0,0 -2.55344,8.93708 11.49047,22.98102 14.04395,14.04395 27.08234,20.21893 27.08234,20.21893 z" />
	
		<path
   id="grand-f2"
   style="fill:#b8b8b8;stroke:#ff0000;stroke-width:2;stroke-linejoin:round;stroke-miterlimit:15.1181"
   d="m 2535.9028,401.07017 c -10.8335,-19.56018 -36.7129,-20.16205 -36.7129,-20.16205 l -239.236,-0.30084 c 0,0 -32.199,-0.60187 -47.5462,-7.52313 -15.3472,-6.92127 -24.375,-11.73615 -24.375,-11.73615 l -50.5556,-50.25458 -49.9537,-5.71759 c 0,0 -49.9538,-22.56945 -99.6067,-14.74536 -49.6528,7.82404 -74.6296,22.2685 -99.6064,41.22687 -24.9768,18.95831 -45.4398,48.44904 -45.4398,48.44904 l -38.2177,0.90277 c 0,0 -0.602,-29.18976 -27.6851,-29.49073 -27.0833,-0.30084 -32.4999,29.49073 -32.4999,29.49073 h -201.6205 c 0,0 -3.0092,-29.49073 -26.1804,-29.49073 -23.1713,0 -34.3056,29.49073 -34.3056,29.49073 h -200.4171 c 0,0 -2.1063,-29.49073 -30.0924,-29.49073 -27.9863,0 -31.5974,28.88892 -31.5974,28.88892 l -86.952,0.51807 299.6039,478.34466 h 214.489 l 1.4284,-5.33154 h 159.1393 v 5.84369 h 441.1576 c 0,0 14.7454,8.7268 23.4722,5.11572 8.7265,-3.61108 14.7451,-12.03699 15.9489,-15.64813 1.2037,-3.61115 -0.9025,-12.03705 -0.9025,-12.03705 L 2535.6021,440.7924 c 0,0 11.1342,-20.16205 0.3007,-39.72223 z m -129.9201,240.44659 h -238.6485 l 0.7801,-191.07483 64.7314,-66.29119 H 2503.47 c 0,0 13.258,2.33966 25.7365,17.15771 12.4781,14.81805 6.2391,31.19586 6.2391,31.19586 z" />
</g>
<g
   id="wall"
   style="display:inline">
	<path
   id="wall-2"
   style="fill:#808080"
   d="m 2537.6499,400.09764 c -11.479,-20.7259 -38.4153,-21.18604 -38.4153,-21.18604 -0.015,-1.8e-4 -0.029,-1.8e-4 -0.044,0 l -239.2324,-0.30273 c -0.026,-4.9e-4 -7.9563,-0.154 -17.8198,-1.159 -9.8799,-1.00659 -21.6919,-2.93189 -28.9075,-6.18598 -15.1575,-6.83575 -23.8725,-11.48046 -24.0354,-11.56738 l 0.1629,0.0869 -2.7398,2.984 c 0.1394,0.13819 9.5693,5.1999 24.9656,12.14319 8.1316,3.66718 20.091,5.49359 30.1474,6.51825 10.0564,1.0246 18.1817,1.18109 18.1817,1.18109 0.013,1.3e-4 0.025,1.3e-4 0.038,0 l 239.1953,0.29517 c 0,0 24.8174,0.73944 35.0049,19.13385 10.27,18.54254 -0.3025,37.7879 -0.3025,37.7879 l -247.906,396.52558 c -0.2871,0.46002 -0.3752,1.01678 -0.2439,1.54284 0,0 0.5037,2.02503 0.8638,4.47345 0.3601,2.44837 0.4246,5.42096 0.081,6.45172 -0.4332,1.29963 -2.1392,4.26746 -4.7317,7.10877 -2.5928,2.84131 -6.0782,5.66534 -10.0838,7.32288 -1.7348,0.71795 -3.9787,0.82006 -6.363,0.53887 v -1.2e-4 c -2.3845,-0.28113 -4.907,-0.94946 -7.1975,-1.77905 -4.5806,-1.65918 -8.1275,-3.75 -8.1275,-3.75 -0.3081,-0.18311 -0.6601,-0.27997 -1.0185,-0.28046 h -439.1561 v -3.84594 c 0,-1.9e-4 0,-4.3e-4 0,-6.1e-4 -2e-4,-1.10468 -0.8959,-2.00007 -2.0005,-1.99988 h -60.4756 v 4.00104 h 58.4751 v 3.84594 c 0,1.9e-4 0,4.3e-4 0,5.5e-4 10e-5,1.10474 0.8959,2.00012 2.0005,1.99994 h 440.743 c 0.4788,0.27881 3.5625,2.11676 8.1941,3.79431 2.4866,0.90064 5.2852,1.73487 8.1199,2.07422 2.8349,0.3396 5.7055,0.17975 8.3342,-0.90796 4.7212,-1.95355 8.6091,-5.14215 11.5083,-8.31939 2.8994,-3.17719 4.803,-6.22925 5.5735,-8.54084 0.8601,-2.58032 0.4734,-5.62988 0.081,-8.29724 -0.3212,-2.18494 -0.624,-3.37561 -0.7675,-3.97882 L 2537.296,441.84945 c 0.021,-0.029 0.04,-0.0585 0.059,-0.0884 0,0 11.6922,-21.08558 0.2952,-41.66339 z" />
	<path
   id="wall-5"
   style="fill:#808080"
   d="m 305.99963,390.14024 12.37391,-10.91864 c 0.43084,-0.37903 0.67816,-0.92475 0.67913,-1.49854 v -20.55859 h 48.344 v 81.41479 c -9.8e-4,0.37574 0.10388,0.74414 0.30267,1.06299 l 36.72492,58.66394 v 147.09888 c 0,1.8e-4 0,4.3e-4 0,6.1e-4 1.2e-4,1.10468 0.89575,2.00006 2.00042,1.99988 h 60.42798 c 2.5e-4,0 4.3e-4,0 6.1e-4,0 1.10468,-1.2e-4 2.00006,-0.89575 1.99988,-2.00049 V 499.43559 c 10e-4,-0.39954 -0.11676,-0.79035 -0.33936,-1.12207 L 406.29181,406.04734 V 355.88737 H 844.466 v 44.70453 c 0,2.4e-4 0,4.3e-4 0,6.1e-4 1.9e-4,1.10467 0.89582,2.00006 2.00049,1.99988 h 43.6612 v -4.00074 h -41.66047 v -44.70477 c 0,-1.8e-4 0,-3.7e-4 0,-5.5e-4 -1.8e-4,-1.10467 -0.89581,-2.00006 -2.00048,-1.99994 H 404.29156 c -1.10205,0.004 -1.99328,0.8985 -1.9931,2.00049 v 52.77326 c 0,0.39697 0.11817,0.78503 0.33942,1.11462 l 62.21454,92.27362 V 643.4047 H 408.42517 V 497.73051 c -0.003,-0.37396 -0.10998,-0.73963 -0.30994,-1.0556 L 371.39771,438.00364 V 355.1641 c 0,-2.4e-4 0,-4.2e-4 0,-6.1e-4 -1.9e-4,-1.10467 -0.89582,-2.00006 -2.00049,-1.99988 h -52.34497 c -2.5e-4,0 -4.3e-4,0 -6.1e-4,0 -1.10468,1.9e-4 -2.00007,0.89582 -1.99988,2.00049 v 21.65106 l -11.88812,10.48908 z" />
	<path
   id="wall-4"
   style="fill:#808080"
   d="M 1220.9131,782.15464 968.97656,418.28654 c -0.37506,-0.53809 -0.99017,-0.85803 -1.64618,-0.85632 h -46.33612 l 9.14618,-15.84156 c 0.17328,-0.30133 0.26496,-0.64258 0.26612,-0.99011 0.004,-1.10467 -0.8888,-2.00317 -1.99347,-2.0069 h -7.64716 v 4.00074 h 4.17743 l -9.13879,15.83416 c -0.17444,0.30353 -0.26618,0.64746 -0.26606,0.9975 3.1e-4,1.10474 0.89612,1.99994 2.00086,1.99957 h 48.74261 l 250.20912,361.37305 -42.5419,29.98523 h -109.5914 c -0.4129,0.001 -0.8151,0.13025 -1.1516,0.36926 l -114.55959,80.9867 -7.35218,-10.29779 c -0.37701,-0.52539 -0.98468,-0.83618 -1.63134,-0.83417 H 661.34363 c -0.27948,-7.9e-4 -0.55615,0.0571 -0.81201,0.16974 0,0 -1.74213,0.77374 -4.14862,1.31396 -2.4065,0.54041 -5.37073,0.75092 -7.51471,-0.0737 -4.35859,-1.67639 -6.47394,-7.6698 -6.47394,-7.6698 -0.0594,-0.18896 -0.14655,-0.3681 -0.25855,-0.53149 L 508.1546,680.60929 v -8.10528 c 0,-2.5e-4 0,-4.9e-4 0,-6.1e-4 -1.8e-4,-1.10474 -0.89587,-2.00006 -2.00055,-1.99988 H 422.5025 c -2.4e-4,0 -4.2e-4,0 -6.1e-4,0 -1.10467,1.8e-4 -2.00006,0.89581 -1.99988,2.00049 v 25.08368 h -14.85235 c -0.71478,-0.002 -1.3761,0.37823 -1.73474,0.99652 l -60.08124,103.8927 c -2.14526,-1.07764 -12.48261,-6.43683 -24.94342,-18.89759 -6.8291,-6.82916 -9.48554,-12.26593 -10.49707,-15.87847 -0.50574,-1.80628 -0.59943,-3.16108 -0.58313,-4.03052 0.0164,-0.86957 0.10333,-1.10724 0.10333,-1.10724 0.0497,-0.17786 0.0745,-0.36169 0.0738,-0.54627 v -68.51873 -75.32477 c 0,-1.8e-4 0,-4.3e-4 0,-6.1e-4 -1.2e-4,-1.10468 -0.89575,-2.00006 -2.00049,-1.99988 H 270.95966 V 414.61772 h 12.89617 c 1.9e-4,0 3.7e-4,0 6.2e-4,0 1.10461,-1.9e-4 2.00006,-0.89582 1.99987,-2.00049 V 403.663 l 0.72339,0.87104 c 0.0112,0.0134 0.0225,0.0266 0.0339,0.0397 0.72931,0.82971 1.99316,0.91113 2.82287,0.18182 l 3.04004,-2.68249 -2.83655,-2.83655 -1.31073,1.15643 -2.93798,-3.52118 c -0.37903,-0.45422 -0.9397,-0.7174 -1.53131,-0.71868 -1.10468,-0.002 -2.00214,0.89111 -2.00458,1.99578 v 12.46796 h -12.89618 c -1.10205,0.004 -1.99329,0.8985 -1.9931,2.00049 v 205.55612 c 0.004,1.09912 0.89392,1.9892 1.9931,1.9931 h 35.02704 v 73.33167 68.341 c -0.0703,0.37134 -0.16291,0.99134 -0.17719,1.75006 -0.0235,1.24518 0.11945,3.00605 0.73084,5.18946 1.22271,4.36688 4.30829,10.41314 11.52313,17.62793 14.27429,14.27429 27.63776,20.61761 27.63776,20.61761 0.94329,0.44684 2.07153,0.0933 2.59106,-0.81201 l 60.50928,-104.62348 h 15.70129 c 1.8e-4,0 3.7e-4,0 6.1e-4,0 1.10468,-1.8e-4 2.00006,-0.89581 1.99988,-2.00048 v -25.08362 h 79.65808 v 6.72491 c -7.3e-4,0.40284 0.12018,0.79645 0.34692,1.1294 l 134.29133,196.0556 c 0.23907,0.78455 2.30725,7.30518 8.62939,9.73676 3.38849,1.30304 7.01855,0.87353 9.82532,0.2434 2.48974,-0.55889 3.94476,-1.21545 4.34796,-1.38781 H 938.6368 l 7.91339,11.07287 c 0.63935,0.89673 1.88342,1.10803 2.7829,0.47241 l 115.65951,-81.7691 h 109.5918 c 0.4119,8.6e-4 0.814,-0.12549 1.1516,-0.36175 l 44.6825,-31.49115 c 0.8996,-0.63202 1.1207,-1.87171 0.4946,-2.77558 z" />
	<path
   id="wall-3"
   style="fill:#808080"
   d="m 1646.8922,853.61869 -1.0336,3.85333 h -211.8454 l -297.1137,-474.36755 83.3637,-0.49463 c 1.008,-0.003 1.8558,-0.75647 1.9784,-1.75689 0,0 0.8711,-6.82905 5.0271,-13.64911 4.156,-6.82007 11.2767,-13.4867 24.5816,-13.4867 13.2906,0 19.9932,6.76331 23.7845,13.70819 3.7913,6.94489 4.311,13.92963 4.311,13.92963 0.077,1.04687 0.9508,1.85583 2.0005,1.85284 h 67.7558 v -4.00097 h -66.0654 c -0.2595,-2.17383 -1.0449,-7.39374 -4.4881,-13.70081 -4.2585,-7.80047 -12.6026,-15.78985 -27.2983,-15.78985 -14.6811,0 -23.3534,7.78161 -27.9995,15.406 -3.7961,6.22943 -4.8415,11.42603 -5.1967,13.49408 l -85.3643,0.50934 c -0.3724,0.002 -0.7368,0.10803 -1.0523,0.30603 -0.9356,0.58722 -1.218,1.82178 -0.6307,2.75745 l 299.6013,478.33911 c 0.3648,0.58716 1.0066,0.94439 1.6979,0.94488 h 214.4882 c 0.9063,7.3e-4 1.6999,-0.60803 1.934,-1.4837 l 1.0335,-3.85339 h 59.3404 v -4.00104 h -60.8759 c -0.9063,-8e-4 -1.7,0.60803 -1.934,1.48376 z" />
	<path
   id="wall-1"
   style="fill:#808080"
   d="m 2088.0117,303.41691 c -0.9531,-0.43011 -50.4529,-22.63556 -100.4084,-14.76373 -49.9247,7.86688 -75.4059,22.56097 -100.5044,41.61169 -24.74,18.77838 -44.2613,46.68567 -45.2215,48.06348 l -35.4478,0.83417 c -0.164,-2.27399 -0.6924,-7.29804 -3.6614,-13.45722 -3.7517,-7.78241 -11.5177,-15.83081 -25.7776,-15.98913 -14.2764,-0.15857 -23.1436,7.77661 -28.1177,15.55365 -4.1343,6.46386 -5.4826,11.93286 -5.9276,13.93701 h -198.4326 c -0.2977,-2.11988 -1.1565,-7.32752 -4.2741,-13.62696 -3.8353,-7.74987 -11.1363,-15.8637 -23.5704,-15.8637 -12.4341,0 -21.5504,7.89105 -27.431,15.5241 -5.0797,6.59351 -7.4795,12.29419 -8.157,13.96656 h -65.5057 v 4.00097 h 66.7901 c 0.8303,-0.001 1.5736,-0.51532 1.8676,-1.29181 0,0 2.6998,-7.11999 8.1792,-14.2323 5.4793,-7.11224 13.5196,-13.96649 24.2568,-13.96649 10.7372,0 16.5208,6.63874 19.9828,13.63434 3.4622,6.99555 4.2078,14.0625 4.2078,14.0625 0.1054,1.01788 0.9624,1.79187 1.9857,1.79376 h 201.6214 c 0.9667,0.002 1.7964,-0.68798 1.971,-1.63873 0,0 1.3047,-7.10016 5.8096,-14.14374 4.505,-7.04352 11.8929,-13.85064 24.6998,-13.70813 12.8234,0.14246 18.8993,6.84265 22.2195,13.73029 3.3202,6.88769 3.4842,13.80414 3.4842,13.80414 10e-5,0.003 10e-5,0.006 3e-4,0.009 0.029,1.10425 0.9476,1.97602 2.0518,1.94702 l 38.2155,-0.90045 c 0.6389,-0.0166 1.2314,-0.33758 1.5945,-0.86371 0,0 20.4071,-29.3172 45.0073,-47.98962 24.8551,-18.86591 49.33,-33.07019 98.7107,-40.85144 48.8646,-7.69989 98.4669,14.59399 98.4669,14.59399 0.1892,0.0874 0.3911,0.14466 0.5979,0.16974 l 49.2669,5.63239 2.3259,-3.3219 c -0.3186,-0.31677 -50.876,-6.25989 -50.876,-6.25989 z" />
</g>
<g
   id="shops"
   transform="matrix(1,0,0,-1,0,1278.8177)">
	
		<path
   id="Shape-2-12"
   style="fill:none;stroke:#ff0000;stroke-width:2;stroke-linejoin:round;stroke-miterlimit:15.1181"
   d="m 1233.0029,750.03311 52.6281,34.58423 v 48.61841 h 48.1173 v 55.63547 H 1146.793 Z" />
	
		<path
   id="Shape-2-34"
   style="fill:none;stroke:#ff0000;stroke-width:2;stroke-linejoin:round;stroke-miterlimit:15.1181"
   d="m 1299.4147,657.8085 29.3214,18.29456 h 34.5841 v 43.6062 h -91.2222 l -12.5305,-8.52075 z" />
	
		<path
   id="Shape-2-35"
   style="fill:none;stroke:#ff0000;stroke-width:2;stroke-linejoin:round;stroke-miterlimit:15.1181"
   d="m 1302.1714,653.79874 28.5696,-46.61353 -6.5158,-4.26031 9.5232,-15.53784 47.616,29.32141 -17.7935,28.31903 v 24.81042 h -33.5818 z" />
	
		<path
   id="Shape-2-47"
   style="fill:none;stroke:#ff0000;stroke-width:2;stroke-linejoin:round;stroke-miterlimit:15.1181"
   d="m 1370.588,526.48862 48.869,29.82263 -35.3362,56.63794 -48.6184,-30.07324 z" />
	
		<path
   id="Shape-2-48"
   style="fill:none;stroke:#ff0000;stroke-width:2;stroke-linejoin:round;stroke-miterlimit:15.1181"
   d="m 1421.9631,552.05094 -47.8665,-31.32636 50.8739,-81.19769 h 16.2895 v 12.0293 h 12.7813 v 27.06591 h 36.3385 v 25.06104 l -38.0927,-0.50122 z" />
	
		<path
   id="Shape-2-49"
   style="fill:none;stroke:#ff0000;stroke-width:2;stroke-linejoin:round;stroke-miterlimit:15.1181"
   d="m 1543.7598,502.93131 v -77.18799 h 43.6062 v 77.68921 z" />
	
		<path
   id="Shape-2-50"
   style="fill:none;stroke:#ff0000;stroke-width:2;stroke-linejoin:round;stroke-miterlimit:15.1181"
   d="m 1593.8818,503.43253 h 55.1343 l 29.0708,-29.57202 V 439.7775 h 14.0341 v -10.52564 h -41.1 v 50.6233 h -57.6405 z" />
	
		<path
   id="Shape-2-96"
   style="fill:none;stroke:#ff0000;stroke-width:2;stroke-linejoin:round;stroke-miterlimit:15.1181"
   d="m 1769.9563,453.37442 h 59.8965 v 23.74591 h 79.3891 v -26.2268 h -36.8592 v -27.2901 h 134.6783 v 66.63037 h -217.9662 l -19.8474,-15.94879 z" />
	
		<path
   id="Shape-2-56"
   style="fill:none;stroke:#ff0000;stroke-width:2;stroke-linejoin:round;stroke-miterlimit:15.1181"
   d="m 1910.6533,505.43741 h 100.2442 v -26.5647 h 296.2214 l 93.7283,154.37592 h -238.5811 v 47.61597 h -73.6792 z" />
	
		<path
   id="Shape-2-65"
   style="fill:none;stroke:#ff0000;stroke-width:2;stroke-linejoin:round;stroke-miterlimit:15.1181"
   d="m 2149.0778,732.71485 h 15.7717 l -0.3178,38.91003 h -15.9487 z" /><path
   id="Shape-2-101"
   style="fill:none;stroke:#ff0000;stroke-width:1.75787;stroke-linejoin:round;stroke-miterlimit:15.1181"
   d="m 2148.9746,774.75655 h 16.0065 l -0.3226,29.61826 h -16.1861 z" />
	
		<path
   id="Shape-2-60"
   style="fill:none;stroke:#ff0000;stroke-width:2;stroke-linejoin:round;stroke-miterlimit:15.1181"
   d="m 2068.7295,759.41312 45.3655,-23.74597 c 0,0 11.164,16.65759 13.1135,39.6947 1.9492,23.03708 -3.1899,46.07416 -3.1899,46.07416 l -3.1897,3.72137 -3.7215,0.53159 -4.2532,-0.88602 -38.6311,-39.87186 c 0,0 -1.2404,-9.56924 -2.4812,-13.11343 -1.2402,-3.5441 -3.1894,-8.3288 -3.1894,-8.3288 z" />
	
		<path
   id="Shape-2-59"
   style="fill:none;stroke:#ff0000;stroke-width:2;stroke-linejoin:round;stroke-miterlimit:15.1181"
   d="m 2079.0076,694.73209 24.9861,24.10034 2.1264,5.31622 -1.2405,3.72138 -1.7719,1.77209 -22.1512,11.34131 -3.1897,1.06323 -2.3037,-0.53161 -14.708,-14.17664 -1.9494,-4.43017 2.4812,-5.8479 10.278,-19.84742 3.1897,-2.12646 z" />
	
		<path
   id="Shape-2-58"
   style="fill:none;stroke:#ff0000;stroke-width:2;stroke-linejoin:round;stroke-miterlimit:15.1181"
   d="m 2066.0713,686.75772 -21.9738,41.46674 -2.658,2.83533 -3.5444,0.88604 -3.5441,-0.35449 c 0,0 -4.0757,-2.48089 -8.1515,-3.01257 -4.0757,-0.53162 -10.4554,-1.77204 -10.4554,-1.77204 l -26.2266,-26.40405 c 0,0 -2.6581,-1.94928 -3.0127,-3.54419 -0.3547,-1.59485 -0.3547,-16.65759 -0.3547,-16.65759 0,0 0.3547,-2.48084 1.7723,-4.07574 1.4174,-1.59491 7.9742,-2.4809 9.7463,-2.4809 1.7721,0 22.1512,-0.70886 32.6066,1.24042 10.4552,1.94928 35.7957,11.87298 35.7957,11.87298 z" />
	
		
	
		
	
		<path
   id="Shape-2-57"
   style="fill:none;stroke:#ff0000;stroke-width:2;stroke-linejoin:round;stroke-miterlimit:15.1181"
   d="m 1999.2639,608.43167 34.0241,33.84674 c 0,0 5.316,4.07581 2.3036,9.21485 -3.0125,5.1391 -6.0251,4.43024 -6.0251,4.43024 0,0 -17.0119,-3.72132 -37.2137,-0.88605 -20.2017,2.83532 -31.1887,7.79718 -31.1887,7.79718 0,0 -1.0631,0.53161 -3.0125,0.35449 -1.9492,-0.17725 -4.0757,-1.94928 -4.0757,-1.94928 l -4.2529,-4.25299 z" />
	
		<path
   id="Shape-2-54"
   style="fill:none;stroke:#ff0000;stroke-width:2;stroke-linejoin:round;stroke-miterlimit:15.1181"
   d="m 1966.4802,575.47092 30.1255,30.65704 -48.7322,48.90949 -29.9482,-30.12543 c 0,0 -3.0126,-2.4809 -2.481,-6.20227 0.5317,-3.72144 2.6581,-4.78467 2.6581,-4.78467 l 38.8086,-38.98578 c 0,0 2.4807,-1.77215 4.6074,-1.41772 2.1265,0.35455 4.9618,1.94934 4.9618,1.94934 z" /><path
   id="Shape-2-55"
   style="fill:none;stroke:#ff0000;stroke-width:2;stroke-linejoin:round;stroke-miterlimit:15.1181"
   d="m 1927.2403,538.08252 26.6682,27.13873 1.5059,2.9861 -0.9489,3.44304 -42.9415,43.09774 c 0,0 -2.2788,1.41428 -3.7774,1.1269 -1.4987,-0.28737 -4.0905,-3.23295 -4.0905,-3.23295 l -24.9707,-25.11846 c 0,0 -3.0126,-2.4809 -2.481,-6.20227 0.5317,-3.72144 2.6581,-4.78467 2.6581,-4.78467 l 38.8086,-38.98578 c 0,0 2.4807,-1.77215 4.6074,-1.41772 2.1265,0.35455 4.9618,1.94934 4.9618,1.94934 z" />
	
		<path
   id="Shape-2-52"
   style="fill:none;stroke:#ff0000;stroke-width:2;stroke-linejoin:round;stroke-miterlimit:15.1181"
   d="m 1897.1205,505.93863 16.5032,18.25899 c 0,0 3.0072,4.00977 3.0072,6.26526 0,2.2555 -1.7544,5.01227 -1.7544,5.01227 l -38.8446,38.34338 c 0,0 -2.2555,2.25544 -4.7615,2.25544 -2.5061,0 -5.5134,-2.00489 -5.5134,-2.00489 l -55.8488,-57.3542 c 0,0 -4.2604,-5.76404 -3.2579,-9.27265 1.0024,-3.50854 5.764,-4.26031 5.764,-4.26031 h 76.6868 l 5.0122,0.75177 z" />
	
		
	
		<path
   id="Shape-2-133"
   style="fill:none;stroke:#ff0000;stroke-width:2;stroke-linejoin:round;stroke-miterlimit:15.1181"
   d="m 1766.3226,499.10704 35.6073,37.11276 -19.8428,20.12535 -35.3569,-37.36337 z" /><path
   id="Shape-2-100"
   style="fill:none;stroke:#ff0000;stroke-width:2;stroke-linejoin:round;stroke-miterlimit:15.1181"
   d="m 1737.3628,528.00282 35.6073,37.11276 -19.8428,20.12535 -35.3569,-37.36337 z" />
	
		<path
   id="Shape-2-70"
   style="fill:none;stroke:#ff0000;stroke-width:2;stroke-linejoin:round;stroke-miterlimit:15.1181"
   d="m 1884.4329,631.64591 21.5374,20.82859 -31.543,32.60633 -22.6008,-20.47417 z" />
	
		<path
   id="Shape-2-23"
   style="fill:none;stroke:#ff0000;stroke-width:2;stroke-linejoin:round;stroke-miterlimit:15.1181"
   d="m 2006.7067,853.86511 37.5681,36.85932 c 0,0 3.1898,4.60739 2.1263,8.15158 -1.0631,3.54416 -4.9616,4.60742 -4.9616,4.60742 0,0 -23.3916,6.02506 -42.8844,2.83533 -19.4928,-3.18979 -42.1756,-13.1134 -42.1756,-13.1134 l 19.8473,-38.27701 1.7722,-4.25299 3.1896,-2.4809 2.4811,-0.35455 c 0,0 7.0882,2.83535 11.6957,3.89859 4.6074,1.06326 11.3413,2.12652 11.3413,2.12652 z" />
	
		<path
   id="Shape-2-22"
   style="fill:none;stroke:#ff0000;stroke-width:2;stroke-linejoin:round;stroke-miterlimit:15.1181"
   d="m 1940.4307,838.62522 2.8353,-0.70887 4.2529,2.1265 12.4046,11.69574 2.4808,4.60742 v 3.18979 l -12.0503,21.97385 c 0,0 -1.4175,1.77206 -4.2528,2.83532 -2.8355,1.06327 -4.6075,-0.70886 -4.6075,-0.70886 0,0 -6.3794,-3.89859 -14.8854,-13.1134 -8.5061,-9.21482 -10.2782,-12.05017 -10.2782,-12.05017 0,0 -2.1266,-1.77204 0.3546,-5.31626 2.4809,-3.54416 5.6706,-4.96182 5.6706,-4.96182 z" />
	
		<path
   id="Shape-2-21"
   style="fill:none;stroke:#ff0000;stroke-width:2;stroke-linejoin:round;stroke-miterlimit:15.1181"
   d="m 1921.4694,768.45072 25.518,25.34082 1.2404,2.48092 c 0,0 0.1772,4.96183 1.0632,8.50598 0.8861,3.54416 3.1897,9.92368 3.1897,9.92368 0,0 1.0632,3.18979 0.3546,4.78464 -0.709,1.59488 -2.4811,3.18976 -2.4811,3.18976 l -43.0615,22.151 c 0,0 -11.164,-25.69519 -12.4045,-39.34021 -1.2405,-13.64505 0.7088,-35.08725 0.7088,-35.08725 0,0 1.0633,-3.54416 2.4809,-4.25299 1.4176,-0.70887 3.5442,-0.88605 3.5442,-0.88605 l 15.24,0.35449 z" />
	
		<path
   id="Shape-2-24"
   style="fill:none;stroke:#ff0000;stroke-width:2;stroke-linejoin:round;stroke-miterlimit:15.1181"
   d="m 1839.7764,690.12467 47.1374,47.49176 c 0,0 3.1897,2.83539 3.5442,6.02514 0.3545,3.18976 -1.0632,5.67066 -3.5442,7.08832 -2.4809,1.41767 -52.4536,0.35455 -52.4536,0.35455 l -6.0251,-1.77215 -2.1266,-5.31622 -0.3545,-46.78302 c 0,0 -1.0633,-6.73389 3.1898,-9.56922 4.2528,-2.83533 10.6324,2.4809 10.6324,2.4809 z" />
	
		
	
		<path
   id="Shape-2-28"
   style="fill:none;stroke:#ff0000;stroke-width:2;stroke-linejoin:round;stroke-miterlimit:15.1181"
   d="m 1637.7589,681.61862 37.2138,-0.35449 c 0,0 5.6706,-0.35449 7.7972,1.77216 2.1265,2.12646 2.4808,5.67065 2.4808,5.67065 l 0.3546,56.35224 c 0,0 0.3545,2.48089 -1.772,4.25299 -2.1266,1.77215 -5.6707,2.48089 -5.6707,2.48089 l -40.7579,-0.7088 c 0,0 -3.8986,0.35449 -5.3162,-1.77209 -1.4176,-2.12653 -1.7721,-5.67072 -1.7721,-5.67072 l 0.3545,-55.28894 c 0,0 0,-3.18982 1.4176,-4.96185 1.4176,-1.7721 5.6707,-1.7721 5.6707,-1.7721 z" />
	
		<path
   id="Shape-2-29"
   style="fill:none;stroke:#ff0000;stroke-width:2;stroke-linejoin:round;stroke-miterlimit:15.1181"
   d="m 1572.1918,681.61862 37.2137,-0.35449 c 0,0 5.6707,-0.35449 7.7973,1.77216 2.1264,2.12646 2.4809,5.67065 2.4809,5.67065 l 0.3545,56.35224 c 0,0 0.3546,2.48089 -1.7721,4.25299 -2.1266,1.77215 -5.6705,2.48089 -5.6705,2.48089 l -40.758,-0.7088 c 0,0 -3.8985,0.35449 -5.3162,-1.77209 -1.4175,-2.12653 -1.7721,-5.67072 -1.7721,-5.67072 l 0.3546,-55.28894 c 0,0 0,-3.18982 1.4175,-4.96185 1.4177,-1.7721 5.6706,-1.7721 5.6706,-1.7721 z" />
	
		<path
   id="Shape-2-30"
   style="fill:none;stroke:#ff0000;stroke-width:2;stroke-linejoin:round;stroke-miterlimit:15.1181"
   d="m 1506.9791,681.61862 37.2138,-0.35449 c 0,0 5.6706,-0.35449 7.7972,1.77216 2.1265,2.12646 2.481,5.67065 2.481,5.67065 l 0.3545,56.35224 c 0,0 0.3546,2.48089 -1.7721,4.25299 -2.1266,1.77215 -5.6706,2.48089 -5.6706,2.48089 l -40.7579,-0.7088 c 0,0 -3.8986,0.35449 -5.3163,-1.77209 -1.4175,-2.12653 -1.7721,-5.67072 -1.7721,-5.67072 l 0.3546,-55.28894 c 0,0 0,-3.18982 1.4175,-4.96185 1.4177,-1.7721 5.6707,-1.7721 5.6707,-1.7721 z" />
	
		<path
   id="Shape-2-31"
   style="fill:none;stroke:#ff0000;stroke-width:2;stroke-linejoin:round;stroke-miterlimit:15.1181"
   d="m 1440.7032,681.61862 37.2138,-0.35449 c 0,0 5.6706,-0.35449 7.7972,1.77216 2.1265,2.12646 2.481,5.67065 2.481,5.67065 l 0.3545,56.35224 c 0,0 0.3546,2.48089 -1.7721,4.25299 -2.1266,1.77215 -5.6705,2.48089 -5.6705,2.48089 l -40.758,-0.7088 c 0,0 -3.8985,0.35449 -5.3163,-1.77209 -1.4174,-2.12653 -1.7721,-5.67072 -1.7721,-5.67072 l 0.3547,-55.28894 c 0,0 0,-3.18982 1.4174,-4.96185 1.4178,-1.7721 5.6707,-1.7721 5.6707,-1.7721 z" />
	
		<path
   id="Shape-2-39"
   style="fill:none;stroke:#ff0000;stroke-width:2;stroke-linejoin:round;stroke-miterlimit:15.1181"
   d="m 1637.7589,601.87491 37.2138,-0.35449 c 0,0 5.6706,-0.35449 7.7972,1.77209 2.1265,2.12653 2.4808,5.67072 2.4808,5.67072 l 0.3546,56.35223 c 0,0 0.3545,2.4809 -1.772,4.25299 -2.1266,1.77216 -5.6707,2.4809 -5.6707,2.4809 l -40.7579,-0.7088 c 0,0 -3.8986,0.35449 -5.3162,-1.77216 -1.4176,-2.12646 -1.7721,-5.67065 -1.7721,-5.67065 l 0.3545,-55.28894 c 0,0 0,-3.18982 1.4176,-4.96186 1.4176,-1.77215 5.6707,-1.77215 5.6707,-1.77215 z" />
	
		<path
   id="Shape-2-38"
   style="fill:none;stroke:#ff0000;stroke-width:2;stroke-linejoin:round;stroke-miterlimit:15.1181"
   d="m 1572.1918,601.87491 37.2137,-0.35449 c 0,0 5.6707,-0.35449 7.7973,1.77209 2.1264,2.12653 2.4809,5.67072 2.4809,5.67072 l 0.3545,56.35223 c 0,0 0.3546,2.4809 -1.7721,4.25299 -2.1266,1.77216 -5.6705,2.4809 -5.6705,2.4809 l -40.758,-0.7088 c 0,0 -3.8985,0.35449 -5.3162,-1.77216 -1.4175,-2.12646 -1.7721,-5.67065 -1.7721,-5.67065 l 0.3546,-55.28894 c 0,0 0,-3.18982 1.4175,-4.96186 1.4177,-1.77215 5.6706,-1.77215 5.6706,-1.77215 z" />
	
		<path
   id="Shape-2-37"
   style="fill:none;stroke:#ff0000;stroke-width:2;stroke-linejoin:round;stroke-miterlimit:15.1181"
   d="m 1506.9791,601.87491 37.2138,-0.35449 c 0,0 5.6706,-0.35449 7.7972,1.77209 2.1265,2.12653 2.481,5.67072 2.481,5.67072 l 0.3545,56.35223 c 0,0 0.3546,2.4809 -1.7721,4.25299 -2.1266,1.77216 -5.6706,2.4809 -5.6706,2.4809 l -40.7579,-0.7088 c 0,0 -3.8986,0.35449 -5.3163,-1.77216 -1.4175,-2.12646 -1.7721,-5.67065 -1.7721,-5.67065 l 0.3546,-55.28894 c 0,0 0,-3.18982 1.4175,-4.96186 1.4177,-1.77215 5.6707,-1.77215 5.6707,-1.77215 z" />
	
		<path
   id="Shape-2-36"
   style="fill:none;stroke:#ff0000;stroke-width:2;stroke-linejoin:round;stroke-miterlimit:15.1181"
   d="m 1440.7032,601.87491 37.2138,-0.35449 c 0,0 5.6706,-0.35449 7.7972,1.77209 2.1265,2.12653 2.481,5.67072 2.481,5.67072 l 0.3545,56.35223 c 0,0 0.3546,2.4809 -1.7721,4.25299 -2.1266,1.77216 -5.6705,2.4809 -5.6705,2.4809 l -40.758,-0.7088 c 0,0 -3.8985,0.35449 -5.3163,-1.77216 -1.4174,-2.12646 -1.7721,-5.67065 -1.7721,-5.67065 l 0.3547,-55.28894 c 0,0 0,-3.18982 1.4174,-4.96186 1.4178,-1.77215 5.6707,-1.77215 5.6707,-1.77215 z" />
	
		
	
		<path
   id="Shape-2-45"
   style="fill:none;stroke:#ff0000;stroke-width:2;stroke-linejoin:round;stroke-miterlimit:15.1181"
   d="m 1506.9791,521.06797 37.2138,-0.3545 c 0,0 5.6706,-0.35449 7.7972,1.7721 2.1265,2.12652 2.481,5.67071 2.481,5.67071 l 0.3545,56.35224 c 0,0 0.3546,2.48089 -1.7721,4.25299 -2.1266,1.77215 -5.6706,2.48089 -5.6706,2.48089 l -40.7579,-0.7088 c 0,0 -3.8986,0.35449 -5.3163,-1.77215 -1.4175,-2.12647 -1.7721,-5.67066 -1.7721,-5.67066 l 0.3546,-55.289 c 0,0 0,-3.18976 1.4175,-4.96179 1.4177,-1.77216 5.6707,-1.77216 5.6707,-1.77216 z" />
	
		<path
   id="Shape-2-33"
   style="fill:none;stroke:#ff0000;stroke-width:2;stroke-linejoin:round;stroke-miterlimit:15.1181"
   d="m 1379.9208,666.37882 h 41.8211 v -60.07367 c 0,0 -0.1772,-4.96186 -4.2529,-6.20227 -4.0758,-1.24054 -8.1516,1.94928 -8.1516,1.94928 l -28.176,45.01086 -1.2406,3.01251 z" />
	
		<path
   id="Shape-2-32"
   style="fill:none;stroke:#ff0000;stroke-width:2;stroke-linejoin:round;stroke-miterlimit:15.1181"
   d="m 1380.098,670.4545 h 41.6439 v 40.58075 c 0,0 0.1774,2.30371 -1.4176,4.25299 -1.5948,1.94928 -4.7846,2.65814 -4.7846,2.65814 h -29.771 c 0,0 -2.481,-0.1773 -4.0758,-2.12652 -1.5949,-1.94928 -1.7722,-6.20227 -1.7722,-6.20227 z" />
	
		<path
   id="Shape-2-46"
   style="fill:none;stroke:#ff0000;stroke-width:2;stroke-linejoin:round;stroke-miterlimit:15.1181"
   d="m 1467.6389,520.89078 14.1767,0.17725 c 0,0 3.8986,0.1773 4.9617,1.59491 1.0634,1.41766 1.7721,5.67065 1.7721,5.67065 v 55.11182 c 0,0 0.1774,3.54419 -1.2403,4.96185 -1.4176,1.41766 -5.1391,2.30371 -5.1391,2.30371 h -41.821 c 0,0 -3.3669,0.53162 -5.139,-2.12653 -1.7723,-2.65808 -1.7723,-6.20233 -1.7723,-6.20233 v -15.23993 l 26.0497,-41.64392 c 0,0 1.4178,-3.01257 3.1897,-4.0758 1.7721,-1.06324 4.9618,-0.53162 4.9618,-0.53162 z" />
	
		<path
   id="Shape-2-43"
   style="fill:none;stroke:#ff0000;stroke-width:2;stroke-linejoin:round;stroke-miterlimit:15.1181"
   d="m 1637.7386,520.72458 h 31.3263 l 16.7909,16.28974 v 47.61596 c 0,0 -0.7518,2.2555 -2.2555,4.00971 -1.5035,1.75433 -4.5109,2.75677 -4.5109,2.75677 h -42.3532 c 0,0 -3.0073,0 -4.7616,-2.25555 -1.7543,-2.25543 -2.0049,-5.26282 -2.0049,-5.26282 v -55.13428 c 0,0 0,-4.51098 2.0049,-6.26526 2.0049,-1.75433 5.764,-1.75433 5.764,-1.75433 z" />
	
		<path
   id="Shape-2-13"
   style="fill:none;stroke:#ff0000;stroke-width:2;stroke-linejoin:round;stroke-miterlimit:15.1181"
   d="m 1433.4912,843.51078 v -70.17087 c 0,0 0,-5.76404 2.2555,-7.01712 2.2555,-1.25305 5.2628,-1.50367 5.2628,-1.50367 h 39.8471 c 0,0 4.0097,0.25055 6.0146,2.75675 2.0049,2.50607 2.0049,6.01462 2.0049,6.01462 v 62.40197 c 0,0 0.2506,3.50855 -1.5037,5.26282 -1.7544,1.75424 -5.2628,2.50608 -5.2628,2.50608 z" />
	
		<path
   id="Shape-2-14"
   style="fill:none;stroke:#ff0000;stroke-width:2;stroke-linejoin:round;stroke-miterlimit:15.1181"
   d="m 1570.3245,765.32035 v 78.19043 h -63.6552 c 0,0 -4.511,1.25302 -6.0145,-1.75425 -1.5038,-3.00735 -1.7544,-6.76651 -1.7544,-6.76651 v -61.65011 c 0,0 0.7518,-3.75919 2.2555,-6.01468 1.5036,-2.25549 5.764,-2.00488 5.764,-2.00488 z" />
	
		<path
   id="Shape-2-15"
   style="fill:none;stroke:#ff0000;stroke-width:2;stroke-linejoin:round;stroke-miterlimit:15.1181"
   d="m 1573.833,765.06974 h 103.0009 c 0,0 4.0096,0.50122 5.5134,2.25549 1.5035,1.75427 2.506,5.5134 2.506,5.5134 v 64.15625 c 0,0 -0.2506,2.5061 -1.7543,4.51098 -1.5038,2.00485 -4.0099,2.50607 -4.0099,2.50607 h -21.8031 v -55.8861 h -83.4352 z" />
	
		<path
   id="Shape-2-01"
   style="fill:none;stroke:#ff0000;stroke-width:2;stroke-linejoin:round;stroke-miterlimit:15.1181"
   d="m 2029.1919,922.95429 72.1758,13.03174 29.8225,28.82019 -46.3628,2.75671 c 0,0 -22.0537,8.77136 -33.5818,11.27747 -11.5281,2.50613 -40.0975,3.75918 -40.0975,3.75918 v -59.14404 z" />
	
		<path
   id="Shape-2-02"
   style="fill:none;stroke:#ff0000;stroke-width:2;stroke-linejoin:round;stroke-miterlimit:15.1181"
   d="m 1975.8121,919.1951 c 0,0 7.2677,2.75672 14.0341,3.75919 6.7665,1.00244 17.0416,1.25305 17.0416,1.25305 l -0.2506,57.89102 c 0,0 -18.5452,-1.25308 -25.8129,-2.00488 -7.2677,-0.75183 -23.3066,-5.01221 -23.3066,-5.01221 z" />
	
		<path
   id="Shape-2-03"
   style="fill:none;stroke:#ff0000;stroke-width:2;stroke-linejoin:round;stroke-miterlimit:15.1181"
   d="m 1939.9746,903.65726 c 0,0 8.2703,5.01221 13.0319,7.2677 4.7614,2.25549 16.2895,6.01465 16.2895,6.01465 l -16.039,56.38733 c 0,0 -14.5354,-5.01221 -21.8031,-8.27014 -7.2677,-3.25794 -23.808,-13.03174 -23.808,-13.03174 z" />
	
		<path
   id="Shape-2-04"
   style="fill:none;stroke:#ff0000;stroke-width:2;stroke-linejoin:round;stroke-miterlimit:15.1181"
   d="m 1907.3954,874.83704 c 0,0 8.0195,10.27502 12.5305,13.7836 4.511,3.50854 16.5403,12.78113 16.5403,12.78113 l -33.0806,48.11718 c 0,0 -15.5378,-11.77868 -22.0537,-17.79333 -6.516,-6.01465 -19.0465,-19.54764 -19.0465,-19.54764 z" />
	
		<path
   id="Shape-2-05"
   style="fill:none;stroke:#ff0000;stroke-width:2;stroke-linejoin:round;stroke-miterlimit:15.1181"
   d="m 1896.619,860.80289 h -93.4775 v 31.57693 h 51.3751 v 10.52561 l 5.2628,6.01468 45.3606,-36.83975 z" />
	
		<path
   id="Shape-2-06"
   style="fill:none;stroke:#ff0000;stroke-width:2;stroke-linejoin:round;stroke-miterlimit:15.1181"
   d="m 1796.1244,860.80289 h -69.1685 v 30.82507 h 13.0318 v -5.26278 h 56.1367 z" />
	
		<path
   id="Shape-2-07"
   style="fill:none;stroke:#ff0000;stroke-width:2;stroke-linejoin:round;stroke-miterlimit:15.1181"
   d="m 1660.7948,860.55228 h 62.1514 v 31.5769 h -61.9009 z" />
	
		<path
   id="Shape-2-08"
   style="fill:none;stroke:#ff0000;stroke-width:2;stroke-linejoin:round;stroke-miterlimit:15.1181"
   d="m 1628.4363,861.0535 h 28.0981 v 30.57446 h -28.0981 z" /><path
   id="Shape-2-102"
   style="fill:none;stroke:#ff0000;stroke-width:2;stroke-linejoin:round;stroke-miterlimit:15.1181"
   d="m 1595.5907,860.87803 h 28.0981 v 30.57446 h -28.0981 z" />
	
		<path
   id="Shape-2-09"
   style="fill:none;stroke:#ff0000;stroke-width:2;stroke-linejoin:round;stroke-miterlimit:15.1181"
   d="m 1524.7135,860.80289 42.5097,0.63559 v 31.07568 l -19.4537,-0.63559 v -5.26278 h -23.3067 z" /><path
   id="Shape-2-103"
   style="fill:none;stroke:#ff0000;stroke-width:1.72617;stroke-linejoin:round;stroke-miterlimit:15.1181"
   d="m 1571.3013,860.74111 h 20.7448 v 30.8483 h -20.7448 z" />
	
		<path
   id="Shape-2-11"
   style="fill:none;stroke:#ff0000;stroke-width:2;stroke-linejoin:round;stroke-miterlimit:15.1181"
   d="m 1516.9443,861.30411 v 25.06104 h -27.8176 v -4.0098 h -58.1416 v -14.03418 c 0,0 -0.5012,-3.75916 2.7566,-6.01462 3.2578,-2.25552 6.0146,-1.50369 6.0146,-1.50369 z" />
	
		<path
   id="Shape-2-20"
   style="fill:none;stroke:#ff0000;stroke-width:2;stroke-linejoin:round;stroke-miterlimit:15.1181"
   d="m 1833.5741,765.43814 h 35.0872 c 0,0 2.8354,-1.41766 5.4935,1.24054 2.6581,2.65811 3.3669,6.73389 3.3669,6.73389 0,0 -3.0124,15.77151 -0.3545,31.18866 2.6581,15.41708 7.0884,29.94818 7.0884,29.94818 0,0 1.4176,3.89859 -0.5316,6.37952 -1.9493,2.48089 -5.4935,2.83532 -5.4935,2.83532 H 1834.46 c 0,0 -3.7215,0.35453 -5.8479,-1.41766 -2.1265,-1.77206 -2.3038,-6.73392 -2.3038,-6.73392 v -63.97223 c 0,0 0.886,-3.89856 2.4809,-4.96176 1.5948,-1.06329 4.7848,-1.24054 4.7848,-1.24054 z" />
	
		<path
   id="Shape-2-18"
   style="fill:none;stroke:#ff0000;stroke-width:2;stroke-linejoin:round;stroke-miterlimit:15.1181"
   d="m 1762.3363,803.8924 h 54.0486 v -32.07474 c 0,0 -1.0634,-3.18973 -2.3038,-4.60739 -1.2405,-1.41763 -3.7214,-1.94925 -3.7214,-1.94925 h -41.644 c 0,0 -3.0125,0 -4.4302,1.59482 -1.4176,1.59488 -2.1266,4.7846 -2.1266,4.7846 z" />
	
		<path
   id="Shape-2-19"
   style="fill:none;stroke:#ff0000;stroke-width:2;stroke-linejoin:round;stroke-miterlimit:15.1181"
   d="m 1761.9819,807.96817 h 54.4031 v 29.06217 c 0,0 -0.3546,3.36694 -1.9493,4.96182 -1.5949,1.59491 -4.6075,1.77206 -4.6075,1.77206 h -41.4667 c 0,0 -1.7721,0.35453 -3.7214,-1.94928 -1.9493,-2.30371 -2.4809,-5.13903 -2.4809,-5.13903 z" />
	
		<path
   id="Shape-2-16"
   style="fill:none;stroke:#ff0000;stroke-width:2;stroke-linejoin:round;stroke-miterlimit:15.1181"
   d="m 1695.3516,811.33515 v -38.98581 c 0,0 0.5316,-3.36695 2.1264,-5.31623 1.595,-1.94928 5.3163,-1.94928 5.3163,-1.94928 h 43.0617 c 0,0 3.0125,1.0633 4.253,2.30372 1.2404,1.2405 1.772,5.49346 1.772,5.49346 v 38.27698 z" />
	
		<path
   id="Shape-2-17"
   style="fill:none;stroke:#ff0000;stroke-width:2;stroke-linejoin:round;stroke-miterlimit:15.1181"
   d="m 1751.5266,814.52487 v 29.0622 h -56.5293 v -29.15079 z" />
	
		<path
   id="Shape-2-62"
   style="fill:none;stroke:#ff0000;stroke-width:2;stroke-linejoin:round;stroke-miterlimit:15.1181"
   d="m 2167.5291,837.24549 56.3874,57.3898 -36.3386,18.79577 -30.3237,-31.07571 z" />
	
		<path
   id="Shape-2-26"
   style="fill:none;stroke:#ff0000;stroke-width:2;stroke-linejoin:round;stroke-miterlimit:15.1181"
   d="m 1695.8802,681.36588 h 55.8862 v 34.58423 h -56.638 z" />
	
		<path
   id="Shape-2-27"
   style="fill:none;stroke:#ff0000;stroke-width:2;stroke-linejoin:round;stroke-miterlimit:15.1181"
   d="m 1695.1284,718.95749 h 56.8887 l -0.2506,26.06348 c 0,0 0,3.25787 -2.0048,4.76159 -2.0049,1.50367 -4.0099,1.75428 -4.0099,1.75428 h -43.3556 c 0,0 -4.5109,0.50122 -5.5134,-1.50366 -1.0024,-2.00483 -2.0049,-6.01465 -2.0049,-6.01465 z" /><path
   id="Shape-2-44"
   style="fill:none;stroke:#ff0000;stroke-width:2;stroke-linejoin:round;stroke-miterlimit:15.1181"
   d="m 1563.7905,559.27336 h 56.8887 l -0.2506,26.06348 c 0,0 0,3.25787 -2.0048,4.76159 -2.0049,1.50367 -4.0099,1.75428 -4.0099,1.75428 h -43.3556 c 0,0 -4.5109,0.50122 -5.5134,-1.50366 -1.0024,-2.00483 -2.0049,-6.01465 -2.0049,-6.01465 z" /><path
   id="Shape-2-71"
   style="fill:none;stroke:#ff0000;stroke-width:2;stroke-linejoin:round;stroke-miterlimit:15.1181"
   d="m 1563.7905,555.04925 h 56.8887 l -0.2506,-26.06348 c 0,0 0,-3.25787 -2.0048,-4.76159 -2.0049,-1.50367 -4.0099,-1.75428 -4.0099,-1.75428 h -43.3556 c 0,0 -4.5109,-0.50122 -5.5134,1.50366 -1.0024,2.00483 -2.0049,6.01465 -2.0049,6.01465 z" /><path
   id="Shape-2-25"
   style="fill:none;stroke:#ff0000;stroke-width:2;stroke-linejoin:round;stroke-miterlimit:15.1181"
   d="m 1761.2354,681.24396 h 55.8862 v 34.58423 h -56.638 z" /><path
   id="Shape-2-61"
   style="fill:none;stroke:#ff0000;stroke-width:2;stroke-linejoin:round;stroke-miterlimit:15.1181"
   d="m 1760.4836,718.83556 h 56.8887 l -0.2506,26.06349 c 0,0 0,3.25787 -2.0048,4.76158 -2.0049,1.50368 -4.0099,1.75428 -4.0099,1.75428 h -43.3556 c 0,0 -4.5109,0.50122 -5.5134,-1.50366 -1.0024,-2.00482 -2.0049,-6.01464 -2.0049,-6.01464 z" />
	
		<path
   id="Shape-2-41"
   style="fill:none;stroke:#ff0000;stroke-width:2;stroke-linejoin:round;stroke-miterlimit:15.1181"
   d="m 1737.7322,588.38944 67.6648,67.9154 c 0,0 2.2556,3.25788 1.5036,6.51581 -0.7518,3.25794 -4.7616,4.51099 -4.7616,4.51099 h -64.6573 z" />
	
		<path
   id="Shape-2-42"
   style="fill:none;stroke:#ff0000;stroke-width:2;stroke-linejoin:round;stroke-miterlimit:15.1181"
   d="m 1706.9071,557.56436 28.0684,28.06836 v 50.37275 h -40.0977 v -71.17341 c 0,0 0.2506,-5.01214 3.0073,-7.51831 2.7566,-2.5061 9.022,0.25055 9.022,0.25055 z" />
	
		<path
   id="Shape-2-40"
   style="fill:none;stroke:#ff0000;stroke-width:2;stroke-linejoin:round;stroke-miterlimit:15.1181"
   d="m 1734.4742,639.01273 v 28.31897 h -32.8299 c 0,0 -2.2555,0.50122 -4.2604,-2.00488 -2.0049,-2.50611 -2.0049,-6.76648 -2.0049,-6.76648 v -19.79822 z" />
	
		<path
   id="Shape-1-137"
   style="fill:none;stroke:#ff0000;stroke-width:2;stroke-linejoin:round;stroke-miterlimit:15.1181"
   d="m 933.09263,830.03741 51.45285,0.40979 -18.92054,24.6179 -46.875,0.27588 v -23.98896 z" />
	
		<path
   id="Shape-1-93"
   style="fill:none;stroke:#ff0000;stroke-width:2;stroke-linejoin:round;stroke-miterlimit:15.1181"
   d="m 1003.6764,712.50998 41.6361,27.84925 -6.6176,10.2022 -12.4082,-7.72058 -18.4743,25.36765 -29.22781,-21.2316 z" />
	
		<path
   id="Shape-1-92"
   style="fill:none;stroke:#ff0000;stroke-width:2;stroke-linejoin:round;stroke-miterlimit:15.1181"
   d="m 1031.25,674.18271 39.4301,27.0221 -22.6103,34.74267 -41.636,-28.67645 z" />
	
		<path
   id="Shape-1-91"
   style="fill:none;stroke:#ff0000;stroke-width:2;stroke-linejoin:round;stroke-miterlimit:15.1181"
   d="m 1057.7206,636.68277 38.8786,26.47058 -22.3346,34.74274 -40.2572,-28.125 z" />
	
		<path
   id="Shape-1-90"
   style="fill:none;stroke:#ff0000;stroke-width:2;stroke-linejoin:round;stroke-miterlimit:15.1181"
   d="m 1077.5734,607.73056 39.4303,28.4007 -15.9928,24.26471 -40.2572,-28.40076 z" />
	
		<path
   id="Shape-1-89"
   style="fill:none;stroke:#ff0000;stroke-width:2;stroke-linejoin:round;stroke-miterlimit:15.1181"
   d="m 1102.9412,573.26364 38.3271,26.74634 -21.7831,32.26105 -38.3272,-28.95221 z" />
	
		<path
   id="Shape-1-101"
   style="fill:none;stroke:#ff0000;stroke-width:2;stroke-linejoin:round;stroke-miterlimit:15.1181"
   d="m 1104.3198,565.81876 -3.3089,-5.51471 -23.7132,-17.09558 c 0,0 -3.0332,-2.20587 -3.0332,-4.96326 0,-2.75726 2.4817,-7.99628 2.4817,-7.99628 l 16.8198,-36.67279 81.6177,58.18012 -29.2279,43.56622 z" />
	
		<path
   id="Shape-1-03"
   style="fill:none;stroke:#ff0000;stroke-width:2;stroke-linejoin:round;stroke-miterlimit:15.1181"
   d="m 533.27203,873.26364 h 49.63233 v 48.25364 h -49.63233 z" />
	
		<path
   id="Shape-1-125"
   style="fill:none;stroke:#ff0000;stroke-width:1.91038;stroke-linejoin:round;stroke-miterlimit:15.1181"
   d="m 587.77355,873.21883 h 70.21089 v 48.06753 h -70.71309 z" /><path
   id="Shape-1-129"
   style="fill:none;stroke:#ff0000;stroke-width:1.4624;stroke-linejoin:round;stroke-miterlimit:15.1181"
   d="m 661.91756,873.48877 h 18.51766 v 48.51551 h -18.80923 z" /><path
   id="Shape-1-138"
   style="fill:none;stroke:#ff0000;stroke-width:1.4624;stroke-linejoin:round;stroke-miterlimit:15.1181"
   d="m 684.16026,873.35877 h 18.51766 v 48.51551 h -18.80923 z" />
	
		<path
   id="Shape-1-06"
   style="fill:none;stroke:#ff0000;stroke-width:2;stroke-linejoin:round;stroke-miterlimit:15.1181"
   d="m 706.98523,873.26364 h 67.27948 v 47.97791 H 751.37866 V 905.52466 H 717.1875 v 15.71689 h -10.75372 z" />
	
		<path
   id="Shape-1-07"
   style="fill:none;stroke:#ff0000;stroke-width:2;stroke-linejoin:round;stroke-miterlimit:15.1181"
   d="m 778.4007,873.26364 29.64855,-0.3178 v 48.25364 l -29.64855,0.3178 z" /><path
   id="Shape-1-140"
   style="fill:none;stroke:#ff0000;stroke-width:2;stroke-linejoin:round;stroke-miterlimit:15.1181"
   d="m 812.2414,873.01301 29.64855,-0.3178 v 48.25364 l -29.64855,0.3178 z" />
	
		
	
		<path
   id="Shape-1-122"
   style="fill:none;stroke:#ff0000;stroke-width:2;stroke-linejoin:round;stroke-miterlimit:15.1181"
   d="m 842.92273,751.66434 10.75366,20.40442 -11.58087,5.79046 -10.20227,-20.68011 z" />
	
		<path
   id="Shape-1-68"
   style="fill:none;stroke:#ff0000;stroke-width:2;stroke-linejoin:round;stroke-miterlimit:15.1181"
   d="m 801.70634,605.08316 39.40843,-25.07029 -27.36593,-43.32882 50.1629,-44.80963 30.57361,-0.7799 127.38975,86.02935 3.3087,-6.06622 32.5369,22.61035 -142.83081,196.32355 c 0,0 -1.10296,8.27206 -10.47796,7.72058 -9.375,-0.55148 -10.47797,-6.06619 -10.47797,-6.06619 z" />
	
		<path
   id="Shape-1-120"
   style="fill:none;stroke:#ff0000;stroke-width:2;stroke-linejoin:round;stroke-miterlimit:15.1181"
   d="m 756.50024,466.30857 39.38483,40.55456 -33.92554,20.47229 -20.47229,-43.47925 z" />
	
		<path
   id="Shape-1-119"
   style="fill:none;stroke:#ff0000;stroke-width:2;stroke-linejoin:round;stroke-miterlimit:15.1181"
   d="m 766.63886,453.83023 h 65.70635 v 34.12049 H 815.7724 l -16.37787,16.57275 -41.52948,-40.74957 z" />
	
		<path
   id="Shape-1-94"
   style="fill:none;stroke:#ff0000;stroke-width:2;stroke-linejoin:round;stroke-miterlimit:15.1181"
   d="m 896.68677,454.02512 h 27.10138 l 59.07721,41.52954 -23.59186,34.70538 -57.32245,-38.99481 -5.65424,-3.11963 z" />
	
		<path
   id="Shape-1-83"
   style="fill:none;stroke:#ff0000;stroke-width:2;stroke-linejoin:round;stroke-miterlimit:15.1181"
   d="m 987.5448,497.50443 38.0199,26.32147 -23.3969,36.2652 -38.60487,-26.90644 z" />
	
		<path
   id="Shape-1-84"
   style="fill:none;stroke:#ff0000;stroke-width:2;stroke-linejoin:round;stroke-miterlimit:15.1181"
   d="m 1028.8794,526.36063 50.8883,34.70538 -20.2773,29.63611 -33.9257,-23.78693 -3.8994,5.84925 -17.1577,-10.91858 z" />
	
		<path
   id="Shape-1-61"
   style="fill:none;stroke:#ff0000;stroke-width:2;stroke-linejoin:round;stroke-miterlimit:15.1181"
   d="m 885.76819,436.67246 v -39.77478 h 55.56769 l 7.79901,-10.52857 11.11346,7.40894 -16.1828,22.22711 h -37.24011 l -1.75476,20.47229 z" />
	
		<path
   id="Shape-1-62"
   style="fill:none;stroke:#ff0000;stroke-width:2;stroke-linejoin:round;stroke-miterlimit:15.1181"
   d="m 908.97015,418.73477 h 32.17078 l -13.45325,19.4975 -20.27728,-1.55981 z" />
	
		<path
   id="Shape-1-132"
   style="fill:none;stroke:#ff0000;stroke-width:2;stroke-linejoin:round;stroke-miterlimit:15.1181"
   d="m 982.21459,474.98641 31.19591,-43.08936 -24.63289,-17.81542 -32.17078,44.25916 z" /><path
   id="Shape-1-63"
   style="fill:none;stroke:#ff0000;stroke-width:2;stroke-linejoin:round;stroke-miterlimit:15.1181"
   d="m 955.17538,456.24755 31.19584,-43.08936 -24.6328,-17.81542 -32.1708,44.25916 z" />
	
		<path
   id="Shape-1-66"
   style="fill:none;stroke:#ff0000;stroke-width:2;stroke-linejoin:round;stroke-miterlimit:15.1181"
   d="m 1015.4261,433.35788 47.9637,33.34058 -26.9064,38.02002 c 0,0 -1.9498,2.72961 -4.0946,3.11957 -2.1447,0.38995 -4.4844,-0.97486 -4.4844,-0.97486 l -43.67418,-30.80591 z" />
	
		<path
   id="Shape-1-60"
   style="fill:none;stroke:#ff0000;stroke-width:2;stroke-linejoin:round;stroke-miterlimit:15.1181"
   d="m 833.90503,435.89249 48.93848,0.19507 v -39.18988 h -48.93848 z" />
	
		<path
   id="Shape-1-58"
   style="fill:none;stroke:#ff0000;stroke-width:2;stroke-linejoin:round;stroke-miterlimit:15.1181"
   d="m 830.59045,436.2825 v -39.38482 h -62.39172 v 31.97583 h -21.2522 v 36.46008 c 0,0 6.04419,-17.35266 14.42804,-22.422 8.38398,-5.06933 15.40296,-6.23919 15.40296,-6.23919 z" />
	
		<path
   id="Shape-1-57"
   style="fill:none;stroke:#ff0000;stroke-width:2;stroke-linejoin:round;stroke-miterlimit:15.1181"
   d="m 676.17084,430.04337 h 26.32147 v 37.82501 h -36.07025 c 0,0 -4.09442,-1.75482 -4.28943,-7.21405 -0.19501,-5.45935 0.97491,-12.08844 0.97491,-12.08844 z" />
	
		<path
   id="Shape-1-56"
   style="fill:none;stroke:#ff0000;stroke-width:2;stroke-linejoin:round;stroke-miterlimit:15.1181"
   d="m 639.90558,408.20621 17.35272,31.58582 -8.77386,16.57281 -29.63605,-18.13257 z" />
	
		<path
   id="Shape-1-54"
   style="fill:none;stroke:#ff0000;stroke-width:2;stroke-linejoin:round;stroke-miterlimit:15.1181"
   d="m 646.92468,459.67935 -30.02606,-18.71753 -10.91852,16.37787 29.4411,18.91248 z" />
	
		<path
   id="Shape-1-53"
   style="fill:none;stroke:#ff0000;stroke-width:2;stroke-linejoin:round;stroke-miterlimit:15.1181"
   d="m 633.27649,478.7869 -17.54767,25.34662 -29.05115,-19.10749 17.54767,-25.15167 z" />
	
		<path
   id="Shape-1-52"
   style="fill:none;stroke:#ff0000;stroke-width:2;stroke-linejoin:round;stroke-miterlimit:15.1181"
   d="m 613.3891,507.25315 -15.5979,23.00695 -29.24616,-18.91253 15.98792,-22.61701 z" />
	
		<path
   id="Shape-1-51"
   style="fill:none;stroke:#ff0000;stroke-width:2;stroke-linejoin:round;stroke-miterlimit:15.1181"
   d="m 595.45148,532.98972 -15.98792,23.20196 -28.46625,-18.52252 15.59797,-22.617 z" />
	
		<path
   id="Shape-1-50"
   style="fill:none;stroke:#ff0000;stroke-width:2;stroke-linejoin:round;stroke-miterlimit:15.1181"
   d="m 563.67065,578.61374 -28.8562,-17.93768 13.6482,-19.88739 28.8562,17.93768 z" />
	
		<path
   id="Shape-1-49"
   style="fill:none;stroke:#ff0000;stroke-width:2;stroke-linejoin:round;stroke-miterlimit:15.1181"
   d="m 561.72089,581.73331 -15.5979,24.56677 -3.89948,0.38989 0.38995,-37.04504 z" />
	
		<path
   id="Shape-1-48"
   style="fill:none;stroke:#ff0000;stroke-width:2;stroke-linejoin:round;stroke-miterlimit:15.1181"
   d="m 532.47479,564.77054 7.409,4.09442 -0.5849,37.24005 -20.47229,0.19507 -0.38995,-21.25226 z" />
	
		<path
   id="Shape-1-69"
   style="fill:none;stroke:#ff0000;stroke-width:2;stroke-linejoin:round;stroke-miterlimit:15.1181"
   d="m 586.28766,567.89017 26.12652,16.1828 -15.013,23.20197 -37.82501,-0.19501 z" />
	
		<path
   id="Shape-1-70"
   style="fill:none;stroke:#ff0000;stroke-width:2;stroke-linejoin:round;stroke-miterlimit:15.1181"
   d="m 604.42029,541.37357 26.51648,16.96283 -16.37781,23.20196 -26.32153,-17.54767 z" />
	
		<path
   id="Shape-1-71"
   style="fill:none;stroke:#ff0000;stroke-width:2;stroke-linejoin:round;stroke-miterlimit:15.1181"
   d="m 621.383,515.637 26.90649,16.37786 -15.98792,23.00696 -26.12652,-16.57275 z" />
	
		<path
   id="Shape-1-72"
   style="fill:none;stroke:#ff0000;stroke-width:2;stroke-linejoin:round;stroke-miterlimit:15.1181"
   d="m 624.11267,511.93247 17.74268,-26.12653 c 0,0 3.11963,-2.14465 6.04419,-1.55975 2.92462,0.5849 6.04425,3.50952 6.04425,3.50952 l 10.52856,21.64215 -14.03815,20.27728 z" />
	
		<path
   id="Shape-1-55"
   style="fill:none;stroke:#ff0000;stroke-width:2;stroke-linejoin:round;stroke-miterlimit:15.1181"
   d="m 650.2392,551.31735 17.35272,-25.34667 c 0,0 0.5849,-1.94977 3.50958,-1.94977 2.92456,0 3.89942,3.50958 3.89942,3.50958 l 13.06329,24.17676 z" />
	
		<path
   style="fill:none;stroke:#ff0000;stroke-width:2;stroke-linejoin:round;stroke-miterlimit:15.1181"
   d="m 667.60247,606.92344 29.43067,0.15655 15.98792,-8.77387 -23.00702,-43.08929 -18.64857,0.25088 z"
   id="path1666" /><path
   style="fill:none;stroke:#ff0000;stroke-width:2;stroke-linejoin:round;stroke-miterlimit:15.1181"
   d="m 662.58479,607.17433 -38.86195,-0.48429 c 0,0 -3.11963,1.36486 -5.26434,-3.31458 -2.14472,-4.67938 0.97485,-7.79895 0.97485,-7.79895 l 27.88129,-40.35968 h 20.03669 z"
   id="Shape-1-43" />
	
		<path
   id="Shape-1-82"
   style="fill:none;stroke:#ff0000;stroke-width:2;stroke-linejoin:round;stroke-miterlimit:15.1181"
   d="m 735.83295,517.19681 -40.74964,19.4975 -19.10748,-35.48535 c 0,0 -0.5849,-7.01905 0.5849,-10.33368 1.16986,-3.31452 6.4342,-6.2392 6.4342,-6.2392 h 31.19587 c 0,0 3.89947,1.55981 5.26428,2.92462 1.36487,1.36481 4.48437,7.01904 4.48437,7.01904 z" />
	
		<path
   id="Shape-1-42"
   style="fill:none;stroke:#ff0000;stroke-width:2;stroke-linejoin:round;stroke-miterlimit:15.1181"
   d="m 763.71429,568.86502 c 0,0 1.36487,4.67939 0.77991,6.62915 -0.5849,1.94977 -2.53467,4.48438 -2.53467,4.48438 l -27.68634,14.03821 c 0,0 -1.16986,0.97485 -5.06933,0.195 -3.89948,-0.77984 -5.06934,-4.87432 -5.06934,-4.87432 l -27.10144,-49.71845 40.35968,-19.49744 z" />
	
		<path
   id="Shape-1-74"
   style="fill:none;stroke:#ff0000;stroke-width:2;stroke-linejoin:round;stroke-miterlimit:15.1181"
   d="m 809.92322,651.72904 -34.12055,-62.39173 c 0,0 -0.38989,-1.75476 -3.50958,-3.31457 -3.11957,-1.55982 -5.45923,0.5849 -5.45923,0.5849 l -12.67334,7.01904 27.68628,52.05823 14.42816,-8.18897 9.74872,16.57282 z" />
	
		<path
   id="Shape-1-41"
   style="fill:none;stroke:#ff0000;stroke-width:2;stroke-linejoin:round;stroke-miterlimit:15.1181"
   d="m 751.04102,595.18656 13.45318,24.95672 -18.32757,9.94367 -10.52857,-19.10749 c 0,0 -1.36487,-2.92462 -0.39001,-5.06933 0.97491,-2.14472 3.70453,-4.28943 3.70453,-4.28943 z" />
	
		<path
   id="Shape-1-75"
   style="fill:none;stroke:#ff0000;stroke-width:2;stroke-linejoin:round;stroke-miterlimit:15.1181"
   d="m 747.92133,632.81656 17.54773,-9.74872 13.06323,24.56678 -17.35266,9.55371 z" />
	
		<path
   id="Shape-1-27"
   style="fill:none;stroke:#ff0000;stroke-width:2;stroke-linejoin:round;stroke-miterlimit:15.1181"
   d="m 806.80359,656.60343 17.54767,32.36572 -35.87525,19.4975 -17.35278,-32.56079 z" />
	
		<path
   id="Shape-1-77"
   style="fill:none;stroke:#ff0000;stroke-width:2;stroke-linejoin:round;stroke-miterlimit:15.1181"
   d="m 799.19958,724.06455 29.83106,57.32242 -5.06934,3.31451 -29.6361,-57.90732 z" />
	
		<path
   id="Shape-1-78"
   style="fill:none;stroke:#ff0000;stroke-width:2;stroke-linejoin:round;stroke-miterlimit:15.1181"
   d="m 839.94922,703.98221 29.83105,57.90735 -5.45929,3.11957 -30.02606,-58.1023 z" />
	
		<path
   id="Shape-1-32"
   style="fill:none;stroke:#ff0000;stroke-width:2;stroke-linejoin:round;stroke-miterlimit:15.1181"
   d="m 523.70093,623.45786 h 68.82599 c 0,0 3.11956,0.5849 4.28936,2.14465 1.16986,1.55982 1.55982,4.28943 1.55982,4.28943 v 25.34668 c 0,0 0.19501,2.14471 -1.16986,3.70447 -1.36487,1.55981 -4.28943,2.53467 -4.28943,2.53467 h -69.99573 c 0,0 -1.36487,0 -3.31463,-1.94977 -1.94971,-1.94971 -2.3396,-4.09442 -2.3396,-4.09442 v -26.32148 c 0,0 0.195,-2.14471 2.3396,-4.28943 2.14477,-2.14471 4.09442,-1.3648 4.09442,-1.3648 z" />
	
		<path
   id="Shape-1-30"
   style="fill:none;stroke:#ff0000;stroke-width:2;stroke-linejoin:round;stroke-miterlimit:15.1181"
   d="m 613.64886,623.44748 h 59.4209 c 0,0 3.86035,0.41358 5.10114,2.068 1.24078,1.65441 1.65442,3.86035 1.65442,3.86035 v 26.19482 c 0,0 0.55145,1.93018 -1.37866,3.72247 -1.93018,1.7923 -4.13605,1.93018 -4.13605,1.93018 h -60.38605 c 0,0 -3.03308,0.13794 -4.27386,-1.65442 -1.24079,-1.7923 -1.65442,-4.6875 -1.65442,-4.6875 v -24.8161 c 0,0 0.55145,-3.30884 1.79229,-4.82538 1.24079,-1.51654 3.86036,-1.7923 3.86036,-1.7923 z" />
	
		<path
   id="Shape-1-28"
   style="fill:none;stroke:#ff0000;stroke-width:2;stroke-linejoin:round;stroke-miterlimit:15.1181"
   d="m 695.40436,623.44748 h 27.43567 c 0,0 2.61956,0 3.58459,0.82715 0.96509,0.82721 2.34375,2.89526 2.34375,2.89526 l 13.37317,25.09192 c 0,0 0.82727,3.30878 -0.27588,5.92829 -1.10296,2.6195 -4.6875,2.89526 -4.6875,2.89526 h -41.49817 c 0,0 -3.58453,0 -4.6875,-1.24078 -1.10296,-1.24079 -1.79229,-4.27393 -1.79229,-4.27393 v -25.64331 c 0,0 0.68927,-3.30884 2.06799,-4.6875 1.37872,-1.37872 4.13605,-1.79224 4.13605,-1.79224 z" />
	
		<path
   id="Shape-1-24"
   style="fill:none;stroke:#ff0000;stroke-width:2;stroke-linejoin:round;stroke-miterlimit:15.1181"
   d="m 694.85291,670.73599 h 53.21685 c 0,0 1.93024,-0.27551 3.03308,0.82728 1.10297,1.10296 2.61951,2.75732 2.61951,2.75732 l 15.16547,28.81439 c 0,0 0.27588,4.13599 -0.55146,5.37683 -0.8272,1.24079 -4.82531,3.03308 -4.82531,3.03308 h -68.24451 c 0,0 -3.1709,0.13794 -4.27386,-1.37866 -1.10297,-1.51654 -1.93018,-4.4118 -1.93018,-4.4118 v -29.36579 c 0,0 0.96503,-3.03308 2.20581,-4.13598 1.24085,-1.10297 3.5846,-1.5166 3.5846,-1.5166 z" />
	
		<path
   id="Shape-1-23"
   style="fill:none;stroke:#ff0000;stroke-width:2;stroke-linejoin:round;stroke-miterlimit:15.1181"
   d="m 647.97791,669.90885 h 26.057 c 0,0 3.03308,-0.13794 4.41175,1.51654 1.37866,1.65435 1.93017,4.54962 1.93017,4.54962 v 28.26288 c 0,0 0.68933,2.34375 -1.10297,4.13604 -1.79229,1.79224 -4.6875,2.068 -4.6875,2.068 h -26.88421 z" />
	
		<path
   id="Shape-1-124"
   style="fill:none;stroke:#ff0000;stroke-width:2;stroke-linejoin:round;stroke-miterlimit:15.1181"
   d="m 615.02753,669.77097 h 30.19305 v 39.76245 h -31.85404 c 0,0 -2.89734,-0.48414 -3.79392,-1.50792 -0.79979,-0.91324 -0.88701,-3.53219 -0.88701,-3.53219 v -29.20763 c 0,0 0.41363,-2.61945 1.93017,-4.13599 1.51654,-1.5166 4.41175,-1.37866 4.41175,-1.37866 z" />
	
		
	
		<path
   id="Shape-1-19"
   style="fill:none;stroke:#ff0000;stroke-width:2;stroke-linejoin:round;stroke-miterlimit:15.1181"
   d="m 615.8548,721.33347 h 15.85479 v 40.53308 h -16.81988 c 0,0 -2.34375,-0.55145 -3.86035,-2.20587 -1.51654,-1.65442 -1.7923,-4.27387 -1.7923,-4.27387 v -27.57354 c 0,0 0.27557,-3.03309 1.93018,-4.96326 1.65442,-1.93012 4.6875,-1.51648 4.6875,-1.51648 z" />
	
		<path
   id="Shape-1-20"
   style="fill:none;stroke:#ff0000;stroke-width:2;stroke-linejoin:round;stroke-miterlimit:15.1181"
   d="m 634.88049,721.33347 h 39.84375 c 0,0 2.75739,-0.41364 4.54969,1.37866 1.79229,1.7923 1.79229,4.54968 1.79229,4.54968 v 13.09741 h -46.73718 z" />
	
		<path
   id="Shape-1-13"
   style="fill:none;stroke:#ff0000;stroke-width:2;stroke-linejoin:round;stroke-miterlimit:15.1181"
   d="m 634.74261,743.25443 h 46.46137 v 13.23535 c 0,0 -0.27551,2.8952 -1.65442,3.99811 -1.37866,1.10296 -3.58453,1.79229 -3.58453,1.79229 h -41.63605 z" /><path
   id="Shape-1-14"
   style="fill:none;stroke:#ff0000;stroke-width:2;stroke-linejoin:round;stroke-miterlimit:15.1181"
   d="m 616.55405,769.55376 h 15.85479 v 40.53308 h -16.81988 c 0,0 -2.34375,-0.55145 -3.86035,-2.20587 -1.51654,-1.65442 -1.7923,-4.27387 -1.7923,-4.27387 v -27.57354 c 0,0 0.27557,-3.03309 1.93018,-4.96326 1.65442,-1.93012 4.6875,-1.51648 4.6875,-1.51648 z" /><path
   id="Shape-1-25"
   style="fill:none;stroke:#ff0000;stroke-width:2;stroke-linejoin:round;stroke-miterlimit:15.1181"
   d="m 635.57974,769.55376 h 39.84375 c 0,0 2.75739,-0.41364 4.54969,1.37866 1.79229,1.7923 1.79229,4.54968 1.79229,4.54968 v 13.09741 h -46.73718 z" /><path
   id="Shape-1-11"
   style="fill:none;stroke:#ff0000;stroke-width:2;stroke-linejoin:round;stroke-miterlimit:15.1181"
   d="m 635.44186,791.47472 h 46.46137 v 13.23535 c 0,0 -0.27551,2.8952 -1.65442,3.99811 -1.37866,1.10296 -3.58453,1.79229 -3.58453,1.79229 h -41.63605 z" />
	
		<path
   id="Shape-1-18"
   style="fill:none;stroke:#ff0000;stroke-width:2;stroke-linejoin:round;stroke-miterlimit:15.1181"
   d="m 695.95581,721.05771 h 39.84381 c 0,0 2.20587,0 3.72247,1.24078 1.51648,1.24079 2.61945,4.13605 2.61945,4.13605 v 28.95221 c 0,0 -0.27588,3.44666 -1.51648,4.9632 -1.24084,1.51654 -3.99817,1.79223 -3.99817,1.79223 h -41.49817 c 0,0 -2.48156,-0.55145 -3.72241,-1.65435 -1.24084,-1.10297 -2.20587,-4.13605 -2.20587,-4.13605 v -29.50366 c 0,0 0.13794,-3.44672 2.20587,-4.9632 2.06799,-1.51654 4.54956,-0.82727 4.54956,-0.82727 z" />
	
		<path
   id="Shape-1-17"
   style="fill:none;stroke:#ff0000;stroke-width:2;stroke-linejoin:round;stroke-miterlimit:15.1181"
   d="m 757.8584,721.19559 h 16.54413 c 0,0 1.79229,-0.41357 3.30883,0.68939 1.51648,1.10291 3.1709,3.72241 3.1709,3.72241 l 14.88977,27.98713 c 0,0 0.55146,3.03308 -0.68933,5.51471 -1.24084,2.48156 -4.27392,2.89526 -4.27392,2.89526 h -32.53669 c 0,0 -3.44671,0 -4.82543,-1.37866 -1.37867,-1.37873 -1.93012,-4.54969 -1.93012,-4.54969 v -29.50366 c 0,0 0.68933,-2.6195 1.93012,-3.99817 1.24084,-1.37872 4.4118,-1.37872 4.4118,-1.37872 z" />
	
		<path
   id="Shape-1-16"
   style="fill:none;stroke:#ff0000;stroke-width:2;stroke-linejoin:round;stroke-miterlimit:15.1181"
   d="m 805.42273,771.65515 15.16547,28.67649 c 0,0 0.55145,3.72241 -0.55146,5.79043 -1.10296,2.068 -5.37683,3.03311 -5.37683,3.03311 h -56.11218 c 0,0 -3.1709,0.55149 -5.10114,-1.37869 -1.93011,-1.93014 -2.06799,-4.96322 -2.06799,-4.96322 v -25.36765 c 0,0 0.27588,-2.4816 1.93018,-4.41177 1.65442,-1.93015 4.54962,-1.51651 4.54962,-1.51651 z" />
	
		
	
		
	
		
	
		<path
   id="Shape-1-10"
   style="fill:none;stroke:#ff0000;stroke-width:2;stroke-linejoin:round;stroke-miterlimit:15.1181"
   d="m 614.20038,818.66803 h 58.45587 c 0,0 3.99811,0.13794 5.10107,1.65439 1.10297,1.51654 1.93018,4.13602 1.93018,4.13602 v 29.64154 c 0,0 -0.27557,3.03314 -1.93018,4.13605 -1.65441,1.10293 -4.54962,1.37866 -4.54962,1.37866 h -58.86957 c 0,0 -3.03308,-0.13794 -4.27386,-1.65439 -1.24078,-1.51657 -2.20587,-4.68747 -2.20587,-4.68747 v -28.67648 c 0,0 0.82721,-3.30884 2.34375,-4.54963 1.51654,-1.24081 3.99817,-1.37869 3.99817,-1.37869 z" />
	
		<path
   id="Shape-1-97"
   style="fill:none;stroke:#ff0000;stroke-width:2;stroke-linejoin:round;stroke-miterlimit:15.1181"
   d="m 565.53308,771.37943 h 27.15991 c 0,0 3.17096,0.82724 4.27387,2.06802 1.10296,1.24079 2.06805,4.13599 2.06805,4.13599 v 26.74634 c 0,0 -0.27588,1.93014 -1.7923,3.3088 -1.51654,1.3787 -4.13604,1.7923 -4.13604,1.7923 H 565.3952 Z" />
	
		<path
   id="Shape-1-99"
   style="fill:none;stroke:#ff0000;stroke-width:2;stroke-linejoin:round;stroke-miterlimit:15.1181"
   d="m 561.39703,771.37943 v 37.77579 h -25.09192 c 0,0 -2.8952,0.41357 -4.4118,-1.51658 -1.51648,-1.93014 -1.65436,-4.82537 -1.65436,-4.82537 v -25.64338 c 0,0 0.55146,-2.34375 2.34375,-3.99816 1.7923,-1.65439 4.13599,-1.65439 4.13599,-1.65439 z" /><path
   id="Shape-1-128"
   style="fill:none;stroke:#ff0000;stroke-width:1.86971;stroke-linejoin:round;stroke-miterlimit:15.1181"
   d="m 716.75072,818.69438 h 22.06094 c 0,0 2.57565,0.89007 3.4715,2.2251 0.89588,1.33503 1.67979,4.4501 1.67979,4.4501 v 28.77773 c 0,0 -0.22409,2.07674 -1.4558,3.5601 -1.23184,1.48342 -3.35955,1.92844 -3.35955,1.92844 h -22.50888 z" /><path
   id="Shape-1-09"
   style="fill:none;stroke:#ff0000;stroke-width:1.86971;stroke-linejoin:round;stroke-miterlimit:15.1181"
   d="m 713.39117,818.69438 v 40.64487 h -20.3812 c 0,0 -2.35165,0.44498 -3.58353,-1.63176 -1.23178,-2.07673 -1.34378,-5.19186 -1.34378,-5.19186 v -27.591 c 0,0 0.44794,-2.52177 1.90375,-4.30182 1.45581,-1.78004 3.35951,-1.78004 3.35951,-1.78004 z" /><path
   id="Shape-1-127"
   style="fill:none;stroke:#ff0000;stroke-width:1.79817;stroke-linejoin:round;stroke-miterlimit:15.1181"
   d="m 716.8997,771.26847 h 22.08919 c 0,0 2.57894,0.8222 3.47594,2.05544 0.89703,1.23324 1.68194,4.11079 1.68194,4.11079 v 26.5835 c 0,0 -0.22438,1.91839 -1.45766,3.28865 -1.23342,1.37031 -3.36385,1.7814 -3.36385,1.7814 h -22.5377 z" /><path
   id="Shape-1-151"
   style="fill:none;stroke:#ff0000;stroke-width:1.79817;stroke-linejoin:round;stroke-miterlimit:15.1181"
   d="m 713.53585,771.26847 v 37.5458 h -20.40729 c 0,0 -2.35466,0.41105 -3.58812,-1.50735 -1.23336,-1.91838 -1.3455,-4.79599 -1.3455,-4.79599 v -25.48725 c 0,0 0.44851,-2.32949 1.90619,-3.97382 1.45767,-1.64432 3.36381,-1.64432 3.36381,-1.64432 z" />
	
		<path
   id="Shape-1-98"
   style="fill:none;stroke:#ff0000;stroke-width:2;stroke-linejoin:round;stroke-miterlimit:15.1181"
   d="m 536.85657,720.78202 h 55.00921 c 0,0 3.03308,0.82714 4.41175,1.93011 1.37872,1.10297 2.34375,4.27393 2.34375,4.27393 v 29.91723 c 0,0 -0.55146,1.65442 -1.37867,2.89527 -0.8272,1.24078 -3.99816,2.34375 -3.99816,2.34375 h -57.21503 c 0,0 -1.65442,0.27594 -3.86035,-1.51648 -2.20587,-1.7923 -2.06806,-4.6875 -2.06806,-4.6875 v -29.22797 c 0,0 0.6894,-3.03308 1.93024,-4.27386 1.24078,-1.24085 4.82532,-1.65442 4.82532,-1.65442 z" />
	
		<path
   id="Shape-1-123"
   style="fill:none;stroke:#ff0000;stroke-width:2;stroke-linejoin:round;stroke-miterlimit:15.1181"
   d="m 544.30151,671.42539 h 47.42646 c 0,0 2.8952,0.68933 3.9981,1.93011 1.10291,1.24079 2.06806,3.72241 2.06806,3.72241 v 29.64154 c 0,0 0.13794,1.65448 -1.37866,3.30884 -1.51654,1.65442 -4.41175,2.61951 -4.41175,2.61951 h -48.25366 z" />
	
		<path
   id="Shape-1-21"
   style="fill:none;stroke:#ff0000;stroke-width:2;stroke-linejoin:round;stroke-miterlimit:15.1181"
   d="m 540.44116,671.42539 v 40.94665 h -18.33642 c 0,0 -2.34375,-0.27551 -3.86036,-2.06799 -1.51647,-1.7923 -1.65441,-4.41181 -1.65441,-4.41181 v -28.40069 c 0,0 0.27594,-3.44672 2.34375,-4.6875 2.06805,-1.24078 4.54968,-1.51654 4.54968,-1.51654 z" />
	
		<path
   id="Shape-1-12"
   style="fill:none;stroke:#ff0000;stroke-width:2;stroke-linejoin:round;stroke-miterlimit:15.1181"
   d="m 536.99445,818.53015 h 54.73346 c 0,0 3.30877,0.13794 4.6875,1.93018 1.37866,1.79224 2.20581,4.41177 2.20581,4.41177 v 29.50367 c 0,0 -0.13794,1.79223 -1.37867,3.17096 -1.24078,1.37869 -3.86035,2.06799 -3.86035,2.06799 h -56.93933 c 0,0 -2.89526,-0.13794 -4.41174,-1.65439 -1.51654,-1.51657 -2.20587,-4.82538 -2.20587,-4.82538 v -28.95221 c 0,0 0.55145,-3.30881 2.48156,-4.54962 1.93024,-1.24081 4.6875,-1.10294 4.6875,-1.10294 z" />
	
		
	
		<path
   id="Shape-1-08"
   style="fill:none;stroke:#ff0000;stroke-width:2;stroke-linejoin:round;stroke-miterlimit:15.1181"
   d="m 758.82355,818.53015 h 67.27936 c 0,0 1.51654,-0.13794 2.8952,0.82724 1.37872,0.96506 3.03314,2.89521 3.03314,2.89521 l 14.88971,27.57354 c 0,0 1.37866,4.68753 0.27588,6.75553 -1.10297,2.06799 -4.82532,3.03305 -4.82532,3.03305 H 758.1344 c 0,0 -2.89526,0.41366 -4.54968,-1.65439 -1.65436,-2.06802 -1.93012,-5.1011 -1.93012,-5.1011 v -27.84931 c 0,0 0.82721,-3.72241 2.61951,-5.23895 1.7923,-1.51654 4.54962,-1.24082 4.54962,-1.24082 z" />
	
		<path
   id="Shape-1-02"
   style="fill:none;stroke:#ff0000;stroke-width:2;stroke-linejoin:round;stroke-miterlimit:15.1181"
   d="m 518.10617,805.91405 -0.44943,42.511 H 439.862 v -19.30246 l 16.36459,-23.03339 z" /><path
   id="Shape-1-136"
   style="fill:none;stroke:#ff0000;stroke-width:2;stroke-linejoin:round;stroke-miterlimit:15.1181"
   d="m 471.61804,744.12767 h 46.59885 v 58.69055 l -61.16575,0.0231 14.56687,-23.03339 z" />
	
		<path
   id="Shape-3-114"
   style="fill:none;stroke:#ff0000;stroke-width:2;stroke-linejoin:round;stroke-miterlimit:15.1181"
   d="m 309.22922,626.57736 h 19.69241 l 3.50952,6.43421 h 7.79898 v 32.75561 h -31.00091 z" />
	
		<path
   id="Shape-3-115"
   style="fill:none;stroke:#ff0000;stroke-width:2;stroke-linejoin:round;stroke-miterlimit:15.1181"
   d="m 352.90344,634.37638 h 26.32157 v 4.09442 h 23.59185 v 28.46631 h -49.91342 z" />
	
		<path
   id="Shape-3-113"
   style="fill:none;stroke:#ff0000;stroke-width:2;stroke-linejoin:round;stroke-miterlimit:15.1181"
   d="m 343.54468,674.73599 h 59.46716 v 9.16382 h -24.17682 v 3.50959 h -35.68027 z" />
	
		<path
   id="Shape-3-110"
   style="fill:none;stroke:#ff0000;stroke-width:2;stroke-linejoin:round;stroke-miterlimit:15.1181"
   d="m 343.15256,689.89963 h 10.20221 v 15.16547 h 24.5404 v 12.54589 h 25.78125 v 29.77942 h -23.71319 v -22.74817 h -36.67282 z" />
	
		<path
   id="Shape-3-109"
   style="fill:none;stroke:#ff0000;stroke-width:2;stroke-linejoin:round;stroke-miterlimit:15.1181"
   d="m 344.53125,729.74344 h 31.15808 v 37.5 H 344.6691 Z" />
	
		<path
   style="fill:none;stroke:#ff0000;stroke-width:2;stroke-linejoin:round;stroke-miterlimit:15.1181"
   d="m 362.04041,814.80768 h -18.75 v -42.87686 h 18.31892 z"
   id="Shape-3-106" /><path
   style="fill:none;stroke:#ff0000;stroke-width:2;stroke-linejoin:round;stroke-miterlimit:15.1181"
   d="m 364.49449,771.93082 h 15.46874 l -0.13788,-21.9209 h 23.71325 v 29.09006 h -39.24023 z"
   id="Shape-3-134" />
	
		<path
   id="Shape-3-104"
   style="fill:none;stroke:#ff0000;stroke-width:2;stroke-linejoin:round;stroke-miterlimit:15.1181"
   d="m 343.29041,817.42719 h 36.81063 l -10.34002,17.09561 h -26.74634 v 7.1691 h -22.05881 v -4.96323 c 0,0 -0.41357,-0.96506 1.10294,-2.20587 1.51654,-1.24085 4.27389,-1.65442 4.27389,-1.65442 h 13.64893 c 0,0 2.2059,-0.13794 2.61947,-1.10294 0.41361,-0.96505 0.68934,-2.34375 0.68934,-2.34375 z" />
	
		<path
   id="Shape-3-101"
   style="fill:none;stroke:#ff0000;stroke-width:2;stroke-linejoin:round;stroke-miterlimit:15.1181"
   d="m 320.95587,852.30774 h 21.50736 v 14.3382 h 24.26468 v 53.4927 h -47.15073 v -21.23166 l -12.13236,-10.4779 13.23529,-22.88605 z" />
	
		<path
   id="Shape-3-103"
   style="fill:none;stroke:#ff0000;stroke-width:2;stroke-linejoin:round;stroke-miterlimit:15.1181"
   d="M 271.40421,830.52051 H 295.776 v -13.64822 h 40.16467 v 5.84921 c 0,0 0.19498,0.19504 -1.16983,1.75476 -1.3648,1.55981 -3.31457,1.36481 -3.31457,1.36481 h -23.39691 c 0,0 -1.55979,-0.97483 -3.31458,0.77993 -1.75476,1.75473 -1.75476,4.09443 -1.75476,4.09443 l 0.38995,30.22103 -13.25824,12.67331 -3.70449,-4.09445 v -6.62912 h -14.81806 z" />
	
		<path
   id="Shape-3-105"
   style="fill:none;stroke:#ff0000;stroke-width:2;stroke-linejoin:round;stroke-miterlimit:15.1181"
   d="m 271.59918,780.80207 h 26.90647 v 16.96273 h 37.24011 v 16.57282 h -31.78082 v -10.33365 h -32.36573 z" />
	
		<path
   id="Shape-3-108"
   style="fill:none;stroke:#ff0000;stroke-width:1.39104;stroke-linejoin:round;stroke-miterlimit:15.1181"
   d="m 271.29902,750.62299 h 27.90106 v 28.14383 h -28.10032 z" />
	
		<path
   id="Shape-3-112"
   style="fill:none;stroke:#ff0000;stroke-width:2;stroke-linejoin:round;stroke-miterlimit:15.1181"
   d="m 271.59918,663.23258 h 33.34061 v 21.44714 h 30.61096 v 17.74268 h -36.85013 v 14.4281 h -27.10141 z" />
	
		<path
   id="Shape-1-130"
   style="fill:none;stroke:#ff0000;stroke-width:2;stroke-linejoin:round;stroke-miterlimit:15.1181"
   d="m 764.58376,531.94457 30.13145,-18.64723 21.76014,36.8208 -30.69716,19.63804 z" />
	
		<path
   id="Shape-1-131"
   style="fill:none;stroke:#ff0000;stroke-width:2;stroke-linejoin:round;stroke-miterlimit:15.1181"
   d="m 816.94226,491.46018 h 42.5044 l -48.06914,41.83 -13.64819,-22.61701 z" />
	
		<path
   id="Shape-1-73"
   style="fill:none;stroke:#ff0000;stroke-width:2;stroke-linejoin:round;stroke-miterlimit:15.1181"
   d="m 835.65979,454.02512 56.93243,-0.77985 v 35.09534 l -56.93243,-0.38989 z" />
<rect
   style="fill:none;stroke:#ff0000;stroke-width:2;stroke-linejoin:round"
   id="Shape-2-135"
   width="38.636131"
   height="30.106075"
   x="1711.0286"
   y="428.84436" /><path
   style="fill:none;stroke:#ff0000;stroke-width:2;stroke-linejoin:round"
   d="m 920.36027,825.3039 21.99782,-29.80349 47.54366,24.83625 -3.54803,5.67685 z"
   id="Shape-1-96" /><path
   style="fill:none;stroke:#ff0000;stroke-width:2;stroke-linejoin:round"
   d="m 974.2904,752.92399 40.4476,26.96507 -21.99782,35.48035 -44.70524,-26.25546 z"
   id="Shape-1-126" /><path
   style="fill:none;stroke:#ff0000;stroke-width:2;stroke-linejoin:round"
   d="m 817.82206,552.81482 17.38537,26.61026 -35.48035,21.28821 -13.48253,-27.31987 z"
   id="Shape-1-135" /><rect
   style="fill:none;stroke:#ff0000;stroke-width:2;stroke-linejoin:round"
   id="Shape-3-117"
   width="27.31987"
   height="26.965065"
   x="271.77948"
   y="719.92725" /><rect
   style="fill:none;stroke:#ff0000;stroke-width:2;stroke-linejoin:round"
   id="Shape-3-111"
   width="32.996727"
   height="42.57642"
   x="301.93777"
   y="705.38031" /><rect
   style="fill:none;stroke:#ff0000;stroke-width:2;stroke-linejoin:round"
   id="Shape-3-102"
   width="32.287117"
   height="21.997816"
   x="301.93777"
   y="751.14996" /><rect
   style="fill:none;stroke:#ff0000;stroke-width:2;stroke-linejoin:round"
   id="Shape-3-107"
   width="32.641922"
   height="18.094978"
   x="301.93777"
   y="776.341" /><circle
   style="fill:none;stroke:#ff0000;stroke-width:1.42683;stroke-opacity:1"
   id="Shape-1-cafe-01"
   cx="471.22977"
   cy="-886.68805"
   r="26.291788"
   transform="scale(1,-1)" /><circle
   style="fill:none;stroke:#ff0000;stroke-width:1.42683;stroke-opacity:1"
   id="Shape-2-cafe-02"
   cx="1829.6388"
   cy="-607.81525"
   r="26.291788"
   transform="scale(1,-1)" /></g><g
   id="terminals"><circle
     style="fill:#ffffff;stroke:#050000;stroke-width:1;stroke-linejoin:round;stroke-dasharray:none;stroke-opacity:1"
     id="t-11"
     cx="878"
     cy="490"
     r="5" /><circle
     style="fill:#ffffff;stroke:#050000;stroke-width:1;stroke-linejoin:round;stroke-dasharray:none;stroke-opacity:1"
     id="t-05"
     cx="1349.7775"
     cy="440.30841"
     r="5" /><circle
     style="fill:#ffffff;stroke:#050000;stroke-width:1;stroke-linejoin:round;stroke-dasharray:none;stroke-opacity:1"
     id="t-01"
     cx="1689.2817"
     cy="793.62555"
     r="5" /><circle
     style="fill:#ffffff;stroke:#050000;stroke-width:1;stroke-linejoin:round;stroke-dasharray:none;stroke-opacity:1"
     id="t-02"
     cx="2124.5967"
     cy="579.21667"
     r="5" /><circle
     style="fill:#ffffff;stroke:#050000;stroke-width:1;stroke-linejoin:round;stroke-dasharray:none;stroke-opacity:1"
     id="t-04"
     cx="2108.4741"
     cy="390.79681"
     r="5" /></g>

<g
   id="texts"
   style="display:inline">
	
		<circle
   id="entrance-3"
   style="fill:#ffffff;stroke:#000000;stroke-miterlimit:10"
   cx="2261.165"
   cy="249.58064"
   r="6.1276598" />
	
		<circle
   id="entrance-4"
   style="fill:#ffffff;stroke:#000000;stroke-miterlimit:10"
   cx="2479.624"
   cy="278.76917"
   r="6.1276598" />
	
		<circle
   id="entrance-5"
   style="fill:#ffffff;stroke:#000000;stroke-miterlimit:10"
   cx="1717.1199"
   cy="1029.2371"
   r="6.1276598" />
	
		<circle
   id="entrance-2"
   style="fill:#ffffff;stroke:#000000;stroke-miterlimit:10"
   cx="1383.6074"
   cy="278.76917"
   r="6.1276598" />
	
		<circle
   id="entrance-1"
   style="fill:#ffffff;stroke:#000000;stroke-miterlimit:10"
   cx="917.15497"
   cy="278.76917"
   r="6.1276598" />
	
		<circle
   id="entrance-7"
   style="fill:#ffffff;stroke:#000000;stroke-miterlimit:10"
   cx="283.47293"
   cy="278.76917"
   r="6.1276598" />
	
		<circle
   id="entrance-6"
   style="fill:#ffffff;stroke:#000000;stroke-miterlimit:10"
   cx="1106.4503"
   cy="1029.2371"
   r="6.1276598" />
</g><g
   id="sign"><circle
     style="fill:#ffffff;stroke:#050000;stroke-width:1;stroke-linejoin:round;stroke-dasharray:none;stroke-opacity:1"
     id="cassa-bn-1"
     cx="484.29733"
     cy="614.94214"
     r="5" /><circle
     style="fill:#ffffff;stroke:#050000;stroke-width:1;stroke-linejoin:round;stroke-dasharray:none;stroke-opacity:1"
     id="cassa-bn-2"
     cx="1483.4498"
     cy="818.33197"
     r="5" /><circle
     style="fill:#ffffff;stroke:#050000;stroke-width:1;stroke-linejoin:round;stroke-dasharray:none;stroke-opacity:1"
     id="cassa-n-1"
     cx="812.26343"
     cy="571.7218"
     r="5" /><circle
     style="fill:#ffffff;stroke:#050000;stroke-width:1;stroke-linejoin:round;stroke-dasharray:none;stroke-opacity:1"
     id="cassa-n-2"
     cx="1395.738"
     cy="525.95911"
     r="5" /><circle
     style="fill:#ffffff;stroke:#050000;stroke-width:1;stroke-linejoin:round;stroke-dasharray:none;stroke-opacity:1"
     id="cassa-n-3"
     cx="2154.6362"
     cy="466.21332"
     r="5" /><circle
     style="fill:#ffffff;stroke:#050000;stroke-width:1;stroke-linejoin:round;stroke-dasharray:none;stroke-opacity:1"
     id="atmz-1"
     cx="1416.077"
     cy="415.36591"
     r="5" /><circle
     style="fill:#ffffff;stroke:#050000;stroke-width:1;stroke-linejoin:round;stroke-dasharray:none;stroke-opacity:1"
     id="info-2"
     cx="1395.7627"
     cy="511.01694"
     r="5" /><circle
     style="fill:#ffffff;stroke:#050000;stroke-width:1;stroke-linejoin:round;stroke-dasharray:none;stroke-opacity:1"
     id="info-1"
     cx="822.97095"
     cy="576.31671"
     r="5" /><circle
     style="fill:#ffffff;stroke:#050000;stroke-width:1;stroke-linejoin:round;stroke-dasharray:none;stroke-opacity:1"
     id="info-3"
     cx="366.28732"
     cy="657.51941"
     r="5" /><circle
     style="fill:#ffffff;stroke:#050000;stroke-width:1;stroke-linejoin:round;stroke-dasharray:none;stroke-opacity:1"
     id="atmz-2"
     cx="1690.6533"
     cy="815.78967"
     r="5" /><circle
     style="fill:#ffffff;stroke:#050000;stroke-width:1;stroke-linejoin:round;stroke-dasharray:none;stroke-opacity:1"
     id="atmz-3"
     cx="2103.7888"
     cy="354.34894"
     r="5" /><circle
     style="fill:#ffffff;stroke:#050000;stroke-width:1;stroke-linejoin:round;stroke-dasharray:none;stroke-opacity:1"
     id="atmz-4"
     cx="907.60236"
     cy="433.16248"
     r="5" /><circle
     style="fill:#ffffff;stroke:#050000;stroke-width:1;stroke-linejoin:round;stroke-dasharray:none;stroke-opacity:1"
     id="garderob-1"
     cx="2047.8566"
     cy="824.68793"
     r="5" /><circle
     style="fill:#ffffff;stroke:#050000;stroke-width:1;stroke-linejoin:round;stroke-dasharray:none;stroke-opacity:1"
     id="garderob-2"
     cx="480.50842"
     cy="591.41949"
     r="5" /><circle
     style="fill:#ffffff;stroke:#050000;stroke-width:1;stroke-linejoin:round;stroke-dasharray:none;stroke-opacity:1"
     id="wc-1-1"
     cx="479.9978"
     cy="567.21741"
     r="5" /><circle
     style="fill:#ffffff;stroke:#050000;stroke-width:1;stroke-linejoin:round;stroke-dasharray:none;stroke-opacity:1"
     id="wc-1-2"
     cx="1295.1881"
     cy="630.8504"
     r="5" /><circle
     style="fill:#ffffff;stroke:#050000;stroke-width:1;stroke-linejoin:round;stroke-dasharray:none;stroke-opacity:1"
     id="wc-1-3"
     cx="2032.9869"
     cy="842.38715"
     r="5" /></g><g
   id="objects"><circle
     style="fill:#ffffff;stroke:#050000;stroke-width:1;stroke-linejoin:round;stroke-dasharray:none;stroke-opacity:1"
     id="cafe-02"
     cx="1828.6018"
     cy="668.01257"
     r="5" /><circle
     style="fill:#ffffff;stroke:#050000;stroke-width:1;stroke-linejoin:round;stroke-dasharray:none;stroke-opacity:1"
     id="cafe-01"
     cx="471.0051"
     cy="393.4361"
     r="5" /><circle
     style="fill:#ffffff;stroke:#050000;stroke-width:1;stroke-linejoin:round;stroke-dasharray:none;stroke-opacity:1"
     id="fountaine-01"
     cx="2009.8612"
     cy="484.48801"
     r="5" /><circle
     style="fill:#ffffff;stroke:#050000;stroke-width:1;stroke-linejoin:round;stroke-dasharray:none;stroke-opacity:1"
     id="fountaine-02"
     cx="1719.0785"
     cy="779.98969"
     r="5" /><circle
     style="fill:#ffffff;stroke:#050000;stroke-width:1;stroke-linejoin:round;stroke-dasharray:none;stroke-opacity:1"
     id="lift-01"
     cx="2053.0066"
     cy="533.65894"
     r="5" /><circle
     style="fill:#ffffff;stroke:#050000;stroke-width:1;stroke-linejoin:round;stroke-dasharray:none;stroke-opacity:1"
     id="lift-02"
     cx="1966.7157"
     cy="447.36798"
     r="5" /><circle
     style="fill:#ffffff;stroke:#050000;stroke-width:1;stroke-linejoin:round;stroke-dasharray:none;stroke-opacity:1"
     id="elevator-01"
     cx="1955.9293"
     cy="544.44531"
     r="5" /><circle
     style="fill:#ffffff;stroke:#050000;stroke-width:1;stroke-linejoin:round;stroke-dasharray:none;stroke-opacity:1"
     id="elevator-02"
     cx="2063.793"
     cy="434.78387"
     r="5" /><circle
     style="fill:#ffffff;stroke:#050000;stroke-width:1;stroke-linejoin:round;stroke-dasharray:none;stroke-opacity:1"
     id="elevator-03"
     cx="1392.7906"
     cy="470.55557"
     r="5" /><circle
     style="fill:#ffffff;stroke:#050000;stroke-width:1;stroke-linejoin:round;stroke-dasharray:none;stroke-opacity:1"
     id="elevator-04"
     cx="1333.4656"
     cy="494.82492"
     r="5" /><circle
     style="fill:#ffffff;stroke:#050000;stroke-width:1;stroke-linejoin:round;stroke-dasharray:none;stroke-opacity:1"
     id="elevator-10"
     cx="817.67163"
     cy="559.02594"
     r="5" /><circle
     style="fill:#ffffff;stroke:#050000;stroke-width:1;stroke-linejoin:round;stroke-dasharray:none;stroke-opacity:1"
     id="elevator-11"
     cx="324.46887"
     cy="682.04913"
     r="5" /></g></svg>
