<?xml version="1.0" encoding="UTF-8" standalone="no"?>
<!-- Generator: Adobe Illustrator 26.4.1, SVG Export Plug-In . SVG Version: 6.00 Build 0)  -->

<svg
   version="1.1"
   id="svg755084"
   x="0px"
   y="0px"
   width="2600px"
   height="1200px"
   viewBox="0 0 2600 1200"
   style="enable-background:new 0 0 2600 1200;"
   xml:space="preserve"
   sodipodi:docname="grand-floor-2-final.svg"
   inkscape:version="1.2.2 (b0a8486, 2022-12-01)"
   xmlns:inkscape="http://www.inkscape.org/namespaces/inkscape"
   xmlns:sodipodi="http://sodipodi.sourceforge.net/DTD/sodipodi-0.dtd"
   xmlns="http://www.w3.org/2000/svg"
   xmlns:svg="http://www.w3.org/2000/svg"><defs
   id="defs124619" /><sodipodi:namedview
   id="namedview124617"
   pagecolor="#ffffff"
   bordercolor="#000000"
   borderopacity="0.25"
   inkscape:showpageshadow="2"
   inkscape:pageopacity="0.0"
   inkscape:pagecheckerboard="0"
   inkscape:deskcolor="#d1d1d1"
   showgrid="false"
   inkscape:zoom="0.19666667"
   inkscape:cx="1179.661"
   inkscape:cy="653.38983"
   inkscape:window-width="1309"
   inkscape:window-height="763"
   inkscape:window-x="0"
   inkscape:window-y="25"
   inkscape:window-maximized="0"
   inkscape:current-layer="svg755084" />
<g
   id="wall">
	<path
   id="grand-f2-5"
   style="fill:#FF0000;"
   d="M949.9000244,899.4000244c-1.2999878,1-3.2000122,0.5999756-4.2000122-0.7000122   L938.1000366,888H661.7999878C661.2000122,888.2000122,660,888.7999878,657.5,889.4000244   c-2.9000244,0.7000122-6.7000122,1.0999756-10.4000244-0.2999878c-6.5999756-2.5999756-8.9000244-9.0999756-9.2999878-10.4000244   L503.7000122,682.9000244c-0.2999878-0.5-0.5-1.0999756-0.5-1.7000122v-7.0999756L465,648.2000122   c-0.7999878-0.5999756-1.2999878-1.5-1.2999878-2.5l0.2000122-145.2999878l-62-92c-0.2999878-0.5-0.5-1.1000061-0.5-1.7000122   v-31.5l-28.2999878,0.2000122l-0.6000061,62.3999939l36.6000061,58.3999939c0.2999878,0.5,0.5,1,0.5,1.6000061v146.8999939   l15.5,26.7000122h-0.3999939c0.3999939,0.2999878,0.7000122,0.7000122,0.8999939,1.2000122v27.0999756c0,1.7000122-1.2999878,3-3,3   h-15.1000061l-60.2000122,104.0999756c-0.7999878,1.4000244-2.5,1.9000244-3.8999939,1.2000122   c0,0-13.5-6.4000244-27.8999939-20.7999878c-7.2999878-7.2999878-10.5-13.5-11.7999878-18.0999756   c-0.6000061-2.2999878-0.7999878-4.0999756-0.7999878-5.5s0.2999878-2.4000244,0.2999878-2.4000244L303,762v-68.5v-72.2999878h-34   c-1.7000122,0-3-1.2999878-3-3V412.6000061c0-1.6000061,1.2000122-2.8999939,2.7999878-3L279,408.8000183l3-10.6000061   c0.1000061-0.2000122,0.1000061-0.3999939,0.2000122-0.6000061c0,0,4.6000061-8.8999939,10.8999939-13.8999939   c3.2000122-2.5,8.7000122-5.5,13.5-8c4-2.1000061,6.2000122-3.1000061,7.3999939-3.7000122v-16.8999939   c0-1.7000122,1.2999878-3,3-3h52.2999878c1.5,0,2.7999878,1.2000122,3,2.7000122l0.5,5.2000122h28.2999878l0.1000061-6.2000122   c0-1.6000061,1.3999939-3,3-3h442.2000427c1.7000122,0,3,1.2999878,3,3v43.7000122h78.9000244c1.7000122,0,3,1.2999878,3,3   c0,0.5-0.0999756,1-0.4000244,1.5l-8.2999878,14.2999878h44.5999756c1,0,1.9000244,0.5,2.4000244,1.2000122l83.7999878,115.1000061   l120-80.7000122l-42.8000488-69.3999939c-0.9000244-1.3999939-0.4000244-3.2999878,1-4.1000061   c0.5-0.2999878,1-0.3999939,1.5999756-0.3999939l84.5999756-0.5c0.5-2.7000122,1.6999512-7.2999878,5.0999756-13   c4.8000488-7.7999878,13.8000488-15.8999939,28.9000244-15.8999939c15,0,23.8000488,8.2999878,28.1999512,16.2999878   c3.1999512,5.7999878,4.0999756,10.3999939,4.5,13.2000122h196c0.9000244-2.2000122,3.1999512-7.3999939,8-13.6000061   c6-7.7999878,15.4000244-15.8999939,28.1999512-15.8999939c12.9000244,0,20.5,8.5,24.5,16.3999939   c2.9000244,5.7999878,3.8000488,10.3999939,4.1999512,13.1000061h196.8000488c0.5999756-2.6000061,2-7.5,5.8000488-13.5   c5.0999756-8,14.3000488-16.2000122,29-16c14.5999756,0.2000122,22.8000488,8.5,26.6999512,16.6000061   c2.6999512,5.6000061,3.4000244,10,3.6999512,12.8999939l34-0.7999878   c2.4000244-3.3999939,21.3000488-29.7000122,45.1999512-47.8999939c25.1999512-19.1000061,50.9000244-33.8999939,101-41.7999878   s99.4000244,14.1000061,100.7999268,14.7999878l49.6000977,5.7000122c0.6999512,0.1000061,1.3000488,0.3999939,1.8000488,0.8999939   l50.1999512,49.8999939c0.5,0.2999878,9,4.7999878,23.8000488,11.5c7,3.2000122,18.8000488,5.1000061,28.6000977,6.1000061   s17.8000488,1.2000122,17.8000488,1.2000122l239.1999512,0.2999878c0,0,0,0,0.1000977,0c0,0,27.5,0.3999939,39.3000488,21.7000122   C2550.5,420.8000793,2538.5,442.3000793,2538.5,442.3000793l-0.1000977,0.1000061L2290.8000488,838   c0.1999512,0.7999878,0.3999023,1.5999756,0.6999512,3.5999756c0.3999023,2.7000122,0.8999023,5.7999878-0.1000977,8.7999878   c-0.8999023,2.5999756-2.8000488,5.5999756-5.8000488,8.9000244s-7,6.5-11.8999023,8.5999756   c-1.3999023,0.5999756-2.8999023,0.9000244-4.3999023,1c-5.1999512,0.4000244-10.5-1.2000122-14.6000977-2.9000244   c-3.6000977-1.5-5.6999512-2.7000122-6.3000488-3H1808c-1.6999512,0-3-1.2999878-3-3v-2.7999878h-153.8000488l-0.8000488,3.0999756   c-0.4000244,1.2999878-1.5,2.2000122-2.9000244,2.2000122h-214.5c-1,0-2-0.5-2.5-1.4000244L1203.0999756,495   l-121.8000488,80.2000122l140.4000244,206.3999634c0.9000244,1.4000244,0.5999756,3.2000122-0.8000488,4.0999756l-44.6999512,31.5   c-0.5,0.4000244-1.0999756,0.5-1.6999512,0.5h-109.3000488L949.9000244,899.4000244z M948.9000244,892.7000122   l113.6999512-80.4000244c0.5-0.4000244,1.0999756-0.5999756,1.6999512-0.5999756h109.3000488l41.5-29.2000122l-140.5-206.5   c-0.9000244-1.4000244-0.5999756-3.2000122,0.8000488-4.2000122l0,0l126.9000244-83.6000061   c1.4000244-0.8999939,3.1999512-0.5,4.1999512,0.8999939c0,0,0,0,0,0.1000061L1434.5,856.5H1645l0.8000488-3.0999756   c0.4000244-1.2999878,1.5-2.2000122,2.9000244-2.2000122H1808c1.6999512,0,3,1.2999878,3,3V857h438.1999512   c0.5,0,1.1000977,0.0999756,1.5,0.4000244c0,0,2.6000977,1.5999756,6.3000488,3s8.3999023,2.7999878,11.8000488,2.5   c1-0.0999756,1.8999023-0.2999878,2.6000977-0.5999756c3.8000488-1.5999756,7.1999512-4.2999878,9.6999512-7.0999756   s4.1999512-5.7000122,4.5-6.7999878c0.1999512-0.5999756,0.1999512-3.5999756-0.1000977-6   c-0.3999023-2.4000244-0.8000488-4.4000244-0.8000488-4.4000244c-0.1999512-0.7999878-0.1000977-1.5999756,0.3999023-2.2999878   L2533,439.2999878c0,0,10.3000488-18.7999878,0.3000488-36.7999878   c-9.8999023-17.7999878-34.1999512-18.6000061-34.1999512-18.6000061l-239.1999512-0.2999878c0,0,0,0-0.1000977,0   c0,0-8.1999512-0.2000122-18.3000488-1.2000122s-22.1000977-2.7999878-30.5-6.6000061   c-15.3999023-7-24.6000977-11.7999878-24.6000977-11.7999878c-0.3000488-0.1000061-0.5-0.2999878-0.6999512-0.5l-49.8000488-49.5   L2087,308.3999939c-0.3000488,0-0.6000977-0.1000061-0.8999023-0.2000122c0,0-49.4000244-22.2000122-97.9000244-14.5   c-49.1999512,7.7999878-73.5,21.7999878-98.3000488,40.7000122c-24.4000244,18.5-44.8000488,47.7999878-44.8000488,47.7999878   c-0.5,0.7999878-1.4000244,1.2999878-2.4000244,1.2999878L1804.5,384.3999634c-1.6999512,0-3-1.2999878-3.0999756-2.8999939l0,0   c0,0-0.1999512-6.7000122-3.4000244-13.3999939c-3.1999512-6.7000122-8.9000244-13-21.3000488-13.2000122   c-12.4000244-0.1000061-19.5,6.3999939-23.8000488,13.2000122s-5.6999512,13.7999878-5.6999512,13.7999878   c-0.3000488,1.3999939-1.5,2.5-3,2.5h-201.5999756c-1.5,0-2.8000488-1.2000122-3-2.7000122   c0,0-0.6999512-6.8999939-4.0999756-13.7000122c-3.4000244-6.7999878-8.8000488-13.1000061-19.0999756-13.1000061   s-18.0999756,6.6000061-23.5,13.6000061s-8,14-8,14c-0.4000244,1.2000122-1.5999756,1.8999939-2.8000488,1.8999939h-200.4000244   c-1.5999756,0-2.9000244-1.2000122-3-2.7999878c0,0-0.5-6.7999878-4.1999512-13.5s-10-13.2000122-22.9000244-13.2000122   c-13,0-19.6999512,6.3999939-23.6999512,13S1223,381.1999207,1223,381.1999207c-0.1999512,1.5-1.5,2.6000061-3,2.6000061   l-81.5999756,0.5l41.5,67.2999878c0.8000488,1.3999939,0.5,3.2000122-0.9000244,4.1000061l-124.8000488,84.0000305   c-1.3000488,0.9000244-3.1999512,0.5999756-4.0999756-0.7000122L965.5,422.7999268h-48.2999878c-1.7000122,0-3-1.2999878-3-3   c0-0.5,0.0999756-1,0.4000244-1.5l8.2999878-14.2999878h-76.7999878c-1.7000122,0-3-1.2999878-3-3v-43.7000122H407.2999878   l-0.1000061,6.2000122c0,1.6000061-1.3999939,3-3,3h-34c-1.5,0-2.7999878-1.2000122-3-2.7000122l-0.5-5.2000122h-46.6000061   v15.7999878c0,1.2000122-0.7000122,2.2000122-1.7000122,2.7000122c0,0-4.1000061,2-8.8999939,4.5   s-10.2999878,5.6000061-12.6000061,7.3999939c-4.5,3.5-9,11.3999939-9.2000122,11.7999878l-3.5,12.2000122   c-0.2999878,1.2000122-1.3999939,2.1000061-2.7000122,2.2000122l-9.5,0.7000122v199.8000183h34c1.7000122,0,3,1.2999878,3,3   v75.2999878V762c0,0.2999878,0,0.5999756-0.1000061,0.7999878c0,0,0,0.0999756-0.1000061,0.7999878   c0,0.7999878,0.1000061,2,0.5,3.7000122c1,3.4000244,3.5,8.7000122,10.2000122,15.4000244   c11.7000122,11.7000122,20.8999939,16.7000122,23.8999939,18.2000122l59.6000061-103c0.5-0.9000244,1.5-1.5,2.6000061-1.5   h13.8999939v-22.7000122l-15.7000122-27c-0.2999878-0.5-0.3999939-1-0.3999939-1.5V498.6000061l-36.6000061-58.3999939   c-0.2999878-0.5-0.5-1-0.5-1.6000061l0.7000122-66.1999817c0-1.6000061,1.2999878-3,3-3l34.2000122-0.2000122   c1.7000122,0,3,1.2999878,3,3l0,0v33.6000061l62,92c0.2999878,0.5,0.5,1.1000061,0.5,1.7000122l-0.2000122,144.6999817   l38.1000061,25.9000244c0.7999878,0.5999756,1.2999878,1.5,1.2999878,2.5v7.7999878L643,875.7000122   c0.2000122,0.2000122,0.2999878,0.5,0.4000244,0.7999878c0,0,2.0999756,5.5999756,5.9000244,7   c1.7999878,0.7000122,4.5999756,0.5999756,6.9000244,0s4-1.2999878,4-1.2999878   c0.4000244-0.2000122,0.7999878-0.2999878,1.2000122-0.2999878h278.2999878c1,0,1.9000244,0.5,2.4000244,1.2999878   L948.9000244,892.7000122z" />
</g>
<g
   id="shops">
	<path
   id="path232450"
   style="fill:none;stroke:#FF0000;stroke-width:2;stroke-linejoin:round;"
   d="M528.5999756,594.4000244   v26.2999878l7.5,10.9000244l-39,25.7000122l-24.2999878-15.4000244v-49.2999878L528.5999756,594.4000244z" />
	<path
   id="path232452"
   style="fill:none;stroke:#FF0000;stroke-width:2;stroke-linejoin:round;"
   d="M550.4000244,650.7000122   l-37.7999878,24.0999756L501,658.4000244l36.4000244-24.5L550.4000244,650.7000122z" />
	<path
   id="path232454"
   style="fill:none;stroke:#FF0000;stroke-width:2;stroke-linejoin:round;"
   d="M568.7999878,677.5   L552.3999634,653l-37.7999878,24.0999756l16.7999878,24.5999756L568.7999878,677.5z" />
	<path
   id="path232456"
   style="fill:none;stroke:#FF0000;stroke-width:2;stroke-linejoin:round;"
   d="M587.7000122,705.2000122   l-16.9000244-24.5999756l-37.5,24.5l17.0999756,23.5999756L587.7000122,705.2000122z" />
	<path
   id="path232458"
   style="fill:none;stroke:#FF0000;stroke-width:2;stroke-linejoin:round;"
   d="M606.4000244,731.9000244   l-37.2999878,25.2999878l-16.2000122-25.5L589.5,707.4000244L606.4000244,731.9000244z" />
	<path
   id="path232460"
   style="fill:none;stroke:#FF0000;stroke-width:2;stroke-linejoin:round;"
   d="M628.7999878,765.4000244   L590.7000122,790.5L571,760.7000122l37.2999878-25L628.7999878,765.4000244z" />
	<path
   id="path232462"
   style="fill:none;stroke:#FF0000;stroke-width:2;stroke-linejoin:round;"
   d="M592.9000244,793.2000122   L642.5,863l32.7999878-59.2000122L664,802.8999634c0,0-3.5999756-0.2000122-8.5999756-3.7999878   s-9.2000122-9.2000122-9.2000122-9.2000122l-15.5999756-22.0999756L592.9000244,793.2000122z" />
	<path
   id="path232464"
   style="fill:none;stroke:#FF0000;stroke-width:2;stroke-linejoin:round;"
   d="M718.5999756,879.5h51.5v-40   H754.5c0,0-6,0.2000122-11.2999878-4.2999878c-5.2999878-4.4000244-11.5999756-17.5999756-11.5999756-17.5999756v21.7000122H716   L718.5999756,879.5z" />
	<path
   id="path232466"
   style="fill:none;stroke:#FF0000;stroke-width:2;stroke-linejoin:round;"
   d="M828.4000244,837.7999878   l1.2000122,41.0999756l-56.0999756,0.7000122l-1-39.9000244L828.4000244,837.7999878z" />
	<path
   id="path232468"
   style="fill:none;stroke:#FF0000;stroke-width:2;stroke-linejoin:round;"
   d="M876.2999878,835.4000244   l1,42.9000244l-43.7999878,1l-1-41.9000244L876.2999878,835.4000244z" />
	<path
   id="path232470"
   style="fill:none;stroke:#FF0000;stroke-width:2;stroke-linejoin:round;"
   d="M925.4000244,833.7000122   l1.5,44.7999878l-45.7000122,0.5l-1.5-43.5999756L925.4000244,833.7000122z" />
	<path
   id="path232472"
   style="fill:none;stroke:#FF0000;stroke-width:2;stroke-linejoin:round;"
   d="M930.4000244,878.7000122   L942,878.4000244l7.2000122,10.2999878l35.2000122-24.5l-26-40.7000122l-14.2000122,9.7999878h-16.0999756L930.4000244,878.7000122   z" />
	<path
   id="path232474"
   style="fill:none;stroke:#FF0000;stroke-width:2;stroke-linejoin:round;"
   d="M1036.8000488,826.4000244   l-29-39.9000244l-47.4000244,34.4000244L985.8000488,861.5L1036.8000488,826.4000244z" />
	<path
   id="path232476"
   style="fill:none;stroke:#FF0000;stroke-width:2;stroke-linejoin:round;"
   d="M1068.3000488,807.2999878   L1040,824.7000122l-28.5-39.4000244l21-16.2000122h9L1068.3000488,807.2999878z" />
	<path
   id="path232478"
   style="fill:none;stroke:#FF0000;stroke-width:2;stroke-linejoin:round;"
   d="M1045.8000488,768.7999878   L1073.6000977,808.5H1174l-37.6999512-51c0,0,1.5,4.7999878-1.5,6.5C1131.9000244,765.7000122,1128,765.9000244,1128,765.9000244   L1045.8000488,768.7999878z" />
	<path
   id="path249386"
   style="fill:none;stroke:#FF0000;stroke-width:2;stroke-linejoin:round;"
   d="M1136.8000488,753.7999878   L1174.4000244,727.5l-19.5-29.7999878l-39,28.4000244L1136.8000488,753.7999878z" />
	<path
   id="path249388"
   style="fill:none;stroke:#FF0000;stroke-width:2;stroke-linejoin:round;"
   d="M1089.5999756,689.2000122   L1113.1999512,722L1151.5,693.9000244L1128.9000244,660L1089.5999756,689.2000122z" />
	<path
   id="path249390"
   style="fill:none;stroke:#FF0000;stroke-width:2;stroke-linejoin:round;"
   d="M1085.8000488,683.7000122   l40-28.4000244l-54.0999756-78l-41.4000244,29.0999756L1085.8000488,683.7000122z" />
	<path
   id="path249392"
   style="fill:none;stroke:#FF0000;stroke-width:2;stroke-linejoin:round;"
   d="M1057.4000244,759.5999756   l-83.0999756-116l-38,27.4000244c0,0-4.7999878,2.0999756-5.0999756,7.9000244S935.3000488,687.5,935.3000488,687.5   l59.2000122,84.2000122c0,0-0.2999878,4.0999756,5.7999878,5.0999756s8.9000244-3.4000244,8.9000244-3.4000244l19.5-14   L1057.4000244,759.5999756z" />
	<path
   id="path249394"
   style="fill:none;stroke:#FF0000;stroke-width:2;stroke-linejoin:round;"
   d="M1062.5999756,760   l38.3000488-0.2999878c0,0,5.5-1,7.9000244-5.5c2.4000244-4.4000244-2.0999756-7.5-2.0999756-7.5l-21.1999512-30.0999756   l-37.5999756,25.2999878L1062.5999756,760z" />
	<path
   id="path249396"
   style="fill:none;stroke:#FF0000;stroke-width:2;stroke-linejoin:round;"
   d="M1082.0999756,713.4000244   l-14.4000244-20.5l-36.5999756,25.7000122l14.6999512,19.7999878L1082.0999756,713.4000244z" />
	<path
   id="path249398"
   style="fill:none;stroke:#FF0000;stroke-width:2;stroke-linejoin:round;"
   d="M1065,689.2000122L1045.5,661.5   l-35.9000244,26.2999878l18.5,26.7000122L1065,689.2000122z" />
	<path
   id="path249400"
   style="fill:none;stroke:#FF0000;stroke-width:2;stroke-linejoin:round;"
   d="M977.0999756,641.9000244   l30.0999756,42.4000244L1043.5,658.000061l-23.9000244-33.9000244c0,0,0.7000122-3.0999756-4.7999878-5.0999756   s-8.2000122,2.0999756-8.2000122,2.0999756L977.0999756,641.9000244z" />
	<path
   id="path249402"
   style="fill:none;stroke:#FF0000;stroke-width:2;stroke-linejoin:round;"
   d="M1030.8000488,590.5999756   l24.5999756-17.4000244l-6.5-9.2000122l-25,15.7000122L1030.8000488,590.5999756z" />
	<path
   id="path249404"
   style="fill:none;stroke:#FF0000;stroke-width:2;stroke-linejoin:round;"
   d="M1048.9000244,540.2999878   L1022.6000366,504l-43.0999756,32.2000122l25.2999878,35.5999756L1048.9000244,540.2999878z" />
	<path
   id="path249406"
   style="fill:none;stroke:#FF0000;stroke-width:2;stroke-linejoin:round;"
   d="M1004.4000244,599.5   l-42.7999878-59.9000244l-40.4000244,28.0999756L964,627.8999634L1004.4000244,599.5z" />
	<path
   id="path249408"
   style="fill:none;stroke:#FF0000;stroke-width:2;stroke-linejoin:round;"
   d="M960.2999878,631.2999878   l-32.5,23.9000244c0,0,1.7000122,2.4000244-7.5,2.4000244s-8.9000244-6.7999878-8.9000244-6.7999878l-20.5-28.7000122   l42.0999756-29.4000244L960.2999878,631.2999878z" />
	<path
   id="path249410"
   style="fill:none;stroke:#FF0000;stroke-width:2;stroke-linejoin:round;"
   d="M917.2000122,563.9000244   L958.6000366,534.5l-40-55.7999878c0,0-0.7000122-3.3999939-6.2000122-2.7000122s-8.5999756,6.7999878-8.5999756,6.7999878   l-19.5,36.2999878L917.2000122,563.9000244z" />
	<path
   id="path249412"
   style="fill:none;stroke:#FF0000;stroke-width:2;stroke-linejoin:round;"
   d="M888.0999756,618.2999878   l42.7999878-30.4000244l-48.5999756-65l-22.2000122,47.5999756c0,0-2.0999756,4.4000244-1,7.5S863.5,585.1999512,863.5,585.1999512   L888.0999756,618.2999878z" />
	<path
   id="path249414"
   style="fill:none;stroke:#FF0000;stroke-width:2;stroke-linejoin:round;"
   d="M901.7999878,829.0999756   l30.0999756-0.7000122l49.9000244-35.5999756c0,0,3.0999756-2.7000122,3.7999878-5.7999878s-2.7000122-6.5-2.7000122-6.5   l-15.0999756-20.2000122l-47.5999756,33.5l9.9000244,15.0999756L901.7999878,829.0999756z" />
	<path
   id="path249416"
   style="fill:none;stroke:#FF0000;stroke-width:2;stroke-linejoin:round;"
   d="M945.9000244,729.2000122   l19.2000122,27.4000244l-32.7999878,23.5999756L913.1000366,752.5L945.9000244,729.2000122z" />
	<path
   id="path249418"
   style="fill:none;stroke:#FF0000;stroke-width:2;stroke-linejoin:round;"
   d="M943.2000122,725.4000244   L922,695c0,0-1.4000244-3.4000244-6.2000122-5.0999756s-8.5999756,1.7000122-8.5999756,1.7000122L881.9000244,709L910,748.7000122   L943.2000122,725.4000244z" />
	<path
   id="path249420"
   style="fill:none;stroke:#FF0000;stroke-width:2;stroke-linejoin:round;"
   d="M886.4000244,812.2999878   L928.8000488,782.5L879.500061,712l-34.9000244,24.2999878c0,0-4.4000244,1.7000122-5.0999756,6.7999878   S844.3000488,753,844.3000488,753L886.4000244,812.2999878z" />
	<path
   id="path249422"
   style="fill:none;stroke:#FF0000;stroke-width:2;stroke-linejoin:round;"
   d="M766.7000122,829.4000244   l70.0999756-1.7000122l0.2999878-15.0999756l-33.5-46.9000244l-45.2000122,31.5c0,0-8.5999756,7.2000122-5.7999878,19.5   S766.7000122,829.4000244,766.7000122,829.4000244L766.7000122,829.4000244z" />
	<path
   id="path249424"
   style="fill:none;stroke:#FF0000;stroke-width:2;stroke-linejoin:round;"
   d="M842.2999878,827   l22.9000244-0.2999878c0,0,7.5-1,8.9000244-6.2000122s-3.4000244-9.2000122-3.4000244-9.2000122l-39-54.7000122   c0,0-0.7000122-2.4000244-4.7999878-3.7999878s-7.5,1-7.5,1l-12,8.9000244l33.9000244,48.9000244L842.2999878,827z" />
	<path
   id="path264900"
   style="fill:none;stroke:#FF0000;stroke-width:2;stroke-linejoin:round;"
   d="M786.2000122,756.5   l33.5-23.5999756c0,0,3.0999756-2.0999756,2.7000122-5.7999878c-0.2999878-3.7999878-3.7999878-5.5-3.7999878-5.5   l-18.0999756-8.5999756c0,0-1.4000244-2.4000244-4.4000244-1.4000244s-4.7999878,4.4000244-4.7999878,4.4000244   l-17.0999756,34.5999756c0,0-1.4000244,4.7999878,2.4000244,7.2000122   C780.2999878,760.2999878,786.2000122,756.5,786.2000122,756.5L786.2000122,756.5z" />
	<path
   id="path264902"
   style="fill:none;stroke:#FF0000;stroke-width:2;stroke-linejoin:round;"
   d="M865.9000244,698.7000122   l-39.2999878-55.0999756l-22.9000244,47.5999756c0,0-2.7000122,2.7000122-1.7000122,6.5s5.0999756,6.2000122,5.0999756,6.2000122   l27,12.2999878c0,0,2.4000244,1.7000122,5.0999756,1C841.9000244,716.5,865.9000244,698.7000122,865.9000244,698.7000122z" />
	<path
   id="path264904"
   style="fill:none;stroke:#FF0000;stroke-width:2;stroke-linejoin:round;"
   d="M870.7000122,695.7000122   l28.4000244-20.5c0,0,3.0999756-2.7000122,3.4000244-5.5S900.4000854,662.5,900.4000854,662.5L858.2999878,604   c0,0-2.0999756-3.7999878-6.5-4.0999756s-7.2000122,3.7999878-7.2000122,3.7999878L828.5,639.2999878L870.7000122,695.7000122z" />
	<path
   id="path264906"
   style="fill:none;stroke:#FF0000;stroke-width:2;stroke-linejoin:round;"
   d="M883.7000122,471.6000061   L887.5,464.8000183l-40-21.8999939l-4.4000244,9.2000122L883.7000122,471.6000061z" />
	<path
   id="path264908"
   style="fill:none;stroke:#FF0000;stroke-width:2;stroke-linejoin:round;"
   d="M849.7999878,556.0999756   l38.2999878-74.8999939l-8.9000244-2.7000122l-38.2999878,73.8999939L849.7999878,556.0999756z" />
	<path
   id="path264910"
   style="fill:none;stroke:#FF0000;stroke-width:2;stroke-linejoin:round;"
   d="M802.5999756,532.5   l39.2999878-76.6000061l-8.2000122-3.7999878l-38.2999878,76.9999695L802.5999756,532.5z" />
	<path
   id="path264912"
   style="fill:none;stroke:#FF0000;stroke-width:2;stroke-linejoin:round;"
   d="M720.0999756,426.7999878   l86.2000122,44.1000061c0,0,4.7999878,1.7000122,6.7999878,1.3999939C815.1999512,472,817.5,468.5,817.5,468.5l18.5-35.8999939   c0,0,1.4000244-3.1000061-1.7000122-6.7999878C831.2000122,422.0000305,824,421.7000122,824,421.7000122L722.2000122,422   h-3.0999756l-1,2.3999939L720.0999756,426.7999878z" />
	<path
   id="path264914"
   style="fill:none;stroke:#FF0000;stroke-width:2;stroke-linejoin:round;"
   d="M976,532.0999756   l43.7999878-32.2000122l-52-71.7999878L962,431.4999695l-55.7999878-0.7000122l-7.5,14.7000122l24.5999756,13L976,532.0999756z" />
	<path
   id="path264916"
   style="fill:none;stroke:#FF0000;stroke-width:2;stroke-linejoin:round;"
   d="M860.4000244,426.3999939   l7.5-16.3999939h-29.7999878L860.4000244,426.3999939z" />
	<path
   id="path264918"
   style="fill:none;stroke:#FF0000;stroke-width:2;stroke-linejoin:round;"
   d="M782.4000244,409.7000122   l52-0.7000122l0.2999878-51L783,358.2999878L782.4000244,409.7000122z" />
	<path
   id="path264920"
   style="fill:none;stroke:#FF0000;stroke-width:2;stroke-linejoin:round;"
   d="M752.2999878,409.2999878   l26,0.2999878v-51.2999878L752,358L752.2999878,409.2999878z" />
	<path
   id="path264922"
   style="fill:none;stroke:#FF0000;stroke-width:2;stroke-linejoin:round;"
   d="M720.5,408.6000061   l28.0999756,0.2999878l0.7000122-28.7000122L719.5,380.4999695L720.5,408.6000061z" />
	
		<rect
   id="rect264976"
   x="684.2000122"
   y="359"
   style="fill:none;stroke:#FF0000;stroke-width:2;stroke-linejoin:round;"
   width="29.4000244"
   height="50.6000061" />
	
		<rect
   id="rect264978"
   x="646.9000244"
   y="359.7000122"
   style="fill:none;stroke:#FF0000;stroke-width:2;stroke-linejoin:round;"
   width="33.5"
   height="50.2999878" />
	
		<rect
   id="rect264980"
   x="616.5"
   y="359.7000122"
   style="fill:none;stroke:#FF0000;stroke-width:2;stroke-linejoin:round;"
   width="26.7000122"
   height="49.2999878" />
	
		<rect
   id="rect264982"
   x="577.5"
   y="359.7000122"
   style="fill:none;stroke:#FF0000;stroke-width:2;stroke-linejoin:round;"
   width="35.2000122"
   height="49.2999878" />
	
		<rect
   id="rect264984"
   x="547.7000122"
   y="359.3999939"
   style="fill:none;stroke:#FF0000;stroke-width:2;stroke-linejoin:round;"
   width="26"
   height="50.2999878" />
	
		<rect
   id="rect264986"
   x="517.9000244"
   y="359.7000122"
   style="fill:none;stroke:#FF0000;stroke-width:2;stroke-linejoin:round;"
   width="25.7000122"
   height="49.2999878" />
	<path
   id="path264988"
   style="fill:none;stroke:#FF0000;stroke-width:2;stroke-linejoin:round;"
   d="M468.7000122,375.7999878   l44.5,22.6000061L513.5,363.1999817l-44.5,0.7000122L468.7000122,375.7999878z" />
	<path
   id="path264990"
   style="fill:none;stroke:#FF0000;stroke-width:2;stroke-linejoin:round;"
   d="M490.8999939,420.2999878   c0,0-6.2000122,9.6000061-6.7999878,18.1000061s3.1000061,17.3999939,3.1000061,17.3999939l8.2000122,12l-44.5,0.2999878   l-36.8999939-56.7999878L471.8000183,411L490.8999939,420.2999878z" />
	<path
   id="path264992"
   style="fill:none;stroke:#FF0000;stroke-width:2;stroke-linejoin:round;"
   d="M525.5,511.2999878   l-25.7000122-38l-45.2000122-0.7000122l18.7999878,27v11.6000061H525.5V511.2999878z" />
	<path
   id="path264994"
   style="fill:none;stroke:#FF0000;stroke-width:2;stroke-linejoin:round;"
   d="M473.1000061,543.7999878   l56.1000061,0.2999878v-27.4000244l-56.1000061-0.2999878V543.7999878z" />
	<path
   id="path264996"
   style="fill:none;stroke:#FF0000;stroke-width:2;stroke-linejoin:round;"
   d="M671.2000122,481.7999878   l25.7000122-49.8999939c0,0,1.7000122-3.7999878,0.2999878-6.5s-5.5-3.3999939-5.5-3.3999939H551.0999756l-3.7999878,1.3999939   l1,3.3999939L660.5,483.5999756c0,0,0.7000122,1.3999939,5.0999756,1.7000122   C670.2000122,485.6000061,671.2000122,481.7999878,671.2000122,481.7999878z" />
	<path
   id="path264998"
   style="fill:none;stroke:#FF0000;stroke-width:2;stroke-linejoin:round;"
   d="M604.2999878,531.4000244   l15.4000244-30.7999878l-14.2999878-7.3999939l-15.7999878,30.6999817L604.2999878,531.4000244z" />
	<path
   id="path265000"
   style="fill:none;stroke:#FF0000;stroke-width:2;stroke-linejoin:round;"
   d="M629.2000122,481.7000122   L620.6000366,498l-14.2000122-7l8.5-16.6000061L629.2000122,481.7000122z" />
	<path
   id="path265002"
   style="fill:none;stroke:#FF0000;stroke-width:2;stroke-linejoin:round;"
   d="M606.5,533   l24.4000244,11.9000244c0,0,2.2000122,1.5999756,5,1.0999756s4.7000122-3.0999756,4.7000122-3.0999756l19.4000244-38.6000061   c0,0,1.2999878-2.2999878,0.5-4.7000122c-0.7999878-2.3999939-2.9000244-3.5-2.9000244-3.5L631.500061,483L606.5,533z" />
	<path
   id="path265004"
   style="fill:none;stroke:#FF0000;stroke-width:2;stroke-linejoin:round;"
   d="M586.5999756,522.7000122   L612.5,473l-30.2000122-15.2000122c0,0-1-1.7999878-4.5-1.1000061s-4.0999756,2.5-4.0999756,2.5l-20.4000244,39.3999939   c0,0-0.4000244,4.2000122,0.0999756,5.7000122C553.7999878,505.7999878,586.5999756,522.7000122,586.5999756,522.7000122   L586.5999756,522.7000122z" />
	<path
   id="path265006"
   style="fill:none;stroke:#FF0000;stroke-width:2;stroke-linejoin:round;"
   d="M546.7000122,494.7999878   L565.2999878,458c0,0,2.2000122-3.3999939,1.7000122-6c-0.5-2.7000122-3.0999756-3.6000061-3.0999756-3.6000061   l-50.2999878-25.6000061c0,0-10.2000122,1.8999939-13.7999878,9.2000122s-0.7000122,18.6000061-0.7000122,18.6000061   l26.0999756,38.2000122l1.9000244,2.8999939l3.4000244,2.7000122l8.7000122,3.6000061c0,0,1.2000122,0.7000122,4.0999756-0.2000122   S546.7000122,494.7999878,546.7000122,494.7999878z" />
	<path
   id="path265008"
   style="fill:none;stroke:#FF0000;stroke-width:2;stroke-linejoin:round;"
   d="M583,655.0999756l19.0999756-37   c0,0,1-2.7000122,1-4.7999878s-2.4000244-3.9000244-2.4000244-3.9000244l-52-26.4000244l-1.7000122-0.5l-1.7000122,1l-0.5,1.5   l-0.2000122,27.7999878v3.4000244l2.2000122,2.7000122l25.4000244,36.5c0,0,1.9000244,3.0999756,5.5999756,3.0999756   C581.2999878,658.5,583,655.0999756,583,655.0999756L583,655.0999756z" />
	<path
   id="path265010"
   style="fill:none;stroke:#FF0000;stroke-width:2;stroke-linejoin:round;"
   d="M620.2000122,724.2999878   l16.7000122-33.4000244l-46.2000122-23.2000122L588,673.499939c0,0-0.2000122,2.2000122,0.5,4.5999756   S620.2000122,724.2999878,620.2000122,724.2999878L620.2000122,724.2999878z" />
	<path
   id="path265012"
   style="fill:none;stroke:#FF0000;stroke-width:2;stroke-linejoin:round;"
   d="M662.5999756,641.0999756   L622,620.5c0,0-2.4000244-1.2000122-4.7999878-0.5c-2.4000244,0.7000122-3.9000244,3.0999756-3.9000244,3.0999756L592,664.6999512   l46.4000244,23.5L662.5999756,641.0999756z" />
	<path
   id="path265014"
   style="fill:none;stroke:#FF0000;stroke-width:2;stroke-linejoin:round;"
   d="M622.4000244,727.5   l29.5,42.7999878c0,0,2.2000122,4.0999756,6,4.0999756s5.2999878-3.5999756,5.2999878-3.5999756L691.5,715.5999756   L640.7000122,689.5L622.4000244,727.5z" />
	<path
   id="path265016"
   style="fill:none;stroke:#FF0000;stroke-width:2;stroke-linejoin:round;"
   d="M693.2999878,711.5   l17.9000244-34.7999878c0,0,3.4000244-4.5999756,2.4000244-7.2999878s-3.4000244-4.0999756-3.4000244-4.0999756   l-44.7999878-22.7000122l-22.2999878,43.5L693.2999878,711.5z" />
	<path
   id="path280525"
   style="fill:none;stroke:#FF0000;stroke-width:2;stroke-linejoin:round;"
   d="M725,783.0999756   l16.7000122-32.7000122l-39.9000244-20.2999878L677.0999756,778c0,0-1.5,4.0999756,0,7s4.5999756,2.9000244,4.5999756,2.9000244   l36.5-0.2000122c0,0,3.0999756-0.2000122,4.4000244-1S725,783.0999756,725,783.0999756L725,783.0999756z" />
	<path
   id="path280527"
   style="fill:none;stroke:#FF0000;stroke-width:2;stroke-linejoin:round;"
   d="M743.5999756,746.7999878   l22.5-44.2999878c0,0,1.7000122-3.4000244,1.2000122-5.7999878s-3.9000244-3.9000244-3.9000244-3.9000244l-27.5999756-14   c0,0-3.5999756-2.2000122-5.5999756-1.5s-4.0999756,4.4000244-4.0999756,4.4000244l-23,45.2000122L743.5999756,746.7999878z" />
	<path
   id="path280529"
   style="fill:none;stroke:#FF0000;stroke-width:2;stroke-linejoin:round;"
   d="M549.7999878,569.7999878   L603.5,597.0999756c0,0,1.5,1.9000244,5.2999878,1.2000122s6.2999878-5.5999756,6.2999878-5.5999756l15-29.7999878   c0,0,1.2000122-3.5999756,1-5.7999878s-3.4000244-3.4000244-3.4000244-3.4000244l-76.9000244-38.9000244   c0,0-1.9000244-1.7000122-4.0999756-1.2000122s-2.2000122,4.0999756-2.2000122,4.0999756l-0.2000122,44.5   c0,0,0.2000122,3.5999756,1.2000122,5.0999756C546.5,568.7999878,549.9000244,569.7999878,549.7999878,569.7999878   L549.7999878,569.7999878z" />
	<path
   id="path296041"
   style="fill:none;stroke:#FF0000;stroke-width:2;stroke-linejoin:round;"
   d="M724.2999878,651.2999878l16-31   c0,0,1.7000122-4.4000244,1.5-6c-0.2000122-1.7000122-2.4000244-3.5999756-2.4000244-3.5999756L649.6999512,565   c0,0-2.2000122-0.7000122-3.9000244-0.5s-3.9000244,3.0999756-3.9000244,3.0999756l-17.4000244,33.5999756   c0,0-0.7000122,3.0999756,0,5.2999878s4.4000244,3.9000244,4.4000244,3.9000244l86.7999878,43.7999878   c0,0,2.7000122,1,4.7999878,0.5C722.5999756,654.2000122,724.2999878,651.2999878,724.2999878,651.2999878L724.2999878,651.2999878   z" />
	<path
   id="path296043"
   style="fill:none;stroke:#FF0000;stroke-width:2;stroke-linejoin:round;"
   d="M778.5,678.9000244l15-30   l-40.2000122-20.2999878l-15,29.5c0,0-0.7000122,2.2000122-0.5,4.5999756S740.5,667.2999878,740.5,667.2999878l29,14.2999878   c0,0,3.0999756,1.5,4.7999878,0.7000122S778.5,678.9000244,778.5,678.9000244L778.5,678.9000244z" />
	<path
   id="path296045"
   style="fill:none;stroke:#FF0000;stroke-width:2;stroke-linejoin:round;"
   d="M804.2999878,627.2999878   l19.7999878-38.7000122c0,0,1.2000122-1.9000244,0.5-4.5999756S821,579.9000244,821,579.9000244l-25.4000244-13.5   c0,0-4.4000244-2.7000122-7-1.9000244s-4.7999878,3.5999756-4.7999878,3.5999756l-11.0999756,23.5l18.0999756,9l-8.5,16.2000122   L804.2999878,627.2999878z" />
	<path
   id="path296047"
   style="fill:none;stroke:#FF0000;stroke-width:2;stroke-linejoin:round;"
   d="M754.7000122,625.4000244   l15.2000122,7.7000122l16.4000244-31l-16-7.2999878L754.7000122,625.4000244z" />
	<path
   id="path296049"
   style="fill:none;stroke:#FF0000;stroke-width:2;stroke-linejoin:round;"
   d="M794.4000244,646.9000244   l8.5-16.4000244l-22.5-11.5999756l-8.5,16.2000122L794.4000244,646.9000244z" />
	<path
   id="path296051"
   style="fill:none;stroke:#FF0000;stroke-width:2;stroke-linejoin:round;"
   d="M750.9000244,598.7999878   L770,562c0,0,1.7000122-2.7000122,0.7000122-5.7999878s-3.9000244-4.4000244-3.9000244-4.4000244l-35.0999756-18.0999756   c0,0-1.9000244-1.7000122-5.0999756-1.2000122s-4.7999878,3.9000244-4.7999878,3.9000244l-19.4000244,37.7000122   c0,0-1,3.0999756-0.2000122,5.5999756c0.7000122,2.4000244,3.0999756,3.5999756,3.0999756,3.5999756l36.2999878,18.4000244   c0,0,1.9000244,1.5,4.4000244,0.7000122S750.9000244,598.7999878,750.9000244,598.7999878L750.9000244,598.7999878z" />
	<path
   id="path296053"
   style="fill:none;stroke:#FF0000;stroke-width:2;stroke-linejoin:round;"
   d="M695.5,571l19.5999756-38   c0,0,1.2000122-2.7000122,0.7000122-4.5999756s-3.0999756-4.0999756-3.0999756-4.0999756L680.5,508.1000366   c0,0-2.7000122-1.8999939-4.7999878-1.5c-2.2000122,0.5-4.7999878,3.8999939-4.7999878,3.8999939L651.5,548.5   c0,0-1.7000122,2.7000122-0.7000122,5.2999878c1,2.7000122,3.9000244,3.4000244,3.9000244,3.4000244l31.4000244,16.7000122   c0,0,2.4000244,0.5,5.5999756,0.2000122C694.7999878,573.9000244,695.5,571,695.5,571L695.5,571z" />
	<path
   id="path296053-9"
   style="fill:none;stroke:#FF0000;stroke-width:2;stroke-linejoin:round;"
   d="M727.0999756,510.1000061   L752,461c0,0,1.2000122-2.7000122,0.7000122-4.6000061s-3.0999756-4.1000061-3.0999756-4.1000061l-32.2000122-16.2000122   c0,0-2.7000122-1.8999939-4.7999878-1.5c-2.2000122,0.5-4.7999878,3.8999939-4.7999878,3.8999939l-24.7000122,49.1000061   c0,0-1.7000122,2.7000122-0.7000122,5.2999878c1,2.7000122,3.9000244,3.3999939,3.9000244,3.3999939l31.4000244,16.6999817   c0,0,2.4000244,0.5,5.5999756,0.2000122C726.4000244,513,727.0999756,510.1000061,727.0999756,510.1000061L727.0999756,510.1000061   z" />
	<path
   id="path296053-9-1"
   style="fill:none;stroke:#FF0000;stroke-width:2;stroke-linejoin:round;"
   d="M782.2000122,537.5999756   l24.9000244-49.1000061c0,0,1.2000122-2.7000122,0.7000122-4.6000061s-3.0999756-4.1000061-3.0999756-4.1000061l-36.5-17.8999939   c0,0-2.7000122-1.8999939-4.7999878-1.5c-2.2000122,0.5-4.7999878,3.8999939-4.7999878,3.8999939l-24.7000122,49.1000061   c0,0-1.7000122,2.7000122-0.7000122,5.2999878c1,2.7000122,3.9000244,3.4000244,3.9000244,3.4000244L772.9000854,540.5   c0,0,2.4000244,0.5,5.5999756,0.2000122C781.4000244,540.5,782.2000122,537.5999756,782.2000122,537.5999756   L782.2000122,537.5999756z" />
	<path
   id="path296099"
   style="fill:none;stroke:#FF0000;stroke-width:2;stroke-linejoin:round;"
   d="M693.0999756,845.5   l18.5999756-0.5v-31.9000244l-4.5999756-9.7000122H686.5L671,834.2000122L693.0999756,845.5z" />
	<path
   id="path296101"
   style="fill:none;stroke:#FF0000;stroke-width:2;stroke-linejoin:round;"
   d="M663.5,830l4.5999756,2.4000244   l15.2000122-28.7999878L677,803.4000244L663.5,830z" />
	<path
   id="path296103"
   style="fill:none;stroke:#FF0000;stroke-width:2;stroke-linejoin:round;"
   d="M348.6000061,550.9000244   h35.2000122V490l-35.8999939-0.2999878L348.6000061,550.9000244z" />
	<path
   id="path296105"
   style="fill:none;stroke:#FF0000;stroke-width:2;stroke-linejoin:round;"
   d="M330.1000061,550.9000244   h14.6000061l0.1000061-60.7000122l-48.8999939,0.1000061v36.3000183h34.2000122L330.1000061,550.9000244z" />
	<path
   id="path296107"
   style="fill:none;stroke:#FF0000;stroke-width:2;stroke-linejoin:round;"
   d="M341.7999878,482.8999939h47.5   L389,535.5999756l12.2999878-0.2999878l1-35.6000061L380.3999939,464h-38.7000122L341.7999878,482.8999939z" />
	<path
   id="path296109"
   style="fill:none;stroke:#FF0000;stroke-width:2;stroke-linejoin:round;"
   d="M384.2000122,594.4000244H402   l0.2999878-56.0999756h-12v19.5l-40.7000122,0.7000122v15.4000244l34.6000061-0.2999878L384.2000122,594.4000244z" />
	<path
   id="path296111"
   style="fill:none;stroke:#FF0000;stroke-width:2;stroke-linejoin:round;"
   d="M361.6000061,623.7999878   L402,624.0999756v-26h-40L361.6000061,623.7999878z" />
	<path
   id="path311639"
   style="fill:none;stroke:#FF0000;stroke-width:2;stroke-linejoin:round;"
   d="M286.7000122,409h24.6000061   l0.2999878-8.8999939l19.2000122-19.2000122l32.3999939-0.7000122l0.1000061-19.7999878h-41.1000061L321.9000244,377   c0,0-12.7999878,4.2999878-22.2000122,11.3999939C289.2000122,396.2999878,286.7000122,409,286.7000122,409L286.7000122,409z" />
	<path
   id="path311641"
   style="fill:none;stroke:#FF0000;stroke-width:2;stroke-linejoin:round;"
   d="M311.2999878,460.6000061   v-47.2000122h-25.7000122l-0.1000061,3.7999878l-11.8999939,0.2999878v29l23.6000061,0.1000061v14L311.2999878,460.6000061z" />
	<path
   id="path311643"
   style="fill:none;stroke:#FF0000;stroke-width:2;stroke-linejoin:round;"
   d="M288.7000122,503.6000061   l0.2000122-20.7000122l23.1000061-0.2999878l-0.2000122-19.2000122l-39,0.2999878l-0.2000122,40.2000122L288.7000122,503.6000061z" />
	<path
   id="path311645"
   style="fill:none;stroke:#FF0000;stroke-width:2;stroke-linejoin:round;"
   d="M272.7999878,548.5h49.7999878   v-14.2000122L288.6999817,534l0.2000122-28.2000122h-16.2000122L272.7999878,548.5z" />
	<path
   id="path311649"
   style="fill:none;stroke:#FF0000;stroke-width:2;stroke-linejoin:round;"
   d="M324.5,461.2999878h54.6000061   l-10.2999878-16.6000061l-25.7000122,0.2000122V438h-18.2999878L324.5,461.2999878z" />
	<path
   id="path311651"
   style="fill:none;stroke:#FF0000;stroke-width:2;stroke-linejoin:round;"
   d="M321.3999939,412l44.5-0.2000122   L366.1000061,388H335.5l-1.8999939,0.2999878l-10.7999878,10.7999878l-0.7000122,1.2000122l-0.8999939,1.8999939L321.3999939,412z" />
	<path
   id="path31283"
   style="fill:none;stroke:#FF0000;stroke-width:2;stroke-linejoin:round;"
   d="M1391.3000488,780.2000122   l33,49.5h33V800h36.9000244v-13.5c0,0,0.5999756-1.9000244-1.6999512-4.0999756s-5.1999512-2.2000122-5.1999512-2.2000122   H1391.3000488z" />
	<path
   id="path31285"
   style="fill:none;stroke:#FF0000;stroke-width:2;stroke-linejoin:round;"
   d="M1556.6999512,852.5999756H1593   v-51.2000122h51.1999512V780.499939H1566c0,0-3.3000488-2.7999878-6.9000244,1.0999756s-2.8000488,8.5-2.8000488,8.5   L1556.6999512,852.5999756z" />
	<path
   id="path31287"
   style="fill:none;stroke:#FF0000;stroke-width:2;stroke-linejoin:round;"
   d="M1647,825.5999756h113.4000244   V780.5h-112.8000488L1647,825.5999756z" />
	<path
   id="path31289"
   style="fill:none;stroke:#FF0000;stroke-width:2;stroke-linejoin:round;"
   d="M1841.8000488,825.2999878   v-45.0999756H1764.5v45.7000122L1841.8000488,825.2999878z" />
	<path
   id="path31291"
   style="fill:none;stroke:#FF0000;stroke-width:2;stroke-linejoin:round;"
   d="M1895.1999512,855.5999756   v-27.7999878h13.5v-27h-52.3000488v-20.0999756h135.6999512V855L1895.1999512,855.5999756z" />
	<path
   id="path31293"
   style="fill:none;stroke:#FF0000;stroke-width:2;stroke-linejoin:round;"
   d="M1994.9000244,800h67.2000732   v-19.5h-67.1999512V800H1994.9000244z" />
	<path
   id="path31295"
   style="fill:none;stroke:#FF0000;stroke-width:2;stroke-linejoin:round;"
   d="M2065.6000977,800h104   v-13.7999878c0,0,0.6000977-2.5-1.6999512-4.7000122s-5.5-1.7000122-5.5-1.7000122H2065L2065.6000977,800z" />
	<path
   id="path31299"
   style="fill:none;stroke:#FF0000;stroke-width:2;stroke-linejoin:round;"
   d="M2195.8000488,811.5999756   h65.8000488v-58.9000244l-24.5-24.2000122l-40.6999512,40.7000122L2195.8000488,811.5999756z" />
	<path
   id="path31301"
   style="fill:none;stroke:#FF0000;stroke-width:2;stroke-linejoin:round;"
   d="M2263.1999512,748.7999878   L2338.0998535,748.5l-59.3999023-61.4000244l-38.8000488,38.7999878L2263.1999512,748.7999878z" />
	<path
   id="path31303"
   style="fill:none;stroke:#FF0000;stroke-width:2;stroke-linejoin:round;"
   d="M2281.6999512,684.7000122   L2339.5,745.5l35-57l-48.1999512-48.2000122L2281.6999512,684.7000122z" />
	<path
   id="path31305"
   style="fill:none;stroke:#FF0000;stroke-width:2;stroke-linejoin:round;"
   d="M2329,637.9000244   l47.3000488,47.2999878l28.8999023-45.4000244l-39.1000977-39.0999756L2329,637.9000244z" />
	<path
   id="path31307"
   style="fill:none;stroke:#FF0000;stroke-width:2;stroke-linejoin:round;"
   d="M2439.1000977,529.2000122   l-69.8999023,69.0999756l37.6999512,38l22.8000488-35.5l-18.3999023-11.5999756l33.8999023-54.5L2439.1000977,529.2000122z" />
	<path
   id="path31309"
   style="fill:none;stroke:#FF0000;stroke-width:2;stroke-linejoin:round;"
   d="M2481.1999512,441.1000061   l-0.8000488-45.3999939l18.6999512-0.2999878c0,0,19,4.1000061,26.1000977,15.1000061   c7.1999512,11,7.1999512,25.2999878,7.1999512,25.2999878L2470.5,536.5l-23.6999512-15.0999756l55.8999023-54.5   c0,0,9.3999023-4.3999939,5.1999512-17.8999939C2503.8000488,435.6000061,2481.1999512,441.1000061,2481.1999512,441.1000061   L2481.1999512,441.1000061z" />
	<path
   id="path31311"
   style="fill:none;stroke:#FF0000;stroke-width:2;stroke-linejoin:round;"
   d="M2429.6999512,441.1000061   h44.6000977v-46h-45.3999023L2429.6999512,441.1000061z" />
	<path
   id="path31313"
   style="fill:none;stroke:#FF0000;stroke-width:2;stroke-linejoin:round;"
   d="M2381.8000488,441.3999939   h42.1000977v-46H2381L2381.8000488,441.3999939z" />
	<path
   id="path31315"
   style="fill:none;stroke:#FF0000;stroke-width:2;stroke-linejoin:round;"
   d="M2232.3000488,441.2999878   h143.6000977v-46.7000122h-107.8000488c0,0-13.6999512,1.3999939-24,0.7999878   c-7.8999023-0.5-11.6000977-1.6000061-11.6000977-1.6000061L2232.3000488,441.2999878z" />
	<path
   id="path31413"
   style="fill:none;stroke:#FF0000;stroke-width:2;stroke-linejoin:round;"
   d="M2228.5,441.2999878v-48.3999939   L2206.8000488,387l-42.5,42.2000122c0,0-4.8000488,2.8999939-4,6.7000122S2165,441.3000183,2165,441.3000183L2228.5,441.2999878z" />
	<path
   id="path31415"
   style="fill:none;stroke:#FF0000;stroke-width:2;stroke-linejoin:round;"
   d="M2222.1000977,503.2000122   l27.1000977-26.8999939c0,0,2.1999512-1.7999878,2.1999512-3.7999878s-1.5-5.6000061-1.5-5.6000061l-6.1000977-6.2999878   l-1.8999023-1l-2.1000977-0.7999878h-54.6000977c0,0-5.5-0.7000122-7.3999023,3.6000061S2179,471.500061,2179,471.500061   l31.5,31.7999878c0,0,2.1999512,2.8999939,5.6000977,3   C2219.6000977,506.2999878,2222.1000977,503.2000122,2222.1000977,503.2000122z" />
	<path
   id="path31417"
   style="fill:none;stroke:#FF0000;stroke-width:2;stroke-linejoin:round;"
   d="M2320.1999512,507.8999939   L2350.5,478c0,0,4.3999023-4.1000061,1.8999023-12.3999939s-11.3000488-7-11.3000488-7h-57.6999512   c0,0-7.3999023-0.1000061-9.1999512,4.5c-1.8000488,4.7000122,1.1000977,10.2999878,1.1000977,10.2999878l32.5,32.7999878   c0,0,2.3000488,3.8999939,6.1999512,4.2999878S2320.1999512,507.8999939,2320.1999512,507.8999939L2320.1999512,507.8999939z" />
	<path
   id="path31419"
   style="fill:none;stroke:#FF0000;stroke-width:2;stroke-linejoin:round;"
   d="M2429.3000488,514.7000122   l41.8000488-41.3999939c0,0,3.3999023-1.5,2.1000977-8.7999878c-1.3999023-7.2999878-12.1000977-5.8999939-12.1000977-5.8999939   l-68.5,0.1000061c0,0-8.3999023-0.7999878-11,5.7999878s1.1999512,13.5,1.1999512,13.5l35.8999023,36.3000183   c0,0,1.8999023,2.0999756,5,2.5S2429.3000488,514.7000122,2429.3000488,514.7000122z" />
	<path
   id="path31421"
   style="fill:none;stroke:#FF0000;stroke-width:2;stroke-linejoin:round;"
   d="M2377,566.2000122   L2409.1000977,534.5c0,0,2.1000977-2.5,2.5-5.2999878s-2.3000488-5.0999756-2.3000488-5.0999756l-40.1000977-40.5   c0,0-1.1999512-1.7999878-4.5-2.1000061c-3.3000488-0.3999939-5.1000977,1.8999939-5.1000977,1.8999939l-32.5,32.0999756   c0,0-2.3000488,3.0999756-2.1000977,5.2999878c0.1999512,2.0999756,3.1000977,6,3.1000977,6l37.1999512,38.0999756   c0,0,2.1000977,2.5,5.1000977,3.2999878S2377,566.2000122,2377,566.2000122L2377,566.2000122z" />
	<path
   id="path31423"
   style="fill:none;stroke:#FF0000;stroke-width:2;stroke-linejoin:round;"
   d="M2329.3999023,612.9000244   l28.1999512-27.5999756c0,0,2.1000977-1.4000244,1.8999023-4.5c-0.1999512-3.0999756-2.5-4.9000244-2.5-4.9000244   l-39.8999023-40.7000122c0,0-1.3999023-1.4000244-3.6999512-2.0999756C2311.0998535,532.3000488,2308,534.9000244,2308,534.9000244   L2279.8000488,562.5c0,0-2.6999512,3.0999756-2.5,5.5999756S2280,573.5,2280,573.5l38.1000977,38.5   c0,0,2.3000488,2.7000122,5.3999023,3.0999756C2326.6000977,615.7000122,2329.3999023,612.9000244,2329.3999023,612.9000244   L2329.3999023,612.9000244z" />
	<path
   id="path31425"
   style="fill:none;stroke:#FF0000;stroke-width:2;stroke-linejoin:round;"
   d="M2280.3000488,661.4000244   l29.6000977-28.7999878c0,0,1.8000488-1.4000244,1.8000488-4.7000122S2309.0002441,622.5,2309.0002441,622.5   l-39.3000488-40.0999756c0,0-1.1999512-1.7999878-4.1000977-2.0999756   c-2.8999023-0.4000244-6.3999023,2.2999878-6.3999023,2.2999878l-28.8000488,28.2000122c0,0-2.8999023,3.2999878-2.5,6.4000244   c0.3999023,3.0999756,4.3000488,6.5999756,4.3000488,6.5999756l37.1999512,37.5999756c0,0,2.5,2.2999878,5.1000977,2.7000122   S2280.3000488,661.4000244,2280.3000488,661.4000244L2280.3000488,661.4000244z" />
	<path
   id="path31427"
   style="fill:none;stroke:#FF0000;stroke-width:2;stroke-linejoin:round;"
   d="M2229.6999512,711.4000244   l30-29.4000244c0,0,2.6999512-3.0999756,2.6999512-5.7999878s-3.3000488-5.5999756-3.3000488-5.5999756l-38.8999023-39.9000244   c0,0-2.8999023-1.7999878-5.1000977-1.7999878s-5.3000488,2.5-5.3000488,2.5l-30.6000977,29.7999878   c0,0-2.1000977,1.9000244-1.8000488,4.9000244s2.8999023,6.2000122,2.8999023,6.2000122l38,38.5   c0,0,3.3000488,2.9000244,5.3999023,3.0999756C2226,714.0999756,2229.6999512,711.4000244,2229.6999512,711.4000244   L2229.6999512,711.4000244z" />
	<path
   id="path31429"
   style="fill:none;stroke:#FF0000;stroke-width:2;stroke-linejoin:round;"
   d="M2178.8999023,761.4000244   l30.6999512-30.2000122c0,0,1.8999023-2.9000244,1.8999023-4.9000244s-1.8999023-4.9000244-1.8999023-4.9000244   l-40.6999512-41.2999878c0,0-1-1.2000122-3.6999512-1.5999756s-6.3999023,2.5-6.3999023,2.5l-30.6000977,30.4000244   c0,0-1.8999023,2.7000122-1.8000488,5.7999878c0.1999512,3.0999756,4.5,6.2000122,4.5,6.2000122l37.1999512,38   c0,0,3.3000488,1.9000244,5.6000977,2.0999756C2176.1999512,764,2178.8999023,761.4000244,2178.8999023,761.4000244   L2178.8999023,761.4000244z" />
	<path
   id="path31431"
   style="fill:none;stroke:#FF0000;stroke-width:2;stroke-linejoin:round;"
   d="M2084.5,763.4000244h58.3999023   c0,0,1.8999023-0.2000122,3.1000977-1.9000244c1.1999512-1.7999878-1-3.7000122-1-3.7000122l-25.5-25.9000244   c0,0-1.3999023-2.9000244-4.3000488-3.2999878s-6.8000488,2.5-6.8000488,2.5L2081.5,758   c0,0-1.8999023,1.9000244-1.3999023,3.9000244S2084.5,763.4000244,2084.5,763.4000244L2084.5,763.4000244z" />
	<path
   id="path31433"
   style="fill:none;stroke:#FF0000;stroke-width:2;stroke-linejoin:round;"
   d="M2071.8999023,752.2999878   l29.1999512-28.2000122c0,0,2.6999512-3.5,2.6999512-5.4000244s-2.3000488-5.2999878-2.3000488-5.2999878l-33.6999512-34.0999756   c0,0-1.6000977-1.2000122-3.8999023-1.7999878c-2.3000488-0.5999756-5.3999023,1.5999756-5.3999023,1.5999756   l-31.0999756,30.7000122c0,0-1.5999756,2.7000122-1.5999756,5.0999756c0,2.2999878,2.6999512,5.2999878,2.6999512,5.2999878   l33.6999512,33.7000122c0,0,2.5,1.4000244,4.5,1.4000244   C2068.6000977,755.2000122,2071.8999023,752.2999878,2071.8999023,752.2999878L2071.8999023,752.2999878z" />
	<path
   id="path31435"
   style="fill:none;stroke:#FF0000;stroke-width:2;stroke-linejoin:round;"
   d="M2121.8999023,703.2000122   l30.3999023-29.7999878c0,0,1.6000977-3.0999756,1.8999023-5.2999878c0.3999023-2.0999756-2.1000977-4.9000244-2.1000977-4.9000244   l-33.5-33.9000244c0,0-0.1999512-1.5999756-3.5-2.0999756s-5.8000488,1.5999756-5.8000488,1.5999756l-31.3000488,30.9000244   c0,0-1.8999023,2.7000122-1.8999023,5.2999878s2.6999512,5.4000244,2.6999512,5.4000244l32.5,32.9000244   c0,0,2.6999512,2.0999756,5.3999023,2.5S2121.8999023,703.2000122,2121.8999023,703.2000122L2121.8999023,703.2000122z" />
	<path
   id="path31437"
   style="fill:none;stroke:#FF0000;stroke-width:2;stroke-linejoin:round;"
   d="M2172.3000488,653.4000244   l31.3000488-30.5999756c0,0,1.6000977-2.0999756,1.3999023-4.7000122c-0.1999512-2.5-2.6999512-5.0999756-2.6999512-5.0999756   L2169,579.1000366c0,0,0-1-2.6999512-1.5999756s-5.8000488,1-5.8000488,1l-31.6999512,31.2999878   c0,0-2.6999512,3.2999878-2.1000977,5.4000244s3.1000977,5.5999756,3.1000977,5.5999756l31.3000488,31.5   c0,0,2.8999023,3.2999878,5.8000488,3.2999878S2172.3000488,653.4000244,2172.3000488,653.4000244L2172.3000488,653.4000244z" />
	<path
   id="path47002"
   style="fill:none;stroke:#FF0000;stroke-width:2;stroke-linejoin:round;"
   d="M2223.5,603.4000244   L2251.8999023,575c0,0,2.1000977-2.2999878,2.3000488-5.0999756c0.1999512-2.7000122-3.1000977-6.2000122-3.1000977-6.2000122   l-32.6999512-33.0999756c0,0-1.3999023-1.4000244-3.8999023-1.7999878s-5.3999023,1.5999756-5.3999023,1.5999756L2179.3000488,560   c0,0-2.1000977,2.7000122-2.1000977,5.0999756s3.1000977,6,3.1000977,6l32.1000977,32.5c0,0,2.5,2.5,5.3999023,2.5   S2223.5,603.4000244,2223.5,603.4000244L2223.5,603.4000244z" />
	<path
   id="path47004"
   style="fill:none;stroke:#FF0000;stroke-width:2;stroke-linejoin:round;"
   d="M2272.3000488,554.5999756   l27.6000977-26.7000122c0,0,1.8000488-2.7000122,2.1000977-5.0999756c0.3999023-2.2999878-2.6999512-5.5999756-2.6999512-5.5999756   L2267.4003906,484.5c0,0-2.8999023-2.5-5.1000977-2.7000122c-2.1000977-0.2000122-5.8000488,1.8999939-5.8000488,1.8999939   l-27.8000488,27.3999939c0,0-1.8999023,2.0999756-2.1000977,5.0999756s3.3000488,6.2000122,3.3000488,6.2000122   l31.6999512,32.2999878c0,0,2.3000488,2.0999756,5.1000977,2.5S2272.3000488,554.5999756,2272.3000488,554.5999756   L2272.3000488,554.5999756z" />
	<path
   id="path47006"
   style="fill:none;stroke:#FF0000;stroke-width:2;stroke-linejoin:round;"
   d="M2172.5,552.4000244   L2202.1000977,523c0,0,1.6000977-2.0999756,1.3999023-4.2999878c-0.1999512-2.0999756-1.8999023-5.4000244-1.8999023-5.4000244   L2154.5,465.1999817c0,0-4.6999512-5.3999939-11.8999023-6s-15.3999023,3.7000122-15.3999023,3.7000122l-11.1000977,10.8999939   c0,0-1.8999023,1.2000122-2.5,3.7000122s0.1999512,8.3999939,0.1999512,12.7000122s-1,10.1000061-0.3999023,12.1000061   c0.6000977,1.8999939,4.1000977,4.8999939,4.1000977,4.8999939l44,44.5999756c0,0,3.1000977,2.7000122,5.3999023,3.0999756   C2169.1999512,555.0999756,2172.5,552.4000244,2172.5,552.4000244L2172.5,552.4000244z" />
	<path
   id="path47008"
   style="fill:none;stroke:#FF0000;stroke-width:2;stroke-linejoin:round;"
   d="M2121.8999023,601.5999756   l29.8000488-29.2000122c0,0,2.6999512-2.5,2.8999023-5.0999756s-2.3000488-5.0999756-2.3000488-5.0999756l-34.1000977-34.7999878   c0,0-2.8999023-2.2999878-5.1000977-2.7000122c-2.1000977-0.4000244-6,2.5-6,2.5s-9.1000977,19.5-11.8999023,23.5   s-12.1000977,13.4000244-12.1000977,13.4000244s-2.1000977,2.5-2.1000977,5.0999756s3.5,5.7999878,3.5,5.7999878   l26.1000977,26.0999756c0,0,2.1000977,3.2999878,5.3999023,3.5   C2119.3999023,605,2121.8999023,601.5999756,2121.8999023,601.5999756L2121.8999023,601.5999756z" />
	<path
   id="path47010"
   style="fill:none;stroke:#FF0000;stroke-width:2;stroke-linejoin:round;"
   d="M2071.1000977,652.0999756   l30.6000977-30c0,0,2.5-2.5,2.5-4.9000244s-2.3000488-5.0999756-2.3000488-5.0999756l-29.8000488-30   c0,0-2.1000977-2.7000122-4.6999512-3.0999756c-2.5-0.4000244-4.6999512,1-4.6999512,1   s-13.8000488,8.4000244-24.3000488,10.9000244S2012.5001221,594,2012.5001221,594s-3.3000488,0.2000122-4.3000488,1.4000244   s1,5.0999756,1,5.0999756l50.0001221,50.5999756c0,0,3.1000977,3.5,5.8000488,3.7000122   C2067.8000488,655,2071.1000977,652.0999756,2071.1000977,652.0999756L2071.1000977,652.0999756z" />
	<path
   id="path47012"
   style="fill:none;stroke:#FF0000;stroke-width:2;stroke-linejoin:round;"
   d="M2020.6999512,701.7000122   L2050.3000488,672.5c0,0,2.6999512-2.7000122,2.6999512-5.4000244s-2.5-5.2999878-2.5-5.2999878l-55.3000488-56.2000122   c0,0-1.8000488-1.7999878-4.5-2.0999756c-2.6999512-0.4000244-5.5999756,2.7000122-5.5999756,2.7000122l-31.6999512,31.5   c0,0-1.5999756,2.2999878-0.8000488,5.0999756c0.8000488,2.7000122,4.3000488,5.0999756,4.3000488,5.0999756l50.8000488,52.2000122   c0,0,3.6999512,4.2999878,6.5999756,4.7000122C2017.1999512,705,2020.6999512,701.7000122,2020.6999512,701.7000122   L2020.6999512,701.7000122z" />
	<path
   id="path47014"
   style="fill:none;stroke:#FF0000;stroke-width:2;stroke-linejoin:round;"
   d="M1982.1999512,763.2000122h62.5   c0,0,1.9000244,0,2.9000244-1.5999756c1.0001221-1.5999756-1-3.9000244-1-3.9000244l-28.8000488-29   c0,0-0.4000244-1.9000244-3.9000244-1.9000244s-6.1999512,2.2999878-6.1999512,2.2999878l-29,28.7999878   c0,0-1.8000488,2.7000122-1.1999512,3.9000244C1978.0999756,763,1982.1999512,763.2000122,1982.1999512,763.2000122   L1982.1999512,763.2000122z" />
	<path
   id="path47016"
   style="fill:none;stroke:#FF0000;stroke-width:2;stroke-linejoin:round;"
   d="M1968,753.4000244l33.5-32.5   c0,0,1.5999756-1.9000244,1.4000244-4.5c-0.1999512-2.5-3.0999756-5.5999756-3.0999756-5.5999756l-54.5-54.5   c0,0-1.9000244-2.2999878-4.5-2.2999878s-6.5999756,2.9000244-6.5999756,2.9000244l-31.9000244,32.2999878   c0,0-2.0999756,2.7000122-1.8000488,5.4000244c0.4000244,2.7000122,3.9000244,5.5999756,3.9000244,5.5999756l52.9000244,52.9000244   c0,0,2.3000488,2.2999878,4.6999512,2.7000122C1964.3000488,756.4000244,1968,753.4000244,1968,753.4000244L1968,753.4000244z" />
	<path
   id="path47018"
   style="fill:none;stroke:#FF0000;stroke-width:2;stroke-linejoin:round;"
   d="M1848.0999756,763.2000122h82.5   c0,0,5.5999756-1.4000244,7-4.7000122S1935.5,750.7000122,1935.5,750.7000122l-40.9000244-41.2999878   c0,0-1-3.7000122-5.3000488-3.5S1881.8999023,709,1881.8999023,709l-42.5999756,43c0,0-1.5999756,3.9000244-0.4000244,7.2000122   S1848.0999756,763.2000122,1848.0999756,763.2000122L1848.0999756,763.2000122z" />
	<path
   id="path47020"
   style="fill:none;stroke:#FF0000;stroke-width:2;stroke-linejoin:round;"
   d="M1704.3000488,763h85   c0,0,2.6999512,0.4000244,4.6999512-0.2000122s14.1999512-13.4000244,14.1999512-13.4000244   s1.8000488-2.0999756,1.9000244-4.9000244S1807,738.8999634,1807,738.8999634l-42.5999756-43.2000122   c0,0-1.9000244-3.2999878-5.5999756-3.2999878s-6.1999512,2.9000244-6.1999512,2.9000244L1696.4001465,751.5   c0,0-3.0999756,3.9000244-0.8000488,8.4000244S1704.3000488,763,1704.3000488,763L1704.3000488,763z" />
	<path
   id="path62595"
   style="fill:none;stroke:#FF0000;stroke-width:2;stroke-linejoin:round;"
   d="M1654.8000488,760.2999878   L1700.5,715c0,0,1.9000244-1.4000244,2.5-2.9000244c0.5999756-1.5999756,0.5999756-10.7000122,0.5999756-10.7000122   s0.4000244-1.2000122-1-2.0999756C1701.1999512,698.2999878,1698.5,698.5,1698.5,698.5h-71.8000488   c0,0-3.9000244-0.4000244-6.1999512,1.9000244c-2.3000488,2.2999878-2.3000488,6.7999878-2.3000488,6.7999878v48.7000122   c0,0,0.5999756,3.7000122,2.3000488,5.4000244c1.8000488,1.7999878,6,1.9000244,6,1.9000244h21.8000488   c0,0,2.5-0.2000122,3.6999512-0.7999878C1653.3000488,761.7999878,1654.8000488,760.2999878,1654.8000488,760.2999878z" />
	<path
   id="path62597"
   style="fill:none;stroke:#FF0000;stroke-width:2;stroke-linejoin:round;"
   d="M1734.1999512,680.7000122   L1776,639.1000366c0,0,4.6999512-4.2999878,2.0999756-13.2000122c-2.5-9-16.1999512-7.7999878-16.1999512-7.7999878H1723   c0,0-3.3000488-0.7999878-6,1.2000122c-2.6999512,1.9000244-2.9000244,6.7999878-2.9000244,6.7999878v51.2000122   c0,0,0.4000244,3.2999878,1.5999756,5.0999756s6,2.0999756,6,2.0999756H1727c0,0,2.9000244,0.2000122,4.3000488-0.4000244   C1732.6999512,683.4000244,1734.1999512,680.7000122,1734.1999512,680.7000122L1734.1999512,680.7000122z" />
	<path
   id="path62599"
   style="fill:none;stroke:#FF0000;stroke-width:2;stroke-linejoin:round;"
   d="M1627.4000244,684.4000244H1695.5   c0,0,3.5,0,5.0999756-1.2000122S1703.5,678.9000244,1703.5,678.9000244V624c0,0,0.1999512-1.2000122-1.4000244-3.2999878   s-4.9000244-2.5-4.9000244-2.5H1627.5c0,0-4.5-0.4000244-7,1.7999878c-2.5,2.0999756-2.3000488,7.7999878-2.3000488,7.7999878   V676.5c0,0,0.1999512,4.5,2.3000488,6.4000244C1622.6999512,684.7999878,1627.4000244,684.4000244,1627.4000244,684.4000244z" />
	<path
   id="path78177"
   style="fill:none;stroke:#FF0000;stroke-width:2;stroke-linejoin:round;"
   d="M1528.9000244,684.4000244h67.5   c0,0,3.6999512,0.5999756,5.8000488-1.9000244s2.3000488-4.9000244,2.3000488-4.9000244v-52.7000122   c0,0-0.5999756-2.2999878-1.8000488-4.5s-4.9000244-2.2999878-4.9000244-2.2999878H1528.5   c0,0-4.0999756-0.2000122-5.8000488,1.4000244c-1.8000488,1.5999756-2.5,6-2.5,6v51c0,0,0.1999512,4.5,1.9000244,6.4000244   C1524,684.7999878,1528.9000244,684.4000244,1528.9000244,684.4000244L1528.9000244,684.4000244z" />
	<path
   id="path78179"
   style="fill:none;stroke:#FF0000;stroke-width:2;stroke-linejoin:round;"
   d="M1415.3000488,684.2000122h82.5   c0,0,4.3000488,0.7999878,6.5999756-1.5999756c2.3000488-2.2999878,1.8000488-6.2000122,1.8000488-6.2000122v-52.2000122   c0,0,0-1.5999756-1.4000244-3.5s-5.3000488-2.5-5.3000488-2.5h-85.8000488c0,0-2.0999756-1-5.0999756,1.4000244   c-2.9000244,2.2999878-3.0999756,7.4000244-3.0999756,7.4000244v50.4000244c0,0,1,3.9000244,2.6999512,5.5999756   C1410,684.7999878,1415.3000488,684.2000122,1415.3000488,684.2000122z" />
	<path
   id="path78181"
   style="fill:none;stroke:#FF0000;stroke-width:2;stroke-linejoin:round;"
   d="M1415.3000488,763.2000122   h80.8000488c0,0,5.3000488-0.2000122,7.1999512-1.5999756s3.0999756-5.2999878,3.0999756-5.2999878v-52   c0,0-0.1999512-2.0999756-1.5999756-3.7000122c-1.4000244-1.5999756-5.0999756-2.2999878-5.0999756-2.2999878h-84.3000488   c0,0-5.5999756-0.5999756-7.4000244,1.7999878c-1.8000488,2.2999878-2.0999756,7.4000244-2.0999756,7.4000244V755   c0,0,0.5999756,4.7000122,2.0999756,6.4000244C1409.5999756,763.2000122,1415.3000488,763.2000122,1415.3000488,763.2000122   L1415.3000488,763.2000122z" />
	<path
   id="path93762"
   style="fill:none;stroke:#FF0000;stroke-width:2;stroke-linejoin:round;"
   d="M1559.6999512,763v-64.5999756   h-30.9000244c0,0-3.3000488-1.4000244-5.5999756,1.2000122s-2.9000244,6.2000122-2.9000244,6.2000122V755   c0,0,0.4000244,5.0999756,1.9000244,6.4000244s7,1.9000244,7,1.9000244L1559.6999512,763z" />
	<path
   id="path93764"
   style="fill:none;stroke:#FF0000;stroke-width:2;stroke-linejoin:round;"
   d="M1564.9000244,762.7999878   h31.9000244c0,0,4.0999756,0,5.4000244-1.5999756s2.0999756-5.4000244,2.0999756-5.4000244v-50.5999756   c0,0,0.5999756-1.7999878-1.1999512-3.9000244c-1.8000488-2.0999756-5.4000244-2.9000244-5.4000244-2.9000244h-33.5   L1564.9000244,762.7999878z" />
	<path
   id="path109347"
   style="fill:none;stroke:#FF0000;stroke-width:2;stroke-linejoin:round;"
   d="M2069.6000977,341.6000061   l-42.8000488,42.7999878c0,0-0.8000488,3.1000061-5.0999756,4.2999878s-8.5999756,0-8.5999756,0   s-21.4000244-1.2000122-37.8000488,6.2000122s-33.9000244,21-33.9000244,21s-0.4000244,3.5-4.6999512,3.8999939   c-4.3000488,0.3999939-8.5999756,0.7999878-8.5999756,0.7999878h-72.8000488v-38.5h-7c0,0,23.6999512-38.5,61.0999756-59.2000122   C1946.8000488,302.2999573,1995,293.6999512,1995,293.6999512v47.8999939h74.6000977V341.6000061z" />
	<path
   id="path109349"
   style="fill:none;stroke:#FF0000;stroke-width:2;stroke-linejoin:round;"
   d="M1999.0999756,337.7000122   h73.2000732l14-13.6000061c0,0-19.8999023-11.7000122-41.5999756-14.7999878c-21.8000488-3.1000061-46.3000488-3.5-46.3000488-3.5   L1999.0999756,337.7000122z" />
	<path
   id="path109351"
   style="fill:none;stroke:#FF0000;stroke-width:2;stroke-linejoin:round;"
   d="M1998.6999512,302.7000122   c0,0,39.6999512,0.7999878,59.1999512,5.1000061c19.5,4.2999878,56,28.7999878,56,28.7999878l13.1999512-13.2000122   l-15.6000977-10.5l-24.8999023-1.6000061c0,0-13.6000977-7.7999878-33.5-12.1000061s-54.0999756-5.3999939-54.0999756-5.3999939   L1998.6999512,302.7000122z" />
	<path
   id="path109353"
   style="fill:none;stroke:#FF0000;stroke-width:2;stroke-linejoin:round;"
   d="M1716.5999756,420.5h134.5999756   V385h-134L1716.5999756,420.5z" />
	<path
   id="path109355"
   style="fill:none;stroke:#FF0000;stroke-width:2;stroke-linejoin:round;"
   d="M1526.4000244,420.2000122   h185.8000488v-34.1000061h-185.8000488V420.2000122z" />
	<path
   id="path109357"
   style="fill:none;stroke:#FF0000;stroke-width:2;stroke-linejoin:round;"
   d="M1438.3000488,420.2000122   h83.4000244v-34.1000061h-117.5v17.6000061c0,0,10.6999512,3,17.3000488,7.2000122   c6.5999756,4.1000061,11.3000488,8.5,11.3000488,8.5L1438.3000488,420.2000122z" />
	<path
   id="path109359"
   style="fill:none;stroke:#FF0000;stroke-width:2;stroke-linejoin:round;"
   d="M1182.6999512,450.2000122   l18.4000244-9.1000061h82.8000488c0,0,23.6999512-31.3999939,50.5999756-38.2999878   c27-6.8999939,33.5999756-6.2999878,39.5999756-5.7999878s25.3000488,5,25.3000488,5v-15.3999939h-256.2000732   L1182.6999512,450.2000122z" />
	<path
   id="path109361"
   style="fill:none;stroke:#FF0000;stroke-width:2;stroke-linejoin:round;"
   d="M1257.8000488,550.0999756   l-7.6999512,4.0999756l-39.9000244-64.3999939l7.4000244-20.1000061c0,0,25,8.2999878,36.9000244,33.6000061   C1266.3000488,528.5999756,1257.8000488,550.0999756,1257.8000488,550.0999756L1257.8000488,550.0999756z" />
	<path
   id="path124952"
   style="fill:none;stroke:#FF0000;stroke-width:2;stroke-linejoin:round;"
   d="M1437.5999756,597.4000244   h59.5999756c0,0,5.5999756-0.2000122,7.5999756-2.2999878c1.9000244-2.0999756,1.5999756-6,1.5999756-6v-56.7999878   c0,0,0-2.5-1.4000244-4.2999878s-4.9000244-2.5-4.9000244-2.5h-64.5999756c0,0-3.5-0.2000122-5.5999756,1.9000244   s-2.0999756,6.5999756-2.0999756,6.5999756v54.7000122c0,0,0,5.7999878,2.3000488,7.5999756   S1437.5999756,597.4000244,1437.5999756,597.4000244L1437.5999756,597.4000244z" />
	<path
   id="path124954"
   style="fill:none;stroke:#FF0000;stroke-width:2;stroke-linejoin:round;"
   d="M1529.0999756,597h64.5999756   c0,0,5.4000244,0.4000244,7.8000488-1.2000122c2.3000488-1.5999756,3.0999756-6.2000122,3.0999756-6.2000122v-58.2000122   c0,0,0-2.0999756-1.9000244-3.9000244c-1.9000244-1.7999878-4.9000244-2.2999878-4.9000244-2.2999878h-70.5999756   c0,0-2.5,0.2000122-4.6999512,1.9000244s-2.5,6-2.5,6V590.5c0,0,1.1999512,3.9000244,2.6999512,5.2999878   C1524.1999512,597.2000122,1529.0999756,597,1529.0999756,597z" />
	<path
   id="path140547"
   style="fill:none;stroke:#FF0000;stroke-width:2;stroke-linejoin:round;"
   d="M1626.4000244,597.4000244   h71.4000244c0,0,3.5,1,4.9000244-0.5999756s0.8000488-4.2999878,0.8000488-4.2999878v-60.9000244   c0,0-0.1999512-2.5-1.1999512-3.7000122S1697.2001953,525,1697.2001953,525h-70.5999756   c0,0-4.0999756,0.4000244-6.1999512,2.2999878s-2.3000488,6.7999878-2.3000488,6.7999878v56   c0,0,0.4000244,3.7000122,2.3000488,5.4000244C1622.3000488,597.4000244,1626.4000244,597.4000244,1626.4000244,597.4000244   L1626.4000244,597.4000244z" />
	<path
   id="path140549"
   style="fill:none;stroke:#FF0000;stroke-width:2;stroke-linejoin:round;"
   d="M1722.1999512,597H1766   c0,0,5.0999756-0.2000122,6.1999512-1.5999756S1774,590.5,1774,590.5v-59.2000122c0,0,0.4000244-2.0999756-1.1999512-3.7000122   c-1.5999756-1.5999756-4.6999512-2.5-4.6999512-2.5h-46.6999512c0,0-3.6999512,0.4000244-5.3000488,1.9000244   s-2.3000488,5.7999878-2.3000488,5.7999878v56.5999756c0,0,0.4000244,4.2999878,2.0999756,6   C1717.6999512,597.4000244,1722.1999512,597,1722.1999512,597L1722.1999512,597z" />
	<path
   id="path140551"
   style="fill:none;stroke:#FF0000;stroke-width:2;stroke-linejoin:round;"
   d="M1795.5,597.4000244h16.9000244   c0,0,1.8000488,0.2000122,3.6999512-0.4000244C1818,596.4000244,1821,593.7000122,1821,593.7000122l43-42.7999878   c0,0,6.5999756-6.7999878,3.5-16.2000122S1852.9000244,525,1852.9000244,525h-57.1999512c0,0-3.3000488,0-5.8000488,2.0999756   S1788,532.8999634,1788,532.8999634v56.5999756c0,0,0.8000488,4.5,2.3000488,6   C1791.8000488,597.2000122,1795.5,597.4000244,1795.5,597.4000244z" />
	<path
   id="path140553"
   style="fill:none;stroke:#FF0000;stroke-width:2;stroke-linejoin:round;"
   d="M1833.5,511.5v-73.7999878   h-38.3000488c0,0-2.6999512-1-4.6999512,1s-2.5,5.6000061-2.5,5.6000061v59.3999939c0,0,0.1999512,3.8999939,1.9000244,5.3999939   c1.8000488,1.6000061,5.3000488,2.2999878,5.3000488,2.2999878H1833.5V511.5z" />
	<path
   id="path140555"
   style="fill:none;stroke:#FF0000;stroke-width:2;stroke-linejoin:round;"
   d="M1843.8000488,511.2999878   h48.0999756c0,0,7.1999512-0.6000061,10.6999512-4.2999878c3.5-3.7000122,5.8000488-9.7000122,5.8000488-11.2999878   s-0.4000244-13.6000061,2.5-26.2999878c2.9000244-12.7000122,5.5999756-16.8999939,5.5999756-21.2000122   s-2.9000244-8.2000122-5.5999756-9.2999878c-2.6999512-1.2000122-6.5999756-1.6000061-6.5999756-1.6000061h-60.5V511.2999878z" />
	<path
   id="path140557"
   style="fill:none;stroke:#FF0000;stroke-width:2;stroke-linejoin:round;"
   d="M1722.6999512,511.2999878   H1767.5c0,0,3.3000488-0.6000061,4.9000244-2.2999878c1.5999756-1.7999878,1.8000488-5.1000061,1.8000488-5.1000061v-60.1000061   c0,0,0.1999512-1.8999939-1.5999756-3.8999939c-1.8000488-1.8999939-5.8000488-2.2999878-5.8000488-2.2999878h-45   c0,0-3.9000244,0.2000122-5.5999756,1.8999939c-1.8000488,1.7999878-2.0999756,6.3999939-2.0999756,6.3999939v58.7999878   c0,0,0.8000488,4.1000061,2.6999512,5.3999939S1722.6999512,511.2999878,1722.6999512,511.2999878L1722.6999512,511.2999878z" />
	<path
   id="path140559"
   style="fill:none;stroke:#FF0000;stroke-width:2;stroke-linejoin:round;"
   d="M1594.6999512,511.2999878   h101.4000244c0,0,4.0999756-0.2000122,5.3000488-1.6000061c1.1999512-1.3999939,2.3000488-5.6000061,2.3000488-5.6000061v-60.5   c0,0-0.5999756-2.7000122-1.9000244-4.1000061c-1.4000244-1.3999939-4.6999512-2.1000061-4.6999512-2.1000061h-38.3000488v57h-64   L1594.6999512,511.2999878z" />
	<path
   id="path140561"
   style="fill:none;stroke:#FF0000;stroke-width:2;stroke-linejoin:round;"
   d="M1529.6999512,511.2999878   h62.0999756v-74h-63.8000488c0,0-2.6999512-0.3999939-5.3000488,1.7999878c-2.5,2.1000061-2.6999512,5.3999939-2.6999512,5.3999939   v60.2999878c0,0,0.5999756,3.2999878,2.9000244,5.2999878   C1525.1999512,512.0999756,1529.6999512,511.2999878,1529.6999512,511.2999878L1529.6999512,511.2999878z" />
	<path
   id="path140563"
   style="fill:none;stroke:#FF0000;stroke-width:2;stroke-linejoin:round;"
   d="M1435.6999512,511.5h62.9000244   c0,0,3.6999512-0.3999939,5.4000244-1.8999939c1.8000488-1.6000061,2.3000488-5.2999878,2.3000488-5.2999878V444   c0,0-0.4000244-1.8999939-1.4000244-3.5S1500,437.6000061,1500,437.6000061h-64.1999512   c0,0-3.9000244-0.2000122-5.4000244,1.3999939c-1.5999756,1.6000061-2.5,6-2.5,6v59.3999939   c0,0-0.4000244,2.7000122,1.8000488,5.1000061C1431.8000488,511.7000122,1435.6999512,511.5,1435.6999512,511.5L1435.6999512,511.5   z" />
	<path
   id="path140565"
   style="fill:none;stroke:#FF0000;stroke-width:2;stroke-linejoin:round;"
   d="M305.2000122,596.5999756   h48.2000122V647H333v-43.7999878h-27.7999878V596.5999756z" />
	<path
   id="path140567"
   style="fill:none;stroke:#FF0000;stroke-width:2;stroke-linejoin:round;"
   d="M361.7000122,645.9000244H385   V668.5h-30.6000061V683h52.2999878v-26.4000244l-5.2000122-11V634h-39.6000061L361.7000122,645.9000244z" />
	<path
   id="path140569"
   style="fill:none;stroke:#FF0000;stroke-width:2;stroke-linejoin:round;"
   d="M305.1000061,593.5999756   h36.7000122v-35.2000122h-19.2999878v-6.0999756H305L305.1000061,593.5999756z" />
	<path
   id="path156625"
   style="fill:none;stroke:#FF0000;stroke-width:2;stroke-linejoin:round;"
   d="M1296.5999756,553.7000122   h35.8000488v-11.7999878h-36.0999756L1296.5999756,553.7000122z" />
	
		<circle
   id="path156679"
   style="fill:none;stroke:#FF0000;stroke-width:2;stroke-linejoin:round;"
   cx="1387"
   cy="543.5999756"
   r="19.4000244" />
</g>
<g
   id="floor">
	<path
   id="floor-2"
   style="fill:none;stroke:#FF0000;stroke-width:2;stroke-linejoin:round;"
   d="M2535.8999023,401.1000061   c-10.8000488-19.6000061-36.6999512-20.2000122-36.6999512-20.2000122L2260,380.6000061c0,0-32.1999512-0.6000061-47.5-7.5   s-24.3999023-11.7000122-24.3999023-11.7000122L2137.5,311.1000061l-50-5.7000122c0,0-50-22.6000061-99.5999756-14.7000122   c-49.6999512,7.7999878-74.5999756,22.2999878-99.5999756,41.2000122s-45.4000244,48.3999939-45.4000244,48.3999939   l-38.1999512,0.8999939c0,0-0.5999756-29.2000122-27.6999512-29.5s-32.5,29.5-32.5,29.5h-201.5999756c0,0-3-29.5-26.1999512-29.5   s-34.3000488,29.5-34.3000488,29.5h-200.4000244c0,0-2.0999756-29.5-30.0999756-29.5s-31.5999756,28.8999939-31.5999756,28.8999939   l-87,0.5l44.3000488,71.7999878l-124.8000488,84l-85.5-117.5h-49.7999878l10.9000244-18.7999878h-81.9000244v-46.7000122   H404.2999878l-0.1000061,9.2000122h-34l-0.7999878-7.8999939h-52.2999878l-0.2000122,18.7000122   c0,0-12.6000061,5.1000061-18.2000122,9.2000122s-14.2000122,16.1000061-14.2000122,16.1000061l-3.2000122,13l-12.3999939,0.5   v205.6000366h37v75.2999878V762c0,0-2.6000061,8.9000244,11.5,23c14,14,27.1000061,20.2000122,27.1000061,20.2000122   l61.1000061-105.5999756h16.8999939V672.500061l-0.1000061,0.2999878l-15.8999939-27.4000244V497.7000122l-37-59.2000122   l0.7000122-66.2000122l34.2000122-0.2000122v34.5L467,499.3999634l-0.2000122,146.2999878l39.5,26.7999878v8.7000122   l134.2999878,196.0999756c0,0,2.0999756,6.7999878,7.7000122,8.9000244c5.5,2.0999756,13.2000122-1.2999878,13.2000122-1.2999878   h278.2999878l8.5,11.9000244L1064.5,814.7000122h110.1999512l44.6999512-31.5l-142.0999756-208.8999634l126.9000244-83.6000061   l228.9000244,368.6999817h214.5L1649,854.1000366h159v5.7999878h441.1999512c0,0,11.3000488,6.7000122,20,5.9000244   c1.1999512-0.0999756,2.3999023-0.4000244,3.5-0.7999878c8.6999512-3.5999756,14.6999512-12,15.8999023-15.5999756   s-0.8999023-12-0.8999023-12l248-396.6000061C2535.6000977,440.7999878,2546.6999512,420.6000061,2535.8999023,401.1000061z    M330.2000122,645.2999878h-19.3999939l0.2999878-40.4000244h19.1000061V645.2999878z M840.9000244,546.2999878L809,530.2000122   l36-72.3999939l32.4000244,15.2999878L840.9000244,546.2999878z M1383.4000244,466.1000061c0,0-8.5999756,20-25.0999756,39.7000122   c-16.5,19.6999817-25.6999512,21.8999939-25.6999512,21.8999939l-0.5999756,12.0999756l-45.4000244-0.5999756v-22.5999756   c0,0,11.4000244-22.8999939,23.5-37.7999878s27-22.6000061,27-22.6000061l-0.3000488-4.3999939L1383.5,452.1000366v13.9999695   H1383.4000244z M1854.4000244,675.7999878c-0.9000244,27.4000244-26.0999756,45.4000244-26.0999756,45.4000244   l-47.5999756-46.2999878l46.3000488-48.0999756C1826.9000244,626.7999878,1855.3000488,648.4000244,1854.4000244,675.7999878z    M1899.8000488,634.4000244c0,0-11.6999512-13.9000244-13-27.9000244s8.5-34.2000122,8.5-34.2000122l45.8000488-44.9000244   c0,0,9.9000244,15.2999878,14.8000488,20.7000122s18.9000244,11.7000122,18.9000244,11.7000122L1899.8000488,634.4000244z    M2010.4000244,540.4000244c-26.6999512,0-48.3000488-21.5999756-48.3000488-48.2999878   s21.5999756-48.2999878,48.3000488-48.2999878s48.2999268,21.6000061,48.2999268,48.2999878   C2058.6999512,518.8000488,2037.0999756,540.4000244,2010.4000244,540.4000244z M2079.5,456L2079.5,456   c0,0-4.8999023-9.3999939-12.6000977-17.5c-7.6000977-8.1000061-22.5-15.2999878-22.5-15.2999878l73.3000488-71.5   c0,0,11.1999512,2.7000122,20.6999512,11.2000122c9.3999023,8.5,11.6999512,22.5,11.6999512,22.5L2079.5,456z" />
</g>

<g
   id="texts"
   style="display:inline"
   transform="translate(-1.1105346e-6,-2.0344543e-5)">
	
		<circle
   id="entrance-3"
   style="fill:#ffffff;stroke:#000000;stroke-miterlimit:10"
   cx="2261.165"
   cy="249.58064"
   r="6.1276598" />
	
		<circle
   id="entrance-4"
   style="fill:#ffffff;stroke:#000000;stroke-miterlimit:10"
   cx="2479.624"
   cy="278.76917"
   r="6.1276598" />
	
		<circle
   id="entrance-5"
   style="fill:#ffffff;stroke:#000000;stroke-miterlimit:10"
   cx="1717.1199"
   cy="1029.2371"
   r="6.1276598" />
	
		<circle
   id="entrance-2"
   style="fill:#ffffff;stroke:#000000;stroke-miterlimit:10"
   cx="1383.6074"
   cy="278.76917"
   r="6.1276598" />
	
		<circle
   id="entrance-1"
   style="fill:#ffffff;stroke:#000000;stroke-miterlimit:10"
   cx="917.15497"
   cy="278.76917"
   r="6.1276598" />
	
		<circle
   id="entrance-7"
   style="fill:#ffffff;stroke:#000000;stroke-miterlimit:10"
   cx="283.47293"
   cy="278.76917"
   r="6.1276598" />
	
		<circle
   id="entrance-6"
   style="fill:#ffffff;stroke:#000000;stroke-miterlimit:10"
   cx="1106.4503"
   cy="1029.2371"
   r="6.1276598" />
</g></svg>
