<?xml version="1.0" encoding="UTF-8" standalone="no"?>
<!-- Generator: Adobe Illustrator 26.4.1, SVG Export Plug-In . SVG Version: 6.00 Build 0)  -->

<svg
   version="1.1"
   id="svg755084"
   x="0px"
   y="0px"
   width="2600px"
   height="1200px"
   viewBox="0 0 2600 1200"
   style="enable-background:new 0 0 2600 1200;"
   xml:space="preserve"
   sodipodi:docname="grand-floor-4-final.svg"
   inkscape:version="1.2.2 (b0a8486, 2022-12-01)"
   xmlns:inkscape="http://www.inkscape.org/namespaces/inkscape"
   xmlns:sodipodi="http://sodipodi.sourceforge.net/DTD/sodipodi-0.dtd"
   xmlns="http://www.w3.org/2000/svg"
   xmlns:svg="http://www.w3.org/2000/svg"><sodipodi:namedview
   id="namedview72064"
   pagecolor="#ffffff"
   bordercolor="#000000"
   borderopacity="0.25"
   inkscape:showpageshadow="2"
   inkscape:pageopacity="0.0"
   inkscape:pagecheckerboard="0"
   inkscape:deskcolor="#d1d1d1"
   showgrid="false"
   inkscape:zoom="0.39230769"
   inkscape:cx="1300"
   inkscape:cy="600.29412"
   inkscape:window-width="1413"
   inkscape:window-height="763"
   inkscape:window-x="1917"
   inkscape:window-y="49"
   inkscape:window-maximized="0"
   inkscape:current-layer="svg755084" /><defs
   id="defs49822"><clipPath
     clipPathUnits="userSpaceOnUse"
     id="clipPath546166"><path
       d="M 856.27,143.461 H 1950 V 698.34 H 856.27 Z"
       id="path546164" /></clipPath><clipPath
     clipPathUnits="userSpaceOnUse"
     id="clipPath546176"><path
       d="M 0,0 H 1951 V 843 H 0 Z"
       id="path546174" /></clipPath><clipPath
     clipPathUnits="userSpaceOnUse"
     id="clipPath556048"><path
       d="M 0,0 H 1951 V 843 H 0 Z"
       id="path556046" /></clipPath><clipPath
     clipPathUnits="userSpaceOnUse"
     id="clipPath556064"><path
       d="M 0,0 H 1951 V 843 H 0 Z"
       id="path556062" /></clipPath><clipPath
     clipPathUnits="userSpaceOnUse"
     id="clipPath556156"><path
       d="M 0,0 H 1951 V 843 H 0 Z"
       id="path556154" /></clipPath><clipPath
     clipPathUnits="userSpaceOnUse"
     id="clipPath556176"><path
       d="M 0,0 H 1951 V 843 H 0 Z"
       id="path556174" /></clipPath><clipPath
     clipPathUnits="userSpaceOnUse"
     id="clipPath556212"><path
       d="M 0,0 H 1951 V 843 H 0 Z"
       id="path556210" /></clipPath><clipPath
     clipPathUnits="userSpaceOnUse"
     id="clipPath556236"><path
       d="M 0,0 H 1951 V 843 H 0 Z"
       id="path556234" /></clipPath><clipPath
     clipPathUnits="userSpaceOnUse"
     id="clipPath665004"><path
       d="M 817.027,138.66 H 1950 V 703.199 H 817.027 Z"
       id="path665002" /></clipPath><clipPath
     clipPathUnits="userSpaceOnUse"
     id="clipPath665014"><path
       d="M 0,0 H 1951 V 843 H 0 Z"
       id="path665012" /></clipPath><clipPath
     clipPathUnits="userSpaceOnUse"
     id="clipPath673862"><path
       d="M 0,0 H 1951 V 843 H 0 Z"
       id="path673860" /></clipPath><clipPath
     clipPathUnits="userSpaceOnUse"
     id="clipPath673882"><path
       d="M 0,0 H 1951 V 843 H 0 Z"
       id="path673880" /></clipPath><clipPath
     clipPathUnits="userSpaceOnUse"
     id="clipPath673902"><path
       d="M 0,0 H 1951 V 843 H 0 Z"
       id="path673900" /></clipPath><clipPath
     clipPathUnits="userSpaceOnUse"
     id="clipPath673926"><path
       d="M 0,0 H 1951 V 843 H 0 Z"
       id="path673924" /></clipPath></defs>
<g
   id="wall"
   style="display:inline"
   sodipodi:insensitive="true">
	<path
   id="grand-2-f5"
   style="fill:#ff0000"
   d="m 2006.2578,285.93945 c -6.1455,0.15313 -12.3957,0.67266 -18.6582,1.66016 -50.0996,7.89996 -75.8,22.70084 -101,41.80078 -23.8999,18.19993 -42.7992,44.50039 -45.1992,47.90039 l -34,0.79883 c -0.2999,-2.9 -1.0012,-7.30041 -3.7012,-12.90039 -3.8999,-8.09997 -12.0992,-16.3996 -26.6992,-16.59961 -14.7,-0.20002 -23.9,8.00003 -29,16 -3.8001,5.99997 -5.2008,10.89999 -5.8008,13.5 h -196.7988 c -0.3999,-2.70002 -1.3011,-7.29965 -4.2012,-13.09961 -4,-7.89996 -11.5999,-16.40039 -24.5,-16.40039 -12.7999,0 -22.1992,8.10043 -28.1992,15.90039 -4.8001,6.19998 -7.1,11.39959 -8,13.59961 h -196 c -0.4,-2.80002 -1.3001,-7.39926 -4.5,-13.19922 -4.3999,-7.99997 -13.1992,-16.30078 -28.1992,-16.30078 -15.0999,0 -24.1003,8.10043 -28.9004,15.90039 -3.4,5.69998 -4.5996,10.29999 -5.0996,13 l -84.6016,0.5 c -0.6,0 -1.0996,0.10041 -1.5996,0.40039 -2.4246,1.41477 -1,4.09961 -1,4.09961 0,0 211.6396,336.49941 299.9004,478.59961 0.5,0.90003 1.5,1.40039 2.5,1.40039 h 214.5 c 1.4,0 2.5004,-0.89924 2.9004,-2.19922 l 0.7988,-3.10156 H 1805 V 860 c 0,1.70001 1.3,3 3,3 h 440.4004 c 0.6001,0.29999 2.6987,1.5 6.2988,3 4.1,1.70001 9.4017,3.30042 14.6016,2.90039 1.5,-0.1 2.9984,-0.40002 4.3984,-1 4.8999,-2.09997 8.9004,-5.29956 11.9004,-8.59961 3,-3.30005 4.9009,-6.30041 5.8008,-8.90039 1,-3 0.4991,-6.10077 0.1,-8.80078 -0.3,-2 -0.4992,-2.79962 -0.6992,-3.59961 l 247.5996,-395.59961 0.1,-0.0996 c 0,0 12.0008,-21.50161 0.3008,-42.60156 C 2527,378.39925 2499.5,378 2499.5,378 h -0.1 l -239.2012,-0.30078 c 0,0 -7.9987,-0.19922 -17.7988,-1.19922 -9.8,-1 -21.6016,-2.89959 -28.6016,-6.09961 -14.8,-6.69998 -23.2988,-11.20001 -23.7988,-11.5 L 2139.7988,309 c -0.5,-0.5 -1.0989,-0.80039 -1.7988,-0.90039 l -49.5996,-5.69922 c -1.2249,-0.61248 -39.1241,-17.53281 -82.1426,-16.46094 z m 0.072,6.17188 c 41.9467,-0.90918 79.7695,16.08789 79.7695,16.08789 0.2998,0.10001 0.6004,0.20117 0.9004,0.20117 l 48.9004,5.59961 49.7988,49.5 c 0.1999,0.20001 0.4012,0.39999 0.7012,0.5 0,0 9.1997,4.80081 24.5996,11.80078 8.3999,3.80002 20.3999,5.59961 30.5,6.59961 10.1001,1 18.3008,1.19922 18.3008,1.19922 h 0.1 l 239.1992,0.30078 c 0,0 24.3013,0.79968 34.2012,18.59961 10,17.99994 -0.3008,36.80078 -0.3008,36.80078 l -247.9004,396.39844 c -0.5,0.70002 -0.6004,1.50079 -0.4004,2.30078 0,0 0.4009,2.00036 0.8008,4.40039 0.3,2.40002 0.2991,5.40002 0.1,6 -0.3001,1.09997 -2,3.99885 -4.5,6.79883 -2.5,2.79999 -5.8991,5.50158 -9.6992,7.10156 -0.7001,0.29999 -1.5996,0.49961 -2.5996,0.59961 -3.4001,0.29999 -8.1008,-1.09997 -11.8008,-2.5 -3.7,-1.40002 -6.3008,-3 -6.3008,-3 -0.4,-0.30002 -1,-0.40039 -1.5,-0.40039 H 1811 v -2.80078 c 0,-1.70001 -1.3,-3 -3,-3 h -159.3008 c -1.4001,0 -2.4983,0.90119 -2.8984,2.20117 L 1645,856.5 h -210.5 l -296.0996,-472.19922 81.5996,-0.5 c 1.5,0 2.8,-1.10156 3,-2.60156 0,0 0.9004,-6.69885 4.9004,-13.29883 4,-6.59997 10.6992,-13 23.6992,-13 12.9,0 19.2004,6.49923 22.9004,13.19922 3.7,6.69998 4.1992,13.5 4.1992,13.5 0.1,1.59997 1.4,2.80078 3,2.80078 h 200.4004 c 1.2,0 2.4008,-0.70038 2.8008,-1.90039 0,0 2.6,-7.00003 8,-14 5.4,-6.99997 13.2001,-13.59961 23.5,-13.59961 10.3,0 15.6996,6.29965 19.0996,13.09961 3.4,6.79999 4.0996,13.69922 4.0996,13.69922 0.1999,1.5 1.5,2.70117 3,2.70117 h 201.5996 c 1.5,0 2.6999,-1.1 3,-2.5 0,0 1.4012,-7.0008 5.7012,-13.80078 4.3001,-6.79999 11.3987,-13.29922 23.7988,-13.19922 12.4,0.20002 18.1008,6.49923 21.3008,13.19922 3.2001,6.69995 3.4004,13.40039 3.4004,13.40039 0.1,1.60001 1.3996,2.90039 3.0996,2.90039 L 1842.6992,383.5 c 1,0 1.9004,-0.50079 2.4004,-1.30078 0,0 20.4008,-29.29889 44.8008,-47.79883 24.8001,-18.89996 49.0991,-32.90121 98.2988,-40.70117 6.0625,-0.9625 12.1385,-1.45801 18.1309,-1.58789 z" />
</g>
<g
   id="roof"
   inkscape:label="roof"
   style="display:inline"
   sodipodi:insensitive="true"><path
     style="display:inline;fill:none;stroke:#ff0000;stroke-width:2;stroke-linejoin:round"
     d="M 404.39999,406.59998 467,499.39996 l -0.20001,146.29999 39.5,26.79999 v 8.70001 l 134.29999,196.09998 c 0,0 2.09997,6.79998 7.70001,8.90002 5.5,2.09998 13.20001,-1.29999 13.20001,-1.29999 h 278.29999 l 8.5,11.90003 L 1064.5,814.70001 h 110.2 l 44.6999,-31.5 -252.09973,-363.80005 h -49.79999 l 10.90003,-18.79998 H 846.50018 V 353.89996 H 404.29999 Z"
     id="path123247"
     inkscape:label="roof-1" /><path
     style="display:inline;fill:none;stroke:#ff0000;stroke-width:2;stroke-linejoin:round"
     d="m 369.39999,355.19998 h -52.29998 l -0.20002,18.70001 c 0,0 -12.6,5.10001 -18.20001,9.20002 -5.6,4.1 -14.20001,16.1 -14.20001,16.1 l -3.20001,13 -12.4,0.5 v 205.60004 h 37 V 693.60004 762 c 0,0 -2.6,8.90002 11.5,23 14,14 27.10001,20.20001 27.10001,20.20001 l 61.10001,-105.59997 h 16.89999 v -27.09998 l -0.10001,0.29999 -15.89999,-27.40003 V 497.70001 l -37,-59.20001 z"
     id="floor-2-4"
     inkscape:label="roof-3" /></g><g
   id="shops"
   style="display:inline"
   transform="translate(0,1.8862217e-5)">
	
	
	
	
	
	
	
	
	
	
	
	
	
	
	
	
	
	
	
	
	
	
	
	
	
	
	
	
	
	
	
	
	
	
	
	
	
	
	
	
	
	
	
	
	
	
	
	
		
	
		
	
		
	
		
	
		
	
		
	
	
	
	
	
	
	
	
	
	
	
	
	
	
	
	
	
	
	
	
	
	
	
	
	
	
	
	
	
	
	
	
	
	
	
	
	
	
	
	
	
	
	
	
	
	
	
	
	
	
	
	
	
	
	
	
	
	
	
	
	
	
	
	
	
	
	
	
	
	
	
	
	
	
	
	
	
	
	
	
	
	
	
	
	
	
	
	
	
	
	
	
	
	
	
	
	
	
	
	
	
	
	
	
	
	
	
	
	
	
	
		
<path
   style="fill:none;stroke:#ff0000;stroke-width:2;stroke-linejoin:round"
   d="m 2430.7545,448.08398 v 42.47135 h 20.6739 c 0,0 2.4718,0.44943 3.146,2.47188 0.6741,2.02244 -0.6742,4.04489 -0.6742,4.04489 l -30.1119,29.66253 16.4042,15.2807 12.1347,-20.67389 22.0222,12.80882 26.0671,-45.61737 c 0,0 -4.2696,-14.15712 -15.2807,-27.19066 -11.0111,-13.03353 -36.1793,-14.15711 -36.1793,-14.15711 z"
   id="Shape-2-81" /><path
   style="fill:none;stroke:#ff0000;stroke-width:2;stroke-linejoin:round"
   d="m 2421.5411,528.53236 17.0784,15.95484 -16.629,28.08952 20.8986,12.80882 -24.2693,38.42646 -47.4151,-32.35912 -1.573,-11.46053 z"
   id="Shape-2-72" /><path
   style="fill:none;stroke:#ff0000;stroke-width:2;stroke-linejoin:round"
   d="m 2322.4413,506.95961 h 53.2577 c 0,0 9.4381,-2.24716 16.1796,8.76393 6.7415,11.01109 -1.7977,20.22445 -1.7977,20.22445 l -19.5504,19.77502 z"
   id="Shape-2-79" /><path
   style="fill:none;stroke:#ff0000;stroke-width:2;stroke-linejoin:round"
   d="m 2306.4864,508.98205 53.2578,54.15659 -16.1796,16.17957 c 0,0 -2.2472,2.24716 -5.1685,2.69659 -2.9213,0.44943 -6.5167,-2.92131 -6.5167,-2.92131 l -58.6509,-58.4262 c 0,0 -2.9214,-4.04489 -1.3483,-8.08978 1.573,-4.04489 8.0897,-3.82017 8.0897,-3.82017 z"
   id="Shape-2-92" /><path
   style="fill:none;stroke:#ff0000;stroke-width:2;stroke-linejoin:round"
   d="m 2371.3983,595.39195 45.1271,30.82627 -20.339,33.05085 -30.9851,-20.97458 c 0,0 4.1313,-12.87076 5.5614,-21.61017 1.4301,-8.7394 0.6356,-21.29237 0.6356,-21.29237 z"
   id="Shape-2-71" /><path
   style="fill:none;stroke:#ff0000;stroke-width:2;stroke-linejoin:round"
   d="m 2363.4534,642.10805 31.1441,21.13348 -35.2755,55.9322 -35.911,-25.74152 c 0,0 15.8899,-11.44068 23.517,-21.92797 7.6271,-10.48729 16.5254,-29.39619 16.5254,-29.39619 z"
   id="Shape-2-70" /><path
   style="fill:none;stroke:#ff0000;stroke-width:2;stroke-linejoin:round"
   d="m 2320.5509,695.33898 36.7055,27.01272 -15.4132,23.83474 -126.8008,0.3178 -5.8793,-5.72034 23.1992,-23.19915 c 0,0 2.8602,-3.01907 5.0847,-3.65466 2.2246,-0.6356 5.8793,0.15889 5.8793,0.15889 0,0 21.4512,3.17797 41.1546,-2.38347 19.7034,-5.56144 36.07,-16.36653 36.07,-16.36653 z"
   id="Shape-2-69" /><path
   style="fill:none;stroke:#ff0000;stroke-width:2;stroke-linejoin:round"
   d="m 2207.2564,742.53178 8.1038,6.67373 h 46.0805 v 64.03602 h -73.411 l -7.4683,-11.75848 v -31.93856 z"
   id="Shape-2-62" /><path
   style="fill:none;stroke:#ff0000;stroke-width:2;stroke-linejoin:round"
   d="m 1957.9517,780.21443 h 184.7167 v 19.99974 h -151.9081 v 57.30261 h -33.0333 z"
   id="Shape-2-86" /><path
   style="fill:none;stroke:#ff0000;stroke-width:2;stroke-linejoin:round"
   d="m 1803.7964,780.21443 h 149.8857 v 76.85292 h -110.1109 v -25.1682 h -39.7748 z"
   id="Shape-2-87" /><path
   style="fill:none;stroke:#ff0000;stroke-width:2;stroke-linejoin:round"
   d="m 1715.483,780.43915 h 84.2686 v 51.90943 h -16.1796 v 19.32559 h -68.089 z"
   id="Shape-2-88" /><path
   style="fill:none;stroke:#ff0000;stroke-width:2;stroke-linejoin:round"
   d="m 1644.6974,780.21443 h 65.8418 v 71.23502 h -66.0665 z"
   id="Shape-2-39" /><path
   style="fill:none;stroke:#ff0000;stroke-width:2;stroke-linejoin:round"
   d="m 1549.6425,780.21443 h 92.1336 v 19.55031 h -53.033 v 57.0779 h -46.5162 v -68.53843 c 0,0 0.6741,-4.71903 2.0224,-6.06733 1.3483,-1.3483 5.3932,-2.02245 5.3932,-2.02245 z"
   id="Shape-2-38" /><path
   style="fill:none;stroke:#ff0000;stroke-width:2;stroke-linejoin:round"
   d="m 1417.06,780.66387 h 65.6171 c 0,0 3.3707,-0.44944 5.6179,1.79772 2.2471,2.24717 1.573,4.71904 1.573,4.71904 v 12.58411 h -35.2804 v 30.33668 h -37.0782 l -15.5054,-24.26935 z"
   id="Shape-2-xxxx" /><path
   style="fill:none;stroke:#ff0000;stroke-width:2;stroke-linejoin:round"
   d="m 1271.2192,584.71139 c 0,0 26.0671,-8.08978 38.4265,-13.9324 12.3593,-5.84262 31.2355,-17.52786 31.2355,-17.52786 0,0 16.1796,-9.66279 27.1907,-2.69659 11.011,6.9662 11.4605,7.41563 13.7076,11.68524 2.2472,4.26961 4.7191,14.15712 4.7191,14.15712 l -0.2247,156.62714 28.7636,45.8421 -14.1571,22.47161 z"
   id="Shape-2-20" /><path
   style="fill:none;stroke:#ff0000;stroke-width:2;stroke-linejoin:round"
   d="m 1244.9682,476.37712 4.6081,7.15042 c 0,0 1.4301,2.22458 1.9068,4.13136 0.4766,1.90678 -0.1589,6.35593 -0.1589,7.94491 0,1.58899 0.4767,18.9089 2.0656,24.62924 1.589,5.72034 6.0382,20.33899 6.0382,20.33899 0,0 3.019,3.49576 2.2245,7.30932 -0.7944,3.81356 -3.1779,5.40254 -3.1779,5.40254 l -9.375,5.24364 -38.1356,-60.06356 z"
   id="Shape-2-19" /><path
   style="fill:none;stroke:#ff0000;stroke-width:2;stroke-linejoin:round"
   d="m 1222.7225,383.26271 v 20.33899 c 0,0 -7.3094,-0.95339 -11.2818,4.29025 -3.9725,5.24364 -0.3178,14.30085 -0.3178,14.30085 l 32.2563,51.32415 -33.3686,22.08686 -71.9809,-112.0233 z"
   id="Shape-2-18" /><path
   style="fill:none;stroke:#ff0000;stroke-width:2;stroke-linejoin:round"
   d="m 1245.7139,417.97202 h 64.8306 c 0,0 7.1909,-0.89887 10.2246,6.17969 3.0337,7.07856 -1.6854,12.69646 -1.6854,12.69646 l -33.3703,35.3928 c 0,0 -3.3708,4.15724 -7.6404,4.38196 -4.2696,0.22472 -10.5616,-4.26961 -10.5616,-4.26961 l -25.3929,-41.57248 c 0,0 -4.2696,-4.71904 -1.6854,-9.43808 2.5842,-4.71904 5.2808,-3.37074 5.2808,-3.37074 z"
   id="Shape-2-17" /><path
   style="fill:none;stroke:#ff0000;stroke-width:2;stroke-linejoin:round"
   d="m 1224.9277,403.70254 v -17.4155 h 266.8504 v 13.03354 c 0,0 -0.4494,2.1348 -1.7977,3.93253 -1.3483,1.79773 -5.7303,2.47188 -5.7303,2.47188 h -49.4376 c 0,0 -4.6066,1.46065 -9.8875,-2.80895 -5.2808,-4.26961 -8.6515,-8.53922 -8.6515,-8.53922 h -77.8731 c 0,0 -0.6356,4.77572 -7.786,7.79479 -7.1504,3.01907 -16.0487,1.58898 -16.0487,1.58898 z"
   id="Shape-2-16" /><path
   style="fill:none;stroke:#ff0000;stroke-width:2;stroke-linejoin:round"
   d="m 1502.3397,388.19713 h 93.9527 v 33.36007 h -86.5996 c 0,0 -3.178,0 -4.9258,-1.27118 -1.7479,-1.27119 -2.7013,-6.19704 -2.7013,-6.19704 z"
   id="Shape-2-06" /><rect
   style="fill:none;stroke:#ff0000;stroke-width:2;stroke-linejoin:round"
   id="Shape-2-05"
   width="114.72458"
   height="33.050846"
   x="1599.3114"
   y="388.34747" /><rect
   style="fill:none;stroke:#ff0000;stroke-width:2;stroke-linejoin:round"
   id="Shape-2-04"
   width="54.025425"
   height="33.050846"
   x="1717.3729"
   y="388.34747" /><rect
   style="fill:none;stroke:#ff0000;stroke-width:2;stroke-linejoin:round"
   id="Shape-2-03"
   width="34.957626"
   height="33.050846"
   x="1774.5763"
   y="388.50635" /><rect
   style="fill:none;stroke:#ff0000;stroke-width:2;stroke-linejoin:round"
   id="Shape-2-02"
   width="91.525421"
   height="33.209747"
   x="1812.7119"
   y="388.34747" /><path
   style="fill:none;stroke:#ff0000;stroke-width:2;stroke-linejoin:round"
   d="m 1906.4619,369.59746 c 0,0 31.7796,-27.9661 85.8051,-33.36865 54.0254,-5.40254 99.1525,19.3856 99.1525,19.3856 l -47.9873,48.94068 c 0,0 -16.5254,-10.80509 -49.5763,-5.40255 -33.0508,5.40255 -45.7627,22.56356 -45.7627,22.56356 h -41.3135 z"
   id="Shape-2-01" /><path
   style="fill:none;stroke:#ff0000;stroke-width:2;stroke-linejoin:round"
   d="m 2139.089,412.1822 c 0,0 19.7034,13.98306 31.7796,18.43221 12.0763,4.44915 37.5,12.07627 37.5,12.07627 v 47.98729 h -98.1991 c 0,0 -3.178,-0.3178 -5.7203,-0.95339 -2.5424,-0.6356 -4.1314,-4.44916 -4.1314,-4.44916 0,0 0.3178,-6.99152 -1.2712,-12.71186 -1.589,-5.72034 -5.4025,-17.47881 -5.4025,-17.47881 z"
   id="Shape-2-85" /><path
   style="fill:none;stroke:#ff0000;stroke-width:2;stroke-linejoin:round"
   d="m 2212.5551,443.36494 c 0,0 28.539,4.71904 42.6961,4.94376 14.1571,0.22471 43.3702,-0.67415 43.3702,-0.67415 v 42.47135 h -86.0663 z"
   id="Shape-2-84" /><rect
   style="fill:none;stroke:#ff0000;stroke-width:2;stroke-linejoin:round"
   id="Shape-2-83"
   width="33.257988"
   height="43.1455"
   x="2302.2168"
   y="447.40982" /><rect
   style="fill:none;stroke:#ff0000;stroke-width:2;stroke-linejoin:round"
   id="Shape-2-80"
   width="35.280434"
   height="42.920784"
   x="2339.2949"
   y="447.63455" /><rect
   style="fill:none;stroke:#ff0000;stroke-width:2;stroke-linejoin:round"
   id="Shape-2-82"
   width="48.763401"
   height="42.471352"
   x="2378.6204"
   y="447.85925" /><path
   style="fill:none;stroke:#ff0000;stroke-width:2;stroke-linejoin:round"
   d="m 2320.4188,621.11541 29.8873,-30.11197 c 0,0 3.8202,-2.92131 6.5168,-1.79772 2.6966,1.12358 4.0449,7.64034 4.0449,7.64034 0,0 -0.2248,19.10088 -3.8202,32.35913 -3.5955,13.25825 -8.5392,20.44917 -8.5392,20.44917 0,0 -2.2472,2.69659 -4.7191,3.82017 -2.4719,1.12358 -8.3145,-1.79773 -8.3145,-1.79773 l -17.0784,-16.85371 c 0,0 -2.4719,-1.79773 -2.0224,-6.06733 0.4494,-4.26961 4.0448,-7.64035 4.0448,-7.64035 z"
   id="Shape-2-73" /><path
   style="fill:none;stroke:#ff0000;stroke-width:2;stroke-linejoin:round"
   d="m 2291.4305,662.68789 16.4042,15.95485 c 0,0 2.4719,3.82017 2.4719,7.19092 0,3.37074 -4.2696,6.06733 -4.2696,6.06733 0,0 -9.6628,5.6179 -25.6176,9.43808 -15.9549,3.82017 -28.7637,2.47188 -28.7637,2.47188 0,0 -3.146,0.89886 -4.9437,-2.02245 -1.7978,-2.92131 0.4494,-7.86506 0.4494,-7.86506 l 30.7861,-30.5614 c 0,0 3.3707,-3.37074 6.5168,-3.59546 3.146,-0.22471 6.9662,2.92131 6.9662,2.92131 z"
   id="Shape-2-74" /><path
   style="fill:none;stroke:#ff0000;stroke-width:2;stroke-linejoin:round"
   d="m 2277.0486,543.58834 45.6174,44.94323 c 0,0 2.4719,2.69659 2.2472,5.39318 -0.2247,2.6966 -2.2472,4.94376 -2.2472,4.94376 l -32.1344,32.35912 c 0,0 -2.0224,1.3483 -4.4943,1.79773 -2.4719,0.44943 -5.6179,-1.12358 -5.6179,-1.12358 l -46.9657,-47.4151 c 0,0 -2.0224,-3.37075 -1.7977,-5.16847 0.2247,-1.79773 2.2471,-5.16848 2.2471,-5.16848 l 31.9097,-31.68497 c 0,0 2.9213,-2.6966 5.3932,-2.47188 2.4719,0.22472 5.8426,3.59546 5.8426,3.59546 z"
   id="Shape-2-54" /><path
   style="fill:none;stroke:#ff0000;stroke-width:2;stroke-linejoin:round"
   d="m 2244.9142,510.77978 11.4605,11.68524 c 0,0 2.2472,2.02245 2.4719,4.49433 0.2247,2.47187 -1.7977,5.16847 -1.7977,5.16847 l -31.9097,31.68497 c 0,0 -2.6966,2.6966 -5.1685,3.14603 -2.4718,0.44943 -6.0673,-1.79773 -6.0673,-1.79773 l -33.0333,-33.03327 c 0,0 -7.4156,-6.74149 -3.5954,-15.73013 3.8201,-8.98865 15.2807,-8.53922 15.2807,-8.53922 l 46.9656,0.44944 2.9213,0.44943 z"
   id="Shape-2-53" /><path
   style="fill:none;stroke:#ff0000;stroke-width:2;stroke-linejoin:round"
   d="m 2224.9145,595.72248 44.7185,44.71852 c 0,0 2.2472,2.24716 2.6966,4.94375 0.4494,2.69659 -1.573,4.94376 -1.573,4.94376 l -26.7412,27.19065 c 0,0 -1.7978,2.02244 -4.4944,2.02244 -2.6966,0 -6.292,-2.47187 -6.292,-2.47187 l -45.3927,-45.61738 c 0,0 -2.6966,-2.47188 -2.6966,-5.16847 0,-2.6966 2.9213,-6.06734 2.9213,-6.06734 l 25.8424,-25.84235 c 0,0 2.6966,-1.3483 4.9438,-1.57302 2.2471,-0.22471 6.0673,2.92131 6.0673,2.92131 z"
   id="Shape-2-52" /><path
   style="fill:none;stroke:#ff0000;stroke-width:2;stroke-linejoin:round"
   d="m 2176.8252,640.66571 46.9657,46.51624 c 0,0 1.7977,2.6966 2.2472,5.39319 0.4494,2.69659 -2.2472,5.16847 -2.2472,5.16847 l -24.7188,24.94349 c 0,0 -2.4718,2.47188 -4.719,2.92131 -2.2472,0.44943 -6.5168,-1.79773 -6.5168,-1.79773 l -46.2915,-46.06681 c 0,0 -2.2472,-4.2696 -2.2472,-6.29205 0,-2.02244 3.3708,-6.06733 3.3708,-6.06733 l 25.1682,-24.71878 c 0,0 1.573,-1.79773 3.8202,-2.02244 2.2471,-0.22472 5.1684,2.02244 5.1684,2.02244 z"
   id="Shape-2-50" /><path
   style="fill:none;stroke:#ff0000;stroke-width:2;stroke-linejoin:round"
   d="m 2132.5562,687.8561 42.9207,43.1455 c 0,0 3.8202,4.26961 4.0449,7.19092 0.2247,2.92131 -2.2471,5.84261 -2.2471,5.84261 l -15.056,15.50542 -2.6966,2.47188 -2.2472,0.67414 -8.7639,0.22472 -2.9213,-0.44943 -2.4719,-1.3483 -42.2466,-42.47135 c 0,0 -3.146,-2.92131 -2.4719,-5.6179 0.6742,-2.6966 2.6966,-6.29205 2.6966,-6.29205 l 19.3256,-18.87616 c 0,0 2.4719,-2.02244 5.1685,-2.24716 2.6965,-0.22472 6.9662,2.24716 6.9662,2.24716 z"
   id="Shape-2-47" /><path
   style="fill:none;stroke:#ff0000;stroke-width:2;stroke-linejoin:round"
   d="m 2140.1965,511.22922 62.6958,62.24637 c 0,0 3.5955,3.59545 3.3707,5.6179 -0.2247,2.02244 -2.4718,6.51677 -2.4718,6.51677 l -25.8424,25.1682 c 0,0 -2.0224,2.24717 -4.4943,2.47188 -2.4719,0.22472 -5.8426,-1.79773 -5.8426,-1.79773 l -72.8081,-73.03274 c 0,0 -4.0448,-3.82018 -3.5954,-6.51677 0.4494,-2.69659 2.4719,-6.74148 3.3707,-8.98865 0.8989,-2.24716 2.2472,-9.66279 4.0449,-11.90995 1.7977,-2.24716 6.5168,-3.14603 6.5168,-3.14603 l 28.7637,0.22472 2.9213,0.44943 z"
   id="Shape-2-51" /><path
   style="fill:none;stroke:#ff0000;stroke-width:2;stroke-linejoin:round"
   d="m 2088.9612,552.12755 68.089,68.08899 c 0,0 2.9213,2.92131 3.146,6.29205 0.2248,3.37075 -3.5954,5.61791 -3.5954,5.61791 l -25.1682,25.16821 c 0,0 -1.573,2.02244 -3.8202,2.24716 -2.2472,0.22471 -6.2921,-2.02245 -6.2921,-2.02245 l -71.9091,-72.3586 c 0,0 -3.5955,-4.2696 -3.3708,-7.41563 0.2248,-3.14602 3.8202,-6.51677 3.8202,-6.51677 0,0 11.91,-5.84262 15.056,-8.76393 3.146,-2.9213 9.8875,-9.66279 11.0111,-10.56165 1.1236,-0.89887 2.4719,-2.6966 5.3932,-2.6966 2.9213,0 7.6403,2.92131 7.6403,2.92131 z"
   id="Shape-2-49" /><path
   style="fill:none;stroke:#ff0000;stroke-width:2;stroke-linejoin:round"
   d="m 2028.7373,584.71139 81.7967,81.34724 c 0,0 2.4719,3.37075 2.6966,6.29206 0.2247,2.92131 -3.1461,6.29205 -3.1461,6.29205 l -18.6514,18.87615 c 0,0 -2.2472,2.47188 -4.9438,2.92131 -2.6965,0.44944 -6.5167,-2.24716 -6.5167,-2.24716 l -93.7067,-93.93134 c 0,0 -3.5954,-3.82018 -3.3707,-6.9662 0.2247,-3.14603 3.146,-5.16847 3.146,-5.16847 l 8.0898,-8.08979 2.6966,-2.47187 2.6966,-0.89887 c 0,0 6.9662,0.89887 11.2358,0.67415 4.2696,-0.22472 9.2134,-1.12358 10.5617,-1.12358 1.3483,0 7.4156,4.49432 7.4156,4.49432 z"
   id="Shape-2-48" /><path
   style="fill:none;stroke:#ff0000;stroke-width:2;stroke-linejoin:round"
   d="m 1977.2773,611.90205 45.2987,44.98011 -35.2804,35.50515 -45.074,-44.98011 c 0,0 -2.9213,-2.92131 -3.146,-6.06734 -0.2248,-3.14603 3.146,-5.6179 3.146,-5.6179 l 24.494,-24.9435 c 0,0 3.5955,-1.57301 5.6179,-1.57301 2.0225,0 4.9438,2.6966 4.9438,2.6966 z"
   id="Shape-2-46"
   sodipodi:nodetypes="ccccsccsc" /><path
   style="fill:none;stroke:#ff0000;stroke-width:2;stroke-linejoin:round"
   d="m 2068.5121,703.1368 48.7634,48.31397 c 0,0 1.7977,3.14602 1.3483,6.29205 -0.4495,3.14603 -6.5168,5.16847 -6.5168,5.16847 h -48.314 c 0,0 -3.3707,0.22472 -4.9437,-0.22472 -1.5731,-0.44943 -4.7191,-2.92131 -4.7191,-2.92131 l -21.348,-21.79746 z"
   id="Shape-2-45" /><path
   style="fill:none;stroke:#ff0000;stroke-width:2;stroke-linejoin:round"
   d="m 1932.1094,657.51942 93.9313,93.48192 c 0,0 2.9213,3.59545 2.0225,6.74148 -0.8989,3.14603 -6.9662,5.16847 -6.9662,5.16847 h -50.3365 c 0,0 -1.7977,0.44943 -4.0449,-0.67415 -2.2471,-1.12358 -3.8201,-3.37074 -3.8201,-3.37074 l -65.6171,-65.61711 c 0,0 -3.3708,-3.59546 -3.5955,-6.06734 -0.2247,-2.47188 2.6966,-5.84262 2.6966,-5.84262 l 25.1682,-24.94349 c 0,0 2.6966,-2.24716 5.1685,-2.24716 2.4719,0 5.3932,3.37074 5.3932,3.37074 z"
   id="Shape-2-44" /><path
   style="fill:none;stroke:#ff0000;stroke-width:2;stroke-linejoin:round"
   d="m 1887.3908,702.91208 47.6399,47.86454 c 0,0 2.9213,2.92131 2.2471,7.41563 -0.6741,4.49432 -6.292,4.71904 -6.292,4.71904 h -97.3021 c 0,0 -6.5168,-0.67415 -7.8651,-3.82017 -1.3483,-3.14603 2.4719,-9.6628 2.4719,-9.6628 l 46.741,-46.51624 c 0,0 3.3707,-3.37074 6.0673,-3.37074 2.6966,0 6.292,3.37074 6.292,3.37074 z"
   id="Shape-2-43" /><path
   style="fill:none;stroke:#ff0000;stroke-width:2;stroke-linejoin:round"
   d="m 1689.1912,754.14736 67.4149,-66.96541 c 0,0 3.146,-2.92131 5.8426,-3.14602 2.6966,-0.22472 6.0673,3.14602 6.0673,3.14602 l 39.9995,39.99947 c 0,0 1.7977,2.02245 1.7977,4.49433 0,2.47187 -2.0224,4.94375 -2.0224,4.94375 l -26.2918,26.51651 -2.4719,2.02244 -2.6966,0.89887 -2.2472,0.22471 h -78.2012 c 0,0 -6.292,0.67415 -8.5392,-3.14602 -2.2471,-3.82018 1.3483,-8.98865 1.3483,-8.98865 z"
   id="Shape-2-36" /><path
   style="fill:none;stroke:#ff0000;stroke-width:2;stroke-linejoin:round"
   d="m 1721.3256,617.96938 h 41.3478 c 0,0 4.9437,0 6.9662,1.79773 2.0224,1.79773 2.9213,6.9662 2.9213,6.9662 v 16.62899 1.79773 l -1.3483,2.47188 -31.685,31.23554 -2.2471,2.24717 -2.0225,0.89886 -2.4719,0.22472 h -14.1571 c 0,0 -2.2471,0.44943 -4.2696,-1.12358 -2.0224,-1.57302 -3.8202,-7.64035 -3.8202,-7.64035 v -45.84209 c 0,0 1.1236,-6.06734 3.3708,-7.86507 2.2472,-1.79773 7.4156,-1.79773 7.4156,-1.79773 z"
   id="Shape-2-32" /><path
   style="fill:none;stroke:#ff0000;stroke-width:2;stroke-linejoin:round"
   d="m 1718.4043,529.65594 h 48.7634 c 0,0 3.3708,-0.44943 5.6179,1.57301 2.2472,2.02245 2.2472,6.06734 2.2472,6.06734 v 64.0441 c 0,0 0,2.24716 -1.1236,3.82017 -1.1236,1.57301 -6.0673,2.24716 -6.0673,2.24716 h -50.5612 c 0,0 -2.6966,0.44943 -4.9437,-1.34829 -2.2472,-1.79773 -2.6966,-6.29206 -2.6966,-6.29206 v -59.32506 c 0,0 -0.4494,-5.84262 1.3483,-8.31449 1.7977,-2.47188 7.4156,-2.47188 7.4156,-2.47188 z"
   id="Shape-2-26" /><path
   style="fill:none;stroke:#ff0000;stroke-width:2;stroke-linejoin:round"
   d="m 1792.5606,529.43122 h 68.089 c 0,0 3.5955,-1.12358 5.6179,0.67415 2.0225,1.79773 2.6966,4.26961 2.6966,4.26961 v 12.35939 c 0,0 0.4495,1.34829 -0.4494,2.92131 -0.8989,1.57301 -54.1566,53.93187 -54.1566,53.93187 0,0 -0.6741,1.3483 -2.4719,2.92131 -1.7977,1.57301 -4.9437,1.34829 -4.9437,1.34829 h -16.629 c 0,0 -2.4719,0.22472 -4.4943,-1.79772 -2.0225,-2.02245 -2.6966,-5.61791 -2.6966,-5.61791 v -62.6958 c 0,0 0.6741,-4.94376 2.2471,-6.74148 1.573,-1.79773 7.1909,-1.57302 7.1909,-1.57302 z"
   id="Shape-2-27" /><path
   style="fill:none;stroke:#ff0000;stroke-width:2;stroke-linejoin:round"
   d="m 1826.0433,435.94931 h 92.3584 c 0,0 5.1684,-0.67415 7.865,2.69659 2.6966,3.37074 1.3483,8.76393 1.3483,8.76393 0,0 -6.0673,12.80882 -7.865,21.34804 -1.7978,8.53921 -2.2472,22.69633 -2.2472,22.69633 0,0 -1.1236,10.56165 -7.6403,16.40427 -6.5168,5.84262 -17.0785,7.64035 -17.0785,7.64035 h -67.6395 c 0,0 -3.8202,0.67415 -6.7415,-2.24716 -2.9213,-2.92131 -2.9213,-8.3145 -2.9213,-8.3145 v -58.20148 c 0,0 0,-6.9662 2.6966,-9.21336 2.6966,-2.24716 7.865,-1.57301 7.865,-1.57301 z"
   id="Shape-2-07" /><path
   style="fill:none;stroke:#ff0000;stroke-width:2;stroke-linejoin:round"
   d="m 1801.3246,435.49988 v 72.13388 c 0,0 0.4494,2.69659 -2.0225,4.71904 -2.4719,2.02244 -6.292,3.37074 -6.292,3.37074 h -46.741 c 0,0 -2.6966,0 -5.1685,-2.47188 -2.4718,-2.47188 -3.146,-6.9662 -3.146,-6.9662 v -61.57222 c 0,0 0,-4.71904 2.9213,-6.9662 2.9213,-2.24716 7.1909,-2.24716 7.1909,-2.24716 z"
   id="Shape-2-08" /><path
   style="fill:none;stroke:#ff0000;stroke-width:2;stroke-linejoin:round"
   d="m 1664.2477,471.28382 v -35.78394 h 51.0106 c 0,0 3.8202,1.12358 5.8426,2.47187 2.0225,1.3483 3.146,6.29206 3.146,6.29206 l -0.3186,27.65726 z"
   id="Shape-2-90" /><path
   style="fill:none;stroke:#ff0000;stroke-width:2;stroke-linejoin:round"
   d="m 1723.9283,476.06323 0.3186,31.79524 c 0,0 0,3.14603 -3.3707,5.39319 -3.3708,2.24716 -6.2921,2.02245 -6.2921,2.02245 h -82.4708 v -23.5952 h 32.1344 V 475.7446 Z"
   id="Shape-2-09" /><path
   style="fill:none;stroke:#ff0000;stroke-width:2;stroke-linejoin:round"
   d="m 1537.5078,435.72459 h 51.2353 v 55.95432 h 40.2242 v 23.81991 h -81.572 c 0,0 -4.2696,0.22472 -6.7415,-1.12358 -2.4718,-1.3483 -3.146,-7.41563 -3.146,-7.41563 z"
   id="Shape-2-10" /><path
   style="fill:none;stroke:#ff0000;stroke-width:2;stroke-linejoin:round"
   d="m 1666.2702,529.43122 h 23.8199 c 0,0 4.719,0 6.292,1.57302 1.573,1.57301 2.2472,5.6179 2.2472,5.6179 v 64.0441 c 0,0 -0.2247,2.92131 -1.7977,4.49432 -1.5731,1.57301 -4.7191,2.24716 -4.7191,2.24716 h -26.067 z"
   id="Shape-2-89" /><path
   style="fill:none;stroke:#ff0000;stroke-width:2;stroke-linejoin:round"
   d="m 1662.6747,529.43122 v 77.9765 h -23.5952 c 0,0 -3.8202,0.67415 -5.8426,-1.57301 -2.0224,-2.24716 -2.2472,-7.41563 -2.2472,-7.41563 V 537.521 c 0,0 -0.2247,-4.71904 2.0225,-6.29205 2.2471,-1.57301 5.3932,-2.24716 5.3932,-2.24716 z"
   id="Shape-2-24" /><path
   style="fill:none;stroke:#ff0000;stroke-width:2;stroke-linejoin:round"
   d="m 1591.8891,529.20651 h 22.2469 c 0,0 3.146,0.22471 4.9438,1.79773 1.7977,1.57301 2.4719,5.39318 2.4719,5.39318 v 64.94297 c 0,0 -0.2248,2.47187 -1.7978,3.59546 -1.573,1.12358 -4.4943,2.24716 -4.4943,2.24716 h -24.2693 z"
   id="Shape-2-23" /><path
   style="fill:none;stroke:#ff0000;stroke-width:2;stroke-linejoin:round"
   d="m 1587.1701,528.98179 v 78.20122 h -20.8986 c 0,0 -3.5955,0.22471 -5.6179,-1.12358 -2.0225,-1.3483 -2.9213,-6.06734 -2.9213,-6.06734 v -64.49353 c 0,0 -0.2247,-2.92131 2.0224,-4.71904 2.2472,-1.79773 6.0674,-1.79773 6.0674,-1.79773 z"
   id="Shape-2-22" /><path
   style="fill:none;stroke:#ff0000;stroke-width:2;stroke-linejoin:round"
   d="m 1486.722,528.53236 h 48.5387 c 0,0 4.9437,-0.44943 6.7414,1.12358 1.7978,1.57301 2.2472,5.16847 2.2472,5.16847 v 65.3924 c 0,0 -0.4494,2.24716 -1.7977,4.04489 -1.3483,1.79773 -6.0674,2.24716 -6.0674,2.24716 h -50.1117 c 0,0 -2.6966,0.22471 -4.719,-1.79773 -2.0224,-2.02245 -2.6966,-7.19092 -2.6966,-7.19092 v -61.79694 c 0,0 0.6742,-4.49432 1.7977,-5.84262 1.1236,-1.34829 6.0674,-1.34829 6.0674,-1.34829 z"
   id="Shape-2-56" /><path
   style="fill:none;stroke:#ff0000;stroke-width:2;stroke-linejoin:round"
   d="m 1412.3409,529.20651 h 48.0893 c 0,0 5.6179,0.89886 6.9662,2.24716 1.3483,1.34829 1.3483,6.06733 1.3483,6.06733 v 62.02166 c 0,0 0,3.14602 -1.1236,4.94375 -1.1236,1.79773 -5.3932,3.14603 -5.3932,3.14603 h -50.7858 c 0,0 -3.3708,0 -5.3932,-1.3483 -2.0225,-1.34829 -2.4719,-6.06733 -2.4719,-6.06733 v -62.02166 c 0,0 0,-5.6179 2.0224,-7.19091 2.0225,-1.57302 6.7415,-1.79773 6.7415,-1.79773 z"
   id="Shape-2-21" /><path
   style="fill:none;stroke:#ff0000;stroke-width:2;stroke-linejoin:round"
   d="m 1412.3409,617.96938 h 44.4938 c 0,0 6.0674,0.44943 7.8651,2.47188 1.7977,2.02244 2.4719,7.19092 2.4719,7.19092 v 47.19038 c 0,0 -0.2247,2.6966 -2.0225,4.94376 -1.7977,2.24716 -6.9662,2.47188 -6.9662,2.47188 h -45.3926 c 0,0 -4.0449,-0.22472 -5.8427,-1.79773 -1.7977,-1.57302 -3.3707,-6.51677 -3.3707,-6.51677 v -45.84209 c 0,0 0.4494,-4.71904 2.0224,-6.9662 1.5731,-2.24716 6.7415,-3.14603 6.7415,-3.14603 z"
   id="Shape-2-28" /><path
   style="fill:none;stroke:#ff0000;stroke-width:2;stroke-linejoin:round"
   d="m 1491.8904,617.96938 h 42.2467 c 0,0 5.3932,0.89887 6.9662,2.69659 1.573,1.79773 1.573,6.06734 1.573,6.06734 v 47.86454 c 0,0 0.4494,3.14602 -1.3483,4.94375 -1.7977,1.79773 -5.8426,2.6966 -5.8426,2.6966 h -45.168 c 0,0 -3.146,0.67415 -5.3932,-1.12358 -2.2471,-1.79773 -4.0448,-8.08978 -4.0448,-8.08978 v -46.51625 c 0,0 1.573,-5.6179 3.146,-6.9662 1.573,-1.34829 7.865,-1.57301 7.865,-1.57301 z"
   id="Shape-2-29" /><path
   style="fill:none;stroke:#ff0000;stroke-width:2;stroke-linejoin:round"
   d="m 1566.7209,618.1941 h 43.3702 c 0,0 4.2696,0.22471 6.5168,2.47187 2.2472,2.24717 2.0224,7.41564 2.0224,7.41564 v 46.96567 c 0,0 -0.6741,2.92131 -2.2471,4.71904 -1.573,1.79773 -5.6179,2.92131 -5.6179,2.92131 h -44.7185 c 0,0 -2.6966,0 -4.9438,-1.57301 -2.2471,-1.57302 -4.4943,-6.74149 -4.4943,-6.74149 v -47.63982 c 0,0 1.3483,-4.94375 2.6966,-6.51677 1.3483,-1.57301 7.4156,-2.02244 7.4156,-2.02244 z"
   id="Shape-2-30" /><path
   style="fill:none;stroke:#ff0000;stroke-width:2;stroke-linejoin:round"
   d="m 1642.0008,618.1941 h 44.4938 c 0,0 5.3932,-0.44943 7.8651,2.24716 2.4719,2.69659 2.2471,6.74148 2.2471,6.74148 v 47.63982 c 0,0 0,3.82018 -1.7977,5.16848 -1.7977,1.34829 -6.0673,2.69659 -6.0673,2.69659 h -47.4151 c 0,0 -2.9213,0 -5.1685,-1.79773 -2.2472,-1.79773 -3.8202,-7.86506 -3.8202,-7.86506 v -46.29153 c 0,0 0.8989,-5.16847 2.4719,-6.51677 1.573,-1.34829 7.1909,-2.02244 7.1909,-2.02244 z"
   id="Shape-2-31" /><path
   style="fill:none;stroke:#ff0000;stroke-width:2;stroke-linejoin:round"
   d="m 1696.6068,696.39531 v 22.2469 l -0.2247,2.92131 -1.3483,2.02245 -35.2804,35.28043 -3.8202,3.14603 -2.9213,0.67414 -2.2471,0.44944 h -9.4381 c 0,0 -3.3708,0 -5.6179,-2.24716 -2.2472,-2.24717 -3.1461,-7.86507 -3.1461,-7.86507 v -47.19039 c 0,0 0.8989,-5.39319 2.6966,-7.19092 1.7978,-1.79772 5.8427,-2.24716 5.8427,-2.24716 z"
   id="Shape-2-35" /><path
   style="fill:none;stroke:#ff0000;stroke-width:2;stroke-linejoin:round"
   d="m 1567.6198,696.1706 h 42.696 c 0,0 3.1461,0.44943 5.3932,2.02244 2.2472,1.57302 2.9213,7.64035 2.9213,7.64035 v 48.7634 c 0,0 -1.1235,4.94376 -2.6965,6.29206 -1.5731,1.34829 -5.8427,2.02244 -5.8427,2.02244 h -43.1455 c 0,0 -5.3932,-0.44943 -7.4156,-2.24716 -2.0224,-1.79773 -2.9213,-7.41563 -2.9213,-7.41563 v -47.41511 c 0,0 1.573,-5.84262 2.9213,-7.41563 1.3483,-1.57301 8.0898,-2.24716 8.0898,-2.24716 z"
   id="Shape-2-34" /><path
   style="fill:none;stroke:#ff0000;stroke-width:2;stroke-linejoin:round"
   d="m 1490.3174,696.39531 h 41.5725 c 0,0 5.1685,-0.44943 6.9662,1.12358 1.7977,1.57302 3.8202,5.61791 3.8202,5.61791 v 51.45999 c 0,0 -0.2247,3.82018 -1.7977,5.61791 -1.5731,1.79773 -7.191,2.69659 -7.191,2.69659 h -42.4713 c 0,0 -4.9438,0.22472 -7.1909,-1.79773 -2.2472,-2.02244 -2.9213,-8.3145 -2.9213,-8.3145 v -47.63982 c 0,0 0.4494,-4.71904 2.4718,-6.29205 2.0225,-1.57301 6.7415,-2.47188 6.7415,-2.47188 z"
   id="Shape-2-33" /><path
   style="fill:none;stroke:#ff0000;stroke-width:2;stroke-linejoin:round"
   d="m 1413.9139,696.1706 h 43.595 c 0,0 6.292,0.44943 8.0898,3.14602 1.7977,2.6966 1.573,6.74149 1.573,6.74149 v 48.53868 c 0,0 0.2247,3.37075 -1.573,4.94376 -1.7978,1.57301 -7.4157,3.59546 -7.4157,3.59546 h -24.7188 c 0,0 -2.2471,0.44943 -5.1684,-0.22472 -2.9213,-0.67415 -4.9438,-3.82017 -4.9438,-3.82017 l -19.5503,-32.13441 v -24.71878 c 0,0 1.1236,-3.59546 3.146,-4.71904 2.0225,-1.12358 6.9662,-1.34829 6.9662,-1.34829 z"
   id="Shape-2-57" /><path
   style="fill:none;stroke:#ff0000;stroke-width:2;stroke-linejoin:round"
   d="m 1489.4186,435.49988 h 26.7412 c 0,0 3.146,0.22471 5.1685,2.02244 2.0224,1.79773 2.2471,5.16847 2.2471,5.16847 v 65.84183 c 0,0 0,2.6966 -1.573,4.49432 -1.573,1.79773 -5.3932,2.24717 -5.3932,2.24717 h -27.1906 z"
   id="Shape-2-11" /><path
   style="fill:none;stroke:#ff0000;stroke-width:2;stroke-linejoin:round"
   d="m 1485.5984,435.27516 v 79.99895 h -62.9205 c 0,0 -5.8426,0.22471 -7.6404,-1.3483 -1.7977,-1.57301 -2.0224,-6.74149 -2.0224,-6.74149 v -63.59466 c 0,0 0,-3.14603 1.573,-5.39319 1.573,-2.24716 5.8426,-2.92131 5.8426,-2.92131 z"
   id="Shape-2-12" /><path
   style="fill:none;stroke:#ff0000;stroke-width:2;stroke-linejoin:round"
   d="m 1326.9488,445.83682 4.719,6.51677 c 0,0 -18.6514,12.80882 -30.3366,26.5165 -11.6853,13.70769 -19.9998,34.38157 -19.9998,34.38157 l -10.7864,-6.29205 c 0,0 15.5055,-23.5952 27.4154,-37.07816 11.91,-13.48297 28.9884,-24.04463 28.9884,-24.04463 z"
   id="Shape-2-15" /><path
   style="fill:#ffffff;stroke:#ff0000;stroke-width:2;stroke-linejoin:round"
   d="m 1991.103,695.91617 38.2353,37.91667 35.049,-34.09314 -38.8726,-39.82843 z"
   id="Shape-2-91" /></g>
<g
   id="floor"
   style="display:inline"
   sodipodi:insensitive="true">
	<path
   id="floor-2"
   style="display:inline;fill:none;stroke:#ff0000;stroke-width:2;stroke-linejoin:round"
   d="m 1204.2,490.70004 228.9,368.69998 h 214.5 l 1.4,-5.29998 h 159 v 5.79998 h 441.2 c 0,0 11.3,6.70002 20,5.90003 1.1999,-0.1 2.3999,-0.40003 3.5,-0.79999 8.6999,-3.59997 14.6999,-12 15.8999,-15.59997 1.1999,-3.59998 -0.8999,-12 -0.8999,-12 l 248,-396.60001 c -0.1,-9e-5 11,-20.20007 0.1999,-39.70007 C 2525.0999,381.5 2499.2,380.89999 2499.2,380.89999 L 2260,380.60001 c 0,0 -32.2,-0.60001 -47.5,-7.5 -15.3,-6.9 -24.3999,-11.70002 -24.3999,-11.70002 l -50.6001,-50.29998 -50,-5.70002 c 0,0 -50,-22.6 -99.6,-14.70001 -49.6999,7.79999 -74.6,22.29999 -99.6,41.20001 -25,18.90003 -45.4,48.4 -45.4,48.4 l -38.1999,0.89999 c 0,0 -0.6,-29.20001 -27.7,-29.5 -27.1,-0.29999 -32.5,29.5 -32.5,29.5 h -201.6 c 0,0 -3,-29.5 -26.1999,-29.5 -23.2,0 -34.3001,29.5 -34.3001,29.5 h -200.4 c 0,0 -2.1,-29.5 -30.1,-29.5 -28,0 -31.5999,28.9 -31.5999,28.9 l -87,0.5 44.3,71.79998 z m 179.2,-24.60003 c 0,0 -8.6,20 -25.1,39.70001 -16.5,19.69998 -25.6999,21.89999 -25.6999,21.89999 l -0.6,12.09998 -45.4,-0.59998 v -22.59997 c 0,0 11.4,-22.9 23.5,-37.79999 12.1,-14.9 27,-22.60001 27,-22.60001 l -0.3001,-4.39999 46.7,0.29999 v 13.99997 z m 469.3914,204.53278 c -0.1052,21.87422 -24.4914,50.56722 -24.4914,50.56722 l -47.5999,-46.29999 46.3,-48.09997 c -0.1001,-6e-5 25.8966,21.95851 25.7913,43.83274 z m 48.3594,-56.91047 c -20.7279,2.26914 -35.5465,-10.58671 -35.5465,-10.58671 l 29.6957,-30.83562 45.8001,-44.90003 c 0,0 9.9,15.29999 14.8,20.70002 4.9001,5.40002 18.9001,11.70001 18.9001,11.70001 l -39.1245,39.26422 c 0,0 -13.797,12.38897 -34.5249,14.65811 z M 2010.4,540.40002 c -26.6999,0 -48.3,-21.59997 -48.3,-48.29998 0,-26.70002 21.6,-48.29999 48.3,-48.29999 26.7001,0 48.3,21.6 48.3,48.29999 0,26.70001 -21.6,48.29998 -48.3,48.29998 z M 2079.5,456 v 0 c 0,0 -4.8999,-9.39999 -12.6001,-17.5 -7.6001,-8.10001 -22.5,-15.29999 -22.5,-15.29999 l 73.3001,-71.5 c 0,0 11.1999,2.70001 20.6999,11.20001 9.3999,8.5 11.7,22.5 11.7,22.5 z"
   sodipodi:nodetypes="cccccccccscccccsccccsccsccsccscccccsccccsccccczccczzcccscczssssscccccccc" />
</g>

<g
   id="texts"
   style="display:inline"
   transform="translate(-1.1105346e-6,-2.0344543e-5)"
   sodipodi:insensitive="true">
	
		<circle
   id="entrance-3"
   style="fill:#ffffff;stroke:#000000;stroke-miterlimit:10"
   cx="2261.165"
   cy="249.58064"
   r="6.1276598" />
	
		<circle
   id="entrance-4"
   style="fill:#ffffff;stroke:#000000;stroke-miterlimit:10"
   cx="2479.624"
   cy="278.76917"
   r="6.1276598" />
	
		<circle
   id="entrance-5"
   style="fill:#ffffff;stroke:#000000;stroke-miterlimit:10"
   cx="1717.1199"
   cy="1029.2371"
   r="6.1276598" />
	
		<circle
   id="entrance-2"
   style="fill:#ffffff;stroke:#000000;stroke-miterlimit:10"
   cx="1383.6074"
   cy="278.76917"
   r="6.1276598" />
	
		<circle
   id="entrance-1"
   style="fill:#ffffff;stroke:#000000;stroke-miterlimit:10"
   cx="917.15497"
   cy="278.76917"
   r="6.1276598" />
	
		<circle
   id="entrance-7"
   style="fill:#ffffff;stroke:#000000;stroke-miterlimit:10"
   cx="283.47293"
   cy="278.76917"
   r="6.1276598" />
	
		<circle
   id="entrance-6"
   style="fill:#ffffff;stroke:#000000;stroke-miterlimit:10"
   cx="1106.4503"
   cy="1029.2371"
   r="6.1276598" />
</g><g
   inkscape:groupmode="layer"
   id="layer1"
   inkscape:label="hide"
   style="display:none"
   sodipodi:insensitive="true"><path
     id="grand-1-f5"
     style="display:inline;fill:#ff0000"
     d="m 404.19922,350.80078 c -1.6,0 -3,1.39999 -3,3 l 0.2539,26.32227 h -0.0527 v 26.57617 c 0,0.60001 0.20002,1.20117 0.5,1.70117 l 62,92 -0.20117,145.29883 c 0,1 0.50079,1.90003 1.30078,2.5 l 38.19922,25.90039 v 7.09961 c 0,0.60004 0.20001,1.20117 0.5,1.70117 l 134.10156,195.79883 c 0.39996,1.30005 2.6989,7.80041 9.29883,10.40039 3.70001,1.39996 7.50037,1.0008 10.40039,0.30078 2.5,-0.60003 3.7008,-1.20038 4.30078,-1.40039 h 276.29883 l 7.59961,10.69922 c 1,1.29999 2.90119,1.70117 4.20117,0.70117 L 1065.1992,817.69922 H 1174.5 c 0.6,0 1.1992,-0.1 1.6992,-0.5 l 44.7012,-31.5 c 1.4,-0.89996 1.6988,-2.69959 0.7988,-4.09961 l -139.8066,-205.53125 -0.1133,-0.16016 -0.4824,-0.70898 -0.018,0.002 L 969.59961,417.5 c -0.5,-0.70001 -1.40039,-1.19922 -2.40039,-1.19922 H 922.59961 L 930.90039,402 c 0.30003,-0.5 0.40039,-1 0.40039,-1.5 0,-1.70001 -1.29999,-3 -3,-3 h -78.90039 v -43.69922 c 0,-1.70001 -1.29998,-3 -3,-3 z m 3.10156,6.5 H 843.09961 V 401 c 0,1.70001 1.29998,3 3,3 h 76.80078 l -8.30078,14.30078 c -0.30003,0.5 -0.40039,1 -0.40039,1.5 0,1.70001 1.29999,3 3,3 H 965.5 l 109.1621,153.19141 -0.062,0.008 140.5,206.5 -41.5,29.19922 h -109.2988 c -0.5999,0 -1.2012,0.20153 -1.7012,0.60156 l -113.69921,80.39844 -6.80078,-9.5 c -0.5,-0.79999 -1.40039,-1.29883 -2.40039,-1.29883 H 661.40039 c -0.40003,0 -0.80114,0.0988 -1.20117,0.29883 0,0 -1.69995,0.7008 -4,1.30078 -2.30005,0.59998 -5.09845,0.70001 -6.89844,0 -3.8,-1.40002 -5.90039,-7 -5.90039,-7 -0.10003,-0.29999 -0.20038,-0.60077 -0.40039,-0.80078 L 508.90039,680.40039 v -7.80078 c 0,-1 -0.5008,-1.90003 -1.30078,-2.5 L 469.5,644.19922 469.69922,499.5 c 0,-0.60001 -0.20001,-1.19922 -0.5,-1.69922 l -62,-92 v -25.67773 h -0.2168 z" /><path
     id="grand-3-f5"
     style="display:inline;fill:#ff0000"
     d="m 317,352.09961 c -1.70001,0 -3,1.29998 -3,3 V 372 c -1.19998,0.60001 -3.40039,1.59922 -7.40039,3.69922 -4.79999,2.5 -10.29999,5.5 -13.5,8 -6.29994,4.99995 -10.90039,13.90039 -10.90039,13.90039 -0.1,0.20001 -0.0992,0.3996 -0.19922,0.59961 l -3,10.60156 -10.19922,0.79883 c -1.59998,0.1 -2.80078,1.39999 -2.80078,3 v 205.59961 c 0,1.70001 1.29999,3 3,3 h 34 V 693.5 762 l 0.19922,-0.80078 c 0,0 -0.29883,1.00036 -0.29883,2.40039 0,1.40002 0.19883,3.20001 0.79883,5.5 1.29999,4.59992 4.50084,10.79967 11.80078,18.09961 C 329.89994,801.59909 343.40039,808 343.40039,808 c 1.4,0.70001 3.1004,0.2008 3.90039,-1.19922 L 407.5,702.69922 h 15.09961 c 1.70001,0 3,-1.29999 3,-3 v -27.09961 c -0.19999,-0.5 -0.50039,-0.89923 -0.90039,-1.19922 h 0.40039 l -15.5,-26.70117 V 497.80078 c 0,-0.60001 -0.20002,-1.10156 -0.5,-1.60156 L 372.5,437.80078 l 0.55469,-57.67773 h -0.0586 l -0.69531,-25.32227 c -0.20001,-1.5 -1.5,-2.70117 -3,-2.70117 z m 3.09961,6.5 h 46.59961 l 0.2168,21.63477 -0.61524,58.36523 c 0,0.6 0.20001,1.09961 0.5,1.59961 l 36.59961,58.40039 v 146.59961 c 0,0.5 0.1004,1 0.40039,1.5 l 15.69922,27 v 22.70117 h -13.90039 c -1.10001,0 -2.09961,0.59998 -2.59961,1.5 l -59.59961,103 c -3,-1.5 -12.20043,-6.50121 -23.90039,-18.20117 -6.69996,-6.69996 -9.19922,-11.99842 -10.19922,-15.39844 -0.4,-1.70001 -0.5,-2.90119 -0.5,-3.70117 0.1,-0.69999 0.0996,-0.79883 0.0996,-0.79883 C 309.00042,762.60077 309,762.29999 309,762 v -68 -75.30078 c 0,-1.70001 -1.29999,-3 -3,-3 H 272 V 415.90039 l 9.5,-0.70117 c 1.30002,-0.10001 2.39923,-0.99921 2.69922,-2.19922 l 3.5,-12.19922 c 0.20001,-0.4 4.70122,-8.30078 9.20117,-11.80078 2.30002,-1.79999 7.79962,-4.90039 12.59961,-7.40039 4.79999,-2.5 8.90039,-4.5 8.90039,-4.5 1,-0.5 1.69922,-1.49921 1.69922,-2.69922 z" /></g></svg>
