<?xml version="1.0" encoding="UTF-8" standalone="no"?>
<!-- Generator: Adobe Illustrator 26.4.1, SVG Export Plug-In . SVG Version: 6.00 Build 0)  -->

<svg
   version="1.1"
   id="svg755084"
   x="0px"
   y="0px"
   width="2600px"
   height="1200px"
   viewBox="0 0 2600 1200"
   style="enable-background:new 0 0 2600 1200;"
   xml:space="preserve"
   sodipodi:docname="grand-floor-3-final.svg"
   inkscape:version="1.2.2 (b0a8486, 2022-12-01)"
   xmlns:inkscape="http://www.inkscape.org/namespaces/inkscape"
   xmlns:sodipodi="http://sodipodi.sourceforge.net/DTD/sodipodi-0.dtd"
   xmlns="http://www.w3.org/2000/svg"
   xmlns:svg="http://www.w3.org/2000/svg"><defs
   id="defs49822"><clipPath
     clipPathUnits="userSpaceOnUse"
     id="clipPath546166"><path
       d="M 856.27,143.461 H 1950 V 698.34 H 856.27 Z"
       id="path546164" /></clipPath><clipPath
     clipPathUnits="userSpaceOnUse"
     id="clipPath546176"><path
       d="M 0,0 H 1951 V 843 H 0 Z"
       id="path546174" /></clipPath><clipPath
     clipPathUnits="userSpaceOnUse"
     id="clipPath556048"><path
       d="M 0,0 H 1951 V 843 H 0 Z"
       id="path556046" /></clipPath><clipPath
     clipPathUnits="userSpaceOnUse"
     id="clipPath556064"><path
       d="M 0,0 H 1951 V 843 H 0 Z"
       id="path556062" /></clipPath><clipPath
     clipPathUnits="userSpaceOnUse"
     id="clipPath556156"><path
       d="M 0,0 H 1951 V 843 H 0 Z"
       id="path556154" /></clipPath><clipPath
     clipPathUnits="userSpaceOnUse"
     id="clipPath556176"><path
       d="M 0,0 H 1951 V 843 H 0 Z"
       id="path556174" /></clipPath><clipPath
     clipPathUnits="userSpaceOnUse"
     id="clipPath556212"><path
       d="M 0,0 H 1951 V 843 H 0 Z"
       id="path556210" /></clipPath><clipPath
     clipPathUnits="userSpaceOnUse"
     id="clipPath556236"><path
       d="M 0,0 H 1951 V 843 H 0 Z"
       id="path556234" /></clipPath></defs><sodipodi:namedview
   id="namedview49820"
   pagecolor="#ffffff"
   bordercolor="#000000"
   borderopacity="0.25"
   inkscape:showpageshadow="2"
   inkscape:pageopacity="0.0"
   inkscape:pagecheckerboard="0"
   inkscape:deskcolor="#d1d1d1"
   showgrid="false"
   inkscape:zoom="0.87076924"
   inkscape:cx="1851.8109"
   inkscape:cy="598.89575"
   inkscape:window-width="1426"
   inkscape:window-height="769"
   inkscape:window-x="0"
   inkscape:window-y="25"
   inkscape:window-maximized="0"
   inkscape:current-layer="shops" />
<g
   id="wall"
   style="display:none">
	<path
   id="grand-f2-5"
   style="fill:#ff0000"
   d="m 2006.2578,285.93945 c -6.1455,0.15313 -12.3957,0.67266 -18.6582,1.66016 -50.0996,7.89996 -75.8,22.70084 -101,41.80078 -23.8999,18.19993 -42.7992,44.50039 -45.1992,47.90039 l -34,0.79883 c -0.2999,-2.9 -1.0012,-7.30041 -3.7012,-12.90039 -3.8999,-8.09997 -12.0992,-16.3996 -26.6992,-16.59961 -14.7,-0.20002 -23.9,8.00003 -29,16 -3.8001,5.99997 -5.2008,10.89999 -5.8008,13.5 h -196.7988 c -0.3999,-2.70002 -1.3011,-7.29965 -4.2012,-13.09961 -4,-7.89996 -11.5999,-16.40039 -24.5,-16.40039 -12.7999,0 -22.1992,8.10043 -28.1992,15.90039 -4.8001,6.19998 -7.1,11.39959 -8,13.59961 h -196 c -0.4,-2.80002 -1.3001,-7.39926 -4.5,-13.19922 -4.3999,-7.99997 -13.1992,-16.30078 -28.1992,-16.30078 -15.0999,0 -24.1003,8.10043 -28.9004,15.90039 -3.4,5.69998 -4.5996,10.29999 -5.0996,13 l -84.6016,0.5 c -0.6,0 -1.0996,0.10041 -1.5996,0.40039 -2.4246,1.41477 -1,4.09961 -1,4.09961 0,0 211.6396,336.49941 299.9004,478.59961 0.5,0.90003 1.5,1.40039 2.5,1.40039 h 214.5 c 1.4,0 2.5004,-0.89924 2.9004,-2.19922 l 0.7988,-3.10156 H 1805 V 860 c 0,1.70001 1.3,3 3,3 h 440.4004 c 0.6001,0.29999 2.6987,1.5 6.2988,3 4.1,1.70001 9.4017,3.30042 14.6016,2.90039 1.5,-0.1 2.9984,-0.40002 4.3984,-1 4.8999,-2.09997 8.9004,-5.29956 11.9004,-8.59961 3,-3.30005 4.9009,-6.30041 5.8008,-8.90039 1,-3 0.4991,-6.10077 0.1,-8.80078 -0.3,-2 -0.4992,-2.79962 -0.6992,-3.59961 l 247.5996,-395.59961 0.1,-0.0996 c 0,0 12.0008,-21.50161 0.3008,-42.60156 C 2527,378.39925 2499.5,378 2499.5,378 h -0.1 l -239.2012,-0.30078 c 0,0 -7.9987,-0.19922 -17.7988,-1.19922 -9.8,-1 -21.6016,-2.89959 -28.6016,-6.09961 -14.8,-6.69998 -23.2988,-11.20001 -23.7988,-11.5 L 2139.7988,309 c -0.5,-0.5 -1.0989,-0.80039 -1.7988,-0.90039 l -49.5996,-5.69922 c -1.2249,-0.61248 -39.1241,-17.53281 -82.1426,-16.46094 z m 0.072,6.17188 c 41.9467,-0.90918 79.7695,16.08789 79.7695,16.08789 0.2998,0.10001 0.6004,0.20117 0.9004,0.20117 l 48.9004,5.59961 49.7988,49.5 c 0.1999,0.20001 0.4012,0.39999 0.7012,0.5 0,0 9.1997,4.80081 24.5996,11.80078 8.3999,3.80002 20.3999,5.59961 30.5,6.59961 10.1001,1 18.3008,1.19922 18.3008,1.19922 h 0.1 l 239.1992,0.30078 c 0,0 24.3013,0.79968 34.2012,18.59961 10,17.99994 -0.3008,36.80078 -0.3008,36.80078 l -247.9004,396.39844 c -0.5,0.70002 -0.6004,1.50079 -0.4004,2.30078 0,0 0.4009,2.00036 0.8008,4.40039 0.3,2.40002 0.2991,5.40002 0.1,6 -0.3001,1.09997 -2,3.99885 -4.5,6.79883 -2.5,2.79999 -5.8991,5.50158 -9.6992,7.10156 -0.7001,0.29999 -1.5996,0.49961 -2.5996,0.59961 -3.4001,0.29999 -8.1008,-1.09997 -11.8008,-2.5 -3.7,-1.40002 -6.3008,-3 -6.3008,-3 -0.4,-0.30002 -1,-0.40039 -1.5,-0.40039 H 1811 v -2.80078 c 0,-1.70001 -1.3,-3 -3,-3 h -159.3008 c -1.4001,0 -2.4983,0.90119 -2.8984,2.20117 L 1645,856.5 h -210.5 l -296.0996,-472.19922 81.5996,-0.5 c 1.5,0 2.8,-1.10156 3,-2.60156 0,0 0.9004,-6.69885 4.9004,-13.29883 4,-6.59997 10.6992,-13 23.6992,-13 12.9,0 19.2004,6.49923 22.9004,13.19922 3.7,6.69998 4.1992,13.5 4.1992,13.5 0.1,1.59997 1.4,2.80078 3,2.80078 h 200.4004 c 1.2,0 2.4008,-0.70038 2.8008,-1.90039 0,0 2.6,-7.00003 8,-14 5.4,-6.99997 13.2001,-13.59961 23.5,-13.59961 10.3,0 15.6996,6.29965 19.0996,13.09961 3.4,6.79999 4.0996,13.69922 4.0996,13.69922 0.1999,1.5 1.5,2.70117 3,2.70117 h 201.5996 c 1.5,0 2.6999,-1.1 3,-2.5 0,0 1.4012,-7.0008 5.7012,-13.80078 4.3001,-6.79999 11.3987,-13.29922 23.7988,-13.19922 12.4,0.20002 18.1008,6.49923 21.3008,13.19922 3.2001,6.69995 3.4004,13.40039 3.4004,13.40039 0.1,1.60001 1.3996,2.90039 3.0996,2.90039 L 1842.6992,383.5 c 1,0 1.9004,-0.50079 2.4004,-1.30078 0,0 20.4008,-29.29889 44.8008,-47.79883 24.8001,-18.89996 49.0991,-32.90121 98.2988,-40.70117 6.0625,-0.9625 12.1385,-1.45801 18.1309,-1.58789 z"
   sodipodi:nodetypes="sscccccccccsccccsccccccsscccsscccsscccccccccscccccssccccccscccccccccsccscscsssccccccssscsscssscsscscsccccccss" />
</g>
<g
   id="shops"
   style="display:inline"
   transform="translate(0,1.0188646e-5)">
	
	
	
	
	
	
	
	
	
	
	
	
	
	
	
	
	
	
	
	
	
	
	
	
	
	
	
	
	
	
	
	
	
	
	
	
	
	
	
	
	
	
	
	
	
	
	
	
		
	
		
	
		
	
		
	
		
	
		
	
	
	
	
	
	
	
	
	
	
	
	
	
	
	
	
	
	
	
	
	
	
	
	
	
	
	
	
	
	
	
	
	
	
	
	
	
	
	
	
	
	
	
	
	
	
	
	
	
	
	
	
	
	
	
	
	<path
   id="Shape-2-22"
   style="fill:none;stroke:#ff0000;stroke-width:3.01502;stroke-linejoin:round"
   d="m 2213.5256,492.94049 -0.1682,-65.16666 -44.2696,-14.69696 -60.5639,61.1328 c 0,0 -7.1117,5.42485 -5.8703,10.9903 1.2415,5.56547 6.9565,6.73124 6.9565,6.73124 z"
   sodipodi:nodetypes="ccccscc" />
	
	
	
	
	
	
	
	
	
	
	
	
	
	
	
	
	
	
	
	
	
	
	
	
	
	
	
	
	
	
	
	
	
	
	
	
	
	
	
	
	
	
	
	
	
	
	
	
	
	
	
	
	
	
		
<path
   style="fill:none;stroke:#ff0000;stroke-width:2;stroke-linejoin:round"
   d="m 2220.1605,429.63251 17.4948,2.35507 h 81.7546 v 60.89544 h -98.913 z"
   id="Shape-2-23" /><rect
   style="fill:none;stroke:#ff0000;stroke-width:2;stroke-linejoin:round"
   id="Shape-2-24"
   width="76.371635"
   height="60.222569"
   x="2327.1479"
   y="432.66046" /><path
   style="fill:none;stroke:#ff0000;stroke-width:2;stroke-linejoin:round"
   d="m 2409.2391,432.66046 h 57.5311 c 0,0 23.2143,4.03726 31.2888,16.4855 8.0745,12.44824 10.7661,29.27019 10.7661,29.27019 l -15.4762,24.56004 -15.1398,-9.75673 h -69.9793 z"
   id="Shape-2-25" /><path
   style="fill:none;stroke:#ff0000;stroke-width:2;stroke-linejoin:round"
   d="m 2455.3313,496.92029 h 20.5227 l 15.1398,10.09317 -17.8313,30.61594 -21.5321,-13.794 -29.6066,47.77433 -20.5228,-21.19565 z"
   id="Shape-2-26" /><path
   style="fill:none;stroke:#ff0000;stroke-width:2;stroke-linejoin:round"
   d="m 2398.1333,554.30291 22.6003,22.24349 19.8645,12.01386 -47.4607,75.88954 -37.9448,-37.35003 c 0,0 2.8548,-8.32644 3.8064,-15.93918 0.9516,-7.61274 1.5463,-15.93918 1.5463,-15.93918 0,0 0.3569,-2.26003 0.8327,-3.21163 0.4758,-0.95159 2.8548,-3.92532 2.8548,-3.92532 z"
   id="Shape-2-77" /><path
   style="fill:none;stroke:#ff0000;stroke-width:2;stroke-linejoin:round"
   d="m 2354.1221,631.61984 36.3984,36.87423 -38.1827,60.783 -37.8062,-37.81097 c 0,0 13.5406,-11.43397 21.986,-24.28047 8.4454,-12.84651 17.6045,-35.56579 17.6045,-35.56579 z"
   id="Shape-2-14" /><path
   style="fill:none;stroke:#ff0000;stroke-width:2;stroke-linejoin:round"
   d="m 2312.252,693.59233 38.3016,38.53952 -10.5865,18.08026 h -78.3874 l -25.5741,-26.1688 c 0,0 16.0581,0.59474 40.7996,-8.92119 24.7414,-9.51593 35.4468,-21.52979 35.4468,-21.52979 z"
   id="Shape-2-67" /><path
   style="fill:none;stroke:#ff0000;stroke-width:2;stroke-linejoin:round"
   d="m 2260.8696,819.56522 h -63.9234 v -57.69928 c 0,0 -0.5047,-4.54192 0.3364,-6.39234 0.8411,-1.85041 3.8691,-4.20548 3.8691,-4.20548 l 24.3918,-24.39182 c 0,0 1.0093,-1.6822 2.5233,-2.01864 1.514,-0.33644 4.7101,-0.50466 4.7101,-0.50466 l 28.0927,28.26087 z"
   id="Shape-2-64" /><path
   style="fill:none;stroke:#ff0000;stroke-width:2;stroke-linejoin:round"
   d="m 2011.0728,782.56628 h 135.9589 c 0,0 3.5684,0.35684 4.8769,1.30844 1.3084,0.95159 2.4979,5.11481 2.4979,5.11481 v 13.7981 h -143.5716 z"
   id="Shape-2-63" /><path
   style="fill:none;stroke:#ff0000;stroke-width:2;stroke-linejoin:round"
   d="m 2008.337,782.44733 v 20.22135 h -17.3666 v 56.50083 h -31.4026 v -76.72218 z"
   id="Shape-2-62" /><path
   style="fill:none;stroke:#ff0000;stroke-width:2;stroke-linejoin:round"
   d="m 1832.9193,782.55694 h 123.8095 v 76.37163 h -112.7071 v -32.29813 h -12.1118 z"
   id="Shape-2-61" /><path
   style="fill:none;stroke:#ff0000;stroke-width:2;stroke-linejoin:round"
   d="m 1717.6253,790.77377 h 81.837 v 13.5602 h 29.2615 v 31.16467 h -42.108 v 21.17294 h -69.7042 z"
   id="Shape-2-60" /><path
   style="fill:none;stroke:#ff0000;stroke-width:2;stroke-linejoin:round"
   d="m 1645.0664,782.44733 h 61.6156 c 0,0 5.2338,-0.2379 6.6612,1.42739 1.4273,1.66528 2.141,4.28216 2.141,4.28216 v 68.2768 h -69.7041 z"
   id="Shape-2-59" /><path
   style="fill:none;stroke:#ff0000;stroke-width:2;stroke-linejoin:round"
   d="m 1551.8102,782.44733 h 89.2119 v 21.88664 h -49.7207 v 51.38602 h -47.1039 v -65.65992 c 0,0 0,-4.28217 1.6653,-5.94746 1.6653,-1.66528 5.9474,-1.66528 5.9474,-1.66528 z"
   id="Shape-2-58" /><path
   style="fill:none;stroke:#ff0000;stroke-width:2;stroke-linejoin:round"
   d="m 1361.4917,678.96159 61.3777,97.77618 c 0,0 1.1895,4.28217 3.5685,5.23376 2.379,0.95159 6.6611,0.71369 6.6611,0.71369 h 50.1966 c 0,0 4.0442,0.2379 5.4716,1.66529 1.4274,1.42739 1.9032,4.75797 1.9032,4.75797 l 0.2379,12.37071 h -34.971 v 29.26148 h -34.9711 l -84.4539,-137.02939 z"
   id="Shape-2-57" /><path
   style="fill:none;stroke:#ff0000;stroke-width:2;stroke-linejoin:round"
   d="m 1274.5989,594.15114 19.177,-12.28002 c 0,0 2.6915,-0.67288 4.5419,-0.33644 1.8504,0.33644 4.3737,3.36439 4.3737,3.36439 l 57.3629,91.84783 -24.7283,15.13975 z"
   id="Shape-2-41" /><path
   style="fill:none;stroke:#ff0000;stroke-width:2;stroke-linejoin:round"
   d="m 1379.5678,526.02226 h 13.2893 l 6.7288,6.56056 v 145.34161 c 0,0 1.514,4.20549 -6.2241,5.88768 -7.7381,1.6822 -10.5978,-3.36439 -10.5978,-3.36439 l -64.7645,-103.62318 c 0,0 -2.5233,-4.37371 -1.8504,-6.72878 0.6728,-2.35508 4.3737,-5.55125 4.3737,-5.55125 0,0 23.8871,-13.96221 30.2795,-19.00879 6.3923,-5.04659 24.56,-19.68168 24.56,-19.68168 z"
   id="Shape-2-40" /><path
   style="fill:none;stroke:#ff0000;stroke-width:2;stroke-linejoin:round"
   d="m 1227.3292,438.37992 h 63.4187 c 0,0 6.2242,2.01863 7.7381,5.71946 1.514,3.70083 -1.8504,10.26139 -1.8504,10.26139 l -32.4663,38.18581 c 0,0 -0.5047,2.5233 -5.0466,2.69152 -4.542,0.16822 -6.2241,-3.36439 -6.2241,-3.36439 l -30.9524,-48.95187 c 0,0 0,-1.85041 0.6729,-3.19617 0.6728,-1.34575 4.7101,-1.34575 4.7101,-1.34575 z"
   id="Shape-2-13" /><path
   style="fill:none;stroke:#ff0000;stroke-width:2;stroke-linejoin:round"
   d="M 1245.1605,511.38716 1169.4617,386.4001 h -28.0926 l 88.8198,140.12682 z"
   id="path80851" /><path
   style="fill:none;stroke:#ff0000;stroke-width:2;stroke-linejoin:round"
   d="m 1493.7888,424.58592 v -31.1206 h -296.5709 c 0,0 2.1869,15.30797 12.6165,23.04607 10.4296,7.73809 19.6816,7.90631 19.6816,7.90631 z"
   id="Shape-2-12" /><path
   style="fill:none;stroke:#ff0000;stroke-width:2;stroke-linejoin:round"
   d="m 1502.7045,393.63354 h 88.3152 v 33.30745 h -80.4089 c 0,0 -2.8598,0.33644 -5.3831,-2.01863 -2.5232,-2.35507 -2.5232,-5.88768 -2.5232,-5.88768 z"
   id="Shape-2-11" /><rect
   style="fill:none;stroke:#ff0000;stroke-width:2;stroke-linejoin:round"
   id="Shape-2-10"
   width="36.335403"
   height="33.139233"
   x="1593.8794"
   y="393.97" /><rect
   style="display:inline;fill:none;stroke:#ff0000;stroke-width:1.91033;stroke-linejoin:round"
   id="Shape-2-06"
   width="33.060688"
   height="33.228905"
   x="1632.525"
   y="394.00928" /><rect
   style="display:inline;fill:none;stroke:#ff0000;stroke-width:1.70583;stroke-linejoin:round"
   id="rect80857-3"
   width="26.199972"
   height="33.433407"
   x="1668.4218"
   y="394.07523" /><rect
   style="display:inline;fill:none;stroke:#ff0000;stroke-width:2.02176;stroke-linejoin:round"
   id="Shape-2-05"
   width="37.154739"
   height="33.117474"
   x="1697.8499"
   y="394.23318" /><rect
   style="display:inline;fill:none;stroke:#ff0000;stroke-width:2.26561;stroke-linejoin:round"
   id="Shape-2-04"
   width="47.004059"
   height="32.873623"
   x="1740.0267"
   y="394.18692" /><path
   style="fill:none;stroke:#ff0000;stroke-width:2;stroke-linejoin:round"
   d="m 1872.9555,426.94099 h -68.2971 c 0,0 -3.8691,0.33644 -6.2241,-1.68219 -2.3551,-2.01863 -2.1869,-5.88768 -2.1869,-5.88768 v -28.76553 h 76.5399 z"
   id="Shape-2-03" /><path
   style="fill:none;stroke:#ff0000;stroke-width:2;stroke-linejoin:round"
   d="m 1875.4788,390.94203 h 5.7194 c 0,0 24.0554,-27.92443 46.9333,-39.69979 22.8778,-11.77537 42.3913,-16.82195 48.7836,-18.16771 6.3924,-1.34575 24.2236,-2.01863 24.2236,-2.01863 v 57.8675 c 0,0 1.514,6.0559 -0.3364,8.41097 -1.8504,2.35507 -5.8877,3.53261 -5.8877,3.53261 0,0 -13.1211,1.00931 -21.3639,7.40165 -8.2427,6.39234 -13.9622,14.13044 -13.9622,14.13044 0,0 -0.5046,2.18685 -2.3551,3.53261 -1.8504,1.34575 -4.5419,1.34575 -4.5419,1.34575 h -77.2127 z"
   id="Shape-2-02" /><path
   style="fill:none;stroke:#ff0000;stroke-width:2;stroke-linejoin:round"
   d="m 2009.5497,330.88768 c 0,0 18.8406,0 37.5129,6.0559 18.6724,6.0559 33.1393,14.46688 33.1393,14.46688 l -37.513,37.84938 h -32.6345 z"
   id="Shape-2-01" /><path
   style="fill:none;stroke:#ff0000;stroke-width:2;stroke-linejoin:round"
   d="m 2097.192,510.88251 h 35.8308 c 0,0 2.1868,-0.8411 4.2055,0.33644 2.0186,1.17753 4.3737,4.03726 4.3737,4.03726 l 61.9047,61.90476 c 0,0 1.8504,2.01864 2.0187,4.54193 0.1682,2.52329 -1.6822,5.04658 -1.6822,5.04658 l -26.4105,26.57868 c 0,0 -2.0186,2.35507 -4.3737,2.52329 -2.3551,0.16822 -5.5512,-1.85041 -5.5512,-1.85041 l -80.0725,-80.24069 c 0,0 -2.1868,-2.18685 -2.3551,-4.54192 -0.1682,-2.35507 0.8411,-3.86905 0.8411,-3.86905 0,0 0.6729,-2.52329 1.6822,-5.04658 1.0093,-2.5233 2.3551,-5.88769 2.3551,-5.88769 0,0 0.6729,-1.85041 1.8504,-2.85973 1.1775,-1.00931 5.383,-0.67287 5.383,-0.67287 z"
   id="Shape-2-30" /><path
   style="fill:none;stroke:#ff0000;stroke-width:2;stroke-linejoin:round"
   d="m 2173.059,510.88251 h 65.1009 c 0,0 1.8505,-0.33644 3.028,0.16822 1.1775,0.50465 2.6074,2.27096 2.6074,2.27096 l 12.3641,11.69125 c 0,0 1.9346,3.70083 1.8504,5.71946 -0.084,2.01864 -2.0186,4.45782 -2.0186,4.45782 l -32.1299,31.62526 c 0,0 -0.5888,2.10274 -4.0373,2.6074 -3.4485,0.50466 -6.3923,-2.01863 -6.3923,-2.01863 l -44.9987,-45.08282 c 0,0 -2.6915,-3.61672 -1.6822,-7.31755 1.0093,-3.70082 6.3082,-4.12137 6.3082,-4.12137 z"
   id="Shape-2-28" /><path
   style="fill:none;stroke:#ff0000;stroke-width:2;stroke-linejoin:round"
   d="m 2278.1121,510.71429 h 117.7536 c 0,0 4.7942,0 6.0559,3.78493 1.2616,3.78494 -0.757,7.40166 -0.757,7.40166 l -59.2132,59.04503 c 0,0 0.5887,2.10275 -4.0373,2.35507 -4.6261,0.25233 -6.4765,-2.10274 -6.4765,-2.10274 l -58.288,-58.7927 c 0,0 -3.1121,-2.94384 -1.6822,-7.65399 1.4299,-4.71014 6.6447,-4.03726 6.6447,-4.03726 z"
   id="Shape-2-27" /><path
   style="fill:none;stroke:#ff0000;stroke-width:2;stroke-linejoin:round"
   d="m 2275.4967,544.78698 46.866,46.74701 c 0,0 2.0221,2.85477 1.6653,5.11481 -0.3569,2.26003 -2.0222,4.28217 -2.0222,4.28217 l -32.1162,32.11626 c 0,0 -0.8327,2.14108 -4.1633,2.49793 -3.3305,0.35685 -6.5422,-2.02213 -6.5422,-2.02213 l -46.1522,-46.50911 c 0,0 -1.5464,-2.97373 -1.7843,-5.35271 -0.2379,-2.37898 2.1411,-4.63902 2.1411,-4.63902 l 32.2352,-32.47311 c 0,0 3.5685,-1.90318 5.5906,-2.14108 2.0222,-0.2379 4.2822,2.37898 4.2822,2.37898 z"
   id="Shape-2-29" /><path
   style="fill:none;stroke:#ff0000;stroke-width:2;stroke-linejoin:round"
   d="m 2346.1525,604.26154 c 0,0 -3.8064,17.84237 -5.3527,23.31403 -1.5464,5.47166 -11.776,25.93091 -11.776,25.93091 0,0 -1.4274,1.42739 -3.2116,1.90318 -1.7842,0.4758 -5.4717,-0.11894 -5.4717,-0.11894 l -11.657,-11.41912 c 0,0 -2.1411,-3.33058 -2.0221,-5.47166 0.1189,-2.14108 2.4979,-5.11481 2.4979,-5.11481 l 31.7594,-31.75942 c 0,0 1.5464,-1.18949 2.9738,-0.71369 1.4273,0.47579 2.26,3.44952 2.26,3.44952 z"
   id="Shape-2-68" /><path
   style="fill:none;stroke:#ff0000;stroke-width:2;stroke-linejoin:round"
   d="m 2279.6599,672.18149 10.9433,10.82437 c 0,0 1.9032,3.44953 1.3085,6.06641 -0.5948,2.61688 -2.9737,4.04427 -2.9737,4.04427 0,0 -12.9655,7.13694 -21.6488,10.22962 -8.6833,3.09268 -26.4067,6.3043 -26.4067,6.3043 0,0 -2.8548,0.2379 -3.5685,-1.30844 -0.7137,-1.54633 1.3085,-4.28216 1.3085,-4.28216 l 31.6404,-31.64047 c 0,0 2.2601,-2.14109 4.877,-1.90319 2.6168,0.2379 4.52,1.66529 4.52,1.66529 z"
   id="Shape-2-66" /><path
   style="fill:none;stroke:#ff0000;stroke-width:2;stroke-linejoin:round"
   d="m 2223.278,597.12459 46.866,46.74701 c 0,0 1.9032,3.09268 1.9032,4.87691 0,1.78424 -2.1411,4.63902 -2.1411,4.63902 l -27.0014,26.6446 c 0,0 -2.1411,1.54634 -4.1633,1.66529 -2.0221,0.11895 -5.8285,-2.37898 -5.8285,-2.37898 l -46.0333,-45.91436 c 0,0 -2.1411,-3.56848 -2.0221,-5.59061 0.1189,-2.02214 2.8548,-5.23376 2.8548,-5.23376 l 25.9309,-25.93091 c 0,0 2.26,-1.42739 4.9958,-1.78424 2.7359,-0.35685 4.639,2.26003 4.639,2.26003 z"
   id="Shape-2-31" /><path
   style="fill:none;stroke:#ff0000;stroke-width:2;stroke-linejoin:round"
   d="m 2176.7689,642.68211 47.8176,47.6986 c 0,0 1.3084,2.14108 1.1895,4.52006 -0.119,2.37899 -1.9032,4.52007 -1.9032,4.52007 l -27.0015,26.76355 c 0,0 -1.7842,1.30844 -3.9253,1.54634 -2.1411,0.2379 -5.1148,-1.78424 -5.1148,-1.78424 l -46.9849,-46.9849 c 0,0 -2.0221,-2.73583 -2.1411,-4.99586 -0.1189,-2.26004 2.498,-4.63902 2.498,-4.63902 l 26.7635,-26.6446 c 0,0 2.6169,-1.54634 4.2822,-1.78424 1.6653,-0.2379 4.52,1.78424 4.52,1.78424 z"
   id="Shape-2-33" /><path
   style="fill:none;stroke:#ff0000;stroke-width:2;stroke-linejoin:round"
   d="m 2180.5753,733.44029 c 0,0 1.7842,2.49793 1.7842,4.28217 0,1.78423 -1.5463,4.63901 -1.5463,4.63901 l -20.1024,20.1024 c 0,0 -1.5463,1.42739 -2.7358,2.02214 -1.1895,0.59475 -3.2116,0.59475 -3.2116,0.59475 l -8.4454,0.11894 c 0,0 -1.1895,-0.11894 -2.6169,-0.59474 -1.4274,-0.4758 -2.6169,-2.02214 -2.6169,-2.02214 l -41.8701,-41.87009 c 0,0 -2.1411,-2.97373 -2.0221,-4.99586 0.1189,-2.02214 2.1411,-4.63902 2.1411,-4.63902 l 24.5035,-24.50352 c 0,0 2.4979,-1.90318 4.8769,-2.14108 2.379,-0.2379 4.8769,1.90319 4.8769,1.90319 z"
   id="Shape-2-48" /><path
   style="fill:none;stroke:#ff0000;stroke-width:2;stroke-linejoin:round"
   d="m 2081.8475,547.82018 76.4082,76.69457 c 0,0 1.2616,2.35508 1.1775,4.62604 -0.084,2.27096 -2.1027,4.20548 -2.1027,4.20548 l -26.5787,26.32635 c 0,0 -1.7663,1.76631 -3.9531,1.85041 -2.1869,0.0841 -5.6354,-2.10274 -5.6354,-2.10274 l -79.8201,-80.07246 c 0,0 -2.3551,-2.52329 -1.8504,-6.0559 0.5046,-3.53261 3.869,-5.21481 3.869,-5.21481 0,0 10.2614,-4.45781 15.0556,-8.24275 4.7943,-3.78494 13.4576,-12.1118 13.4576,-12.1118 0,0 1.514,-2.10274 4.5419,-2.18685 3.028,-0.0841 5.4306,2.28446 5.4306,2.28446 z"
   id="Shape-2-32" /><path
   style="fill:none;stroke:#ff0000;stroke-width:2;stroke-linejoin:round"
   d="m 2024.4371,577.24508 89.4087,89.57687 c 0,0 2.6915,2.27096 2.4391,5.2148 -0.2523,2.94384 -1.9345,4.54193 -1.9345,4.54193 l -24.8124,24.98059 c 0,0 -1.8504,1.51397 -4.5419,1.68219 -2.6915,0.16822 -5.6353,-2.18685 -5.6353,-2.18685 l -95.044,-95.21222 c 0,0 -1.9345,-2.18685 -2.0187,-5.2148 -0.084,-3.02795 3.1962,-5.29891 3.1962,-5.29891 l 18.3359,-18.25182 c 0,0 1.1776,-1.26164 2.1028,-1.68219 0.9252,-0.42055 5.7194,-0.0841 7.9063,-0.25233 2.1868,-0.16822 5.4671,-0.42055 5.4671,-0.42055 0,0 0.8411,0 2.0187,0.33644 1.1775,0.33644 3.112,2.18685 3.112,2.18685 z"
   id="Shape-2-47" /><path
   style="fill:none;stroke:#ff0000;stroke-width:2;stroke-linejoin:round"
   d="m 2117.4133,753.30479 c 0,0 2.1411,3.80637 1.1895,7.85064 -0.9516,4.04427 -6.4232,4.04427 -6.4232,4.04427 h -48.7692 c 0,0 -0.7137,0.7137 -3.6874,-0.23789 -2.9737,-0.9516 -4.2822,-2.73583 -4.2822,-2.73583 L 1942.4392,649.34326 c 0,0 -2.6169,-3.68742 -2.7359,-5.47166 -0.1189,-1.78424 2.2601,-4.99586 2.2601,-4.99586 l 26.5256,-26.28776 c 0,0 1.9032,-1.07054 4.0443,-1.18949 2.1411,-0.11895 5.1148,2.85478 5.1148,2.85478 z"
   id="Shape-2-49" /><path
   style="fill:none;stroke:#ff0000;stroke-width:2;stroke-linejoin:round"
   d="m 2021.7782,765.31865 h -48.8881 c 0,0 -1.9031,0.11895 -4.0442,-0.47579 -2.1411,-0.59475 -3.2117,-1.78424 -3.2117,-1.78424 l -68.7525,-68.99049 c 0,0 -2.498,-3.33058 -2.379,-5.23376 0.1189,-1.90319 2.4979,-5.35271 2.4979,-5.35271 l 25.693,-25.33617 c 0,0 2.6169,-1.78423 4.9959,-1.66528 2.379,0.11895 4.4011,2.26003 4.4011,2.26003 l 94.8024,94.56455 c 0,0 2.379,4.16322 1.3085,7.61275 -1.0706,3.44952 -6.4233,4.40111 -6.4233,4.40111 z"
   id="Shape-2-50" /><path
   style="fill:none;stroke:#ff0000;stroke-width:2;stroke-linejoin:round"
   d="m 1931.139,765.08076 h -97.0625 c 0,0 -5.3527,0.83264 -7.4938,-3.44953 -2.1411,-4.28217 1.4274,-8.80223 1.4274,-8.80223 l 48.0555,-48.4123 c 0,0 2.3789,-2.61688 5.3527,-2.73583 2.9737,-0.11895 5.5906,2.26004 5.5906,2.26004 l 49.2449,49.36388 c 0,0 3.4495,3.80637 1.7843,7.96959 -1.6653,4.16322 -6.8991,3.80638 -6.8991,3.80638 z"
   id="Shape-2-51" /><path
   style="fill:none;stroke:#ff0000;stroke-width:2;stroke-linejoin:round"
   d="m 1768.6594,690.54089 43.4006,43.73706 c 0,0 1.8505,2.52329 2.0187,4.87837 0.1682,2.35507 -1.514,4.87836 -1.514,4.87836 l -21.1956,21.53209 c 0,0 -1.3458,2.01864 -3.028,2.52329 -1.6822,0.50466 -4.7101,0.67288 -4.7101,0.67288 h -82.5958 c 0,0 -6.897,-1.00932 -8.9156,-4.87836 -2.0187,-3.86905 1.5139,-10.26139 1.5139,-10.26139 l 64.2599,-64.09162 c 0,0 2.3551,-1.85041 4.8783,-1.85041 2.5233,0 5.8877,2.85973 5.8877,2.85973 z"
   id="Shape-2-72" /><path
   style="fill:none;stroke:#ff0000;stroke-width:2;stroke-linejoin:round"
   d="m 1721.8944,620.05694 h 55.176 c 0,0 8.2428,-0.8411 10.9343,6.897 2.6915,7.73809 -3.028,11.60714 -3.028,11.60714 l -43.2324,43.56884 c 0,0 -1.3457,1.17753 -3.3644,2.01863 -2.0186,0.8411 -3.869,0.67288 -3.869,0.67288 h -13.2894 c 0,0 -3.7008,-0.67288 -4.7101,-1.51398 -1.0093,-0.84109 -2.6915,-5.55124 -2.6915,-5.55124 v -51.30693 c 0,0 1.1775,-3.86905 2.6915,-5.21481 1.514,-1.34575 5.383,-1.17753 5.383,-1.17753 z"
   id="Shape-2-46" /><path
   style="fill:none;stroke:#ff0000;stroke-width:2;stroke-linejoin:round"
   d="m 1642.4948,698.61543 h 56.8582 c 0,0 7.0652,1.51397 9.7567,7.23343 2.6915,5.71946 -3.0279,11.60715 -3.0279,11.60715 l -44.7464,44.57815 -1.6822,1.6822 -2.1868,1.00931 h -12.1118 c 0,0 -2.3551,0.16822 -4.2055,-1.34575 -1.8504,-1.51398 -2.3551,-5.55124 -2.3551,-5.55124 v -55.84886 c 0,0 0.1682,-2.01864 0.6729,-2.85974 0.5046,-0.84109 3.0279,-0.50465 3.0279,-0.50465 z"
   id="Shape-2-53" /><path
   style="fill:none;stroke:#ff0000;stroke-width:2;stroke-linejoin:round"
   d="m 1571.338,698.95186 h 47.2697 c 0,0 3.1961,0 4.7101,2.01864 1.514,2.01863 2.0186,5.88768 2.0186,5.88768 v 52.82091 c 0,0 -1.1775,2.35507 -2.1868,3.36439 -1.0093,1.00932 -5.383,2.18685 -5.383,2.18685 h -46.5968 c 0,0 -4.2055,-0.50466 -5.383,-1.68219 -1.1776,-1.17754 -2.1869,-5.55124 -2.1869,-5.55124 v -52.48448 c 0,0 0.8411,-3.5326 2.1869,-4.87836 1.3457,-1.34576 5.5512,-1.6822 5.5512,-1.6822 z"
   id="Shape-2-54" /><path
   style="fill:none;stroke:#ff0000;stroke-width:2;stroke-linejoin:round"
   d="m 1487.06,698.95186 h 55.3442 c 0,0 4.2055,0.16822 5.5513,2.01864 1.3457,1.85041 1.6822,4.87836 1.6822,4.87836 v 52.98913 c 0,0 0,2.35508 -1.3458,3.86905 -1.3457,1.51398 -5.383,2.35507 -5.383,2.35507 h -49.2883 c 0,0 -3.7008,-1.17753 -5.2148,-2.52329 -1.514,-1.34575 -1.6822,-6.0559 -1.6822,-6.0559 z"
   id="Shape-2-55" /><path
   style="fill:none;stroke:#ff0000;stroke-width:2;stroke-linejoin:round"
   d="m 1413.7164,698.61543 h 52.4844 c 0,0 3.5326,1.17753 4.542,2.01863 1.0093,0.8411 2.0186,4.71014 2.0186,4.71014 v 53.32557 c 0,0 -0.3364,2.01864 -1.1775,3.53261 -0.8411,1.51398 -4.8784,3.02795 -4.8784,3.02795 h -25.9058 c 0,0 -3.028,-0.33644 -4.3737,-0.67287 -1.3458,-0.33644 -2.6915,-2.69152 -2.6915,-2.69152 l -28.9338,-46.59679 c 0,0 -3.0279,-7.73809 0.6729,-12.1118 3.7008,-4.3737 8.2428,-4.54192 8.2428,-4.54192 z"
   id="Shape-2-70" /><path
   style="fill:none;stroke:#ff0000;stroke-width:2;stroke-linejoin:round"
   d="m 1418.5947,619.7205 h 47.4379 c 0,0 4.3737,1.00931 5.5513,2.52329 1.1775,1.51398 1.3457,4.71015 1.3457,4.71015 v 51.97981 c 0,0 -0.8411,2.52329 -1.8504,3.70083 -1.0093,1.17753 -4.8784,2.35507 -4.8784,2.35507 h -46.4285 c 0,0 -5.0466,-0.67288 -6.2242,-2.35507 -1.1775,-1.6822 -1.8504,-5.88768 -1.8504,-5.88768 v -49.96118 c 0,0 0.6729,-4.71015 2.1869,-5.88769 1.514,-1.17753 4.7101,-1.17753 4.7101,-1.17753 z"
   id="Shape-2-42" /><path
   style="fill:none;stroke:#ff0000;stroke-width:2;stroke-linejoin:round"
   d="m 1493.6206,620.05694 h 49.4565 c 0,0 3.028,0.16822 4.8784,2.01863 1.8504,1.85041 1.8504,4.37371 1.8504,4.37371 v 52.48447 c 0,0 0.3364,2.01863 -1.1775,3.53261 -1.514,1.51397 -5.8877,2.35507 -5.8877,2.35507 h -48.9519 c 0,0 -3.0279,-0.16822 -4.8783,-2.01863 -1.8505,-1.85042 -2.3551,-5.38303 -2.3551,-5.38303 V 626.6175 c 0,0 1.3457,-4.20549 2.3551,-5.38303 1.0093,-1.17753 4.7101,-1.17753 4.7101,-1.17753 z"
   id="Shape-2-43" /><path
   style="fill:none;stroke:#ff0000;stroke-width:2;stroke-linejoin:round"
   d="m 1571.0016,619.7205 h 47.6061 c 0,0 4.0372,0.67288 5.2148,2.52329 1.1775,1.85041 1.1775,4.54193 1.1775,4.54193 v 51.81159 c 0,0 0,2.69151 -1.514,4.37371 -1.5139,1.68219 -4.8783,1.85041 -4.8783,1.85041 h -47.4379 c 0,0 -3.7009,-0.16822 -5.383,-2.01863 -1.6822,-1.85042 -2.1869,-5.71947 -2.1869,-5.71947 v -50.29761 c 0,0 0.3364,-2.69152 1.8504,-4.54193 1.514,-1.85041 5.5513,-2.52329 5.5513,-2.52329 z"
   id="Shape-2-44" /><path
   style="fill:none;stroke:#ff0000;stroke-width:2;stroke-linejoin:round"
   d="m 1647.205,619.55228 h 45.4192 c 0,0 3.7009,0.67288 5.2148,1.85041 1.514,1.17754 2.1869,4.54193 2.1869,4.54193 v 52.31625 c 0,0 0.1682,2.69151 -1.0093,4.03727 -1.1776,1.34575 -5.7195,2.69151 -5.7195,2.69151 h -46.765 c 0,0 -3.8691,-0.50466 -5.5512,-1.6822 -1.6822,-1.17753 -2.0187,-5.88768 -2.0187,-5.88768 v -50.97049 c 0,0 1.0093,-4.37371 2.6915,-5.55125 1.6822,-1.17753 5.5513,-1.34575 5.5513,-1.34575 z"
   id="Shape-2-45" /><path
   style="fill:none;stroke:#ff0000;stroke-width:2;stroke-linejoin:round"
   d="m 1417.4172,525.01294 h 49.9612 c 0,0 4.0372,0.50466 5.2148,1.85042 1.1775,1.34575 2.0186,4.87836 2.0186,4.87836 v 71.49327 c 0,0 -0.3364,2.35507 -1.8504,3.70083 -1.514,1.34575 -5.0466,2.52329 -5.0466,2.52329 h -50.4658 c 0,0 -3.8691,-0.67288 -5.5513,-2.01863 -1.6822,-1.34576 -1.8504,-5.55124 -1.8504,-5.55124 v -70.48396 c 0,0 1.3458,-4.37371 2.5233,-5.2148 1.1775,-0.8411 5.0466,-1.17754 5.0466,-1.17754 z"
   id="Shape-2-39" /><path
   style="fill:none;stroke:#ff0000;stroke-width:2;stroke-linejoin:round"
   d="m 1492.4431,524.84472 h 52.4844 c 0,0 3.028,0.8411 4.3737,1.6822 1.3458,0.84109 2.3551,4.54192 2.3551,4.54192 v 72.16615 c 0,0 -0.3364,1.6822 -1.514,3.36439 -1.1775,1.68219 -4.8783,2.69151 -4.8783,2.69151 h -53.3256 c 0,0 -2.8597,0 -4.7101,-1.85041 -1.8505,-1.85042 -2.1869,-6.0559 -2.1869,-6.0559 v -70.31574 c 0,0 1.0093,-3.70083 2.1869,-4.87836 1.1775,-1.17754 5.2148,-1.34576 5.2148,-1.34576 z"
   id="Shape-2-38" /><path
   style="fill:none;stroke:#ff0000;stroke-width:2;stroke-linejoin:round"
   d="m 1569.6558,524.84472 h 49.793 c 0,0 4.0372,0.33644 5.5512,2.18685 1.514,1.85042 1.8504,5.38303 1.8504,5.38303 v 70.14751 c 0,0 -0.6729,2.5233 -1.6822,4.20549 -1.0093,1.68219 -5.0466,2.85973 -5.0466,2.85973 h -50.634 c 0,0 -2.8597,-0.16822 -4.8784,-2.01863 -2.0186,-1.85042 -2.5233,-6.897 -2.5233,-6.897 v -68.12888 c 0,0 0,-4.20549 1.6822,-5.88768 1.6822,-1.6822 5.8877,-1.85042 5.8877,-1.85042 z"
   id="Shape-2-37" /><path
   style="fill:none;stroke:#ff0000;stroke-width:2;stroke-linejoin:round"
   d="m 1644.5135,525.01294 h 50.634 c 0,0 3.5326,0.50466 4.7102,1.85042 1.1775,1.34575 1.8504,4.71014 1.8504,4.71014 v 69.47464 c 0,0 0,3.53261 -0.8411,4.87836 -0.8411,1.34576 -6.0559,3.53261 -6.0559,3.53261 h -50.4659 c 0,0 -4.0372,-1.00932 -5.5512,-2.85973 -1.514,-1.85041 -1.514,-5.38302 -1.514,-5.38302 V 531.5735 c 0,0 0.3365,-3.53261 1.6822,-4.71014 1.3458,-1.17754 5.5513,-1.85042 5.5513,-1.85042 z"
   id="Shape-2-36" /><path
   style="fill:none;stroke:#ff0000;stroke-width:2;stroke-linejoin:round"
   d="m 1719.5393,525.01294 h 48.9519 c 0,0 3.028,0.16822 4.7101,1.85042 1.6822,1.68219 2.0187,5.38302 2.0187,5.38302 v 69.47464 c 0,0 -0.8411,3.5326 -1.8504,5.2148 -1.0093,1.68219 -5.7195,2.35507 -5.7195,2.35507 h -46.765 c 0,0 -4.3737,-0.16822 -6.0559,-1.68219 -1.6822,-1.51398 -2.3551,-6.22412 -2.3551,-6.22412 v -69.9793 c 0,0 0.3365,-3.36439 1.6822,-4.54192 1.3458,-1.17754 5.383,-1.85042 5.383,-1.85042 z"
   id="Shape-2-35" /><path
   style="fill:none;stroke:#ff0000;stroke-width:2;stroke-linejoin:round"
   d="m 1793.0512,524.84472 h 79.3996 c 0,0 7.7381,0.33644 10.0932,5.88768 2.3551,5.55125 -2.6915,13.12112 -2.6915,13.12112 l -62.5777,62.07298 c 0,0 -1.0093,2.01864 -2.1868,2.69151 -1.1775,0.67288 -4.0373,0.67288 -4.0373,0.67288 h -18.1677 c 0,0 -4.0372,-0.16822 -5.5512,-1.85041 -1.514,-1.6822 -2.1869,-5.88768 -2.1869,-5.88768 v -69.9793 c 0,0 0.3365,-2.69151 2.0187,-4.37371 1.6822,-1.68219 5.8876,-2.35507 5.8876,-2.35507 z"
   id="Shape-2-74" /><path
   style="fill:none;stroke:#ff0000;stroke-width:2;stroke-linejoin:round"
   d="m 1852.2645,438.71636 h 79.9042 c 0,0 4.0373,-0.33644 5.7195,1.85041 1.6822,2.18685 2.0186,6.0559 1.1775,7.90632 -0.8411,1.85041 -8.2427,14.80331 -9.5885,21.86853 -1.3457,7.06521 -2.5233,14.97153 -2.6915,17.99948 -0.1682,3.02795 -0.1682,8.91563 -6.5605,15.13975 -6.3924,6.22412 -13.794,7.56988 -16.6538,7.56988 -2.8597,0 -6.0559,0 -6.0559,0 h -37.3447 c 0,0 -3.5326,-0.33644 -5.383,-1.85042 -1.8504,-1.51397 -2.5233,-6.22412 -2.5233,-6.22412 z"
   id="Shape-2-21" /><path
   style="fill:none;stroke:#ff0000;stroke-width:2;stroke-linejoin:round"
   d="m 1793.3877,438.37992 h 36.6718 c 0,0 4.7102,0.50466 6.0559,1.68219 1.3458,1.17754 2.3551,5.21481 2.3551,5.21481 v 59.38147 c 0,0 -0.5047,1.85041 -2.0186,3.70082 -1.514,1.85042 -5.7195,2.69152 -5.7195,2.69152 h -37.8494 c 0,0 -4.3737,-0.50466 -5.7194,-2.35508 -1.3458,-1.85041 -1.8504,-5.88768 -1.8504,-5.88768 v -57.19462 c 0,0 1.5139,-4.71014 2.6915,-5.55124 1.1775,-0.84109 5.383,-1.68219 5.383,-1.68219 z"
   id="Shape-2-20" /><path
   style="fill:none;stroke:#ff0000;stroke-width:2;stroke-linejoin:round"
   d="m 1720.5487,438.71636 h 43.9052 c 0,0 4.2055,0.33644 5.5513,2.01863 1.3457,1.6822 1.6822,5.55124 1.6822,5.55124 v 58.7086 c 0,0 -0.5047,2.01863 -1.514,3.36438 -1.0093,1.34576 -5.5512,2.69152 -5.5512,2.69152 h -42.3913 c 0,0 -3.7009,0.16822 -5.2149,-1.51398 -1.5139,-1.68219 -3.0279,-6.56056 -3.0279,-6.56056 v -57.0264 c 0,0 0.1682,-3.70082 1.6822,-5.38302 1.514,-1.68219 4.8784,-1.85041 4.8784,-1.85041 z"
   id="Shape-2-19" /><path
   style="fill:none;stroke:#ff0000;stroke-width:2;stroke-linejoin:round"
   d="m 1665.5409,438.88458 h 31.2888 c 0,0 2.1869,-0.67288 3.028,0.84109 0.8411,1.51398 0.3364,3.36439 0.3364,3.36439 v 62.2412 c 0,0 -0.1682,1.85042 -1.6822,3.36439 -1.514,1.51398 -5.383,2.18686 -5.383,2.18686 h -27.7562 z"
   id="Shape-2-18" /><path
   style="fill:none;stroke:#ff0000;stroke-width:2;stroke-linejoin:round"
   d="m 1534.6816,438.68436 h 56.144 v 54.7166 h 71.3694 v 17.36657 h -127.2755 c 0,0 -3.8064,0.4758 -5.7096,-1.18949 -1.9032,-1.66529 -2.6169,-5.94746 -2.6169,-5.94746 v -57.09557 c 0,0 0.4758,-4.04427 1.9032,-5.70956 1.4274,-1.66529 6.1854,-2.14109 6.1854,-2.14109 z"
   id="Shape-2-17" /><path
   style="fill:none;stroke:#ff0000;stroke-width:2;stroke-linejoin:round"
   d="m 1483.0577,438.92226 h 20.6971 c 0,0 4.758,-0.2379 6.4233,1.42739 1.6652,1.66529 2.8547,5.47166 2.8547,5.47166 v 58.28507 c 0,0 -0.7137,2.85478 -2.141,4.52007 -1.4274,1.66528 -4.5201,2.61688 -4.5201,2.61688 h -23.5519 z"
   id="Shape-2-16" /><path
   style="fill:none;stroke:#ff0000;stroke-width:2;stroke-linejoin:round"
   d="m 1433.8127,438.68436 h 44.7249 v 72.32107 h -44.9628 c 0,0 -3.5685,-0.2379 -5.2337,-1.18949 -1.6653,-0.95159 -3.0927,-5.70956 -3.0927,-5.70956 v -58.99876 c 0,0 0.7137,-3.09268 1.9032,-4.52007 1.1895,-1.42739 6.6611,-1.90319 6.6611,-1.90319 z"
   id="Shape-2-15" /><path
   style="fill:none;stroke:#ff0000;stroke-width:2;stroke-linejoin:round"
   d="m 1236.0242,531.24448 17.831,-11.28647 17.6386,30.55108 -17.137,10.88587 z"
   id="Shape-2-71"
   sodipodi:nodetypes="ccccc" /></g>
<g
   id="floor"
   style="display:none"
   sodipodi:insensitive="true">
	<path
   id="floor-2"
   style="fill:none;stroke:#ff0000;stroke-width:2;stroke-linejoin:round"
   d="m 1204.2,490.70004 228.9,368.69998 h 214.5 l 1.4,-5.29998 h 159 v 5.79998 h 441.2 c 0,0 11.3,6.70002 20,5.90003 1.1999,-0.1 2.3999,-0.40003 3.5,-0.79999 8.6999,-3.59997 14.6999,-12 15.8999,-15.59997 1.1999,-3.59998 -0.8999,-12 -0.8999,-12 l 248,-396.60001 c -0.1,-9e-5 11,-20.20007 0.1999,-39.70007 C 2525.0999,381.5 2499.2,380.89999 2499.2,380.89999 L 2260,380.60001 c 0,0 -32.2,-0.60001 -47.5,-7.5 -15.3,-6.9 -24.3999,-11.70002 -24.3999,-11.70002 l -50.6001,-50.29998 -50,-5.70002 c 0,0 -50,-22.6 -99.6,-14.70001 -49.6999,7.79999 -74.6,22.29999 -99.6,41.20001 -25,18.90003 -45.4,48.4 -45.4,48.4 l -38.1999,0.89999 c 0,0 -0.6,-29.20001 -27.7,-29.5 -27.1,-0.29999 -32.5,29.5 -32.5,29.5 h -201.6 c 0,0 -3,-29.5 -26.1999,-29.5 -23.2,0 -34.3001,29.5 -34.3001,29.5 h -200.4 c 0,0 -2.1,-29.5 -30.1,-29.5 -28,0 -31.5999,28.9 -31.5999,28.9 l -87,0.5 44.3,71.79998 z m 179.2,-24.60003 c 0,0 -8.6,20 -25.1,39.70001 -16.5,19.69998 -25.6999,21.89999 -25.6999,21.89999 l -0.6,12.09998 -45.4,-0.59998 v -22.59997 c 0,0 11.4,-22.9 23.5,-37.79999 12.1,-14.9 27,-22.60001 27,-22.60001 l -0.3001,-4.39999 46.7,0.29999 v 13.99997 z m 489.8406,209.0271 -44.9406,46.0729 -47.5999,-46.29999 46.3,-48.09997 c -0.1001,-6e-5 46.2405,48.32706 46.2405,48.32706 z m 25.2136,-38.70846 -32.8499,-33.28304 29.6957,-30.83562 45.8001,-44.90003 c 0,0 9.9,15.29999 14.8,20.70002 4.9001,5.40002 18.9001,11.70001 18.9001,11.70001 z M 2010.4,540.40002 c -26.6999,0 -48.3,-21.59997 -48.3,-48.29998 0,-26.70002 21.6,-48.29999 48.3,-48.29999 26.7001,0 48.3,21.6 48.3,48.29999 0,26.70001 -21.6,48.29998 -48.3,48.29998 z M 2079.5,456 v 0 c 0,0 -4.8999,-9.39999 -12.6001,-17.5 -7.6001,-8.10001 -22.5,-15.29999 -22.5,-15.29999 l 73.3001,-71.5 c 0,0 11.1999,2.70001 20.6999,11.20001 9.3999,8.5 11.7,22.5 11.7,22.5 z"
   sodipodi:nodetypes="cccccccccscccccsccccsccsccsccscccccsccccsccccccccccccccsccssssscccccccc" />
</g>
<g
   id="texts"
   style="display:inline">
	
		<circle
   id="entrance-3"
   style="fill:#ffffff;stroke:#000000;stroke-miterlimit:10"
   cx="2261.165"
   cy="249.58064"
   r="6.1276598" />
	
		<circle
   id="entrance-4"
   style="fill:#ffffff;stroke:#000000;stroke-miterlimit:10"
   cx="2479.624"
   cy="278.76917"
   r="6.1276598" />
	
		<circle
   id="entrance-5"
   style="fill:#ffffff;stroke:#000000;stroke-miterlimit:10"
   cx="1717.1199"
   cy="1029.2371"
   r="6.1276598" />
	
		<circle
   id="entrance-2"
   style="fill:#ffffff;stroke:#000000;stroke-miterlimit:10"
   cx="1383.6074"
   cy="278.76917"
   r="6.1276598" />
	
		<circle
   id="entrance-1"
   style="fill:#ffffff;stroke:#000000;stroke-miterlimit:10"
   cx="917.15497"
   cy="278.76917"
   r="6.1276598" />
	
		<circle
   id="entrance-7"
   style="fill:#ffffff;stroke:#000000;stroke-miterlimit:10"
   cx="283.47293"
   cy="278.76917"
   r="6.1276598" />
	
		<circle
   id="entrance-6"
   style="fill:#ffffff;stroke:#000000;stroke-miterlimit:10"
   cx="1106.4503"
   cy="1029.2371"
   r="6.1276598" />
</g><g
   inkscape:groupmode="layer"
   id="layer1"
   inkscape:label="hide"
   style="display:none"><path
     id="path132390"
     style="display:inline;fill:#ff0000"
     d="m 317,352.09961 c -1.70001,0 -3,1.29998 -3,3 V 372 c -1.19998,0.60001 -3.40039,1.59922 -7.40039,3.69922 -4.79999,2.5 -10.29999,5.5 -13.5,8 -6.29994,4.99995 -10.90039,13.90039 -10.90039,13.90039 -0.1,0.20001 -0.0992,0.3996 -0.19922,0.59961 l -3,10.60156 -10.19922,0.79883 c -1.59998,0.1 -2.80078,1.39999 -2.80078,3 v 205.59961 c 0,1.70001 1.29999,3 3,3 h 34 V 693.5 762 l 0.19922,-0.80078 c 0,0 -0.29883,1.00036 -0.29883,2.40039 0,1.40002 0.19883,3.20001 0.79883,5.5 1.29999,4.59992 4.50084,10.79967 11.80078,18.09961 C 329.89994,801.59909 343.40039,808 343.40039,808 c 1.4,0.70001 3.1004,0.2008 3.90039,-1.19922 L 407.5,702.69922 h 15.09961 c 1.70001,0 3,-1.29999 3,-3 v -27.09961 c -0.19999,-0.5 -0.50039,-0.89923 -0.90039,-1.19922 h 0.40039 l -15.5,-26.70117 V 497.80078 c 0,-0.60001 -0.20002,-1.10156 -0.5,-1.60156 L 372.5,437.80078 l 0.55469,-57.67773 h -0.0586 l -0.69531,-25.32227 c -0.20001,-1.5 -1.5,-2.70117 -3,-2.70117 z m 3.09961,6.5 h 46.59961 l 0.2168,21.63477 -0.61524,58.36523 c 0,0.6 0.20001,1.09961 0.5,1.59961 l 36.59961,58.40039 v 146.59961 c 0,0.5 0.1004,1 0.40039,1.5 l 15.69922,27 v 22.70117 h -13.90039 c -1.10001,0 -2.09961,0.59998 -2.59961,1.5 l -59.59961,103 c -3,-1.5 -12.20043,-6.50121 -23.90039,-18.20117 -6.69996,-6.69996 -9.19922,-11.99842 -10.19922,-15.39844 -0.4,-1.70001 -0.5,-2.90119 -0.5,-3.70117 0.1,-0.69999 0.0996,-0.79883 0.0996,-0.79883 C 309.00042,762.60077 309,762.29999 309,762 v -68 -75.30078 c 0,-1.70001 -1.29999,-3 -3,-3 H 272 V 415.90039 l 9.5,-0.70117 c 1.30002,-0.10001 2.39923,-0.99921 2.69922,-2.19922 l 3.5,-12.19922 c 0.20001,-0.4 4.70122,-8.30078 9.20117,-11.80078 2.30002,-1.79999 7.79962,-4.90039 12.59961,-7.40039 4.79999,-2.5 8.90039,-4.5 8.90039,-4.5 1,-0.5 1.69922,-1.49921 1.69922,-2.69922 z" /><path
     id="path132379"
     style="display:inline;fill:#ff0000"
     d="m 404.19922,350.80078 c -1.6,0 -3,1.39999 -3,3 l 0.2539,26.32227 h -0.0527 v 26.57617 c 0,0.60001 0.20002,1.20117 0.5,1.70117 l 62,92 -0.20117,145.29883 c 0,1 0.50079,1.90003 1.30078,2.5 l 38.19922,25.90039 v 7.09961 c 0,0.60004 0.20001,1.20117 0.5,1.70117 l 134.10156,195.79883 c 0.39996,1.30005 2.6989,7.80041 9.29883,10.40039 3.70001,1.39996 7.50037,1.0008 10.40039,0.30078 2.5,-0.60003 3.7008,-1.20038 4.30078,-1.40039 h 276.29883 l 7.59961,10.69922 c 1,1.29999 2.90119,1.70117 4.20117,0.70117 L 1065.1992,817.69922 H 1174.5 c 0.6,0 1.1992,-0.1 1.6992,-0.5 l 44.7012,-31.5 c 1.4,-0.89996 1.6988,-2.69959 0.7988,-4.09961 l -139.8066,-205.53125 -0.1133,-0.16016 -0.4824,-0.70898 -0.018,0.002 L 969.59961,417.5 c -0.5,-0.70001 -1.40039,-1.19922 -2.40039,-1.19922 H 922.59961 L 930.90039,402 c 0.30003,-0.5 0.40039,-1 0.40039,-1.5 0,-1.70001 -1.29999,-3 -3,-3 h -78.90039 v -43.69922 c 0,-1.70001 -1.29998,-3 -3,-3 z m 3.10156,6.5 H 843.09961 V 401 c 0,1.70001 1.29998,3 3,3 h 76.80078 l -8.30078,14.30078 c -0.30003,0.5 -0.40039,1 -0.40039,1.5 0,1.70001 1.29999,3 3,3 H 965.5 l 109.1621,153.19141 -0.062,0.008 140.5,206.5 -41.5,29.19922 h -109.2988 c -0.5999,0 -1.2012,0.20153 -1.7012,0.60156 l -113.69921,80.39844 -6.80078,-9.5 c -0.5,-0.79999 -1.40039,-1.29883 -2.40039,-1.29883 H 661.40039 c -0.40003,0 -0.80114,0.0988 -1.20117,0.29883 0,0 -1.69995,0.7008 -4,1.30078 -2.30005,0.59998 -5.09845,0.70001 -6.89844,0 -3.8,-1.40002 -5.90039,-7 -5.90039,-7 -0.10003,-0.29999 -0.20038,-0.60077 -0.40039,-0.80078 L 508.90039,680.40039 v -7.80078 c 0,-1 -0.5008,-1.90003 -1.30078,-2.5 L 469.5,644.19922 469.69922,499.5 c 0,-0.60001 -0.20001,-1.19922 -0.5,-1.69922 l -62,-92 v -25.67773 h -0.2168 z" /></g>
<g
   id="roof"
   inkscape:label="roof"
   style="display:none"
   sodipodi:insensitive="true"><path
     style="display:inline;fill:none;stroke:#ff0000;stroke-width:2;stroke-linejoin:round"
     d="M 404.39999,406.59998 467,499.39996 l -0.20001,146.29999 39.5,26.79999 v 8.70001 l 134.29999,196.09998 c 0,0 2.09997,6.79998 7.70001,8.90002 5.5,2.09998 13.20001,-1.29999 13.20001,-1.29999 h 278.29999 l 8.5,11.90003 L 1064.5,814.70001 h 110.2 l 44.6999,-31.5 -252.09973,-363.80005 h -49.79999 l 10.90003,-18.79998 H 846.50018 V 353.89996 H 404.29999 Z"
     id="path123247"
     inkscape:label="roof-1" /><path
     style="display:inline;fill:none;stroke:#ff0000;stroke-width:2;stroke-linejoin:round"
     d="m 369.39999,355.19998 h -52.29998 l -0.20002,18.70001 c 0,0 -12.6,5.10001 -18.20001,9.20002 -5.6,4.1 -14.20001,16.1 -14.20001,16.1 l -3.20001,13 -12.4,0.5 v 205.60004 h 37 V 693.60004 762 c 0,0 -2.6,8.90002 11.5,23 14,14 27.10001,20.20001 27.10001,20.20001 l 61.10001,-105.59997 h 16.89999 v -27.09998 l -0.10001,0.29999 -15.89999,-27.40003 V 497.70001 l -37,-59.20001 z"
     id="floor-2-4"
     inkscape:label="roof-3" /></g></svg>
