<?xml version="1.0" encoding="UTF-8" standalone="no"?>
<!-- Generator: Adobe Illustrator 26.4.1, SVG Export Plug-In . SVG Version: 6.00 Build 0)  -->

<svg
   version="1.1"
   id="svg755084"
   x="0px"
   y="0px"
   width="2600px"
   height="1200px"
   viewBox="0 0 2600 1200"
   style="enable-background:new 0 0 2600 1200;"
   xml:space="preserve"
   sodipodi:docname="grand-floor-0-final.svg"
   inkscape:version="1.2.2 (b0a8486, 2022-12-01)"
   xmlns:inkscape="http://www.inkscape.org/namespaces/inkscape"
   xmlns:sodipodi="http://sodipodi.sourceforge.net/DTD/sodipodi-0.dtd"
   xmlns="http://www.w3.org/2000/svg"
   xmlns:svg="http://www.w3.org/2000/svg"><sodipodi:namedview
   id="namedview72064"
   pagecolor="#ffffff"
   bordercolor="#000000"
   borderopacity="0.25"
   inkscape:showpageshadow="2"
   inkscape:pageopacity="0.0"
   inkscape:pagecheckerboard="0"
   inkscape:deskcolor="#d1d1d1"
   showgrid="false"
   inkscape:zoom="2.2192274"
   inkscape:cx="1979.0671"
   inkscape:cy="669.8277"
   inkscape:window-width="1413"
   inkscape:window-height="763"
   inkscape:window-x="1928"
   inkscape:window-y="25"
   inkscape:window-maximized="0"
   inkscape:current-layer="layer2" /><defs
   id="defs49822"><clipPath
     clipPathUnits="userSpaceOnUse"
     id="clipPath546166"><path
       d="M 856.27,143.461 H 1950 V 698.34 H 856.27 Z"
       id="path546164" /></clipPath><clipPath
     clipPathUnits="userSpaceOnUse"
     id="clipPath546176"><path
       d="M 0,0 H 1951 V 843 H 0 Z"
       id="path546174" /></clipPath><clipPath
     clipPathUnits="userSpaceOnUse"
     id="clipPath556048"><path
       d="M 0,0 H 1951 V 843 H 0 Z"
       id="path556046" /></clipPath><clipPath
     clipPathUnits="userSpaceOnUse"
     id="clipPath556064"><path
       d="M 0,0 H 1951 V 843 H 0 Z"
       id="path556062" /></clipPath><clipPath
     clipPathUnits="userSpaceOnUse"
     id="clipPath556156"><path
       d="M 0,0 H 1951 V 843 H 0 Z"
       id="path556154" /></clipPath><clipPath
     clipPathUnits="userSpaceOnUse"
     id="clipPath556176"><path
       d="M 0,0 H 1951 V 843 H 0 Z"
       id="path556174" /></clipPath><clipPath
     clipPathUnits="userSpaceOnUse"
     id="clipPath556212"><path
       d="M 0,0 H 1951 V 843 H 0 Z"
       id="path556210" /></clipPath><clipPath
     clipPathUnits="userSpaceOnUse"
     id="clipPath556236"><path
       d="M 0,0 H 1951 V 843 H 0 Z"
       id="path556234" /></clipPath><clipPath
     clipPathUnits="userSpaceOnUse"
     id="clipPath665004"><path
       d="M 817.027,138.66 H 1950 V 703.199 H 817.027 Z"
       id="path665002" /></clipPath><clipPath
     clipPathUnits="userSpaceOnUse"
     id="clipPath665014"><path
       d="M 0,0 H 1951 V 843 H 0 Z"
       id="path665012" /></clipPath><clipPath
     clipPathUnits="userSpaceOnUse"
     id="clipPath673862"><path
       d="M 0,0 H 1951 V 843 H 0 Z"
       id="path673860" /></clipPath><clipPath
     clipPathUnits="userSpaceOnUse"
     id="clipPath673882"><path
       d="M 0,0 H 1951 V 843 H 0 Z"
       id="path673880" /></clipPath><clipPath
     clipPathUnits="userSpaceOnUse"
     id="clipPath673902"><path
       d="M 0,0 H 1951 V 843 H 0 Z"
       id="path673900" /></clipPath><clipPath
     clipPathUnits="userSpaceOnUse"
     id="clipPath673926"><path
       d="M 0,0 H 1951 V 843 H 0 Z"
       id="path673924" /></clipPath><clipPath
     clipPathUnits="userSpaceOnUse"
     id="clipPath111177"><path
       d="m 2339,0 h 9353 V 19842 H 2339 V 0"
       id="path111175" /></clipPath><clipPath
     clipPathUnits="userSpaceOnUse"
     id="clipPath113709"><path
       d="m 2339,0 h 9353 V 19842 H 2339 V 0"
       id="path113707" /></clipPath><clipPath
     clipPathUnits="userSpaceOnUse"
     id="clipPath113721"><path
       d="m 2339,0 h 9353 V 19842 H 2339 V 0"
       id="path113719" /></clipPath><clipPath
     clipPathUnits="userSpaceOnUse"
     id="clipPath113769"><path
       d="m 2339,0 h 9353 V 19842 H 2339 V 0"
       id="path113767" /></clipPath><clipPath
     clipPathUnits="userSpaceOnUse"
     id="clipPath113781"><path
       d="m 2339,0 h 9353 V 19842 H 2339 V 0"
       id="path113779" /></clipPath><clipPath
     clipPathUnits="userSpaceOnUse"
     id="clipPath124012"><path
       d="m 2208,0 h 9616 V 19842 H 2208 V 0"
       id="path124010" /></clipPath><clipPath
     clipPathUnits="userSpaceOnUse"
     id="clipPath124826"><path
       d="m 2208,0 h 9616 V 19842 H 2208 V 0"
       id="path124824" /></clipPath><clipPath
     clipPathUnits="userSpaceOnUse"
     id="clipPath124838"><path
       d="m 2208,0 h 9616 V 19842 H 2208 V 0"
       id="path124836" /></clipPath><clipPath
     clipPathUnits="userSpaceOnUse"
     id="clipPath128608"><path
       d="m 2208,0 h 9616 V 19842 H 2208 V 0"
       id="path128606" /></clipPath><clipPath
     clipPathUnits="userSpaceOnUse"
     id="clipPath128620"><path
       d="m 2208,0 h 9616 V 19842 H 2208 V 0"
       id="path128618" /></clipPath></defs>
<g
   id="wall"
   style="display:inline">
	<path
   id="grand-3-f5"
   style="fill:#ff0000"
   d="m 317,352.09961 c -1.70001,0 -3,1.29998 -3,3 V 372 c -1.19998,0.60001 -3.40039,1.59922 -7.40039,3.69922 -4.79999,2.5 -10.29999,5.5 -13.5,8 -6.29994,4.99995 -10.90039,13.90039 -10.90039,13.90039 -0.1,0.20001 -0.0992,0.3996 -0.19922,0.59961 l -3,10.60156 -10.19922,0.79883 c -1.59998,0.1 -2.80078,1.39999 -2.80078,3 v 205.59961 c 0,1.70001 1.29999,3 3,3 h 34 V 693.5 762 l 0.19922,-0.80078 c 0,0 -0.29883,1.00036 -0.29883,2.40039 0,1.40002 0.19883,3.20001 0.79883,5.5 1.29999,4.59992 4.50084,10.79967 11.80078,18.09961 C 329.89994,801.59909 343.40039,808 343.40039,808 c 1.4,0.70001 3.1004,0.2008 3.90039,-1.19922 L 407.5,702.69922 h 15.09961 c 1.70001,0 3,-1.29999 3,-3 v -27.09961 c -0.19999,-0.5 -0.50039,-0.89923 -0.90039,-1.19922 h 0.40039 l -15.5,-26.70117 V 497.80078 c 0,-0.60001 -0.20002,-1.10156 -0.5,-1.60156 L 372.5,437.80078 l 0.55469,-57.67773 h -0.0586 l -0.69531,-25.32227 c -0.20001,-1.5 -1.5,-2.70117 -3,-2.70117 z m 3.09961,6.5 h 46.59961 l 0.2168,21.63477 -0.61524,58.36523 c 0,0.6 0.20001,1.09961 0.5,1.59961 l 36.59961,58.40039 v 146.59961 c 0,0.5 0.1004,1 0.40039,1.5 l 15.69922,27 v 22.70117 h -13.90039 c -1.10001,0 -2.09961,0.59998 -2.59961,1.5 l -59.59961,103 c -3,-1.5 -12.20043,-6.50121 -23.90039,-18.20117 -6.69996,-6.69996 -9.19922,-11.99842 -10.19922,-15.39844 -0.4,-1.70001 -0.5,-2.90119 -0.5,-3.70117 0.1,-0.69999 0.0996,-0.79883 0.0996,-0.79883 C 309.00042,762.60077 309,762.29999 309,762 v -68 -75.30078 c 0,-1.70001 -1.29999,-3 -3,-3 H 272 V 415.90039 l 9.5,-0.70117 c 1.30002,-0.10001 2.39923,-0.99921 2.69922,-2.19922 l 3.5,-12.19922 c 0.20001,-0.4 4.70122,-8.30078 9.20117,-11.80078 2.30002,-1.79999 7.79962,-4.90039 12.59961,-7.40039 4.79999,-2.5 8.90039,-4.5 8.90039,-4.5 1,-0.5 1.69922,-1.49921 1.69922,-2.69922 z" /><path
   id="grand-1-f5"
   style="fill:#ff0000"
   d="m 404.19922,350.80078 c -1.6,0 -3,1.39999 -3,3 l 0.2539,26.32227 h -0.0527 v 26.57617 c 0,0.60001 0.20002,1.20117 0.5,1.70117 l 62,92 -0.20117,145.29883 c 0,1 0.50079,1.90003 1.30078,2.5 l 38.19922,25.90039 v 7.09961 c 0,0.60004 0.20001,1.20117 0.5,1.70117 l 134.10156,195.79883 c 0.39996,1.30005 2.6989,7.80041 9.29883,10.40039 3.70001,1.39996 7.50037,1.0008 10.40039,0.30078 2.5,-0.60003 3.7008,-1.20038 4.30078,-1.40039 h 276.29883 l 7.59961,10.69922 c 1,1.29999 2.90119,1.70117 4.20117,0.70117 L 1065.1992,817.69922 H 1174.5 c 0.6,0 1.1992,-0.1 1.6992,-0.5 l 44.7012,-31.5 c 1.4,-0.89996 1.6988,-2.69959 0.7988,-4.09961 l -139.8066,-205.53125 -0.1133,-0.16016 -0.4824,-0.70898 -0.018,0.002 L 969.59961,417.5 c -0.5,-0.70001 -1.40039,-1.19922 -2.40039,-1.19922 H 922.59961 L 930.90039,402 c 0.30003,-0.5 0.40039,-1 0.40039,-1.5 0,-1.70001 -1.29999,-3 -3,-3 h -78.90039 v -43.69922 c 0,-1.70001 -1.29998,-3 -3,-3 z m 3.10156,6.5 H 843.09961 V 401 c 0,1.70001 1.29998,3 3,3 h 76.80078 l -8.30078,14.30078 c -0.30003,0.5 -0.40039,1 -0.40039,1.5 0,1.70001 1.29999,3 3,3 H 965.5 l 109.1621,153.19141 -0.062,0.008 140.5,206.5 -41.5,29.19922 h -109.2988 c -0.5999,0 -1.2012,0.20153 -1.7012,0.60156 l -113.69921,80.39844 -6.80078,-9.5 c -0.5,-0.79999 -1.40039,-1.29883 -2.40039,-1.29883 H 661.40039 c -0.40003,0 -0.80114,0.0988 -1.20117,0.29883 0,0 -1.69995,0.7008 -4,1.30078 -2.30005,0.59998 -5.09845,0.70001 -6.89844,0 -3.8,-1.40002 -5.90039,-7 -5.90039,-7 -0.10003,-0.29999 -0.20038,-0.60077 -0.40039,-0.80078 L 508.90039,680.40039 v -7.80078 c 0,-1 -0.5008,-1.90003 -1.30078,-2.5 L 469.5,644.19922 469.69922,499.5 c 0,-0.60001 -0.20001,-1.19922 -0.5,-1.69922 l -62,-92 v -25.67773 h -0.2168 z" /><path
   id="grand-2-f5"
   style="fill:#ff0000"
   d="m 2006.2578,285.93945 c -6.1455,0.15313 -12.3957,0.67266 -18.6582,1.66016 -50.0996,7.89996 -75.8,22.70084 -101,41.80078 -23.8999,18.19993 -42.7992,44.50039 -45.1992,47.90039 l -34,0.79883 c -0.2999,-2.9 -1.0012,-7.30041 -3.7012,-12.90039 -3.8999,-8.09997 -12.0992,-16.3996 -26.6992,-16.59961 -14.7,-0.20002 -23.9,8.00003 -29,16 -3.8001,5.99997 -5.2008,10.89999 -5.8008,13.5 h -196.7988 c -0.3999,-2.70002 -1.3011,-7.29965 -4.2012,-13.09961 -4,-7.89996 -11.5999,-16.40039 -24.5,-16.40039 -12.7999,0 -22.1992,8.10043 -28.1992,15.90039 -4.8001,6.19998 -7.1,11.39959 -8,13.59961 h -196 c -0.4,-2.80002 -1.3001,-7.39926 -4.5,-13.19922 -4.3999,-7.99997 -13.1992,-16.30078 -28.1992,-16.30078 -15.0999,0 -24.1003,8.10043 -28.9004,15.90039 -3.4,5.69998 -4.5996,10.29999 -5.0996,13 l -84.6016,0.5 c -0.6,0 -1.0996,0.10041 -1.5996,0.40039 -2.4246,1.41477 -1,4.09961 -1,4.09961 0,0 211.6396,336.49941 299.9004,478.59961 0.5,0.90003 1.5,1.40039 2.5,1.40039 h 214.5 c 1.4,0 2.5004,-0.89924 2.9004,-2.19922 l 0.7988,-3.10156 H 1805 V 860 c 0,1.70001 1.3,3 3,3 h 440.4004 c 0.6001,0.29999 2.6987,1.5 6.2988,3 4.1,1.70001 9.4017,3.30042 14.6016,2.90039 1.5,-0.1 2.9984,-0.40002 4.3984,-1 4.8999,-2.09997 8.9004,-5.29956 11.9004,-8.59961 3,-3.30005 4.9009,-6.30041 5.8008,-8.90039 1,-3 0.4991,-6.10077 0.1,-8.80078 -0.3,-2 -0.4992,-2.79962 -0.6992,-3.59961 l 247.5996,-395.59961 0.1,-0.0996 c 0,0 12.0008,-21.50161 0.3008,-42.60156 C 2527,378.39925 2499.5,378 2499.5,378 h -0.1 l -239.2012,-0.30078 c 0,0 -7.9987,-0.19922 -17.7988,-1.19922 -9.8,-1 -21.6016,-2.89959 -28.6016,-6.09961 -14.8,-6.69998 -23.2988,-11.20001 -23.7988,-11.5 L 2139.7988,309 c -0.5,-0.5 -1.0989,-0.80039 -1.7988,-0.90039 l -49.5996,-5.69922 c -1.2249,-0.61248 -39.1241,-17.53281 -82.1426,-16.46094 z m 0.072,6.17188 c 41.9467,-0.90918 79.7695,16.08789 79.7695,16.08789 0.2998,0.10001 0.6004,0.20117 0.9004,0.20117 l 48.9004,5.59961 49.7988,49.5 c 0.1999,0.20001 0.4012,0.39999 0.7012,0.5 0,0 9.1997,4.80081 24.5996,11.80078 8.3999,3.80002 20.3999,5.59961 30.5,6.59961 10.1001,1 18.3008,1.19922 18.3008,1.19922 h 0.1 l 239.1992,0.30078 c 0,0 24.3013,0.79968 34.2012,18.59961 10,17.99994 -0.3008,36.80078 -0.3008,36.80078 l -247.9004,396.39844 c -0.5,0.70002 -0.6004,1.50079 -0.4004,2.30078 0,0 0.4009,2.00036 0.8008,4.40039 0.3,2.40002 0.2991,5.40002 0.1,6 -0.3001,1.09997 -2,3.99885 -4.5,6.79883 -2.5,2.79999 -5.8991,5.50158 -9.6992,7.10156 -0.7001,0.29999 -1.5996,0.49961 -2.5996,0.59961 -3.4001,0.29999 -8.1008,-1.09997 -11.8008,-2.5 -3.7,-1.40002 -6.3008,-3 -6.3008,-3 -0.4,-0.30002 -1,-0.40039 -1.5,-0.40039 H 1811 v -2.80078 c 0,-1.70001 -1.3,-3 -3,-3 h -159.3008 c -1.4001,0 -2.4983,0.90119 -2.8984,2.20117 L 1645,856.5 h -210.5 l -296.0996,-472.19922 81.5996,-0.5 c 1.5,0 2.8,-1.10156 3,-2.60156 0,0 0.9004,-6.69885 4.9004,-13.29883 4,-6.59997 10.6992,-13 23.6992,-13 12.9,0 19.2004,6.49923 22.9004,13.19922 3.7,6.69998 4.1992,13.5 4.1992,13.5 0.1,1.59997 1.4,2.80078 3,2.80078 h 200.4004 c 1.2,0 2.4008,-0.70038 2.8008,-1.90039 0,0 2.6,-7.00003 8,-14 5.4,-6.99997 13.2001,-13.59961 23.5,-13.59961 10.3,0 15.6996,6.29965 19.0996,13.09961 3.4,6.79999 4.0996,13.69922 4.0996,13.69922 0.1999,1.5 1.5,2.70117 3,2.70117 h 201.5996 c 1.5,0 2.6999,-1.1 3,-2.5 0,0 1.4012,-7.0008 5.7012,-13.80078 4.3001,-6.79999 11.3987,-13.29922 23.7988,-13.19922 12.4,0.20002 18.1008,6.49923 21.3008,13.19922 3.2001,6.69995 3.4004,13.40039 3.4004,13.40039 0.1,1.60001 1.3996,2.90039 3.0996,2.90039 L 1842.6992,383.5 c 1,0 1.9004,-0.50079 2.4004,-1.30078 0,0 20.4008,-29.29889 44.8008,-47.79883 24.8001,-18.89996 49.0991,-32.90121 98.2988,-40.70117 6.0625,-0.9625 12.1385,-1.45801 18.1309,-1.58789 z" />
</g>
<g
   id="roof"
   inkscape:label="roof"
   style="display:inline"><path
     style="display:inline;fill:none;stroke:#ff0000;stroke-width:2;stroke-linejoin:round"
     d="M 404.39999,406.59998 467,499.39996 l -0.20001,146.29999 39.5,26.79999 v 8.70001 l 134.29999,196.09998 c 0,0 2.09997,6.79998 7.70001,8.90002 5.5,2.09998 13.20001,-1.29999 13.20001,-1.29999 h 278.29999 l 8.5,11.90003 L 1064.5,814.70001 h 110.2 l 44.6999,-31.5 -252.09973,-363.80005 h -49.79999 l 10.90003,-18.79998 H 846.50018 V 353.89996 H 404.29999 Z"
     id="path123247"
     inkscape:label="roof-1" /><path
     style="display:inline;fill:none;stroke:#ff0000;stroke-width:2;stroke-linejoin:round"
     d="m 369.39999,355.19998 h -52.29998 l -0.20002,18.70001 c 0,0 -12.6,5.10001 -18.20001,9.20002 -5.6,4.1 -14.20001,16.1 -14.20001,16.1 l -3.20001,13 -12.4,0.5 v 205.60004 h 37 V 693.60004 762 c 0,0 -2.6,8.90002 11.5,23 14,14 27.10001,20.20001 27.10001,20.20001 l 61.10001,-105.59997 h 16.89999 v -27.09998 l -0.10001,0.29999 -15.89999,-27.40003 V 497.70001 l -37,-59.20001 z"
     id="floor-2-4"
     inkscape:label="roof-3" /></g><g
   id="shops"
   style="display:inline"
   transform="translate(0,-2.0632189e-4)">
	
	
	
	
	
	
	
	
	
	
	
	
	
	
	
	
	
	
	
	
	
	
	
	
	
	
	
	
	
	
	
	
	
	
	
	
	
	
	
	
	
	
	
	
	
	
	
	
		
	
		
	
		
	
		
	
		
	
		
	
	
	
	
	
	
	
	
	
	
	
	
	
	
	
	
	
	
	
	
	
	
	
	
	
	
	
	
	
	
	
	
	
	
	
	
	
	
	
	
	
	
	
	
	
	
	
	
	
	
	
	
	
	
	
	
	
	
	
	
	
	
	
	
	
	
	
	
	
	
	
	
	
	
	
	
	
	
	
	
	
	
	
	
	
	
	
	
	
	
	
	
	
	
	
	
	
	
	
	
	
	
	
	
	
	
	
	
	
	
	
		
<path
   id="Shape-2-31"
   style="fill:none;stroke:#ff0000;stroke-width:2.02401;stroke-linejoin:round"
   d="m 2087.2246,775.4833 v -0.0117 h -91.0098 v -28.79101 h 91.0098 v -7.67188 h 50.8945 v 36.47461 z" /><rect
   style="fill:none;stroke:#ff0000;stroke-width:2;stroke-linejoin:round"
   id="Shape-2-32"
   width="86.516594"
   height="35.597973"
   x="1905.1675"
   y="738.99591" /><rect
   style="fill:none;stroke:#ff0000;stroke-width:2;stroke-linejoin:round"
   id="Shape-2-33"
   width="46.412548"
   height="35.147366"
   x="1854.2489"
   y="739.89716" /><rect
   style="fill:none;stroke:#ff0000;stroke-width:2;stroke-linejoin:round"
   id="Shape-2-34"
   width="23.882185"
   height="36.04858"
   x="1825.8606"
   y="738.99591" /><rect
   style="fill:none;stroke:#ff0000;stroke-width:2;stroke-linejoin:round"
   id="Shape-2-24"
   width="32.443722"
   height="38.752224"
   x="1815.4967"
   y="642.56598" /><rect
   style="fill:none;stroke:#ff0000;stroke-width:2;stroke-linejoin:round"
   id="Shape-2-23"
   width="46.863155"
   height="38.752224"
   x="1853.3477"
   y="643.01654" /><rect
   style="fill:none;stroke:#ff0000;stroke-width:2;stroke-linejoin:round"
   id="Shape-2-22"
   width="47.313763"
   height="38.752224"
   x="1905.1675"
   y="643.01654" /><rect
   style="fill:none;stroke:#ff0000;stroke-width:2;stroke-linejoin:round"
   id="rect1020"
   width="47.76437"
   height="38.752224"
   x="1957.8885"
   y="643.01654" /><rect
   style="fill:none;stroke:#ff0000;stroke-width:2;stroke-linejoin:round"
   id="Shape-2-20"
   width="45.511333"
   height="38.752224"
   x="2011.0602"
   y="643.46716" /><rect
   style="fill:none;stroke:#ff0000;stroke-width:2;stroke-linejoin:round"
   id="Shape-2-19"
   width="50.918621"
   height="39.202831"
   x="2061.5283"
   y="643.01654" /><rect
   style="fill:none;stroke:#ff0000;stroke-width:2;stroke-linejoin:round"
   id="Shape-2-30"
   width="51.369228"
   height="38.752224"
   x="2061.9788"
   y="686.27484" /><rect
   style="fill:none;stroke:#ff0000;stroke-width:2;stroke-linejoin:round"
   id="Shape-2-29"
   width="48.214977"
   height="36.949795"
   x="2008.8073"
   y="687.17609" /><rect
   style="fill:none;stroke:#ff0000;stroke-width:2;stroke-linejoin:round"
   id="Shape-2-28"
   width="47.313763"
   height="37.851009"
   x="1956.9873"
   y="686.27484" /><rect
   style="fill:none;stroke:#ff0000;stroke-width:2;stroke-linejoin:round"
   id="Shape-2-27"
   width="64.887444"
   height="37.851009"
   x="1887.5939"
   y="686.27484" /><rect
   style="fill:none;stroke:#ff0000;stroke-width:2;stroke-linejoin:round"
   id="Shape-2-26"
   width="66.689873"
   height="37.851009"
   x="1815.9473"
   y="686.72546" /><rect
   style="fill:none;stroke:#ff0000;stroke-width:2;stroke-linejoin:round"
   id="Shape-2-25"
   width="25.234007"
   height="31.542509"
   x="1775.3926"
   y="647.07202" /><rect
   style="fill:none;stroke:#ff0000;stroke-width:2;stroke-linejoin:round"
   id="Shape-2-03"
   width="47.76437"
   height="37.400402"
   x="1852.4464"
   y="590.29553" /><rect
   style="fill:none;stroke:#ff0000;stroke-width:2;stroke-linejoin:round"
   id="Shape-2-04"
   width="47.313763"
   height="37.400402"
   x="1905.1675"
   y="590.74615" /><rect
   style="fill:none;stroke:#ff0000;stroke-width:2;stroke-linejoin:round"
   id="Shape-2-05"
   width="97.781776"
   height="37.400402"
   x="1957.8885"
   y="590.74615" /><rect
   style="fill:none;stroke:#ff0000;stroke-width:2;stroke-linejoin:round"
   id="Shape-2-06"
   width="73.448982"
   height="36.949795"
   x="2062.4294"
   y="590.74615" /><rect
   style="fill:none;stroke:#ff0000;stroke-width:1.3382;stroke-linejoin:round"
   id="Shape-2-50"
   width="32.50256"
   height="37.611591"
   x="2182.1125"
   y="590.41528" /><rect
   style="fill:none;stroke:#ff0000;stroke-width:1.45011;stroke-linejoin:round"
   id="Shape-2-44"
   width="25.783897"
   height="52.369724"
   x="2269.8845"
   y="643.64282" /><rect
   style="display:inline;fill:none;stroke:#ff0000;stroke-width:1.45011;stroke-linejoin:round"
   id="Shape-2-16"
   width="25.783897"
   height="52.369724"
   x="2302.3281"
   y="643.84467" /><rect
   style="fill:none;stroke:#ff0000;stroke-width:2;stroke-linejoin:round"
   id="Shape-2-17"
   width="102.73846"
   height="51.369228"
   x="2162.4644"
   y="643.46716" /><rect
   style="fill:none;stroke:#ff0000;stroke-width:2;stroke-linejoin:round"
   id="Shape-2-09"
   width="50.918621"
   height="17.123075"
   x="2266.7798"
   y="541.85522" /><rect
   style="fill:none;stroke:#ff0000;stroke-width:2;stroke-linejoin:round"
   id="Shape-2-10"
   width="21.629148"
   height="17.348379"
   x="2321.5286"
   y="541.62994" /><rect
   style="fill:none;stroke:#ff0000;stroke-width:2;stroke-linejoin:round"
   id="Shape-2-11"
   width="22.530363"
   height="16.897772"
   x="2346.7627"
   y="542.08057" /><path
   style="fill:none;stroke:#ff0000;stroke-width:2;stroke-linejoin:round"
   d="m 2266.5545,574.52426 h 35.3727 v 53.84757 h -84.7141 v -37.6257 h 49.5668 z"
   id="Shape-2-08" /><path
   style="fill:none;stroke:#ff0000;stroke-width:2;stroke-linejoin:round"
   d="m 2376.9533,584.88823 41.6812,24.10749 -21.6291,34.02085 h -25.91 v -51.36923 z"
   id="Shape-2-43" /><path
   style="fill:none;stroke:#ff0000;stroke-width:2;stroke-linejoin:round"
   d="m 2422.0141,539.15159 12.3917,6.98442 -15.3207,25.0087 17.5737,11.26518 -15.546,25.23401 -41.9064,-25.45931 z"
   id="Shape-2-14" /><path
   style="fill:none;stroke:#ff0000;stroke-width:2;stroke-linejoin:round"
   d="m 2488.2533,473.13763 11.4905,7.88563 -31.9931,52.72105 -18.7002,-10.81458 -11.7158,18.7002 -12.617,-4.95668 z"
   id="Shape-2-13" /><path
   style="fill:none;stroke:#ff0000;stroke-width:2;stroke-linejoin:round"
   d="m 2455.1337,458.7182 0.6759,19.37611 -1.8024,5.40729 -0.9012,1.35182 -12.617,-13.29292 z"
   id="Shape-2-38" /><path
   style="fill:none;stroke:#ff0000;stroke-width:2;stroke-linejoin:round"
   d="m 2426.9707,485.30403 11.4905,-11.03988 11.7158,12.8423 -10.8146,10.36397 z"
   id="Shape-2-39" /><path
   style="fill:none;stroke:#ff0000;stroke-width:2;stroke-linejoin:round"
   d="m 2414.8043,497.47042 9.6881,-9.46275 12.3917,12.84231 -9.9134,9.91336 z"
   id="Shape-2-40" /><path
   style="fill:none;stroke:#ff0000;stroke-width:2;stroke-linejoin:round"
   d="m 2401.0608,511.43925 10.5893,-10.81458 12.617,12.61701 -11.2652,10.58927 z"
   id="Shape-2-41" /><path
   style="fill:none;stroke:#ff0000;stroke-width:2;stroke-linejoin:round"
   d="m 1775.1673,591.42204 h 73.6743 v 36.72449 h -48.215 v 15.99656 h -25.4593 z"
   id="Shape-2-02" /><path
   style="fill:none;stroke:#ff0000;stroke-width:2;stroke-linejoin:round"
   d="m 1774.942,693.70989 h 26.1352 v 45.51133 h 21.1786 v 36.27388 h -46.8632 z"
   id="Shape-2-35" /><path
   style="fill:none;stroke:#ff0000;stroke-width:2;stroke-linejoin:round"
   d="m 2454.0072,390.22589 v 63.08502 l -80.2081,81.10931 h -211.7854 v 52.27044 h -391.1271 v 82.01052 h -26.1353 V 392.02832 h 104.5409 c 0,0 54.9741,-72.99838 111.7506,-81.10931 56.7765,-8.11093 131.5773,8.11093 131.5773,8.11093 l 68.4923,66.68988 z"
   id="Shape-2-01" /><rect
   style="fill:none;stroke:#ff0000;stroke-width:2.46004;stroke-linejoin:round"
   id="Shape-2-36"
   width="305.92181"
   height="280.7189"
   x="1432.2599"
   y="391.35712" /><path
   style="fill:none;stroke:#ff0000;stroke-width:2;stroke-linejoin:round"
   d="M 1425.7214,422.66962 V 643.46718 H 1309.4647 L 1222.0469,493.86556 V 424.47204 Z"
   id="Shape-2-37" /><rect
   style="fill:#ffffff;stroke:#ff0000;stroke-width:2;stroke-linejoin:round"
   id="Shape-2-07"
   width="38.235294"
   height="36.960785"
   x="2139.9019"
   y="-627.8631"
   transform="scale(1,-1)" /><path
   style="fill:#ffffff;stroke:#ff0000;stroke-width:2;stroke-linejoin:round"
   d="m 2333.695,696.16474 h 37.4004 l 24.3328,-50.0174 h -61.2826 z"
   id="Shape-2-15"
   sodipodi:nodetypes="ccccc" /><path
   style="fill:#ffffff;stroke:#ff0000;stroke-width:2;stroke-linejoin:round"
   d="m 2410.9742,525.60989 -11.9411,-11.94109 -13.8462,15.50536 11.0398,10.58927 z"
   id="Shape-2-42"
   sodipodi:nodetypes="ccccc" /><path
   style="fill:#ffffff;stroke:#ff0000;stroke-width:2;stroke-linejoin:round"
   d="m 2371.9966,559.40544 h 6.5339 l 15.6985,-15.94658 -11.7157,-11.03988 -8.2636,9.18747 -2.7037,0.22531 z"
   id="Shape-2-12"
   sodipodi:nodetypes="ccccccc" /></g>
<g
   id="floor"
   style="display:inline">
	<path
   id="floor-2"
   style="display:inline;fill:none;stroke:#ff0000;stroke-width:2;stroke-linejoin:round"
   d="m 1204.2,490.70004 228.9,368.69998 h 214.5 l 1.4,-5.29998 h 159 v 5.79998 h 441.2 c 0,0 11.3,6.70002 20,5.90003 1.1999,-0.1 2.3999,-0.40003 3.5,-0.79999 8.6999,-3.59997 14.6999,-12 15.8999,-15.59997 1.1999,-3.59998 -0.8999,-12 -0.8999,-12 l 248,-396.60001 c -0.1,-9e-5 11,-20.20007 0.1999,-39.70007 C 2525.0999,381.5 2499.2,380.89999 2499.2,380.89999 L 2260,380.60001 c 0,0 -32.2,-0.60001 -47.5,-7.5 -15.3,-6.9 -24.3999,-11.70002 -24.3999,-11.70002 l -50.6001,-50.29998 -50,-5.70002 c 0,0 -50,-22.6 -99.6,-14.70001 -49.6999,7.79999 -74.6,22.29999 -99.6,41.20001 -25,18.90003 -45.4,48.4 -45.4,48.4 l -38.1999,0.89999 c 0,0 -0.6,-29.20001 -27.7,-29.5 -27.1,-0.29999 -32.5,29.5 -32.5,29.5 h -201.6 c 0,0 -3,-29.5 -26.1999,-29.5 -23.2,0 -34.3001,29.5 -34.3001,29.5 h -200.4 c 0,0 -2.1,-29.5 -30.1,-29.5 -28,0 -31.5999,28.9 -31.5999,28.9 l -87,0.5 44.3,71.79998 z"
   sodipodi:nodetypes="cccccccccscccccsccccsccsccsccscccc"
   inkscape:label="floor-5"
   sodipodi:insensitive="true" />
</g>

<g
   id="texts"
   style="display:inline"
   transform="translate(-1.1105346e-6,-2.0344543e-5)">
	
		<circle
   id="entrance-3"
   style="fill:#ffffff;stroke:#000000;stroke-miterlimit:10"
   cx="2261.165"
   cy="249.58064"
   r="6.1276598" />
	
		<circle
   id="entrance-4"
   style="fill:#ffffff;stroke:#000000;stroke-miterlimit:10"
   cx="2479.624"
   cy="278.76917"
   r="6.1276598" />
	
		<circle
   id="entrance-5"
   style="fill:#ffffff;stroke:#000000;stroke-miterlimit:10"
   cx="1717.1199"
   cy="1029.2371"
   r="6.1276598" />
	
		<circle
   id="entrance-2"
   style="fill:#ffffff;stroke:#000000;stroke-miterlimit:10"
   cx="1383.6074"
   cy="278.76917"
   r="6.1276598" />
	
		<circle
   id="entrance-1"
   style="fill:#ffffff;stroke:#000000;stroke-miterlimit:10"
   cx="917.15497"
   cy="278.76917"
   r="6.1276598" />
	
		<circle
   id="entrance-7"
   style="fill:#ffffff;stroke:#000000;stroke-miterlimit:10"
   cx="283.47293"
   cy="278.76917"
   r="6.1276598" />
	
		<circle
   id="entrance-6"
   style="fill:#ffffff;stroke:#000000;stroke-miterlimit:10"
   cx="1106.4503"
   cy="1029.2371"
   r="6.1276598" />
</g><g
   inkscape:groupmode="layer"
   id="layer2"
   inkscape:label="terminals"><circle
     style="fill:#ffffff;stroke:#050000;stroke-width:1;stroke-linejoin:round;stroke-dasharray:none;stroke-opacity:1"
     id="t-5"
     cx="2147.5942"
     cy="668.70117"
     r="5"
     inkscape:label="t-3" /></g></svg>
