<?xml version="1.0" encoding="UTF-8" standalone="no"?>
<!-- Generator: Adobe Illustrator 26.4.1, SVG Export Plug-In . SVG Version: 6.00 Build 0)  -->

<svg
   version="1.1"
   id="svg755084"
   x="0px"
   y="0px"
   width="2600px"
   height="1200px"
   viewBox="0 0 2600 1200"
   style="enable-background:new 0 0 2600 1200;"
   xml:space="preserve"
   sodipodi:docname="grand-floor-2-final.svg"
   inkscape:version="1.2.2 (b0a8486, 2022-12-01)"
   xmlns:inkscape="http://www.inkscape.org/namespaces/inkscape"
   xmlns:sodipodi="http://sodipodi.sourceforge.net/DTD/sodipodi-0.dtd"
   xmlns="http://www.w3.org/2000/svg"
   xmlns:svg="http://www.w3.org/2000/svg"><sodipodi:namedview
   id="namedview2131"
   pagecolor="#ffffff"
   bordercolor="#000000"
   borderopacity="0.25"
   inkscape:showpageshadow="2"
   inkscape:pageopacity="0.0"
   inkscape:pagecheckerboard="0"
   inkscape:deskcolor="#d1d1d1"
   showgrid="false"
   inkscape:zoom="0.39653846"
   inkscape:cx="1300"
   inkscape:cy="600.19399"
   inkscape:window-width="1424"
   inkscape:window-height="766"
   inkscape:window-x="1936"
   inkscape:window-y="25"
   inkscape:window-maximized="0"
   inkscape:current-layer="layer3" /><defs
   id="defs124619" />
<g
   id="wall"
   style="display:inline">
	<path
   id="grand-f2-5"
   style="fill:#ff0000"
   d="m 949.90002,899.40002 c -1.29998,1 -3.20001,0.59998 -4.20001,-0.70001 L 938.10004,888 H 661.79999 c -0.59998,0.20001 -1.79999,0.79999 -4.29999,1.40002 -2.90002,0.70002 -6.70001,1.09998 -10.40002,-0.29998 -6.59998,-2.59998 -8.90003,-9.09998 -9.29999,-10.40003 L 503.70001,682.90002 c -0.29999,-0.5 -0.5,-1.09997 -0.5,-1.70001 v -7.09997 L 465,648.20001 c -0.79999,-0.59997 -1.29999,-1.5 -1.29999,-2.5 l 0.20001,-145.29999 -62,-92 c -0.29998,-0.5 -0.5,-1.1 -0.5,-1.70001 v -31.5 l -28.29998,0.20001 -0.60001,62.4 36.60001,58.39999 c 0.29998,0.5 0.5,1 0.5,1.60001 v 146.89999 l 15.5,26.70001 h -0.4 c 0.4,0.29999 0.70001,0.70002 0.9,1.20002 v 27.09997 c 0,1.70001 -1.29999,3 -3,3 h -15.10001 l -60.20001,104.09998 c -0.79999,1.40002 -2.5,1.90002 -3.9,1.20001 0,0 -13.5,-6.40002 -27.89999,-20.79999 -7.29999,-7.29999 -10.5,-13.5 -11.79999,-18.09997 -0.6,-2.29999 -0.79999,-4.09998 -0.79999,-5.5 0,-1.40003 0.29999,-2.40003 0.29999,-2.40003 L 303,762 v -68.5 -72.29999 h -34 c -1.70001,0 -3,-1.29999 -3,-3 v -205.6 c 0,-1.60001 1.20001,-2.9 2.79999,-3 L 279,408.80002 l 3,-10.60001 c 0.10001,-0.20001 0.10001,-0.39999 0.20001,-0.6 0,0 4.60001,-8.9 10.9,-13.9 3.20001,-2.5 8.70001,-5.5 13.5,-8 4,-2.1 6.20001,-3.1 7.39999,-3.70001 v -16.89999 c 0,-1.70002 1.29999,-3 3,-3 h 52.29999 c 1.5,0 2.79999,1.20001 3,2.70001 l 0.5,5.20001 h 28.29999 l 0.1,-6.20001 c 0,-1.60001 1.4,-3 3,-3 h 442.20004 c 1.70002,0 3,1.29999 3,3 v 43.70001 h 78.90003 c 1.70001,0 3,1.29999 3,3 0,0.5 -0.1,1 -0.40003,1.5 l -8.29998,14.29999 h 44.59997 c 1,0 1.90003,0.5 2.40003,1.20001 l 83.79996,115.10001 120,-80.70002 -42.8,-69.39999 c -0.9,-1.39999 -0.4,-3.29999 1,-4.10001 0.5,-0.29998 1,-0.39999 1.6,-0.39999 l 84.5999,-0.5 c 0.5,-2.70001 1.7,-7.29999 5.1,-13 4.8001,-7.79999 13.8001,-15.89999 28.9,-15.89999 15,0 23.8001,8.29998 28.2,16.29998 3.1999,5.79999 4.1,10.4 4.5,13.20002 h 196 c 0.9,-2.20002 3.1999,-7.4 8,-13.60001 6,-7.79999 15.4,-15.89999 28.1999,-15.89999 12.9001,0 20.5,8.5 24.5,16.39999 2.9001,5.79999 3.8001,10.39999 4.2,13.10001 h 196.8 c 0.6,-2.60001 2,-7.5 5.8001,-13.5 5.1,-8 14.3,-16.20002 29,-16 14.6,0.20001 22.8,8.5 26.6999,16.6 2.7,5.60001 3.4001,10 3.7,12.9 l 34,-0.79999 c 2.4,-3.4 21.3,-29.70001 45.1999,-47.9 25.2,-19.1 50.9001,-33.89999 101,-41.79998 50.1,-7.9 99.4001,14.1 100.8,14.79998 l 49.6001,5.70002 c 0.6999,0.1 1.3,0.39999 1.8,0.89999 l 50.2,49.89999 c 0.5,0.29999 9,4.79999 23.8,11.5 7,3.20002 18.8001,5.10001 28.6001,6.10001 9.8001,1 17.8001,1.20001 17.8001,1.20001 l 239.1999,0.29999 c 0,0 0,0 0.1001,0 0,0 27.5,0.39999 39.3,21.70001 11.7,21.10001 -0.3,42.60001 -0.3,42.60001 l -0.1001,0.10001 L 2290.8,838 c 0.2,0.79999 0.4,1.59998 0.7,3.59998 0.3999,2.70001 0.8999,5.79998 -0.1001,8.79998 -0.8999,2.59998 -2.8,5.59998 -5.8,8.90003 -3,3.30005 -7,6.5 -11.8999,8.59997 -1.4,0.59998 -2.9,0.90003 -4.4,1 -5.1999,0.40003 -10.5,-1.20001 -14.6,-2.90002 -3.6001,-1.5 -5.7,-2.70001 -6.3001,-3 H 1808 c -1.7,0 -3,-1.29999 -3,-3 v -2.79999 h -153.8 l -0.8001,3.09998 c -0.4,1.29998 -1.5,2.20001 -2.9,2.20001 h -214.5 c -1,0 -2,-0.5 -2.5,-1.40003 L 1203.1,495 1081.2999,575.20001 1221.7,781.59998 c 0.9,1.40002 0.5999,3.20001 -0.8001,4.09997 l -44.6999,31.5 c -0.5,0.40003 -1.1,0.5 -1.7,0.5 h -109.3 z m -1,-6.70001 L 1062.6,812.29999 c 0.5,-0.40003 1.1,-0.59998 1.6999,-0.59998 H 1173.6 L 1215.1,782.5 1074.6,576 c -0.9,-1.40002 -0.6,-3.20001 0.8,-4.20001 v 0 l 126.9,-83.60001 c 1.4001,-0.89999 3.2,-0.5 4.2,0.9 0,0 0,0 0,0.1 L 1434.5,856.5 H 1645 l 0.8,-3.09998 c 0.4001,-1.29998 1.5,-2.20001 2.9001,-2.20001 H 1808 c 1.7,0 3,1.29999 3,3 V 857 h 438.2 c 0.5,0 1.1,0.1 1.5,0.40002 0,0 2.6,1.59998 6.3,3 3.7,1.40003 8.3999,2.79999 11.8,2.5 1,-0.1 1.9,-0.29998 2.6001,-0.59997 3.8001,-1.59998 7.2,-4.29999 9.7,-7.09998 2.5,-2.79998 4.1999,-5.70001 4.5,-6.79998 0.1999,-0.59998 0.1999,-3.59998 -0.1001,-6 -0.3999,-2.40003 -0.8,-4.40003 -0.8,-4.40003 -0.2,-0.79999 -0.1001,-1.59997 0.3999,-2.29999 L 2533,439.29999 c 0,0 10.3,-18.79999 0.3,-36.79999 -9.8999,-17.79999 -34.1999,-18.60001 -34.1999,-18.60001 l -239.2,-0.29998 c 0,0 0,0 -0.1001,0 0,0 -8.1999,-0.20002 -18.3,-1.20002 -10.1001,-1 -22.1001,-2.79998 -30.5,-6.6 -15.3999,-7 -24.6001,-11.79999 -24.6001,-11.79999 -0.3,-0.10001 -0.5,-0.29999 -0.6999,-0.5 L 2135.8999,314 2087,308.39999 c -0.3,0 -0.6001,-0.1 -0.8999,-0.20001 0,0 -49.4,-22.20001 -97.9,-14.5 -49.2,7.79999 -73.5,21.79999 -98.3001,40.70001 -24.4,18.5 -44.8,47.79999 -44.8,47.79999 -0.5,0.79999 -1.4,1.29999 -2.4,1.29999 l -38.2,0.89999 c -1.7,0 -3,-1.29998 -3.1,-2.89999 v 0 c 0,0 -0.1999,-6.70001 -3.4,-13.39999 -3.2,-6.70002 -8.9,-13 -21.3,-13.20002 -12.4001,-0.1 -19.5,6.4 -23.8001,13.20002 -4.3,6.80001 -5.6999,13.79998 -5.6999,13.79998 -0.3001,1.4 -1.5,2.5 -3,2.5 h -201.6 c -1.5,0 -2.8001,-1.20001 -3,-2.70001 0,0 -0.7,-6.89999 -4.1,-13.70001 -3.4,-6.79999 -8.8,-13.10001 -19.1,-13.10001 -10.2999,0 -18.1,6.60001 -23.5,13.60001 -5.4,7 -8,14 -8,14 -0.4,1.20001 -1.6,1.89999 -2.8,1.89999 h -200.4 c -1.6,0 -2.9001,-1.20001 -3,-2.79998 0,0 -0.5,-6.79999 -4.2,-13.5 -3.7,-6.70002 -10,-13.20002 -22.9,-13.20002 -13,0 -19.7,6.4 -23.7,13 -4,6.60001 -4.9,13.29999 -4.9,13.29999 -0.2,1.5 -1.5,2.60001 -3,2.60001 l -81.6,0.5 41.5,67.29998 c 0.8001,1.4 0.5,3.20002 -0.9,4.10001 l -124.8,84.00003 c -1.3001,0.90003 -3.2,0.59998 -4.1,-0.70001 L 965.5,422.79993 h -48.29999 c -1.70001,0 -3,-1.29999 -3,-3 0,-0.5 0.1,-1 0.40003,-1.5 l 8.29998,-14.29999 h -76.79998 c -1.70002,0 -3,-1.29999 -3,-3 V 357.29993 H 407.29999 l -0.10001,6.20001 c 0,1.60001 -1.39999,3 -3,3 h -34 c -1.5,0 -2.79999,-1.20001 -3,-2.70001 l -0.5,-5.20002 h -46.6 v 15.79999 c 0,1.20001 -0.70002,2.20001 -1.70002,2.70001 0,0 -4.1,2 -8.89999,4.5 -4.79999,2.5 -10.29999,5.60001 -12.60001,7.4 -4.5,3.5 -9,11.39999 -9.20001,11.79999 l -3.5,12.20001 c -0.29999,1.20001 -1.39999,2.1 -2.70001,2.20001 l -9.5,0.70001 v 199.80002 h 34 c 1.70001,0 3,1.29999 3,3 V 693.99994 762 c 0,0.29999 0,0.59998 -0.10001,0.79999 0,0 0,0.1 -0.1,0.79999 0,0.79998 0.1,2 0.5,3.70001 1,3.40002 3.5,8.70001 10.20001,15.40002 11.70001,11.70001 20.89999,16.70001 23.89999,18.20001 l 59.60001,-103 c 0.5,-0.90002 1.5,-1.5 2.60001,-1.5 h 13.89999 v -22.70001 l -15.70001,-27 c -0.29999,-0.5 -0.4,-1 -0.4,-1.5 v -146.6 l -36.6,-58.4 c -0.29999,-0.5 -0.5,-1 -0.5,-1.6 l 0.70001,-66.19999 c 0,-1.6 1.29999,-3 3,-3 l 34.20001,-0.20001 c 1.70001,0 3,1.29999 3,3 v 0 33.60001 l 62,92 c 0.29999,0.5 0.5,1.1 0.5,1.70001 l -0.20001,144.69998 38.10001,25.90003 c 0.79998,0.59997 1.29998,1.5 1.29998,2.5 v 7.79998 L 643,875.70001 c 0.20001,0.20001 0.29999,0.5 0.40002,0.79999 0,0 2.09998,5.59998 5.90003,7 1.79999,0.70001 4.59997,0.59998 6.90002,0 2.30005,-0.59998 4,-1.29999 4,-1.29999 0.40003,-0.20001 0.79999,-0.29999 1.20002,-0.29999 h 278.29998 c 1,0 1.90003,0.5 2.40003,1.29999 z" />
</g>
<g
   id="shops"
   transform="translate(0,0.31096167)">
	<path
   id="Shape-1-35"
   style="fill:none;stroke:#ff0000;stroke-width:2;stroke-linejoin:round"
   d="m 528.59998,594.40002 v 26.29999 l 7.5,10.90003 -39,25.70001 -24.29999,-15.40003 v -49.29998 z" />
	<path
   id="Shape-1-20"
   style="fill:none;stroke:#ff0000;stroke-width:2;stroke-linejoin:round"
   d="M 550.40002,650.70001 512.60004,674.79999 501,658.40002 l 36.40002,-24.5 z" />
	<path
   id="Shape-1-34"
   style="fill:none;stroke:#ff0000;stroke-width:2;stroke-linejoin:round"
   d="m 568.79999,677.5 -16.40003,-24.5 -37.79998,24.09998 16.79998,24.59997 z" />
	<path
   id="Shape-1-103"
   style="fill:none;stroke:#ff0000;stroke-width:2;stroke-linejoin:round"
   d="m 587.70001,705.20001 -16.90002,-24.59997 -37.5,24.5 17.09997,23.59997 z" />
	<path
   id="Shape-1-33"
   style="fill:none;stroke:#ff0000;stroke-width:2;stroke-linejoin:round"
   d="m 606.40002,731.90002 -37.29998,25.29999 -16.20002,-25.5 L 589.5,707.40002 Z" />
	<path
   id="Shape-1-32"
   style="fill:none;stroke:#ff0000;stroke-width:2;stroke-linejoin:round"
   d="M 628.79999,765.40002 590.70001,790.5 571,760.70001 l 37.29999,-25 z" />
	<path
   style="fill:none;stroke:#ff0000;stroke-width:2;stroke-linejoin:round"
   d="M 619.14,830.30132 642.5,863 675.29999,803.79999 664,802.89996 c 0,0 -3.59998,-0.20001 -8.59998,-3.79998 z"
   id="Shape-1-30" /><path
   style="fill:none;stroke:#ff0000;stroke-width:2;stroke-linejoin:round"
   d="m 653.60229,797.52697 c -5,-3.59998 -7.40228,-7.62701 -7.40228,-7.62701 l -15.59997,-22.09997 -37.70002,25.40002 23.99282,33.73057 z"
   id="Shape-1-1007" />
	<path
   id="Shape-1-28"
   style="fill:none;stroke:#ff0000;stroke-width:2;stroke-linejoin:round"
   d="m 718.59998,879.5 h 51.5 v -40 H 754.5 c 0,0 -6,0.20001 -11.29999,-4.29999 -5.29999,-4.40002 -11.59997,-17.59997 -11.59997,-17.59997 v 21.70001 H 716 Z" />
	<path
   id="Shape-1-27"
   style="fill:none;stroke:#ff0000;stroke-width:2;stroke-linejoin:round"
   d="m 828.40002,837.79999 1.20002,41.09997 -56.09998,0.70002 -1,-39.90003 z" />
	<path
   id="Shape-1-26"
   style="fill:none;stroke:#ff0000;stroke-width:2;stroke-linejoin:round"
   d="m 876.29999,835.40002 1,42.90003 -43.79999,1 -1,-41.90003 z" />
	<path
   id="Shape-1-25"
   style="fill:none;stroke:#ff0000;stroke-width:2;stroke-linejoin:round"
   d="m 925.40002,833.70001 1.5,44.79999 -45.70001,0.5 -1.5,-43.59998 z" />
	<path
   id="Shape-1-24"
   style="fill:none;stroke:#ff0000;stroke-width:2;stroke-linejoin:round"
   d="M 930.40002,878.70001 942,878.40002 l 7.20001,10.29999 35.20001,-24.5 -26,-40.70001 -14.20001,9.79999 h -16.09997 z" />
	<path
   id="Shape-1-23"
   style="fill:none;stroke:#ff0000;stroke-width:2;stroke-linejoin:round"
   d="M 1036.8,826.40002 1007.8,786.5 960.40002,820.90002 985.80005,861.5 Z" />
	<path
   id="Shape-1-22"
   style="fill:none;stroke:#ff0000;stroke-width:2;stroke-linejoin:round"
   d="m 1068.3,807.29999 -28.3,17.40002 -28.5,-39.40002 21,-16.20001 h 9 z" />
	<path
   id="Shape-1-44"
   style="fill:none;stroke:#ff0000;stroke-width:2;stroke-linejoin:round"
   d="M 1045.8,768.79999 1073.6001,808.5 H 1174 l -37.7,-51 c 0,0 1.5,4.79999 -1.5,6.5 -2.9,1.70001 -6.8,1.90002 -6.8,1.90002 z" />
	<path
   id="Shape-1-50"
   style="fill:none;stroke:#ff0000;stroke-width:2;stroke-linejoin:round"
   d="m 1136.8,753.79999 37.6,-26.29999 -19.5,-29.79999 -39,28.40003 z" />
	<path
   id="Shape-1-51"
   style="fill:none;stroke:#ff0000;stroke-width:2;stroke-linejoin:round"
   d="M 1089.6,689.20001 1113.2,722 1151.5,693.90002 1128.9,660 Z" />
	<path
   id="Shape-1-52"
   style="fill:none;stroke:#ff0000;stroke-width:2;stroke-linejoin:round"
   d="m 1085.8,683.70001 40,-28.40002 -54.0999,-78 -41.4001,29.09997 z" />
	<path
   id="Shape-1-36"
   style="fill:none;stroke:#ff0000;stroke-width:2;stroke-linejoin:round"
   d="m 1057.4,759.59998 -83.09995,-116 -38,27.40002 c 0,0 -4.79999,2.09998 -5.09998,7.90002 -0.29998,5.80005 4.09998,8.59998 4.09998,8.59998 l 59.20001,84.20001 c 0,0 -0.29999,4.09998 5.79994,5.09998 6.1,1 8.9001,-3.40003 8.9001,-3.40003 l 19.5,-14 z" />
	<path
   id="Shape-1-37"
   style="fill:none;stroke:#ff0000;stroke-width:2;stroke-linejoin:round"
   d="m 1062.6,760 38.3,-0.29999 c 0,0 5.5,-1 7.9,-5.5 2.4001,-4.40002 -2.0999,-7.5 -2.0999,-7.5 l -21.2,-30.09997 -37.6,25.29998 z" />
	<path
   id="Shape-1-38"
   style="fill:none;stroke:#ff0000;stroke-width:2;stroke-linejoin:round"
   d="m 1082.1,713.40002 -14.4,-20.5 -36.6,25.70002 14.6999,19.79998 z" />
	<path
   id="Shape-1-39"
   style="fill:none;stroke:#ff0000;stroke-width:2;stroke-linejoin:round"
   d="M 1065,689.20001 1045.5,661.5 1009.6,687.79999 1028.1,714.5 Z" />
	<path
   id="Shape-1-40"
   style="fill:none;stroke:#ff0000;stroke-width:2;stroke-linejoin:round"
   d="m 977.09998,641.90002 30.10002,42.40003 36.3,-26.29999 -23.9,-33.90002 c 0,0 0.7,-3.09998 -4.8,-5.09998 -5.5,-2 -8.2,2.09998 -8.2,2.09998 z" />
	
	<path
   id="Shape-1-01"
   style="fill:none;stroke:#ff0000;stroke-width:2;stroke-linejoin:round"
   d="M 1048.9,540.29999 1022.6,504 979.50006,536.20001 1004.8,571.79999 Z" />
	<path
   id="Shape-1-53"
   style="fill:none;stroke:#ff0000;stroke-width:2;stroke-linejoin:round"
   d="M 1004.4,599.5 961.60004,539.59998 921.20001,567.69995 964,627.89996 Z" />
	<path
   id="Shape-1-54"
   style="fill:none;stroke:#ff0000;stroke-width:2;stroke-linejoin:round"
   d="m 960.29999,631.29999 -32.5,23.90002 c 0,0 1.70001,2.40003 -7.5,2.40003 -9.20001,0 -8.90003,-6.79999 -8.90003,-6.79999 l -20.5,-28.70001 42.09998,-29.40003 z" />
	<path
   id="Shape-1-55"
   style="fill:none;stroke:#ff0000;stroke-width:2;stroke-linejoin:round"
   d="M 917.20001,563.90002 958.60004,534.5 l -40,-55.79999 c 0,0 -0.70002,-3.39999 -6.20002,-2.70001 -5.5,0.69998 -8.59997,6.79999 -8.59997,6.79999 l -19.5,36.29999 z" />
	<path
   id="Shape-1-56"
   style="fill:none;stroke:#ff0000;stroke-width:2;stroke-linejoin:round"
   d="m 888.09998,618.29999 42.79998,-30.40003 -48.59997,-65 -22.20001,47.59998 c 0,0 -2.09998,4.40002 -1,7.5 1.09997,3.09997 4.40002,7.20001 4.40002,7.20001 z" />
	<path
   id="Shape-1-41"
   style="fill:none;stroke:#ff0000;stroke-width:2;stroke-linejoin:round"
   d="m 901.79999,829.09998 30.09997,-0.70002 49.90003,-35.59997 c 0,0 3.09997,-2.70001 3.79999,-5.79999 0.70001,-3.09998 -2.70002,-6.5 -2.70002,-6.5 l -15.09997,-20.20001 -47.59998,33.5 9.90003,15.09997 z" />
	<path
   id="Shape-1-42"
   style="fill:none;stroke:#ff0000;stroke-width:2;stroke-linejoin:round"
   d="m 945.90002,729.20001 19.20002,27.40003 -32.79999,23.59997 L 913.10004,752.5 Z" />
	<path
   id="Shape-1-43"
   style="fill:none;stroke:#ff0000;stroke-width:2;stroke-linejoin:round"
   d="M 943.20001,725.40002 922,695 c 0,0 -1.40002,-3.40002 -6.20001,-5.09998 -4.79999,-1.69995 -8.59998,1.70002 -8.59998,1.70002 L 881.90002,709 910,748.70001 Z" />
	<path
   id="Shape-1-21"
   style="fill:none;stroke:#ff0000;stroke-width:2;stroke-linejoin:round"
   d="M 886.40002,812.29999 928.80005,782.5 879.50006,712 844.60004,736.29999 c 0,0 -4.40003,1.70001 -5.09998,6.79999 -0.69995,5.09997 4.79999,9.90002 4.79999,9.90002 z" />
	<path
   id="Shape-1-46"
   style="fill:none;stroke:#ff0000;stroke-width:2;stroke-linejoin:round"
   d="m 766.70001,829.40002 70.09998,-1.70001 0.29999,-15.09997 -33.5,-46.90003 -45.20002,31.5 c 0,0 -8.59997,7.20001 -5.79998,19.5 2.79998,12.29999 14.10003,12.70001 14.10003,12.70001 z" />
	<path
   id="Shape-1-45"
   style="fill:none;stroke:#ff0000;stroke-width:2;stroke-linejoin:round"
   d="m 842.29999,827 22.90002,-0.29999 c 0,0 7.5,-1 8.90003,-6.20001 1.40002,-5.20001 -3.40003,-9.20001 -3.40003,-9.20001 l -39,-54.70001 c 0,0 -0.70001,-2.40003 -4.79999,-3.79999 -4.09997,-1.39997 -7.5,1 -7.5,1 l -12,8.90002 33.90003,48.90003 z" />
	<path
   id="Shape-1-59"
   style="fill:none;stroke:#ff0000;stroke-width:2;stroke-linejoin:round"
   d="m 786.20001,756.5 33.5,-23.59998 c 0,0 3.09998,-2.09997 2.70001,-5.79998 -0.29998,-3.79999 -3.79998,-5.5 -3.79998,-5.5 l -18.09998,-8.59998 c 0,0 -1.40002,-2.40002 -4.40002,-1.40002 -3,1 -4.79999,4.40002 -4.79999,4.40002 l -17.09998,34.59998 c 0,0 -1.40002,4.79998 2.40003,7.20001 3.69989,2.49994 9.59991,-1.30005 9.59991,-1.30005 z" />
	<path
   id="Shape-1-58"
   style="fill:none;stroke:#ff0000;stroke-width:2;stroke-linejoin:round"
   d="m 865.90002,698.70001 -39.29998,-55.09997 -22.90003,47.59997 c 0,0 -2.70001,2.70001 -1.70001,6.5 1,3.79999 5.09998,6.20001 5.09998,6.20001 l 27,12.29999 c 0,0 2.40002,1.70001 5.09997,1 2.70007,-0.70001 26.70007,-18.5 26.70007,-18.5 z" />
	<path
   id="Shape-1-57"
   style="fill:none;stroke:#ff0000;stroke-width:2;stroke-linejoin:round"
   d="m 870.70001,695.70001 28.40003,-20.5 c 0,0 3.09997,-2.70001 3.40002,-5.5 0.30005,-2.79999 -2.09997,-7.20001 -2.09997,-7.20001 L 858.29999,604 c 0,0 -2.09998,-3.79999 -6.5,-4.09998 -4.40003,-0.29998 -7.20001,3.79999 -7.20001,3.79999 L 828.5,639.29999 Z" />
	
	<path
   id="Shape-1-88"
   style="fill:none;stroke:#ff0000;stroke-width:2;stroke-linejoin:round"
   d="m 849.79999,556.09998 38.29999,-74.9 -8.90003,-2.70001 -38.29999,73.89999 z" />
	<path
   id="Shape-1-87"
   style="fill:none;stroke:#ff0000;stroke-width:2;stroke-linejoin:round"
   d="m 802.59998,532.5 39.29998,-76.60001 -8.20001,-3.79998 -38.29999,76.99997 z" />
	<path
   id="Shape-1-79"
   style="fill:none;stroke:#ff0000;stroke-width:2;stroke-linejoin:round"
   d="m 720.09998,426.79999 86.20001,44.1 c 0,0 4.79999,1.70002 6.79999,1.4 C 815.19995,472 817.5,468.5 817.5,468.5 L 836,432.60001 c 0,0 1.40002,-3.10001 -1.70001,-6.79999 C 831.20001,422.00003 824,421.70001 824,421.70001 L 722.20001,422 h -3.09997 l -1,2.39999 z" />
	<path
   style="fill:none;stroke:#ff0000;stroke-width:2;stroke-linejoin:round"
   d="m 955.42134,503.17923 21.84985,28.60295 42.52881,-31.88222 -22.7926,-31.4713 z"
   id="Shape-1-90" /><path
   style="fill:none;stroke:#ff0000;stroke-width:2;stroke-linejoin:round"
   d="M 993.82944,464.9329 967.79999,428.09998 962,431.49997 l -55.79999,-0.70001 -7.5,14.70001 24.59998,13 29.26118,40.86571 z"
   id="Shape-1-02" />
	<path
   id="Shape-1-86"
   style="fill:none;stroke:#ff0000;stroke-width:2;stroke-linejoin:round"
   d="M 860.40002,426.39999 867.90002,410 H 838.10004 Z" />
	<path
   id="Shape-1-15"
   style="fill:none;stroke:#ff0000;stroke-width:2;stroke-linejoin:round"
   d="m 782.40002,409.70001 52,-0.70001 0.29999,-51 L 783,358.29999 Z" />
	<path
   id="Shape-1-13"
   style="fill:none;stroke:#ff0000;stroke-width:2;stroke-linejoin:round"
   d="m 752.29999,409.29999 26,0.29999 V 358.29999 L 752,358 Z" />
	<path
   id="Shape-1-12"
   style="fill:none;stroke:#ff0000;stroke-width:2;stroke-linejoin:round"
   d="m 720.5,408.60001 28.09998,0.29998 0.70001,-28.70001 -29.79999,0.29999 z" />
	
		<rect
   id="Shape-1-11"
   x="684.20001"
   y="359"
   style="fill:none;stroke:#ff0000;stroke-width:2;stroke-linejoin:round"
   width="29.400024"
   height="50.600006" />
	
		<rect
   id="Shape-1-10"
   x="646.90002"
   y="359.70001"
   style="fill:none;stroke:#ff0000;stroke-width:2;stroke-linejoin:round"
   width="33.5"
   height="50.299988" />
	
		<rect
   id="Shape-1-09"
   x="616.5"
   y="359.70001"
   style="fill:none;stroke:#ff0000;stroke-width:2;stroke-linejoin:round"
   width="26.700012"
   height="49.299988" />
	
		<rect
   id="Shape-1-08"
   x="577.5"
   y="359.70001"
   style="fill:none;stroke:#ff0000;stroke-width:2;stroke-linejoin:round"
   width="35.200012"
   height="49.299988" />
	
		<rect
   id="Shape-1-07"
   x="547.70001"
   y="359.39999"
   style="fill:none;stroke:#ff0000;stroke-width:2;stroke-linejoin:round"
   width="26"
   height="50.299988" />
	
		<rect
   id="Shape-1-06"
   x="517.90002"
   y="359.70001"
   style="fill:none;stroke:#ff0000;stroke-width:2;stroke-linejoin:round"
   width="25.700012"
   height="49.299988" />
	<path
   id="Shape-1-05"
   style="fill:none;stroke:#ff0000;stroke-width:2;stroke-linejoin:round"
   d="m 468.70001,375.79999 44.5,22.6 0.29999,-35.20001 -44.5,0.70001 z" />
	<path
   style="fill:none;stroke:#ff0000;stroke-width:2;stroke-linejoin:round"
   d="m 484.10001,441.99545 c -0.59998,8.5 3.1,13.80454 3.1,13.80454 l 8.20001,12 -44.5,0.29999 -17.13233,-25.50818 z"
   id="Shape-1-102" /><path
   style="fill:none;stroke:#ff0000;stroke-width:2;stroke-linejoin:round"
   d="M 429.7228,435.85032 414.00003,411.29999 471.80002,411 l 19.09997,9.29999 c 0,0 -6.20001,7.35284 -6.79998,15.85284 z"
   id="Shape-1-16" />
	<path
   id="Shape-1-17"
   style="fill:none;stroke:#ff0000;stroke-width:2;stroke-linejoin:round"
   d="m 525.5,511.29999 -25.70001,-38 -45.20001,-0.70001 18.79998,27 v 11.6 H 525.5 Z" />
	<path
   id="Shape-1-18"
   style="fill:none;stroke:#ff0000;stroke-width:2;stroke-linejoin:round"
   d="m 473.10001,543.79999 56.1,0.29999 v -27.40003 l -56.1,-0.29999 z" />
	<path
   style="fill:none;stroke:#ff0000;stroke-width:2;stroke-linejoin:round"
   d="M 605.12259,454.84958 660.5,483.59998 c 0,0 0.70001,1.39999 5.09998,1.70001 4.60003,0.30002 5.60003,-3.5 5.60003,-3.5 l 25.70001,-49.9 c 0,0 1.70002,-3.79998 0.29999,-6.5 -1.40002,-2.70001 -5.5,-3.39999 -5.5,-3.39999 h -75.07894 z"
   id="Shape-1-81" /><path
   style="fill:none;stroke:#ff0000;stroke-width:2;stroke-linejoin:round"
   d="m 609.87959,422 h -58.77961 l -3.79999,1.39999 1,3.4 50.08111,25.353 z"
   id="Shape-1-82" />
	<path
   id="Shape-1-47"
   style="fill:none;stroke:#ff0000;stroke-width:2;stroke-linejoin:round"
   d="m 604.29999,531.40002 24.8381,-49.2267 -14.29999,-7.4 -25.23806,49.1267 z" />
	
	<path
   id="Shape-1-49"
   style="fill:none;stroke:#ff0000;stroke-width:2;stroke-linejoin:round"
   d="m 606.5,533 24.40002,11.90002 c 0,0 2.20002,1.59998 5,1.09998 2.79999,-0.5 4.70002,-3.09998 4.70002,-3.09998 l 19.40002,-38.6 c 0,0 1.29999,-2.29999 0.5,-4.70001 -0.79999,-2.4 -2.90002,-3.5 -2.90002,-3.5 L 631.50006,483 Z" />
	<path
   id="Shape-1-80"
   style="fill:none;stroke:#ff0000;stroke-width:2;stroke-linejoin:round"
   d="M 586.59998,522.70001 612.5,473 582.29999,457.79999 c 0,0 -1,-1.79999 -4.5,-1.10001 -3.5,0.69998 -4.09998,2.5 -4.09998,2.5 l -20.40002,39.4 c 0,0 -0.40003,4.20001 0.1,5.70001 0.40003,1.5 33.20002,18.40002 33.20002,18.40002 z" />
	<path
   id="Shape-1-72"
   style="fill:none;stroke:#ff0000;stroke-width:2;stroke-linejoin:round"
   d="M 546.70001,494.79999 565.29999,458 c 0,0 2.20001,-3.39999 1.70001,-6 -0.5,-2.70001 -3.09998,-3.60001 -3.09998,-3.60001 l -50.29998,-25.6 c 0,0 -10.20002,1.89999 -13.79999,9.20001 -3.59998,7.30002 -0.70001,18.60001 -0.70001,18.60001 l 26.09997,38.20001 1.90003,2.89999 3.40002,2.70001 8.70001,3.60001 c 0,0 1.20002,0.70001 4.09998,-0.20001 2.89996,-0.90003 3.39996,-3.00003 3.39996,-3.00003 z" />
	<path
   id="Shape-1-67"
   style="fill:none;stroke:#ff0000;stroke-width:2;stroke-linejoin:round"
   d="m 583,655.09998 19.09998,-37 c 0,0 1,-2.70002 1,-4.79999 0,-2.09998 -2.40003,-3.90003 -2.40003,-3.90003 l -52,-26.40002 -1.70001,-0.5 -1.70001,1 -0.5,1.5 -0.20002,27.79999 v 3.40002 l 2.20002,2.70001 25.40002,36.5 c 0,0 1.90003,3.09998 5.59998,3.09998 C 581.29999,658.5 583,655.09998 583,655.09998 Z" />
	<path
   id="Shape-1-66"
   style="fill:none;stroke:#ff0000;stroke-width:2;stroke-linejoin:round"
   d="M 620.20001,724.29999 636.90002,690.89996 590.70001,667.69995 588,673.49994 c 0,0 -0.20001,2.20001 0.5,4.59997 0.70001,2.39997 31.70001,46.20008 31.70001,46.20008 z" />
	<path
   id="Shape-1-68"
   style="fill:none;stroke:#ff0000;stroke-width:2;stroke-linejoin:round"
   d="M 662.59998,641.09998 622,620.5 c 0,0 -2.40002,-1.20001 -4.79999,-0.5 -2.40002,0.70001 -3.90002,3.09998 -3.90002,3.09998 L 592,664.69995 l 46.40002,23.5 z" />
	<path
   id="Shape-1-83"
   style="fill:none;stroke:#ff0000;stroke-width:2;stroke-linejoin:round"
   d="m 622.40002,727.5 29.5,42.79999 c 0,0 2.20002,4.09997 6,4.09997 3.79999,0 5.29999,-3.59997 5.29999,-3.59997 L 691.5,715.59998 640.70001,689.5 Z" />
	<path
   id="Shape-1-69"
   style="fill:none;stroke:#ff0000;stroke-width:2;stroke-linejoin:round"
   d="m 693.29999,711.5 17.90002,-34.79999 c 0,0 3.40003,-4.59997 2.40003,-7.29999 -1,-2.70001 -3.40003,-4.09997 -3.40003,-4.09997 l -44.79999,-22.70001 -22.29998,43.5 z" />
	<path
   id="Shape-1-61"
   style="fill:none;stroke:#ff0000;stroke-width:2;stroke-linejoin:round"
   d="M 725,783.09998 741.70001,750.39996 701.79999,730.09998 677.09998,778 c 0,0 -1.5,4.09998 0,7 1.5,2.90002 4.59997,2.90002 4.59997,2.90002 l 36.5,-0.20001 c 0,0 3.09998,-0.20001 4.40003,-1 C 723.90002,785.90002 725,783.09998 725,783.09998 Z" />
	<path
   id="Shape-1-62"
   style="fill:none;stroke:#ff0000;stroke-width:2;stroke-linejoin:round"
   d="m 743.59998,746.79999 22.5,-44.29999 c 0,0 1.70001,-3.40002 1.20001,-5.79999 -0.5,-2.39996 -3.90003,-3.90002 -3.90003,-3.90002 l -27.59997,-14 c 0,0 -3.59998,-2.20001 -5.59998,-1.5 -2,0.70001 -4.09997,4.40002 -4.09997,4.40002 l -23,45.20001 z" />
	<path
   id="Shape-1-71"
   style="fill:none;stroke:#ff0000;stroke-width:2;stroke-linejoin:round"
   d="M 549.79999,569.79999 603.5,597.09998 c 0,0 1.5,1.90002 5.29999,1.20001 3.79999,-0.70001 6.29999,-5.59998 6.29999,-5.59998 l 15,-29.79999 c 0,0 1.20001,-3.59997 1,-5.79998 -0.20002,-2.20002 -3.40003,-3.40003 -3.40003,-3.40003 l -76.90002,-38.90002 c 0,0 -1.90003,-1.70001 -4.09998,-1.20001 -2.19995,0.5 -2.20001,4.09997 -2.20001,4.09997 l -0.20001,44.5 c 0,0 0.20001,3.59998 1.20001,5.09998 1.00006,1.50006 4.40008,2.50006 4.30005,2.50006 z" />
	<path
   id="Shape-1-70"
   style="fill:none;stroke:#ff0000;stroke-width:2;stroke-linejoin:round"
   d="m 724.29999,651.29999 16,-31 c 0,0 1.70001,-4.40003 1.5,-6 -0.20001,-1.70001 -2.40003,-3.59998 -2.40003,-3.59998 L 649.69995,565 c 0,0 -2.20001,-0.70001 -3.90002,-0.5 -1.70002,0.20001 -3.90003,3.09998 -3.90003,3.09998 l -17.40002,33.59997 c 0,0 -0.70001,3.09998 0,5.29999 0.70001,2.20001 4.40002,3.90002 4.40002,3.90002 l 86.79999,43.79999 c 0,0 2.70001,1 4.79999,0.5 2.1001,-0.49994 3.80011,-3.39996 3.80011,-3.39996 z" />
	<path
   id="Shape-1-63"
   style="fill:none;stroke:#ff0000;stroke-width:2;stroke-linejoin:round"
   d="m 778.5,678.90002 15,-30 -40.20001,-20.29998 -15,29.5 c 0,0 -0.70001,2.20001 -0.5,4.59997 0.20001,2.39997 2.70001,4.59998 2.70001,4.59998 l 29,14.29999 c 0,0 3.09998,1.5 4.79999,0.70001 C 776,681.5 778.5,678.90002 778.5,678.90002 Z" />
	<path
   id="Shape-1-64"
   style="fill:none;stroke:#ff0000;stroke-width:2;stroke-linejoin:round"
   d="m 804.29999,627.29999 19.79999,-38.70001 c 0,0 1.20001,-1.90003 0.5,-4.59998 C 823.89996,581.30005 821,579.90002 821,579.90002 l -25.40002,-13.5 c 0,0 -4.40003,-2.70001 -7,-1.90002 -2.59998,0.79999 -4.79999,3.59998 -4.79999,3.59998 l -11.09998,23.5 18.09998,9 -8.5,16.20001 z" />
	<path
   id="Shape-1-85"
   style="fill:none;stroke:#ff0000;stroke-width:2;stroke-linejoin:round"
   d="m 754.70001,625.40002 15.20001,7.70002 16.40003,-31 -16,-7.29999 z" />
	<path
   id="Shape-1-84"
   style="fill:none;stroke:#ff0000;stroke-width:2;stroke-linejoin:round"
   d="m 794.40002,646.90002 8.5,-16.40002 -22.5,-11.59998 -8.5,16.20002 z" />
	<path
   style="fill:none;stroke:#ff0000;stroke-width:2;stroke-linejoin:round"
   d="m 725.85684,593.59681 15.74314,8.1032 c 0,0 1.90002,1.5 4.40002,0.70001 2.5,-0.79998 4.90002,-3.60003 4.90002,-3.60003 L 770,562 c 0,0 1.70001,-2.70001 0.70001,-5.79999 -1,-3.09997 -3.90002,-4.40002 -3.90002,-4.40002 l -16.59668,-8.68836 z"
   id="Shape-1-73" /><path
   style="fill:none;stroke:#ff0000;stroke-width:2;stroke-linejoin:round"
   d="m 747.50672,541.76333 -15.80671,-8.06332 c 0,0 -1.90002,-1.70001 -5.09997,-1.20001 -3.19995,0.5 -4.79999,3.90002 -4.79999,3.90002 l -19.40003,37.70002 c 0,0 -1,3.09997 -0.20001,5.59997 0.70001,2.40003 3.09998,3.59998 3.09998,3.59998 l 16.9614,8.4991 z"
   id="Shape-1-75" />
	<path
   id="Shape-1-74"
   style="fill:none;stroke:#ff0000;stroke-width:2;stroke-linejoin:round"
   d="m 695.5,571 19.59998,-38 c 0,0 1.20001,-2.70001 0.70001,-4.59998 -0.5,-1.89996 -3.09998,-4.09997 -3.09998,-4.09997 L 680.5,508.10004 c 0,0 -2.70001,-1.9 -4.79999,-1.5 -2.20001,0.5 -4.79999,3.89999 -4.79999,3.89999 L 651.5,548.5 c 0,0 -1.70001,2.70001 -0.70001,5.29999 1,2.70001 3.90002,3.40002 3.90002,3.40002 l 31.40003,16.70001 c 0,0 2.40002,0.5 5.59997,0.20002 C 694.79999,573.90002 695.5,571 695.5,571 Z" />
	<path
   id="Shape-1-76"
   style="fill:none;stroke:#ff0000;stroke-width:2;stroke-linejoin:round"
   d="M 727.09998,510.10001 752,461 c 0,0 1.20001,-2.70001 0.70001,-4.60001 -0.5,-1.89999 -3.09997,-4.1 -3.09997,-4.1 l -32.20002,-16.20001 c 0,0 -2.70001,-1.9 -4.79998,-1.5 -2.20002,0.5 -4.79999,3.89999 -4.79999,3.89999 l -24.70001,49.10001 c 0,0 -1.70002,2.70001 -0.70002,5.29998 1,2.70002 3.90003,3.4 3.90003,3.4 l 31.40002,16.69998 c 0,0 2.40003,0.5 5.59998,0.20001 3.09997,-0.19995 3.79993,-3.09994 3.79993,-3.09994 z" />
	<path
   id="Shape-1-77"
   style="fill:none;stroke:#ff0000;stroke-width:2;stroke-linejoin:round"
   d="m 782.20001,537.59998 24.90003,-49.10001 c 0,0 1.20001,-2.70001 0.70001,-4.60001 -0.5,-1.89999 -3.09998,-4.1 -3.09998,-4.1 l -36.5,-17.9 c 0,0 -2.70001,-1.89999 -4.79998,-1.5 -2.20002,0.5 -4.79999,3.9 -4.79999,3.9 l -24.70001,49.1 c 0,0 -1.70002,2.70002 -0.70002,5.29999 1,2.70001 3.90003,3.40003 3.90003,3.40003 L 772.90009,540.5 c 0,0 2.40002,0.5 5.59997,0.20001 2.89996,-0.20001 3.69995,-3.10003 3.69995,-3.10003 z" />
	<path
   id="Shape-1-29"
   style="fill:none;stroke:#ff0000;stroke-width:2;stroke-linejoin:round"
   d="m 693.09998,845.5 18.59997,-0.5 v -31.90002 l -4.59997,-9.70002 H 686.5 L 671,834.20001 Z" />
	
	<path
   id="Shape-3-102"
   style="fill:none;stroke:#ff0000;stroke-width:2;stroke-linejoin:round"
   d="m 348.60001,550.90002 h 35.20001 V 490 l -35.9,-0.29999 z" />
	<path
   id="Shape-3-96"
   style="fill:none;stroke:#ff0000;stroke-width:2;stroke-linejoin:round"
   d="m 330.10001,550.90002 h 14.6 l 0.10001,-60.70001 -48.9,0.10001 v 36.30002 h 34.20002 z" />
	<path
   id="Shape-3-97"
   style="fill:none;stroke:#ff0000;stroke-width:2;stroke-linejoin:round"
   d="m 341.79999,482.89999 h 47.5 L 389,535.59998 l 12.29999,-0.29999 1,-35.60001 -21.9,-35.69998 h -38.70001 z" />
	<path
   id="Shape-3-101"
   style="fill:none;stroke:#ff0000;stroke-width:2;stroke-linejoin:round"
   d="M 384.20001,594.40002 H 402 l 0.29999,-56.09997 h -12 v 19.5 l -40.70001,0.70001 v 15.40003 l 34.6,-0.29999 z" />
	
	
	<path
   id="Shape-3-91"
   style="fill:none;stroke:#ff0000;stroke-width:2;stroke-linejoin:round"
   d="m 297.19922,460.59912 v -14 l -23.59961,-0.0996 v -29 L 285.5,417.20068 c 0,0 0.0638,-2.42157 0.0996,-3.80078 1.26604,-9.22247 5.79399,-18.37235 14.09961,-25 9.40002,-7.09999 22.20117,-11.40039 22.20117,-11.40039 l 0.29883,-16.59961 h 41.10156 l -0.10156,19.80078 -32.39844,0.69922 -19.20117,19.19922 -0.15039,15.60937 -0.14844,44.89063 z" />
	<path
   id="Shape-3-112"
   style="fill:none;stroke:#ff0000;stroke-width:2;stroke-linejoin:round"
   d="m 288.70001,503.60001 0.20001,-20.70002 23.10001,-0.29998 -0.20001,-19.20002 -39,0.29999 -0.20001,40.20001 z" />
	<path
   id="Shape-3-95"
   style="fill:none;stroke:#ff0000;stroke-width:2;stroke-linejoin:round"
   d="m 272.79999,548.5 h 49.79999 v -14.20001 l -33.9,-0.29999 0.20001,-28.20001 h -16.20001 z" />
	<path
   id="Shape-3-110"
   style="fill:none;stroke:#ff0000;stroke-width:2;stroke-linejoin:round"
   d="m 324.5,461.29999 h 54.60001 l -10.29999,-16.60001 -25.70001,0.20001 V 438 h -18.29999 z" />
	<path
   id="Shape-3-111"
   style="fill:none;stroke:#ff0000;stroke-width:2;stroke-linejoin:round"
   d="m 321.39999,412 44.5,-0.20001 L 366.10001,388 H 335.5 l -1.89999,0.29999 -10.79999,10.79999 -0.70001,1.20001 -0.9,1.89999 z" />
	<path
   id="Shape-2-24"
   style="fill:none;stroke:#ff0000;stroke-width:2;stroke-linejoin:round"
   d="m 1391.3,780.20001 33,49.5 h 33 V 800 h 36.9001 v -13.5 c 0,0 0.5999,-1.90002 -1.7,-4.09998 -2.2999,-2.19995 -5.1999,-2.20001 -5.1999,-2.20001 z" />
	<path
   id="Shape-2-25"
   style="fill:none;stroke:#ff0000;stroke-width:2;stroke-linejoin:round"
   d="m 1556.7,852.59998 h 36.3 v -51.20002 h 51.2 V 780.49994 H 1566 c 0,0 -3.3,-2.79999 -6.9,1.09997 -3.6,3.89997 -2.8001,8.5 -2.8001,8.5 z" />
	<path
   id="Shape-2-26"
   style="fill:none;stroke:#ff0000;stroke-width:2;stroke-linejoin:round"
   d="m 1647,825.59998 h 113.4 V 780.5 h -112.8 z" />
	<path
   id="Shape-2-27"
   style="fill:none;stroke:#ff0000;stroke-width:2;stroke-linejoin:round"
   d="m 1841.8,825.29999 v -45.09998 h -77.3 v 45.70001 z" />
	<path
   id="Shape-2-64"
   style="fill:none;stroke:#ff0000;stroke-width:2;stroke-linejoin:round"
   d="m 1895.2,855.59998 v -27.79999 h 13.5 v -27 h -52.3001 v -20.09998 h 135.7 V 855 Z" />
	<path
   id="Shape-2-65"
   style="fill:none;stroke:#ff0000;stroke-width:2;stroke-linejoin:round"
   d="m 1994.9,800 h 67.2001 v -19.5 h -67.2 V 800 Z" />
	<path
   id="Shape-2-66"
   style="fill:none;stroke:#ff0000;stroke-width:2;stroke-linejoin:round"
   d="m 2065.6001,800 h 104 v -13.79999 c 0,0 0.6001,-2.5 -1.7,-4.70001 -2.3,-2.20001 -5.5,-1.70001 -5.5,-1.70001 H 2065 Z" />
	<path
   id="Shape-2-63"
   style="fill:none;stroke:#ff0000;stroke-width:2;stroke-linejoin:round"
   d="m 2195.8,811.59998 h 65.8001 v -58.90003 l -24.5,-24.20001 -40.7,40.70001 z" />
	<path
   id="Shape-2-59"
   style="fill:none;stroke:#ff0000;stroke-width:2;stroke-linejoin:round"
   d="M 2263.2,748.79999 2338.0999,748.5 2278.7,687.09998 l -38.8001,38.79998 z" />
	<path
   id="Shape-2-55"
   style="fill:none;stroke:#ff0000;stroke-width:2;stroke-linejoin:round"
   d="m 2281.7,684.70001 57.8,60.79999 35,-57 -48.2,-48.20001 z" />
	<path
   id="Shape-2-51"
   style="fill:none;stroke:#ff0000;stroke-width:2;stroke-linejoin:round"
   d="m 2329,637.90002 47.3,47.29999 28.9,-45.40002 -39.1001,-39.09998 z" />
	<path
   id="Shape-2-50"
   style="fill:none;stroke:#ff0000;stroke-width:2;stroke-linejoin:round"
   d="m 2439.1001,529.20001 -69.8999,69.09998 37.6999,38 22.8001,-35.5 -18.3999,-11.59998 33.8999,-54.5 z" />
	<path
   id="Shape-2-38"
   style="fill:none;stroke:#ff0000;stroke-width:2;stroke-linejoin:round"
   d="m 2481.2,441.10001 -0.8001,-45.4 18.7,-0.29999 c 0,0 19,4.10001 26.1001,15.10001 7.1999,11 7.1999,25.29999 7.1999,25.29999 L 2470.5,536.5 l -23.7,-15.09998 55.9,-54.5 c 0,0 9.3999,-4.39999 5.1999,-17.89999 C 2503.8,435.60001 2481.2,441.10001 2481.2,441.10001 Z" />
	<path
   id="Shape-2-37"
   style="fill:none;stroke:#ff0000;stroke-width:2;stroke-linejoin:round"
   d="m 2429.7,441.10001 h 44.6 v -46 h -45.3999 z" />
	<path
   id="Shape-2-36"
   style="fill:none;stroke:#ff0000;stroke-width:2;stroke-linejoin:round"
   d="m 2381.8,441.39999 h 42.1001 v -46 H 2381 Z" /><path
   id="Shape-2-75"
   style="fill:none;stroke:#ff0000;stroke-width:2.34049;stroke-linejoin:round"
   d="m 2317.7707,441.86894 h 58.0848 v -45.65952 h -59.1886 z" />
	<path
   id="Shape-2-35"
   style="fill:none;stroke:#ff0000;stroke-width:2.48945;stroke-linejoin:round"
   d="m 2232.5447,441.05985 77.0441,0.44485 v -46.22332 l -21.0054,-0.44484 c 0,0 -21.4449,1.3857 -37.5677,0.79181 -12.3659,-0.49489 -18.1579,-1.58367 -18.1579,-1.58367 z" />
	<path
   id="Shape-2-34"
   style="fill:none;stroke:#ff0000;stroke-width:2;stroke-linejoin:round"
   d="m 2228.5,441.29999 v -48.4 L 2206.8,387 l -42.5,42.20001 c 0,0 -4.8,2.9 -4,6.70001 0.8001,3.80002 4.7,5.4 4.7,5.4 z" />
	<path
   id="Shape-2-40"
   style="fill:none;stroke:#ff0000;stroke-width:2;stroke-linejoin:round"
   d="m 2222.1001,503.20001 27.1001,-26.89999 c 0,0 2.1999,-1.79999 2.1999,-3.79999 0,-2 -1.5,-5.60001 -1.5,-5.60001 l -6.1001,-6.29998 -1.8999,-1 -2.1001,-0.79999 h -54.6 c 0,0 -5.5,-0.70001 -7.4,3.6 -1.8999,4.30002 1.2,9.10001 1.2,9.10001 l 31.5,31.79999 c 0,0 2.2,2.89999 5.6001,3 3.5,-6e-5 6,-3.10004 6,-3.10004 z" />
	<path
   id="Shape-2-41"
   style="fill:none;stroke:#ff0000;stroke-width:2;stroke-linejoin:round"
   d="M 2320.2,507.89999 2350.5,478 c 0,0 4.3999,-4.10001 1.8999,-12.39999 -2.5,-8.29999 -11.3,-7 -11.3,-7 h -57.7 c 0,0 -7.3999,-0.10001 -9.1999,4.5 -1.8001,4.70001 1.1,10.29998 1.1,10.29998 l 32.5,32.79999 c 0,0 2.3001,3.9 6.2,4.29999 3.8999,0.39999 6.2,-2.59998 6.2,-2.59998 z" />
	<path
   id="Shape-2-70"
   style="fill:none;stroke:#ff0000;stroke-width:2;stroke-linejoin:round"
   d="m 2429.3,514.70001 41.8001,-41.39999 c 0,0 3.3999,-1.5 2.1001,-8.79999 -1.3999,-7.29999 -12.1001,-5.89999 -12.1001,-5.89999 l -68.5,0.1 c 0,0 -8.3999,-0.79999 -11,5.79999 -2.6001,6.59998 1.1999,13.5 1.1999,13.5 l 35.9,36.30002 c 0,0 1.8999,2.09997 5,2.5 3.1,0.40002 5.6,-2.10004 5.6,-2.10004 z" />
	<path
   id="Shape-2-43"
   style="fill:none;stroke:#ff0000;stroke-width:2;stroke-linejoin:round"
   d="M 2377,566.20001 2409.1001,534.5 c 0,0 2.1001,-2.5 2.5,-5.29999 0.3999,-2.79999 -2.3001,-5.09997 -2.3001,-5.09997 l -40.1,-40.5 c 0,0 -1.2,-1.79999 -4.5,-2.10001 -3.3001,-0.39999 -5.1001,1.89999 -5.1001,1.89999 l -32.5,32.09998 c 0,0 -2.3001,3.09998 -2.1001,5.29999 0.1999,2.09997 3.1001,6 3.1001,6 l 37.1999,38.09997 c 0,0 2.1001,2.5 5.1001,3.29999 3,0.79999 6.6001,-1.99994 6.6001,-1.99994 z" />
	<path
   id="Shape-2-46"
   style="fill:none;stroke:#ff0000;stroke-width:2;stroke-linejoin:round"
   d="m 2329.3999,612.90002 28.2,-27.59997 c 0,0 2.1001,-1.40003 1.8999,-4.5 -0.2,-3.09998 -2.5,-4.90003 -2.5,-4.90003 l -39.8999,-40.70001 c 0,0 -1.3999,-1.40002 -3.7,-2.09997 -2.3,-0.79999 -5.3999,1.79998 -5.3999,1.79998 L 2279.8,562.5 c 0,0 -2.6999,3.09998 -2.5,5.59998 0.2,2.5 2.7,5.40002 2.7,5.40002 l 38.1001,38.5 c 0,0 2.3,2.70001 5.3999,3.09998 3.1001,0.60003 5.8999,-2.19996 5.8999,-2.19996 z" />
	<path
   id="Shape-2-49"
   style="fill:none;stroke:#ff0000;stroke-width:2;stroke-linejoin:round"
   d="m 2280.3,661.40002 29.6001,-28.79998 c 0,0 1.8001,-1.40003 1.8001,-4.70002 0,-3.29998 -2.7,-5.40002 -2.7,-5.40002 l -39.3,-40.09998 c 0,0 -1.2,-1.79998 -4.1001,-2.09997 -2.8999,-0.40003 -6.3999,2.29999 -6.3999,2.29999 l -28.8001,28.20001 c 0,0 -2.8999,3.29999 -2.5,6.40002 0.3999,3.09998 4.3001,6.59998 4.3001,6.59998 l 37.1999,37.59997 c 0,0 2.5,2.29999 5.1001,2.70002 2.6001,0.40002 5.7998,-2.70002 5.7998,-2.70002 z" />
	<path
   id="Shape-2-54"
   style="fill:none;stroke:#ff0000;stroke-width:2;stroke-linejoin:round"
   d="M 2229.7,711.40002 2259.7,682 c 0,0 2.6999,-3.09998 2.6999,-5.79999 0,-2.70001 -3.3,-5.59997 -3.3,-5.59997 L 2220.2,630.70001 c 0,0 -2.9,-1.79999 -5.1001,-1.79999 -2.2002,0 -5.3001,2.5 -5.3001,2.5 l -30.6001,29.79999 c 0,0 -2.1001,1.90003 -1.8,4.90003 0.3,3 2.8999,6.20001 2.8999,6.20001 l 38,38.5 c 0,0 3.3,2.90002 5.3999,3.09997 2.3005,0.19996 6.0005,-2.5 6.0005,-2.5 z" />
	<path
   id="Shape-2-58"
   style="fill:none;stroke:#ff0000;stroke-width:2;stroke-linejoin:round"
   d="m 2178.8999,761.40002 30.7,-30.20001 c 0,0 1.8999,-2.90002 1.8999,-4.90002 0,-2 -1.8999,-4.90003 -1.8999,-4.90003 l -40.7,-41.29998 c 0,0 -1,-1.20002 -3.6999,-1.59998 -2.7,-0.39996 -6.4,2.5 -6.4,2.5 l -30.6,30.40002 c 0,0 -1.9,2.70002 -1.8001,5.79999 0.2,3.09998 4.5,6.20001 4.5,6.20001 l 37.2,38 c 0,0 3.3,1.90003 5.6001,2.09998 2.5,0.5 5.1999,-2.09998 5.1999,-2.09998 z" />
	<path
   id="Shape-2-62"
   style="fill:none;stroke:#ff0000;stroke-width:2;stroke-linejoin:round"
   d="m 2084.5,763.40002 h 58.3999 c 0,0 1.8999,-0.20001 3.1001,-1.90002 1.2,-1.79999 -1,-3.70001 -1,-3.70001 l -25.5,-25.90003 c 0,0 -1.3999,-2.90002 -4.3,-3.29998 -2.9002,-0.39997 -6.8001,2.5 -6.8001,2.5 L 2081.5,758 c 0,0 -1.8999,1.90002 -1.3999,3.90002 0.5,2 4.3999,1.5 4.3999,1.5 z" />
	<path
   id="Shape-2-57"
   style="fill:none;stroke:#ff0000;stroke-width:2;stroke-linejoin:round"
   d="m 2071.8999,752.29999 29.2,-28.20001 c 0,0 2.6999,-3.5 2.6999,-5.40003 0,-1.90002 -2.3,-5.29999 -2.3,-5.29999 l -33.7,-34.09997 c 0,0 -1.6001,-1.20001 -3.8999,-1.79999 -2.3,-0.59998 -5.3999,1.59998 -5.3999,1.59998 l -31.1,30.70001 c 0,0 -1.6,2.70001 -1.6,5.09997 0,2.29999 2.7,5.29999 2.7,5.29999 l 33.7,33.70001 c 0,0 2.5,1.40003 4.5,1.40003 1.9001,-0.1 5.1999,-3 5.1999,-3 z" />
	<path
   id="Shape-2-53"
   style="fill:none;stroke:#ff0000;stroke-width:2;stroke-linejoin:round"
   d="m 2121.8999,703.20001 30.3999,-29.79999 c 0,0 1.6001,-3.09997 1.8999,-5.29998 0.3999,-2.09998 -2.1001,-4.90003 -2.1001,-4.90003 l -33.5,-33.90002 c 0,0 -0.1999,-1.59998 -3.5,-2.09998 -3.3,-0.5 -5.8,1.59998 -5.8,1.59998 l -31.3001,30.90002 c 0,0 -1.8999,2.70001 -1.8999,5.29999 0,2.59998 2.7,5.40002 2.7,5.40002 l 32.5,32.90003 c 0,0 2.6999,2.09997 5.3999,2.5 2.6999,0.40002 5.2004,-2.60004 5.2004,-2.60004 z" />
	<path
   id="Shape-2-48"
   style="fill:none;stroke:#ff0000;stroke-width:2;stroke-linejoin:round"
   d="m 2172.3,653.40002 31.3001,-30.59997 c 0,0 1.6001,-2.09998 1.3999,-4.70001 -0.2,-2.5 -2.7,-5.09998 -2.7,-5.09998 L 2169,579.10004 c 0,0 0,-1 -2.7,-1.59998 -2.6999,-0.59997 -5.8,1 -5.8,1 l -31.7,31.29999 c 0,0 -2.6999,3.29999 -2.1,5.40002 0.5998,2.10004 3.1,5.59998 3.1,5.59998 l 31.3001,31.5 c 0,0 2.8999,3.29999 5.8,3.29999 2.9002,0 5.3999,-2.20002 5.3999,-2.20002 z" />
	<path
   id="Shape-2-45"
   style="fill:none;stroke:#ff0000;stroke-width:2;stroke-linejoin:round"
   d="M 2223.5,603.40002 2251.8999,575 c 0,0 2.1001,-2.29999 2.3001,-5.09998 0.1999,-2.70001 -3.1001,-6.20001 -3.1001,-6.20001 l -32.7,-33.09997 c 0,0 -1.3999,-1.40003 -3.8999,-1.79999 -2.5,-0.39996 -5.3999,1.59997 -5.3999,1.59997 L 2179.3,560 c 0,0 -2.1,2.70001 -2.1,5.09998 0,2.39996 3.1,6 3.1,6 l 32.1001,32.5 c 0,0 2.5,2.5 5.3999,2.5 2.9,0 5.7,-2.69996 5.7,-2.69996 z" />
	<path
   id="Shape-2-42"
   style="fill:none;stroke:#ff0000;stroke-width:2;stroke-linejoin:round"
   d="m 2272.3,554.59998 27.6001,-26.70002 c 0,0 1.8001,-2.70001 2.1001,-5.09997 0.3999,-2.29999 -2.6999,-5.59998 -2.6999,-5.59998 L 2267.4004,484.5 c 0,0 -2.8999,-2.5 -5.1001,-2.70001 -2.1001,-0.20001 -5.8001,1.89999 -5.8001,1.89999 l -27.8,27.4 c 0,0 -1.8999,2.09997 -2.1001,5.09997 -0.2002,3 3.3,6.20001 3.3,6.20001 l 31.7,32.29999 c 0,0 2.3,2.09998 5.1001,2.5 2.8,0.40003 5.5998,-2.59997 5.5998,-2.59997 z" />
	<path
   id="Shape-2-39"
   style="fill:none;stroke:#ff0000;stroke-width:2;stroke-linejoin:round"
   d="M 2172.5,552.40002 2202.1001,523 c 0,0 1.6001,-2.09998 1.3999,-4.29999 -0.2,-2.09997 -1.8999,-5.40002 -1.8999,-5.40002 L 2154.5,465.19998 c 0,0 -4.7,-5.39999 -11.8999,-6 -7.2,-0.6 -15.3999,3.70001 -15.3999,3.70001 l -11.1001,10.9 c 0,0 -1.8999,1.20001 -2.5,3.70001 -0.6001,2.5 0.1999,8.39999 0.1999,12.70001 0,4.30002 -1,10.10001 -0.3999,12.10001 0.6001,1.89999 4.1001,4.89999 4.1001,4.89999 l 44,44.59998 c 0,0 3.1001,2.70001 5.3999,3.09997 2.2999,0.20002 5.5999,-2.49994 5.5999,-2.49994 z" />
	<path
   id="Shape-2-44"
   style="fill:none;stroke:#ff0000;stroke-width:2;stroke-linejoin:round"
   d="M 2121.8999,601.59998 2151.7,572.39996 c 0,0 2.6999,-2.5 2.8999,-5.09997 0.1999,-2.59998 -2.3001,-5.09998 -2.3001,-5.09998 l -34.1001,-34.79999 c 0,0 -2.8999,-2.29998 -5.1001,-2.70001 -2.1001,-0.40002 -6,2.5 -6,2.5 0,0 -9.1001,19.5 -11.8999,23.5 -2.7998,4 -12.1001,13.40003 -12.1001,13.40003 0,0 -2.1001,2.5 -2.1001,5.09997 0,2.59998 3.5,5.79999 3.5,5.79999 l 26.1001,26.09998 c 0,0 2.1001,3.29998 5.3999,3.5 3.4004,0.40002 5.9004,-3 5.9004,-3 z" />
	<path
   id="Shape-2-47"
   style="fill:none;stroke:#ff0000;stroke-width:2;stroke-linejoin:round"
   d="m 2071.1001,652.09998 30.6001,-30 c 0,0 2.5,-2.5 2.5,-4.90003 0,-2.40002 -2.3001,-5.09997 -2.3001,-5.09997 l -29.8,-30 c 0,0 -2.1001,-2.70002 -4.7,-3.09998 -2.5,-0.40002 -4.6999,1 -4.6999,1 0,0 -13.8001,8.40002 -24.3001,10.90002 -10.5,2.5 -25.9,3.09998 -25.9,3.09998 0,0 -3.3,0.20001 -4.3,1.40002 -1,1.20002 1,5.09998 1,5.09998 l 50.0001,50.59998 c 0,0 3.1001,3.5 5.8,3.70001 2.7998,0.20001 6.0999,-2.70001 6.0999,-2.70001 z" />
	<path
   id="Shape-2-52"
   style="fill:none;stroke:#ff0000;stroke-width:2;stroke-linejoin:round"
   d="M 2020.7,701.70001 2050.3,672.5 c 0,0 2.7,-2.70001 2.7,-5.40002 0,-2.70002 -2.5,-5.29999 -2.5,-5.29999 l -55.3,-56.20001 c 0,0 -1.8001,-1.79999 -4.5,-2.09998 -2.7,-0.40002 -5.6,2.70001 -5.6,2.70001 l -31.7,31.5 c 0,0 -1.6,2.29999 -0.8,5.09998 0.8,2.70001 4.3,5.09997 4.3,5.09997 l 50.8001,52.20002 c 0,0 3.6999,4.29998 6.5999,4.70001 2.9,0.20001 6.4,-3.09998 6.4,-3.09998 z" />
	<path
   id="Shape-2-61"
   style="fill:none;stroke:#ff0000;stroke-width:2;stroke-linejoin:round"
   d="m 1982.2,763.20001 h 62.5 c 0,0 1.9,0 2.9,-1.59997 1.0001,-1.59998 -1,-3.90003 -1,-3.90003 l -28.8001,-29 c 0,0 -0.4,-1.90002 -3.9,-1.90002 -3.5,0 -6.1999,2.29999 -6.1999,2.29999 l -29,28.79998 c 0,0 -1.8001,2.70002 -1.2,3.90003 0.6,1.20001 4.7,1.40002 4.7,1.40002 z" />
	<path
   id="Shape-2-56"
   style="fill:none;stroke:#ff0000;stroke-width:2;stroke-linejoin:round"
   d="m 1968,753.40002 33.5,-32.5 c 0,0 1.6,-1.90002 1.4,-4.5 -0.1999,-2.5 -3.1,-5.59997 -3.1,-5.59997 l -54.5,-54.5 c 0,0 -1.9,-2.29999 -4.5,-2.29999 -2.5999,0 -6.5999,2.90003 -6.5999,2.90003 L 1902.3,689.20007 c 0,0 -2.0999,2.70002 -1.8,5.40003 0.4,2.70001 3.9,5.59997 3.9,5.59997 l 52.9,52.90003 c 0,0 2.3001,2.29999 4.7,2.70001 2.3,0.59991 6,-2.40009 6,-2.40009 z" />
	<path
   id="Shape-2-60"
   style="fill:none;stroke:#ff0000;stroke-width:2;stroke-linejoin:round"
   d="m 1848.1,763.20001 h 82.5 c 0,0 5.6,-1.40002 7,-4.70001 1.4,-3.29999 -2.1,-7.79999 -2.1,-7.79999 l -40.9,-41.29999 c 0,0 -1,-3.70001 -5.3001,-3.5 -4.3,0.20002 -7.4,3.09998 -7.4,3.09998 l -42.6,43 c 0,0 -1.5999,3.90002 -0.4,7.20001 1.2,3.29999 9.2001,4 9.2001,4 z" />
	<path
   id="Shape-2-23"
   style="fill:none;stroke:#ff0000;stroke-width:2;stroke-linejoin:round"
   d="m 1704.3,763 h 85 c 0,0 2.7,0.40002 4.7,-0.20001 2,-0.60004 14.2,-13.40003 14.2,-13.40003 0,0 1.8,-2.09997 1.9,-4.90002 0.1,-2.80005 -3.1,-5.59998 -3.1,-5.59998 l -42.6,-43.20001 c 0,0 -1.9,-3.29999 -5.6,-3.29999 -3.6999,0 -6.1999,2.90003 -6.1999,2.90003 l -56.2,56.20001 c 0,0 -3.0999,3.90002 -0.8,8.40002 2.2999,4.5 8.6999,3.09998 8.6999,3.09998 z" />
	<path
   id="Shape-2-22"
   style="fill:none;stroke:#ff0000;stroke-width:2;stroke-linejoin:round"
   d="M 1654.8,760.29999 1700.5,715 c 0,0 1.9,-1.40002 2.5,-2.90002 0.6,-1.59998 0.6,-10.70002 0.6,-10.70002 0,0 0.4,-1.20001 -1,-2.09997 -1.4,-1 -4.1,-0.79999 -4.1,-0.79999 h -71.8 c 0,0 -3.9001,-0.40002 -6.2,1.90002 -2.3,2.29999 -2.3,6.79999 -2.3,6.79999 v 48.70001 c 0,0 0.5999,3.70002 2.3,5.40003 1.8,1.79999 6,1.90002 6,1.90002 h 21.8 c 0,0 2.5,-0.20001 3.7,-0.79998 1.3,-0.6001 2.8,-2.1001 2.8,-2.1001 z" />
	<path
   id="Shape-2-19"
   style="fill:none;stroke:#ff0000;stroke-width:2;stroke-linejoin:round"
   d="m 1734.2,680.70001 41.8,-41.59997 c 0,0 4.7,-4.29999 2.1,-13.20002 -2.5,-9 -16.2,-7.79998 -16.2,-7.79998 H 1723 c 0,0 -3.3,-0.79999 -6,1.20001 -2.7,1.90002 -2.9,6.79999 -2.9,6.79999 v 51.20001 c 0,0 0.4,3.29999 1.6,5.09997 1.1999,1.79999 6,2.09998 6,2.09998 h 5.3 c 0,0 2.9,0.20001 4.3,-0.40002 1.4,-0.69996 2.9,-3.39997 2.9,-3.39997 z" />
	<path
   id="Shape-2-18"
   style="fill:none;stroke:#ff0000;stroke-width:2;stroke-linejoin:round"
   d="m 1627.4,684.40002 h 68.1 c 0,0 3.5,0 5.1,-1.20001 1.6,-1.20001 2.9,-4.29999 2.9,-4.29999 V 624 c 0,0 0.2,-1.20001 -1.4,-3.29999 -1.6,-2.09997 -4.9,-2.5 -4.9,-2.5 h -69.7 c 0,0 -4.5,-0.40002 -7,1.79999 -2.5,2.09998 -2.3,7.79999 -2.3,7.79999 V 676.5 c 0,0 0.1999,4.5 2.3,6.40002 2.2,1.89997 6.9,1.5 6.9,1.5 z" />
	<path
   id="Shape-2-17"
   style="fill:none;stroke:#ff0000;stroke-width:2;stroke-linejoin:round"
   d="m 1528.9,684.40002 h 67.5 c 0,0 3.7,0.59998 5.8001,-1.90002 2.1001,-2.5 2.3,-4.90002 2.3,-4.90002 v -52.70002 c 0,0 -0.6,-2.29998 -1.8,-4.5 -1.2001,-2.20001 -4.9001,-2.29998 -4.9001,-2.29998 h -69.3 c 0,0 -4.1,-0.20002 -5.8,1.40002 -1.8001,1.59998 -2.5,6 -2.5,6 v 51 c 0,0 0.1999,4.5 1.9,6.40002 1.9,1.89997 6.8,1.5 6.8,1.5 z" /><path
   id="Shape-2-21"
   style="fill:none;stroke:#ff0000;stroke-width:2;stroke-linejoin:round"
   d="m 1528.2025,763.29292 h 67.5 c 0,0 3.7,0.59998 5.8001,-1.90002 2.1001,-2.5 2.3,-4.90002 2.3,-4.90002 v -52.70002 c 0,0 -0.6,-2.29998 -1.8,-4.5 -1.2001,-2.20001 -4.9001,-2.29998 -4.9001,-2.29998 h -69.3 c 0,0 -4.1,-0.20002 -5.8,1.40002 -1.8001,1.59998 -2.5,6 -2.5,6 v 51 c 0,0 0.1999,4.5 1.9,6.40002 1.9,1.89997 6.8,1.5 6.8,1.5 z" />
	<path
   id="Shape-2-16"
   style="fill:none;stroke:#ff0000;stroke-width:2;stroke-linejoin:round"
   d="m 1415.3,684.20001 h 82.5 c 0,0 4.3001,0.79999 6.6,-1.59997 2.3001,-2.29999 1.8001,-6.20002 1.8001,-6.20002 v -52.20001 c 0,0 0,-1.59997 -1.4001,-3.5 -1.4,-1.90002 -5.3,-2.5 -5.3,-2.5 h -85.8 c 0,0 -2.1,-1 -5.1,1.40003 -2.9,2.29998 -3.1,7.40002 -3.1,7.40002 v 50.40003 c 0,0 1,3.90002 2.7,5.59997 1.8,1.79993 7.1,1.19995 7.1,1.19995 z" />
	<path
   id="Shape-2-20"
   style="fill:none;stroke:#ff0000;stroke-width:2;stroke-linejoin:round"
   d="m 1415.3,763.20001 h 80.8001 c 0,0 5.3,-0.20001 7.1999,-1.59997 1.9,-1.39997 3.1,-5.29999 3.1,-5.29999 v -52 c 0,0 -0.1999,-2.09998 -1.6,-3.70001 -1.4,-1.59998 -5.0999,-2.29999 -5.0999,-2.29999 H 1415.4 c 0,0 -5.6,-0.59998 -7.4,1.79999 -1.8,2.29998 -2.1,7.40002 -2.1,7.40002 V 755 c 0,0 0.6,4.70001 2.1,6.40002 1.6,1.79999 7.3,1.79999 7.3,1.79999 z" />
	
	
	<path
   id="Shape-2-04"
   style="fill:none;stroke:#ff0000;stroke-width:2;stroke-linejoin:round"
   d="M 2069.6001,341.60001 2026.8,384.39999 c 0,0 -0.8,3.10001 -5.0999,4.29999 -4.3,1.19998 -8.6,0 -8.6,0 0,0 -21.4,-1.20001 -37.8001,6.20001 -16.4,7.40003 -33.9,21 -33.9,21 0,0 -0.4,3.5 -4.6999,3.9 -4.3001,0.39999 -8.6,0.79999 -8.6,0.79999 H 1855.3 v -38.5 h -7 c 0,0 23.7,-38.5 61.1,-59.20002 37.4,-20.6 69.014,-27.9827 85.6,-29.20001 16.586,-1.21731 41.7473,1.32815 57.1748,4.77736 15.4275,3.44922 35.0097,13.47082 35.0097,13.47082 l 24.6542,1.2254 15.534,9.31924 -13.3979,13.32616 -23.931,-14.03142 -20.4437,19.81244 z" />
	
	
	<path
   id="Shape-2-73"
   style="fill:none;stroke:#ff0000;stroke-width:2;stroke-linejoin:round"
   d="m 1716.6,420.5 h 134.6 V 385 h -134 z" />
	<path
   id="Shape-2-72"
   style="fill:none;stroke:#ff0000;stroke-width:2;stroke-linejoin:round"
   d="m 1526.4,420.20001 h 185.8001 v -34.1 H 1526.4 Z" />
	<path
   id="Shape-2-02"
   style="fill:none;stroke:#ff0000;stroke-width:2;stroke-linejoin:round"
   d="m 1438.3,420.20001 h 83.4001 v -34.1 h -117.5 v 17.6 c 0,0 10.6999,3 17.3,7.20001 6.6,4.10001 11.3001,8.5 11.3001,8.5 z" />
	<path
   id="Shape-2-01"
   style="fill:none;stroke:#ff0000;stroke-width:2;stroke-linejoin:round"
   d="m 1182.7,450.20001 18.4,-9.1 h 82.8 c 0,0 23.7,-31.4 50.6,-38.29999 27,-6.9 33.6,-6.29999 39.6,-5.79999 6,0.5 25.3,5 25.3,5 v -15.39999 h -256.2 z" />
	<path
   id="Shape-2-10"
   style="fill:none;stroke:#ff0000;stroke-width:2;stroke-linejoin:round"
   d="m 1257.8,550.09998 -7.6999,4.09997 -39.9,-64.39999 7.4,-20.10001 c 0,0 25,8.29999 36.9,33.60001 11.7999,25.30002 3.2999,46.80002 3.2999,46.80002 z" />
	<path
   id="Shape-2-11"
   style="fill:none;stroke:#ff0000;stroke-width:2;stroke-linejoin:round"
   d="m 1437.6,597.40002 h 59.6 c 0,0 5.5999,-0.20001 7.5999,-2.29998 1.9001,-2.09998 1.6,-6 1.6,-6 v -56.79999 c 0,0 0,-2.5 -1.4,-4.29999 -1.4,-1.79999 -4.9,-2.5 -4.9,-2.5 h -64.6 c 0,0 -3.5,-0.20001 -5.6,1.90003 -2.1,2.10003 -2.1,6.59997 -2.1,6.59997 v 54.70001 c 0,0 0,5.79999 2.3001,7.59998 2.3,1.79999 7.5,1.09997 7.5,1.09997 z" />
	<path
   id="Shape-2-12"
   style="fill:none;stroke:#ff0000;stroke-width:2;stroke-linejoin:round"
   d="m 1529.1,597 h 64.6 c 0,0 5.4,0.40002 7.8,-1.20001 2.3,-1.59998 3.1,-6.20001 3.1,-6.20001 v -58.20002 c 0,0 0,-2.09997 -1.9,-3.90002 -1.9001,-1.79999 -4.9001,-2.29999 -4.9001,-2.29999 H 1527.2 c 0,0 -2.5,0.20001 -4.7,1.90003 -2.2,1.70001 -2.5,6 -2.5,6 V 590.5 c 0,0 1.2,3.90002 2.7,5.29999 1.5,1.40002 6.4,1.20001 6.4,1.20001 z" />
	<path
   id="Shape-2-13"
   style="fill:none;stroke:#ff0000;stroke-width:2;stroke-linejoin:round"
   d="m 1626.4,597.40002 h 71.4 c 0,0 3.5,1 4.9001,-0.59997 1.4,-1.59998 0.8,-4.29999 0.8,-4.29999 v -60.90002 c 0,0 -0.1999,-2.5 -1.1999,-3.70002 -1,-1.20001 -5.1,-2.90002 -5.1,-2.90002 h -70.6 c 0,0 -4.1,0.40002 -6.1999,2.29999 -2.1,1.89996 -2.3001,6.79999 -2.3001,6.79999 v 56 c 0,0 0.4,3.70001 2.3001,5.40002 1.8997,1.90002 5.9997,1.90002 5.9997,1.90002 z" />
	<path
   id="Shape-2-14"
   style="fill:none;stroke:#ff0000;stroke-width:2;stroke-linejoin:round"
   d="m 1722.2,597 h 43.8 c 0,0 5.1,-0.20001 6.2,-1.59998 1.0999,-1.39996 1.8,-4.90002 1.8,-4.90002 v -59.20001 c 0,0 0.4,-2.09998 -1.2,-3.70001 -1.5999,-1.59998 -4.6999,-2.5 -4.6999,-2.5 h -46.7 c 0,0 -3.6999,0.40002 -5.3,1.90002 -1.6001,1.5 -2.3001,5.79999 -2.3001,5.79999 v 56.59997 c 0,0 0.4001,4.29999 2.1,6 1.8,2.00006 6.3,1.60004 6.3,1.60004 z" />
	<path
   id="Shape-2-15"
   style="fill:none;stroke:#ff0000;stroke-width:2;stroke-linejoin:round"
   d="m 1795.5,597.40002 h 16.9 c 0,0 1.8001,0.20002 3.7,-0.40002 1.9,-0.59998 4.9,-3.29999 4.9,-3.29999 l 43,-42.79999 c 0,0 6.6,-6.79998 3.5,-16.20001 C 1864.4,525.29999 1852.9,525 1852.9,525 h -57.1999 c 0,0 -3.3001,0 -5.8001,2.09998 -2.5,2.09997 -1.9,5.79998 -1.9,5.79998 v 56.59998 c 0,0 0.8,4.5 2.3,6 1.5,1.70007 5.2,1.90008 5.2,1.90008 z" />
	<path
   id="Shape-2-31"
   style="fill:none;stroke:#ff0000;stroke-width:2;stroke-linejoin:round"
   d="m 1833.5,511.5 v -73.79999 h -38.3 c 0,0 -2.7,-1 -4.7,1 -2,2 -2.5,5.60001 -2.5,5.60001 v 59.39999 c 0,0 0.2,3.9 1.9,5.4 1.8001,1.6 5.3001,2.29998 5.3001,2.29998 H 1833.5 Z" />
	<path
   id="Shape-2-09"
   style="fill:none;stroke:#ff0000;stroke-width:2;stroke-linejoin:round"
   d="m 1843.8,511.29999 h 48.1 c 0,0 7.2,-0.60001 10.7,-4.29999 3.5,-3.70001 5.8,-9.70001 5.8,-11.29999 0,-1.59997 -0.4,-13.6 2.5,-26.29999 2.9,-12.70001 5.6,-16.89999 5.6,-21.20001 0,-4.30002 -2.9,-8.20001 -5.6,-9.29999 -2.6999,-1.20001 -6.6,-1.6 -6.6,-1.6 h -60.5 z" />
	<path
   id="Shape-2-08"
   style="fill:none;stroke:#ff0000;stroke-width:2;stroke-linejoin:round"
   d="m 1722.7,511.29999 h 44.8 c 0,0 3.3,-0.60001 4.9,-2.29999 1.6,-1.79999 1.8001,-5.10001 1.8001,-5.10001 v -60.1 c 0,0 0.1999,-1.9 -1.6,-3.9 C 1770.8,438 1766.8,437.60001 1766.8,437.60001 h -45 c 0,0 -3.9,0.20001 -5.5999,1.89999 -1.8001,1.79999 -2.1,6.39999 -2.1,6.39999 v 58.79999 c 0,0 0.8,4.10001 2.6999,5.4 1.9,1.29998 5.9,1.20001 5.9,1.20001 z" />
	<path
   id="Shape-2-07"
   style="fill:none;stroke:#ff0000;stroke-width:2;stroke-linejoin:round"
   d="m 1594.7,511.29999 h 101.4 c 0,0 4.1,-0.20001 5.3,-1.60001 1.2,-1.39999 2.3001,-5.6 2.3001,-5.6 v -60.5 c 0,0 -0.6,-2.70002 -1.9001,-4.10001 -1.4,-1.39999 -4.6999,-2.10001 -4.6999,-2.10001 H 1658.8 v 57 h -64 z" />
	<path
   id="Shape-2-06"
   style="fill:none;stroke:#ff0000;stroke-width:2;stroke-linejoin:round"
   d="m 1529.7,511.29999 h 62.0999 v -74 h -63.8 c 0,0 -2.7,-0.4 -5.3001,1.79999 -2.5,2.1 -2.6999,5.39999 -2.6999,5.39999 v 60.29999 c 0,0 0.6,3.29999 2.9,5.29999 2.3001,2.00003 6.8001,1.20004 6.8001,1.20004 z" />
	<path
   id="Shape-2-05"
   style="fill:none;stroke:#ff0000;stroke-width:2;stroke-linejoin:round"
   d="m 1435.7,511.5 h 62.9 c 0,0 3.6999,-0.39999 5.4,-1.89999 1.8,-1.60001 2.3,-5.29999 2.3,-5.29999 V 444 c 0,0 -0.4,-1.89999 -1.4,-3.5 -1,-1.60001 -4.9,-2.89999 -4.9,-2.89999 h -64.2 c 0,0 -3.9,-0.20002 -5.4,1.39999 -1.6,1.60001 -2.5,6 -2.5,6 v 59.39999 c 0,0 -0.4,2.70002 1.8001,5.10001 2.0999,2.20001 5.9999,2 5.9999,2 z" />
	<path
   id="Shape-3-105"
   style="fill:none;stroke:#ff0000;stroke-width:2;stroke-linejoin:round"
   d="m 305.20001,596.59998 h 48.20001 V 647 H 333 v -43.79999 h -27.79999 z" />
	<path
   id="Shape-3-106"
   style="fill:none;stroke:#ff0000;stroke-width:2;stroke-linejoin:round"
   d="m 360.435,613.85316 h 23.29999 L 385,668.5 H 354.39999 V 683 h 52.29999 v -26.40002 l -6.46502,-43.04686 v -11.59998 h -39.60001 z" />
	<path
   id="Shape-3-99"
   style="fill:none;stroke:#ff0000;stroke-width:2;stroke-linejoin:round"
   d="m 305.10001,593.59998 h 36.70001 v -35.20002 h -19.29999 v -6.09997 H 305 Z" />
	<path
   id="Shape-2-90"
   style="fill:none;stroke:#ff0000;stroke-width:2;stroke-linejoin:round"
   d="m 1406.2326,518.69411 7.1876,-35.07103 -11.5597,-2.36911 -7.2479,35.36494 z" />
	
		<circle
   id="Shape-2-68"
   style="fill:none;stroke:#ff0000;stroke-width:2;stroke-linejoin:round"
   cx="1387"
   cy="543.59998"
   r="19.400024" />
<rect
   style="fill:#ffffff;stroke:#ff0000;stroke-width:2;stroke-linejoin:round"
   id="Shape-1-04"
   width="59.77449"
   height="13.033536"
   x="406.73621"
   y="-365.33203"
   transform="scale(1,-1)" /><path
   style="fill:#ffffff;stroke:#ff0000;stroke-width:2;stroke-linejoin:round"
   d="m 1764.0217,688.0244 49.4375,52.13415 5.3932,-5.39319 -48.5387,-51.68471 z"
   id="Shape-2-29" /><path
   style="fill:#ffffff;stroke:#ff0000;stroke-width:2;stroke-linejoin:round"
   d="m 1778.1536,668.88794 39.9995,-39.55004 -5.3932,-5.84262 -39.9995,40.4489 z"
   id="Shape-2-28" /><path
   style="fill:#ffffff;stroke:#ff0000;stroke-width:2;stroke-linejoin:round"
   d="m 1833.439,624.8991 5.8982,-6.23653 c 0,0 20.4879,15.29704 26.0392,34.46747 4.3833,15.13666 3.5121,31.8264 -2.8353,46.91276 -3.1033,7.37569 -21.7117,27.22102 -21.7117,27.22102 l -6.1254,-5.84262 c 0,0 21.9295,-21.74491 23.4261,-33.20245 1.8531,-14.18749 0.8238,-27.02876 -2.5857,-35.67696 -3.1459,-7.97957 -22.1054,-27.64269 -22.1054,-27.64269 z"
   id="Shape-2-30" /></g>
<g
   id="floor"
   style="display:inline">
	<path
   id="floor-2"
   style="fill:none;stroke:#ff0000;stroke-width:2;stroke-linejoin:round"
   d="M 2535.8999,401.10001 C 2525.0999,381.5 2499.2,380.89999 2499.2,380.89999 L 2260,380.60001 c 0,0 -32.2,-0.60001 -47.5,-7.5 -15.3,-6.9 -24.3999,-11.70002 -24.3999,-11.70002 l -50.6001,-50.29998 -50,-5.70002 c 0,0 -50,-22.6 -99.6,-14.70001 -49.6999,7.79999 -74.6,22.29999 -99.6,41.20001 -25,18.90003 -45.4,48.4 -45.4,48.4 l -38.1999,0.89999 c 0,0 -0.6,-29.20001 -27.7,-29.5 -27.1,-0.29999 -32.5,29.5 -32.5,29.5 h -201.6 c 0,0 -3,-29.5 -26.1999,-29.5 -23.2,0 -34.3001,29.5 -34.3001,29.5 h -200.4 c 0,0 -2.1,-29.5 -30.1,-29.5 -28,0 -31.5999,28.9 -31.5999,28.9 l -87,0.5 44.3,71.79998 -124.8,84 -85.50003,-117.5 h -49.79999 l 10.90003,-18.79998 H 846.50018 V 353.89996 H 404.29999 l -0.10001,9.20002 h -34 l -0.79999,-7.9 h -52.29998 l -0.20002,18.70001 c 0,0 -12.6,5.10001 -18.20001,9.20002 -5.6,4.1 -14.20001,16.1 -14.20001,16.1 l -3.20001,13 -12.4,0.5 v 205.60004 h 37 V 693.60004 762 c 0,0 -2.6,8.90002 11.5,23 14,14 27.10001,20.20001 27.10001,20.20001 l 61.10001,-105.59997 h 16.89999 v -27.09998 l -0.10001,0.29999 -15.89999,-27.40003 V 497.70001 l -37,-59.20001 0.70001,-66.20001 34.20001,-0.20001 v 34.5 L 467,499.39996 l -0.20001,146.29999 39.5,26.79999 v 8.70001 l 134.29999,196.09998 c 0,0 2.09997,6.79998 7.70001,8.90002 5.5,2.09998 13.20001,-1.29999 13.20001,-1.29999 h 278.29999 l 8.5,11.90003 L 1064.5,814.70001 h 110.2 l 44.6999,-31.5 -142.1,-208.89996 126.9001,-83.60001 228.9,368.69998 h 214.5 l 1.4,-5.29998 h 159 v 5.79998 h 441.2 c 0,0 11.3,6.70002 20,5.90003 1.1999,-0.1 2.3999,-0.40003 3.5,-0.79999 8.6999,-3.59997 14.6999,-12 15.8999,-15.59997 1.1999,-3.59998 -0.8999,-12 -0.8999,-12 l 248,-396.60001 c -0.1,-9e-5 11,-20.20007 0.1999,-39.70007 z M 330.20001,645.29999 h -19.39999 l 0.29999,-40.40003 h 19.1 z m 510.70001,-99 L 809,530.20001 l 36,-72.39999 32.40002,15.29999 z M 1383.4,466.10001 c 0,0 -8.6,20 -25.1,39.70001 -16.5,19.69998 -25.6999,21.89999 -25.6999,21.89999 l -0.6,12.09998 -45.4,-0.59998 v -22.59997 c 0,0 11.4,-22.9 23.5,-37.79999 12.1,-14.9 27,-22.60001 27,-22.60001 l -0.3001,-4.39999 46.7,0.29999 v 13.99997 z m 471,209.69998 c -0.9,27.40002 -26.1,45.40002 -26.1,45.40002 l -47.5999,-46.29999 46.3,-48.09997 c 2.0082,1.5812 28.2999,21.59997 27.3999,48.99994 z m 45.4,-41.39997 c 0,0 -11.6999,-13.90002 -13,-27.90002 -1.3,-14 8.5,-34.20001 8.5,-34.20001 l 45.8001,-44.90003 c 0,0 9.9,15.29999 14.8,20.70002 4.9001,5.40002 18.9001,11.70001 18.9001,11.70001 z m 110.6,-94 c -26.6999,0 -48.3,-21.59997 -48.3,-48.29998 0,-26.70002 21.6,-48.29999 48.3,-48.29999 26.7001,0 48.3,21.6 48.3,48.29999 0,26.70001 -21.6,48.29998 -48.3,48.29998 z M 2079.5,456 v 0 c 0,0 -4.8999,-9.39999 -12.6001,-17.5 -7.6001,-8.10001 -22.5,-15.29999 -22.5,-15.29999 l 73.3001,-71.5 c 0,0 11.1999,2.70001 20.6999,11.20001 9.3999,8.5 11.7,22.5 11.7,22.5 z" />
</g>

<g
   id="texts"
   style="display:inline"
   transform="translate(-1.1105346e-6,-2.0344543e-5)">
	
		<circle
   id="entrance-3"
   style="fill:#ffffff;stroke:#000000;stroke-miterlimit:10"
   cx="2261.165"
   cy="249.58064"
   r="6.1276598" />
	
		<circle
   id="entrance-4"
   style="fill:#ffffff;stroke:#000000;stroke-miterlimit:10"
   cx="2479.624"
   cy="278.76917"
   r="6.1276598" />
	
		<circle
   id="entrance-5"
   style="fill:#ffffff;stroke:#000000;stroke-miterlimit:10"
   cx="1717.1199"
   cy="1029.2371"
   r="6.1276598" />
	
		<circle
   id="entrance-2"
   style="fill:#ffffff;stroke:#000000;stroke-miterlimit:10"
   cx="1383.6074"
   cy="278.76917"
   r="6.1276598" />
	
		<circle
   id="entrance-1"
   style="fill:#ffffff;stroke:#000000;stroke-miterlimit:10"
   cx="917.15497"
   cy="278.76917"
   r="6.1276598" />
	
		<circle
   id="entrance-7"
   style="fill:#ffffff;stroke:#000000;stroke-miterlimit:10"
   cx="283.47293"
   cy="278.76917"
   r="6.1276598" />
	
		<circle
   id="entrance-6"
   style="fill:#ffffff;stroke:#000000;stroke-miterlimit:10"
   cx="1106.4503"
   cy="1029.2371"
   r="6.1276598" />
</g><g
   inkscape:groupmode="layer"
   id="layer3"
   inkscape:label="terminals"><circle
     style="enable-background:new 0 0 2600 1200;fill:#ffffff;stroke:#050000;stroke-width:1;stroke-linejoin:round;stroke-dasharray:none;stroke-opacity:1"
     id="t-12"
     cx="840.43835"
     cy="569.88013"
     r="5" /><circle
     style="fill:#ffffff;stroke:#050000;stroke-width:1;stroke-linejoin:round;stroke-dasharray:none;stroke-opacity:1"
     id="t-6"
     cx="1966.0415"
     cy="452.57828"
     r="5" /></g></svg>
