<?xml version="1.0"?>
<svg  height="670" version="1.2" viewbox="0 0 1000 670" width="1000" xmlns="http://www.w3.org/2000/svg">
<g id="interactive"><rect x="1089.499878" y="701.555542" width="54.595596" height="29.888899" id="SvgjsRect1009" fill="#ff0066" opacity="0.5"></rect><rect x="1144.095459" y="701.555542" width="25.111122" height="29.888899" id="SvgjsRect1010" fill="#ff0066" opacity="0.5"></rect><rect x="1089.499878" y="671.666992" width="25.112125" height="29.888504" id="SvgjsRect1011" fill="#ff0066" opacity="0.5"></rect><rect x="1144.094971" y="671.666016" width="25.112125" height="29.890095" id="SvgjsRect1012" fill="#ff0066" opacity="0.5"></rect><rect x="1114.611938" y="671.666016" width="29.482965" height="29.890095" id="SvgjsRect1013" fill="#ff0066" opacity="0.5"></rect><rect x="997.8731689453125" y="671.6666259765625" width="81.071014" height="29.888899" id="SvgjsRect1014" fill="#ff0066" opacity="0.5"></rect><rect x="956.1992797851562" y="671.6666259765625" width="30.949327" height="14.123199" id="s-K0_4" fill="#ff0066" opacity="0.5"></rect><rect x="997.873169" y="701.555542" width="81.071014" height="29.888899" id="SvgjsRect1016" fill="#ff0066" opacity="0.5"></rect><rect x="961.2862548828125" y="718.1032104492188" width="20.775414" height="14.123199" id="s-K0_5" fill="#ff0066" opacity="0.5"></rect><polygon points="826.7345589179688,627.3333132539062 801.7345590234376,627.3333132421876 776.7345590234376,627.3333132421876 769.8568729179688,627.3333132539062 769.7890634179688,609.2111208593751 769.6954965234376,584.2113039648439 769.6510009179688,572.3268432539062 756.5358285546876,572.4108889257814 752.3175659179688,572.4379272539063 752.3176278710938,551.6562502539064 752.3176278710938,526.6562502539064 752.3176879179688,507.88238525390625 758.5438241601563,507.88238550781256 783.5438241601563,507.88238550781256 808.5438241601563,507.88238550781256 826.7345579179688,507.88238525390625 826.7345579179688,627.3333132539062" id="s-037" fill="#ff0066" opacity="0.5"></polygon><rect x="997.8731689453125" y="507.88238525390625" width="56.4445" height="119.450897" id="s-033" fill="#ff0066" opacity="0.5"></rect><rect x="1224.095458984375" y="543.2156982421875" width="58.083824" height="84.117599" id="s-030" fill="#ff0066" opacity="0.5"></rect><polygon points="1281.9843745,543.2156979726562 1281.9843745,471.44439697265625 1278.7557368046876,471.44772336132814 1253.7557368046876,471.4735412324219 1228.7557368046876,471.4993285859375 1203.7557368046876,471.52511593945314 1178.7557368046876,471.5509338105469 1174.3176265,471.55551197265623 1174.4415278203126,492.11703488476564 1174.5399165,508.44439697265625 1165.8675532109376,508.4443969453125 1140.8675532109376,508.4443969453125 1115.8675532109376,508.4443969453125 1090.8675532109376,508.4443969453125 1065.8675532109376,508.4443969453125 1054.8729245,508.44439697265625 1054.8336176640626,522.44964596875 1054.763427234375,547.4495849335938 1054.6932368046876,572.4495238984375 1054.623046375,597.449401828125 1054.552733875,622.4492797578125 1054.5390625,627.3333129726562 1223.9273685,627.3333129726562 1223.9273685,543.2156979726562 1281.9843745,543.2156979726562" id="s-031" fill="#ff0066" opacity="0.5"></polygon><rect x="1170.095458984375" y="775.7777099609375" width="54.222198" height="68.775002" id="s-027" fill="#ff0066" opacity="0.5"></rect><polygon points="1224.317626984375,776.1111450195312 1224.317626984375,844.8861080195312 1170.095458984375,844.8861080195312 1170.095458984375,885.6666870195312 1181.3177490078126,885.66668703125 1206.3177490078126,885.66668703125 1231.3177490078126,885.66668703125 1254.323607984375,885.6666870195312 1254.808348984375,841.1666870195312 1281.206541984375,841.0042110195312 1281.206542953125,834.9113769726563 1281.206542953125,809.9113769726563 1281.206542953125,784.9113769726563 1281.206541984375,776.1111450195312 1265.006835921875,776.1111450390625 1240.006835921875,776.1111450390625 1224.317626984375,776.1111450195312" id="s-028" fill="#ff0066" opacity="0.5"></polygon><rect x="267.4288024902344" y="629.66943359375" width="110.000008" height="43.4417" id="s-010" fill="#ff0066" opacity="0.5"></rect><rect x="1054.484375" y="775.7777099609375" width="42.055519" height="68.222298" id="s-025" fill="#ff0066" opacity="0.5"></rect><polygon points="1123.791626,844.1835939609375 1123.7916259765625,869.1835937109375 1123.791626,885.6666869609375 1132.30859375,885.6666869726563 1157.30859375,885.6666869726563 1169.873169,885.6666869609375 1169.8731689453125,873.231323203125 1169.8731689453125,848.231323203125 1169.8731689453125,823.231323203125 1169.8731689453125,798.231323203125 1169.873169,775.7777099609375 1106.539917,775.7777099609375 1106.5399169921875,789.9908446875 1106.5399169921875,814.9908446875 1106.5399169921875,839.9908446875 1106.539917,844.4969479609375 1123.791626,844.1835939609375" id="s-026" fill="#ff0066" opacity="0.5"></polygon><rect x="976.0953979492188" y="561.2210083007812" width="21.555799" height="66.112274" id="s-033_1" fill="#ff0066" opacity="0.5"></rect><rect x="544.5399169921875" y="672.3333129882812" width="117.111092" height="59.777821" id="s-045" fill="#ff0066" opacity="0.5"></rect><rect x="603.8731689453125" y="775.7777099609375" width="58.065598" height="68.222298" id="s-017" fill="#ff0066" opacity="0.5"></rect><rect x="717.8731689453125" y="775.7777099609375" width="53.333397" height="85.039398" id="s-019" fill="#ff0066" opacity="0.5"></rect><rect x="941.2066040039062" y="775.7777099609375" width="56.888897" height="108.666695" id="s-023" fill="#ff0066" opacity="0.5"></rect><rect x="997.6510009765625" y="775.7777099609375" width="56.88892" height="118.444496" id="s-024" fill="#ff0066" opacity="0.5"></rect><rect x="825.8731689453125" y="775.7777099609375" width="59.111099" height="34.44445" id="s-021" fill="#ff0066" opacity="0.5"></rect><polygon points="941.5399169726562,810.2221679960937 825.8731689726562,810.2221679960937 825.8731689726562,775.7777709960938 771.4287719726562,775.7777709960938 771.4287719726562,884.4443969960937 941.8731689726562,884.4443969960937" id="s-020" fill="#ff0066" opacity="0.5"></polygon><rect x="884.9843139648438" y="775.7777099609375" width="27.333284" height="34.44445" id="s-022" fill="#ff0066" opacity="0.5"></rect><rect x="912.3175659179688" y="775.7777709960938" width="28.333399" height="34.444401" id="s-022_1" fill="#ff0066" opacity="0.5"></rect><polygon points="545.4287720039063,775.77783203125 486.70660400390625,775.77783203125 486.70660400781253,792.05566409375 486.70660400781253,817.05566409375 486.70660400781253,842.05566409375 486.70660400390625,843.79382303125 507.09539800390627,843.77783203125 507.11178589257815,846.6508179023438 507.2404785195313,871.6505127265625 507.31768800390626,885.77783203125 518.190124515625,885.8028564765625 543.1900634804688,885.86035159375 568.1900024453125,885.9179077460938 593.189880375,885.9754028632813 603.8732910039063,886.00000003125 603.8732910039063,810.12030003125 545.4287720039063,810.12030003125 545.4287720039063,775.77783203125" id="s-015" fill="#ff0066" opacity="0.5"></polygon><rect x="545.0955200195312" y="775.9443969726562" width="16.216146" height="34.342598" id="s-016_2" fill="#ff0066" opacity="0.5"></rect><rect x="561.3116455078125" y="775.9443969726562" width="16.216146" height="34.342598" id="s-016" fill="#ff0066" opacity="0.5"></rect><rect x="577.5277709960938" y="775.9443969726562" width="26.205841" height="34.342598" id="s-016_1" fill="#ff0066" opacity="0.5"></rect><rect x="604.2066040039062" y="605.6666259765625" width="58.666599" height="21.666676" id="s-040" fill="#ff0066" opacity="0.5"></rect><rect x="675.5399169921875" y="605.2388131057161" width="41.89349" height="21.833277" id="s-039" fill="#ff0066" opacity="0.5"></rect><rect x="725.7066040039062" y="585" width="37.166599" height="42" id="s-038" fill="#ff0066" opacity="0.5"></rect><rect x="489.20660400390625" y="573.2156372070312" width="56" height="54.117676" id="s-042" fill="#ff0066" opacity="0.5"></rect><polygon points="415.6510009765625,507 415.6510009765625,580.001892 424.8974909765625,580.001892 424.8974909765625,627 489.2066039765625,627 489.2066039765625,573 489.2066039765625,563.333313 489.2066039765625,507" id="s-043" fill="#ff0066" opacity="0.5"></polygon><rect x="545.2066040039062" y="573.2156372070312" width="59" height="54.117676" id="s-041" fill="#ff0066" opacity="0.5"></rect><rect x="673.4287719726562" y="775.7777099609375" width="44.444397" height="68.222298" id="s-018" fill="#ff0066" opacity="0.5"></rect><polygon points="1485.5399170078126,541.6666259882812 1485.4213867265626,516.666931140625 1485.3029785234376,491.66720579882815 1485.2065430078126,471.33331298828125 1480.540649421875,471.3409423710938 1455.540649421875,471.3817443730469 1430.5407714921876,471.422546375 1405.5407714921876,471.46334837695315 1380.5407714921876,471.50411986132815 1355.5407714921876,471.5449218632813 1330.5408935625,471.5857238652344 1305.5408935625,471.6265258671875 1280.9288330078125,471.66668698828124 1280.928833015625,472.0545654179688 1280.928833015625,497.0545654179688 1280.928833015625,522.0545654179688 1280.928833015625,547.0545654179688 1280.928833015625,572.0545654179688 1280.928833015625,597.0545654179688 1280.928833015625,622.0545654179688 1280.928833015625,647.0545654179688 1280.928833015625,672.0545654179688 1280.928833015625,697.0545654179688 1280.928833015625,722.0545654179688 1280.928833015625,747.0545654179688 1280.928833015625,772.0545654179688 1280.928833015625,797.0545654179688 1280.928833015625,822.0545654179688 1280.9288330078125,840.5527339882813 1287.4306640703126,840.5447997929688 1312.4306640703126,840.5142211796875 1337.4306640703126,840.4837036015625 1362.4306640703126,840.4531860234375 1387.430542,840.4226074101563 1412.430542,840.3920898320313 1437.430542,840.3615722539063 1460.5399170078126,840.3333129882812 1460.545532234375,838.4426879765625 1460.61950684375,813.442810046875 1460.693481453125,788.4429321171875 1460.7674560625,763.4429931523438 1460.841430671875,738.4431152226563 1460.8732910078127,727.6666259882812 1475.0966796953126,727.6209106328125 1500.096557625,727.5405273320313 1525.0964355546876,727.46014403125 1550.096313484375,727.3797607304688 1564.5399170078126,727.3333129882812 1564.5778808671876,716.7770995976563 1564.6678466875,691.7772216679688 1564.7576904375,666.7774047734375 1564.8476562578126,641.77752684375 1564.937622078125,616.7777099492188 1565.027465828125,591.7778930546875 1565.1174316484376,566.778015125 1565.2065430078126,541.9999999882813 1564.98474121875,541.9990844609375 1539.984985359375,541.894470203125 1514.9852295,541.7898559453125 1489.985473640625,541.6852416875 1485.5399170078126,541.6666259882812 1442.1793210078126,627.6666259882812 1384.0954590078127,627.6666259882812 1384.0954590078127,538.9999999882813 1442.1793210078126,538.9999999882813 1442.1793210078126,627.6666259882812" id="s-029" fill="#ff0066" opacity="0.5"></polygon><polygon points="885.6510009921875,547.9992069570312 910.65100096875,548.0317992734376 935.6508788984376,548.0949096250001 960.6508178632813,548.1589965390626 985.650756828125,548.2127685117189 997.9982909921875,548.2222899570313 997.9821166914063,535.5699462460939 997.8634033125,510.5702819394532 997.8731689921875,507.88238495703126 975.5610961835938,507.8629149960938 950.56115721875,507.81399531835945 925.5612182539063,507.7520446347657 900.5612792890626,507.6900634335938 875.561401359375,507.62811275000007 850.5614623945313,507.57794185156257 826.5399169921875,507.55548095703125 826.5399169921875,627.3333129570312 832.7405395429688,627.3333129453126 857.7405395429688,627.3332519101564 881.3598019921875,627.3332519570313 881.3598019921875,627.3333129570312 966.3176879921875,627.3333129570312 966.3176879921875,597.2691649570313 926.6358029921876,597.2691649570313 926.6358029921876,561.2210079570314 885.6224359921875,561.2210079570314 885.6510009921875,547.9992069570312" id="s-035" fill="#ff0066" opacity="0.5"></polygon><polygon points="377.45477222851565,675.246337890625 377.45477222851565,776.1666258906249 479.23141422851563,776.1666258906249 479.23141422851563,843.921020890625 417.7772822285156,843.921020890625 417.7772822285156,895.8406978906249 326.22167922851565,895.8406978906249 326.22167922851565,838.203917890625 269.5550842285156,838.203917890625 269.5550842285156,675.246337890625" id="s-013" fill="#ff0066" opacity="0.5"></polygon><rect x="675.118408203125" y="711.5724487304688" width="19.84198" height="19.842987" id="s-K0_151" fill="#ff0066" opacity="0.5"></rect><rect x="918.935302734375" y="718.5648193359375" width="19.84198" height="11.800003" id="s-K0_5XXXX" fill="#ff0066" opacity="0.5"></rect>

	<rect x="1197.199462890625" y="685.7937622070312" width="17.000921" height="31.523544" id="s-K0_3" fill="#ff0066" opacity="0.5"></rect><rect width="29.01118211062146" height="14.211391700068585" id="s-044" data-link="" fill="#aaaaaa" opacity="0.5" x="441.44756575314807" y="672.7357709281052"></rect></g>

</svg>